%TF.GenerationSoftware,KiCad,Pcbnew,(6.0.0)*%
%TF.CreationDate,2022-01-25T19:39:59-05:00*%
%TF.ProjectId,PID_electronics,5049445f-656c-4656-9374-726f6e696373,rev?*%
%TF.SameCoordinates,Original*%
%TF.FileFunction,Soldermask,Bot*%
%TF.FilePolarity,Negative*%
%FSLAX46Y46*%
G04 Gerber Fmt 4.6, Leading zero omitted, Abs format (unit mm)*
G04 Created by KiCad (PCBNEW (6.0.0)) date 2022-01-25 19:39:59*
%MOMM*%
%LPD*%
G01*
G04 APERTURE LIST*
%ADD10R,1.600000X2.400000*%
%ADD11O,1.600000X2.400000*%
%ADD12C,1.600000*%
%ADD13O,1.600000X1.600000*%
%ADD14C,1.803400*%
%ADD15R,1.050000X1.500000*%
%ADD16O,1.050000X1.500000*%
G04 APERTURE END LIST*
D10*
%TO.C,U1*%
X130800000Y-93985000D03*
D11*
X128260000Y-93985000D03*
X125720000Y-93985000D03*
X123180000Y-93985000D03*
X123180000Y-104145000D03*
X125720000Y-104145000D03*
X128260000Y-104145000D03*
X130800000Y-104145000D03*
%TD*%
D12*
%TO.C,R3*%
X121869200Y-78613000D03*
D13*
X121869200Y-88773000D03*
%TD*%
D12*
%TO.C,R9*%
X110312200Y-88036400D03*
D13*
X100152200Y-88036400D03*
%TD*%
D12*
%TO.C,R8*%
X134950200Y-82423000D03*
D13*
X134950200Y-92583000D03*
%TD*%
D12*
%TO.C,R7*%
X134874000Y-79806800D03*
D13*
X145034000Y-79806800D03*
%TD*%
D12*
%TO.C,R6*%
X143941800Y-98882200D03*
D13*
X143941800Y-88722200D03*
%TD*%
D12*
%TO.C,R4*%
X109016800Y-79044800D03*
D13*
X98856800Y-79044800D03*
%TD*%
D12*
%TO.C,R2*%
X129540000Y-78765400D03*
D13*
X129540000Y-88925400D03*
%TD*%
D12*
%TO.C,R1*%
X111556800Y-75666600D03*
D13*
X121716800Y-75666600D03*
%TD*%
D12*
%TO.C,C1*%
X137160000Y-102810000D03*
D13*
X137160000Y-95310000D03*
%TD*%
D14*
%TO.C,J2*%
X152900000Y-79853500D03*
X152900000Y-84853500D03*
X152900000Y-89853500D03*
%TD*%
D15*
%TO.C,Q3*%
X114300000Y-83820000D03*
D16*
X115570000Y-83820000D03*
X116840000Y-83820000D03*
%TD*%
D14*
%TO.C,J1*%
X90466800Y-96326700D03*
X90466800Y-91326700D03*
X90466800Y-86326699D03*
X90466800Y-81326699D03*
X90466800Y-76326699D03*
%TD*%
D12*
%TO.C,C3*%
X130724600Y-109448600D03*
D13*
X123224600Y-109448600D03*
%TD*%
D12*
%TO.C,C2*%
X111921600Y-93954600D03*
D13*
X119421600Y-93954600D03*
%TD*%
M02*
