%TF.GenerationSoftware,KiCad,Pcbnew,(6.0.0)*%
%TF.CreationDate,2022-02-03T11:31:48-05:00*%
%TF.ProjectId,PID_electronics,5049445f-656c-4656-9374-726f6e696373,rev?*%
%TF.SameCoordinates,Original*%
%TF.FileFunction,Legend,Top*%
%TF.FilePolarity,Positive*%
%FSLAX46Y46*%
G04 Gerber Fmt 4.6, Leading zero omitted, Abs format (unit mm)*
G04 Created by KiCad (PCBNEW (6.0.0)) date 2022-02-03 11:31:48*
%MOMM*%
%LPD*%
G01*
G04 APERTURE LIST*
%ADD10C,0.187500*%
%ADD11C,0.150000*%
%ADD12C,0.120000*%
G04 APERTURE END LIST*
D10*
X157742000Y-91498767D02*
X157694380Y-91564244D01*
X157694380Y-91671386D01*
X157742000Y-91784482D01*
X157837238Y-91867815D01*
X157932476Y-91915434D01*
X158122952Y-91974958D01*
X158265809Y-91992815D01*
X158456285Y-91980910D01*
X158551523Y-91957101D01*
X158646761Y-91897577D01*
X158694380Y-91796386D01*
X158694380Y-91724958D01*
X158646761Y-91611863D01*
X158599142Y-91570196D01*
X158265809Y-91528529D01*
X158265809Y-91671386D01*
X158694380Y-91260672D02*
X157694380Y-91135672D01*
X158694380Y-90832101D01*
X157694380Y-90707101D01*
X158694380Y-90474958D02*
X157694380Y-90349958D01*
X157694380Y-90171386D01*
X157742000Y-90070196D01*
X157837238Y-90010672D01*
X157932476Y-89986863D01*
X158122952Y-89974958D01*
X158265809Y-89992815D01*
X158456285Y-90052339D01*
X158551523Y-90099958D01*
X158646761Y-90183291D01*
X158694380Y-90296386D01*
X158694380Y-90474958D01*
X158694380Y-89296386D02*
X158218190Y-89486863D01*
X158694380Y-89724958D02*
X157694380Y-89599958D01*
X157694380Y-89314244D01*
X157742000Y-89248767D01*
X157789619Y-89219005D01*
X157884857Y-89195196D01*
X158027714Y-89213053D01*
X158122952Y-89260672D01*
X158170571Y-89302339D01*
X158218190Y-89379720D01*
X158218190Y-89665434D01*
X158170571Y-88909482D02*
X158170571Y-88659482D01*
X158694380Y-88617815D02*
X158694380Y-88974958D01*
X157694380Y-88849958D01*
X157694380Y-88492815D01*
X158170571Y-87980910D02*
X158170571Y-88230910D01*
X158694380Y-88296386D02*
X157694380Y-88171386D01*
X157694380Y-87814244D01*
X88514180Y-83715329D02*
X87514180Y-83590329D01*
X87514180Y-83304615D01*
X87561800Y-83239139D01*
X87609419Y-83209377D01*
X87704657Y-83185567D01*
X87847514Y-83203425D01*
X87942752Y-83251044D01*
X87990371Y-83292710D01*
X88037990Y-83370091D01*
X88037990Y-83655805D01*
X87514180Y-82697472D02*
X87514180Y-82554615D01*
X87561800Y-82489139D01*
X87657038Y-82429615D01*
X87847514Y-82417710D01*
X88180847Y-82459377D01*
X88371323Y-82518901D01*
X88466561Y-82602234D01*
X88514180Y-82679615D01*
X88514180Y-82822472D01*
X88466561Y-82887948D01*
X88371323Y-82947472D01*
X88180847Y-82959377D01*
X87847514Y-82917710D01*
X87657038Y-82858186D01*
X87561800Y-82774853D01*
X87514180Y-82697472D01*
X88514180Y-81822472D02*
X88514180Y-82179615D01*
X87514180Y-82054615D01*
X88133228Y-99183882D02*
X88133228Y-98612453D01*
X88514180Y-98945786D02*
X87752276Y-98850548D01*
X88514180Y-97910072D02*
X88514180Y-98338644D01*
X88514180Y-98124358D02*
X87514180Y-97999358D01*
X87657038Y-98088644D01*
X87752276Y-98171977D01*
X87799895Y-98249358D01*
X87514180Y-97106501D02*
X87514180Y-97463644D01*
X87990371Y-97558882D01*
X87942752Y-97517215D01*
X87895133Y-97439834D01*
X87895133Y-97261263D01*
X87942752Y-97195786D01*
X87990371Y-97166025D01*
X88085609Y-97142215D01*
X88323704Y-97171977D01*
X88418942Y-97219596D01*
X88466561Y-97261263D01*
X88514180Y-97338644D01*
X88514180Y-97517215D01*
X88466561Y-97582691D01*
X88418942Y-97612453D01*
X87514180Y-96856501D02*
X88514180Y-96731501D01*
X87514180Y-96356501D01*
X87561800Y-89390567D02*
X87514180Y-89456044D01*
X87514180Y-89563186D01*
X87561800Y-89676282D01*
X87657038Y-89759615D01*
X87752276Y-89807234D01*
X87942752Y-89866758D01*
X88085609Y-89884615D01*
X88276085Y-89872710D01*
X88371323Y-89848901D01*
X88466561Y-89789377D01*
X88514180Y-89688186D01*
X88514180Y-89616758D01*
X88466561Y-89503663D01*
X88418942Y-89461996D01*
X88085609Y-89420329D01*
X88085609Y-89563186D01*
X88514180Y-89152472D02*
X87514180Y-89027472D01*
X88514180Y-88723901D01*
X87514180Y-88598901D01*
X88514180Y-88366758D02*
X87514180Y-88241758D01*
X87514180Y-88063186D01*
X87561800Y-87961996D01*
X87657038Y-87902472D01*
X87752276Y-87878663D01*
X87942752Y-87866758D01*
X88085609Y-87884615D01*
X88276085Y-87944139D01*
X88371323Y-87991758D01*
X88466561Y-88075091D01*
X88514180Y-88188186D01*
X88514180Y-88366758D01*
X88514180Y-87188186D02*
X88037990Y-87378663D01*
X88514180Y-87616758D02*
X87514180Y-87491758D01*
X87514180Y-87206044D01*
X87561800Y-87140567D01*
X87609419Y-87110805D01*
X87704657Y-87086996D01*
X87847514Y-87104853D01*
X87942752Y-87152472D01*
X87990371Y-87194139D01*
X88037990Y-87271520D01*
X88037990Y-87557234D01*
X87990371Y-86801282D02*
X87990371Y-86551282D01*
X88514180Y-86509615D02*
X88514180Y-86866758D01*
X87514180Y-86741758D01*
X87514180Y-86384615D01*
X87990371Y-85872710D02*
X87990371Y-86122710D01*
X88514180Y-86188186D02*
X87514180Y-86063186D01*
X87514180Y-85706044D01*
X157694380Y-85555672D02*
X157694380Y-85412815D01*
X157742000Y-85347339D01*
X157837238Y-85287815D01*
X158027714Y-85275910D01*
X158361047Y-85317577D01*
X158551523Y-85377101D01*
X158646761Y-85460434D01*
X158694380Y-85537815D01*
X158694380Y-85680672D01*
X158646761Y-85746148D01*
X158551523Y-85805672D01*
X158361047Y-85817577D01*
X158027714Y-85775910D01*
X157837238Y-85716386D01*
X157742000Y-85633053D01*
X157694380Y-85555672D01*
X157694380Y-84912815D02*
X158503904Y-85014005D01*
X158599142Y-84990196D01*
X158646761Y-84960434D01*
X158694380Y-84894958D01*
X158694380Y-84752101D01*
X158646761Y-84674720D01*
X158599142Y-84633053D01*
X158503904Y-84585434D01*
X157694380Y-84484244D01*
X157694380Y-84234244D02*
X157694380Y-83805672D01*
X158694380Y-84144958D02*
X157694380Y-84019958D01*
X88133228Y-94154682D02*
X88133228Y-93583253D01*
X88514180Y-92880872D02*
X88514180Y-93309444D01*
X88514180Y-93095158D02*
X87514180Y-92970158D01*
X87657038Y-93059444D01*
X87752276Y-93142777D01*
X87799895Y-93220158D01*
X87514180Y-92077301D02*
X87514180Y-92434444D01*
X87990371Y-92529682D01*
X87942752Y-92488015D01*
X87895133Y-92410634D01*
X87895133Y-92232063D01*
X87942752Y-92166586D01*
X87990371Y-92136825D01*
X88085609Y-92113015D01*
X88323704Y-92142777D01*
X88418942Y-92190396D01*
X88466561Y-92232063D01*
X88514180Y-92309444D01*
X88514180Y-92488015D01*
X88466561Y-92553491D01*
X88418942Y-92583253D01*
X87514180Y-91827301D02*
X88514180Y-91702301D01*
X87514180Y-91327301D01*
X158170571Y-80853853D02*
X158170571Y-81103853D01*
X158694380Y-81169329D02*
X157694380Y-81044329D01*
X157694380Y-80687186D01*
X158694380Y-80526472D02*
X157694380Y-80401472D01*
X157694380Y-80222901D01*
X157742000Y-80121710D01*
X157837238Y-80062186D01*
X157932476Y-80038377D01*
X158122952Y-80026472D01*
X158265809Y-80044329D01*
X158456285Y-80103853D01*
X158551523Y-80151472D01*
X158646761Y-80234805D01*
X158694380Y-80347901D01*
X158694380Y-80526472D01*
X158170571Y-79460996D02*
X158218190Y-79359805D01*
X158265809Y-79330044D01*
X158361047Y-79306234D01*
X158503904Y-79324091D01*
X158599142Y-79371710D01*
X158646761Y-79413377D01*
X158694380Y-79490758D01*
X158694380Y-79776472D01*
X157694380Y-79651472D01*
X157694380Y-79401472D01*
X157742000Y-79335996D01*
X157789619Y-79306234D01*
X157884857Y-79282425D01*
X157980095Y-79294329D01*
X158075333Y-79341948D01*
X158122952Y-79383615D01*
X158170571Y-79460996D01*
X158170571Y-79710996D01*
X158694380Y-79026472D02*
X157694380Y-78901472D01*
X158694380Y-78597901D02*
X158122952Y-78847901D01*
X157694380Y-78472901D02*
X158265809Y-78972901D01*
X88466561Y-79022234D02*
X88514180Y-78921044D01*
X88514180Y-78742472D01*
X88466561Y-78665091D01*
X88418942Y-78623425D01*
X88323704Y-78575805D01*
X88228466Y-78563901D01*
X88133228Y-78587710D01*
X88085609Y-78617472D01*
X88037990Y-78682948D01*
X87990371Y-78819853D01*
X87942752Y-78885329D01*
X87895133Y-78915091D01*
X87799895Y-78938901D01*
X87704657Y-78926996D01*
X87609419Y-78879377D01*
X87561800Y-78837710D01*
X87514180Y-78760329D01*
X87514180Y-78581758D01*
X87561800Y-78480567D01*
X87561800Y-77766282D02*
X87514180Y-77831758D01*
X87514180Y-77938901D01*
X87561800Y-78051996D01*
X87657038Y-78135329D01*
X87752276Y-78182948D01*
X87942752Y-78242472D01*
X88085609Y-78260329D01*
X88276085Y-78248425D01*
X88371323Y-78224615D01*
X88466561Y-78165091D01*
X88514180Y-78063901D01*
X88514180Y-77992472D01*
X88466561Y-77879377D01*
X88418942Y-77837710D01*
X88085609Y-77796044D01*
X88085609Y-77938901D01*
X88514180Y-77528186D02*
X87514180Y-77403186D01*
X88514180Y-77099615D01*
X87514180Y-76974615D01*
X88514180Y-76385329D02*
X88514180Y-76742472D01*
X87514180Y-76617472D01*
D11*
X99380952Y-72097380D02*
X99380952Y-71097380D01*
X99761904Y-71097380D01*
X99857142Y-71145000D01*
X99904761Y-71192619D01*
X99952380Y-71287857D01*
X99952380Y-71430714D01*
X99904761Y-71525952D01*
X99857142Y-71573571D01*
X99761904Y-71621190D01*
X99380952Y-71621190D01*
X100380952Y-72097380D02*
X100380952Y-71097380D01*
X100857142Y-72097380D02*
X100857142Y-71097380D01*
X101095238Y-71097380D01*
X101238095Y-71145000D01*
X101333333Y-71240238D01*
X101380952Y-71335476D01*
X101428571Y-71525952D01*
X101428571Y-71668809D01*
X101380952Y-71859285D01*
X101333333Y-71954523D01*
X101238095Y-72049761D01*
X101095238Y-72097380D01*
X100857142Y-72097380D01*
X103095238Y-72097380D02*
X102619047Y-72097380D01*
X102619047Y-71097380D01*
X103857142Y-72097380D02*
X103857142Y-71573571D01*
X103809523Y-71478333D01*
X103714285Y-71430714D01*
X103523809Y-71430714D01*
X103428571Y-71478333D01*
X103857142Y-72049761D02*
X103761904Y-72097380D01*
X103523809Y-72097380D01*
X103428571Y-72049761D01*
X103380952Y-71954523D01*
X103380952Y-71859285D01*
X103428571Y-71764047D01*
X103523809Y-71716428D01*
X103761904Y-71716428D01*
X103857142Y-71668809D01*
X104333333Y-72097380D02*
X104333333Y-71097380D01*
X104333333Y-71478333D02*
X104428571Y-71430714D01*
X104619047Y-71430714D01*
X104714285Y-71478333D01*
X104761904Y-71525952D01*
X104809523Y-71621190D01*
X104809523Y-71906904D01*
X104761904Y-72002142D01*
X104714285Y-72049761D01*
X104619047Y-72097380D01*
X104428571Y-72097380D01*
X104333333Y-72049761D01*
X105999999Y-71716428D02*
X106761904Y-71716428D01*
X108000000Y-72097380D02*
X108000000Y-71097380D01*
X108380952Y-71097380D01*
X108476190Y-71145000D01*
X108523809Y-71192619D01*
X108571428Y-71287857D01*
X108571428Y-71430714D01*
X108523809Y-71525952D01*
X108476190Y-71573571D01*
X108380952Y-71621190D01*
X108000000Y-71621190D01*
X109380952Y-72049761D02*
X109285714Y-72097380D01*
X109095238Y-72097380D01*
X109000000Y-72049761D01*
X108952380Y-71954523D01*
X108952380Y-71573571D01*
X109000000Y-71478333D01*
X109095238Y-71430714D01*
X109285714Y-71430714D01*
X109380952Y-71478333D01*
X109428571Y-71573571D01*
X109428571Y-71668809D01*
X108952380Y-71764047D01*
X109999999Y-72097380D02*
X109904761Y-72049761D01*
X109857142Y-71954523D01*
X109857142Y-71097380D01*
X110238095Y-71430714D02*
X110619047Y-71430714D01*
X110380952Y-71097380D02*
X110380952Y-71954523D01*
X110428571Y-72049761D01*
X110523809Y-72097380D01*
X110619047Y-72097380D01*
X110952380Y-72097380D02*
X110952380Y-71430714D01*
X110952380Y-71097380D02*
X110904761Y-71145000D01*
X110952380Y-71192619D01*
X110999999Y-71145000D01*
X110952380Y-71097380D01*
X110952380Y-71192619D01*
X111809523Y-72049761D02*
X111714285Y-72097380D01*
X111523809Y-72097380D01*
X111428571Y-72049761D01*
X111380952Y-71954523D01*
X111380952Y-71573571D01*
X111428571Y-71478333D01*
X111523809Y-71430714D01*
X111714285Y-71430714D01*
X111809523Y-71478333D01*
X111857142Y-71573571D01*
X111857142Y-71668809D01*
X111380952Y-71764047D01*
X112285714Y-72097380D02*
X112285714Y-71430714D01*
X112285714Y-71621190D02*
X112333333Y-71525952D01*
X112380952Y-71478333D01*
X112476190Y-71430714D01*
X112571428Y-71430714D01*
X113666666Y-72097380D02*
X113666666Y-71097380D01*
X114047619Y-71097380D01*
X114142857Y-71145000D01*
X114190476Y-71192619D01*
X114238095Y-71287857D01*
X114238095Y-71430714D01*
X114190476Y-71525952D01*
X114142857Y-71573571D01*
X114047619Y-71621190D01*
X113666666Y-71621190D01*
X115095238Y-71430714D02*
X115095238Y-72097380D01*
X114666666Y-71430714D02*
X114666666Y-71954523D01*
X114714285Y-72049761D01*
X114809523Y-72097380D01*
X114952380Y-72097380D01*
X115047619Y-72049761D01*
X115095238Y-72002142D01*
X115523809Y-72049761D02*
X115619047Y-72097380D01*
X115809523Y-72097380D01*
X115904761Y-72049761D01*
X115952380Y-71954523D01*
X115952380Y-71906904D01*
X115904761Y-71811666D01*
X115809523Y-71764047D01*
X115666666Y-71764047D01*
X115571428Y-71716428D01*
X115523809Y-71621190D01*
X115523809Y-71573571D01*
X115571428Y-71478333D01*
X115666666Y-71430714D01*
X115809523Y-71430714D01*
X115904761Y-71478333D01*
X116380952Y-72097380D02*
X116380952Y-71097380D01*
X116809523Y-72097380D02*
X116809523Y-71573571D01*
X116761904Y-71478333D01*
X116666666Y-71430714D01*
X116523809Y-71430714D01*
X116428571Y-71478333D01*
X116380952Y-71525952D01*
X118047619Y-72097380D02*
X118047619Y-71097380D01*
X118428571Y-71097380D01*
X118523809Y-71145000D01*
X118571428Y-71192619D01*
X118619047Y-71287857D01*
X118619047Y-71430714D01*
X118571428Y-71525952D01*
X118523809Y-71573571D01*
X118428571Y-71621190D01*
X118047619Y-71621190D01*
X119476190Y-71430714D02*
X119476190Y-72097380D01*
X119047619Y-71430714D02*
X119047619Y-71954523D01*
X119095238Y-72049761D01*
X119190476Y-72097380D01*
X119333333Y-72097380D01*
X119428571Y-72049761D01*
X119476190Y-72002142D01*
X120095238Y-72097380D02*
X119999999Y-72049761D01*
X119952380Y-71954523D01*
X119952380Y-71097380D01*
X120619047Y-72097380D02*
X120523809Y-72049761D01*
X120476190Y-71954523D01*
X120476190Y-71097380D01*
X121761904Y-72097380D02*
X121761904Y-71097380D01*
X121999999Y-71097380D01*
X122142857Y-71145000D01*
X122238095Y-71240238D01*
X122285714Y-71335476D01*
X122333333Y-71525952D01*
X122333333Y-71668809D01*
X122285714Y-71859285D01*
X122238095Y-71954523D01*
X122142857Y-72049761D01*
X121999999Y-72097380D01*
X121761904Y-72097380D01*
X122761904Y-72097380D02*
X122761904Y-71430714D01*
X122761904Y-71621190D02*
X122809523Y-71525952D01*
X122857142Y-71478333D01*
X122952380Y-71430714D01*
X123047619Y-71430714D01*
X123380952Y-72097380D02*
X123380952Y-71430714D01*
X123380952Y-71097380D02*
X123333333Y-71145000D01*
X123380952Y-71192619D01*
X123428571Y-71145000D01*
X123380952Y-71097380D01*
X123380952Y-71192619D01*
X123761904Y-71430714D02*
X123999999Y-72097380D01*
X124238095Y-71430714D01*
X124999999Y-72049761D02*
X124904761Y-72097380D01*
X124714285Y-72097380D01*
X124619047Y-72049761D01*
X124571428Y-71954523D01*
X124571428Y-71573571D01*
X124619047Y-71478333D01*
X124714285Y-71430714D01*
X124904761Y-71430714D01*
X124999999Y-71478333D01*
X125047619Y-71573571D01*
X125047619Y-71668809D01*
X124571428Y-71764047D01*
X125476190Y-72097380D02*
X125476190Y-71430714D01*
X125476190Y-71621190D02*
X125523809Y-71525952D01*
X125571428Y-71478333D01*
X125666666Y-71430714D01*
X125761904Y-71430714D01*
X101333333Y-73707380D02*
X101333333Y-72707380D01*
X101666666Y-73421666D01*
X102000000Y-72707380D01*
X102000000Y-73707380D01*
X102904761Y-73659761D02*
X102809523Y-73707380D01*
X102619047Y-73707380D01*
X102523809Y-73659761D01*
X102476190Y-73612142D01*
X102428571Y-73516904D01*
X102428571Y-73231190D01*
X102476190Y-73135952D01*
X102523809Y-73088333D01*
X102619047Y-73040714D01*
X102809523Y-73040714D01*
X102904761Y-73088333D01*
X103857142Y-72755000D02*
X103761904Y-72707380D01*
X103619047Y-72707380D01*
X103476190Y-72755000D01*
X103380952Y-72850238D01*
X103333333Y-72945476D01*
X103285714Y-73135952D01*
X103285714Y-73278809D01*
X103333333Y-73469285D01*
X103380952Y-73564523D01*
X103476190Y-73659761D01*
X103619047Y-73707380D01*
X103714285Y-73707380D01*
X103857142Y-73659761D01*
X103904761Y-73612142D01*
X103904761Y-73278809D01*
X103714285Y-73278809D01*
X104333333Y-73707380D02*
X104333333Y-73040714D01*
X104333333Y-72707380D02*
X104285714Y-72755000D01*
X104333333Y-72802619D01*
X104380952Y-72755000D01*
X104333333Y-72707380D01*
X104333333Y-72802619D01*
X104952380Y-73707380D02*
X104857142Y-73659761D01*
X104809523Y-73564523D01*
X104809523Y-72707380D01*
X105476190Y-73707380D02*
X105380952Y-73659761D01*
X105333333Y-73564523D01*
X105333333Y-72707380D01*
X106619047Y-72707380D02*
X106619047Y-73516904D01*
X106666666Y-73612142D01*
X106714285Y-73659761D01*
X106809523Y-73707380D01*
X107000000Y-73707380D01*
X107095238Y-73659761D01*
X107142857Y-73612142D01*
X107190476Y-73516904D01*
X107190476Y-72707380D01*
X107666666Y-73040714D02*
X107666666Y-73707380D01*
X107666666Y-73135952D02*
X107714285Y-73088333D01*
X107809523Y-73040714D01*
X107952380Y-73040714D01*
X108047619Y-73088333D01*
X108095238Y-73183571D01*
X108095238Y-73707380D01*
X108571428Y-73707380D02*
X108571428Y-73040714D01*
X108571428Y-72707380D02*
X108523809Y-72755000D01*
X108571428Y-72802619D01*
X108619047Y-72755000D01*
X108571428Y-72707380D01*
X108571428Y-72802619D01*
X108952380Y-73040714D02*
X109190476Y-73707380D01*
X109428571Y-73040714D01*
X110190476Y-73659761D02*
X110095238Y-73707380D01*
X109904761Y-73707380D01*
X109809523Y-73659761D01*
X109761904Y-73564523D01*
X109761904Y-73183571D01*
X109809523Y-73088333D01*
X109904761Y-73040714D01*
X110095238Y-73040714D01*
X110190476Y-73088333D01*
X110238095Y-73183571D01*
X110238095Y-73278809D01*
X109761904Y-73374047D01*
X110666666Y-73707380D02*
X110666666Y-73040714D01*
X110666666Y-73231190D02*
X110714285Y-73135952D01*
X110761904Y-73088333D01*
X110857142Y-73040714D01*
X110952380Y-73040714D01*
X111238095Y-73659761D02*
X111333333Y-73707380D01*
X111523809Y-73707380D01*
X111619047Y-73659761D01*
X111666666Y-73564523D01*
X111666666Y-73516904D01*
X111619047Y-73421666D01*
X111523809Y-73374047D01*
X111380952Y-73374047D01*
X111285714Y-73326428D01*
X111238095Y-73231190D01*
X111238095Y-73183571D01*
X111285714Y-73088333D01*
X111380952Y-73040714D01*
X111523809Y-73040714D01*
X111619047Y-73088333D01*
X112095238Y-73707380D02*
X112095238Y-73040714D01*
X112095238Y-72707380D02*
X112047619Y-72755000D01*
X112095238Y-72802619D01*
X112142857Y-72755000D01*
X112095238Y-72707380D01*
X112095238Y-72802619D01*
X112428571Y-73040714D02*
X112809523Y-73040714D01*
X112571428Y-72707380D02*
X112571428Y-73564523D01*
X112619047Y-73659761D01*
X112714285Y-73707380D01*
X112809523Y-73707380D01*
X113047619Y-73040714D02*
X113285714Y-73707380D01*
X113523809Y-73040714D02*
X113285714Y-73707380D01*
X113190476Y-73945476D01*
X113142857Y-73993095D01*
X113047619Y-74040714D01*
X114666666Y-73326428D02*
X115428571Y-73326428D01*
X116666666Y-73707380D02*
X116666666Y-72707380D01*
X117047619Y-72707380D01*
X117142857Y-72755000D01*
X117190476Y-72802619D01*
X117238095Y-72897857D01*
X117238095Y-73040714D01*
X117190476Y-73135952D01*
X117142857Y-73183571D01*
X117047619Y-73231190D01*
X116666666Y-73231190D01*
X117666666Y-73707380D02*
X117666666Y-72707380D01*
X117666666Y-73183571D02*
X118238095Y-73183571D01*
X118238095Y-73707380D02*
X118238095Y-72707380D01*
X118904761Y-73231190D02*
X118904761Y-73707380D01*
X118571428Y-72707380D02*
X118904761Y-73231190D01*
X119238095Y-72707380D01*
X119523809Y-73659761D02*
X119666666Y-73707380D01*
X119904761Y-73707380D01*
X120000000Y-73659761D01*
X120047619Y-73612142D01*
X120095238Y-73516904D01*
X120095238Y-73421666D01*
X120047619Y-73326428D01*
X120000000Y-73278809D01*
X119904761Y-73231190D01*
X119714285Y-73183571D01*
X119619047Y-73135952D01*
X119571428Y-73088333D01*
X119523809Y-72993095D01*
X119523809Y-72897857D01*
X119571428Y-72802619D01*
X119619047Y-72755000D01*
X119714285Y-72707380D01*
X119952380Y-72707380D01*
X120095238Y-72755000D01*
X121190476Y-72707380D02*
X121809523Y-72707380D01*
X121476190Y-73088333D01*
X121619047Y-73088333D01*
X121714285Y-73135952D01*
X121761904Y-73183571D01*
X121809523Y-73278809D01*
X121809523Y-73516904D01*
X121761904Y-73612142D01*
X121714285Y-73659761D01*
X121619047Y-73707380D01*
X121333333Y-73707380D01*
X121238095Y-73659761D01*
X121190476Y-73612142D01*
X122142857Y-72707380D02*
X122761904Y-72707380D01*
X122428571Y-73088333D01*
X122571428Y-73088333D01*
X122666666Y-73135952D01*
X122714285Y-73183571D01*
X122761904Y-73278809D01*
X122761904Y-73516904D01*
X122714285Y-73612142D01*
X122666666Y-73659761D01*
X122571428Y-73707380D01*
X122285714Y-73707380D01*
X122190476Y-73659761D01*
X122142857Y-73612142D01*
X123238095Y-73707380D02*
X123428571Y-73707380D01*
X123523809Y-73659761D01*
X123571428Y-73612142D01*
X123666666Y-73469285D01*
X123714285Y-73278809D01*
X123714285Y-72897857D01*
X123666666Y-72802619D01*
X123619047Y-72755000D01*
X123523809Y-72707380D01*
X123333333Y-72707380D01*
X123238095Y-72755000D01*
X123190476Y-72802619D01*
X123142857Y-72897857D01*
X123142857Y-73135952D01*
X123190476Y-73231190D01*
X123238095Y-73278809D01*
X123333333Y-73326428D01*
X123523809Y-73326428D01*
X123619047Y-73278809D01*
X123666666Y-73231190D01*
X123714285Y-73135952D01*
%TO.C,Q3*%
X115644761Y-80587619D02*
X115549523Y-80540000D01*
X115454285Y-80444761D01*
X115311428Y-80301904D01*
X115216190Y-80254285D01*
X115120952Y-80254285D01*
X115168571Y-80492380D02*
X115073333Y-80444761D01*
X114978095Y-80349523D01*
X114930476Y-80159047D01*
X114930476Y-79825714D01*
X114978095Y-79635238D01*
X115073333Y-79540000D01*
X115168571Y-79492380D01*
X115359047Y-79492380D01*
X115454285Y-79540000D01*
X115549523Y-79635238D01*
X115597142Y-79825714D01*
X115597142Y-80159047D01*
X115549523Y-80349523D01*
X115454285Y-80444761D01*
X115359047Y-80492380D01*
X115168571Y-80492380D01*
X115930476Y-79492380D02*
X116549523Y-79492380D01*
X116216190Y-79873333D01*
X116359047Y-79873333D01*
X116454285Y-79920952D01*
X116501904Y-79968571D01*
X116549523Y-80063809D01*
X116549523Y-80301904D01*
X116501904Y-80397142D01*
X116454285Y-80444761D01*
X116359047Y-80492380D01*
X116073333Y-80492380D01*
X115978095Y-80444761D01*
X115930476Y-80397142D01*
%TO.C,C2*%
X115403333Y-98426542D02*
X115355714Y-98474161D01*
X115212857Y-98521780D01*
X115117619Y-98521780D01*
X114974761Y-98474161D01*
X114879523Y-98378923D01*
X114831904Y-98283685D01*
X114784285Y-98093209D01*
X114784285Y-97950352D01*
X114831904Y-97759876D01*
X114879523Y-97664638D01*
X114974761Y-97569400D01*
X115117619Y-97521780D01*
X115212857Y-97521780D01*
X115355714Y-97569400D01*
X115403333Y-97617019D01*
X115784285Y-97617019D02*
X115831904Y-97569400D01*
X115927142Y-97521780D01*
X116165238Y-97521780D01*
X116260476Y-97569400D01*
X116308095Y-97617019D01*
X116355714Y-97712257D01*
X116355714Y-97807495D01*
X116308095Y-97950352D01*
X115736666Y-98521780D01*
X116355714Y-98521780D01*
%TO.C,R10*%
X152011142Y-98775780D02*
X151677809Y-98299590D01*
X151439714Y-98775780D02*
X151439714Y-97775780D01*
X151820666Y-97775780D01*
X151915904Y-97823400D01*
X151963523Y-97871019D01*
X152011142Y-97966257D01*
X152011142Y-98109114D01*
X151963523Y-98204352D01*
X151915904Y-98251971D01*
X151820666Y-98299590D01*
X151439714Y-98299590D01*
X152963523Y-98775780D02*
X152392095Y-98775780D01*
X152677809Y-98775780D02*
X152677809Y-97775780D01*
X152582571Y-97918638D01*
X152487333Y-98013876D01*
X152392095Y-98061495D01*
X153582571Y-97775780D02*
X153677809Y-97775780D01*
X153773047Y-97823400D01*
X153820666Y-97871019D01*
X153868285Y-97966257D01*
X153915904Y-98156733D01*
X153915904Y-98394828D01*
X153868285Y-98585304D01*
X153820666Y-98680542D01*
X153773047Y-98728161D01*
X153677809Y-98775780D01*
X153582571Y-98775780D01*
X153487333Y-98728161D01*
X153439714Y-98680542D01*
X153392095Y-98585304D01*
X153344476Y-98394828D01*
X153344476Y-98156733D01*
X153392095Y-97966257D01*
X153439714Y-97871019D01*
X153487333Y-97823400D01*
X153582571Y-97775780D01*
%TO.C,C1*%
X137644142Y-98210666D02*
X137691761Y-98258285D01*
X137739380Y-98401142D01*
X137739380Y-98496380D01*
X137691761Y-98639238D01*
X137596523Y-98734476D01*
X137501285Y-98782095D01*
X137310809Y-98829714D01*
X137167952Y-98829714D01*
X136977476Y-98782095D01*
X136882238Y-98734476D01*
X136787000Y-98639238D01*
X136739380Y-98496380D01*
X136739380Y-98401142D01*
X136787000Y-98258285D01*
X136834619Y-98210666D01*
X137739380Y-97258285D02*
X137739380Y-97829714D01*
X137739380Y-97544000D02*
X136739380Y-97544000D01*
X136882238Y-97639238D01*
X136977476Y-97734476D01*
X137025095Y-97829714D01*
%TO.C,C5*%
X110918333Y-101549142D02*
X110870714Y-101596761D01*
X110727857Y-101644380D01*
X110632619Y-101644380D01*
X110489761Y-101596761D01*
X110394523Y-101501523D01*
X110346904Y-101406285D01*
X110299285Y-101215809D01*
X110299285Y-101072952D01*
X110346904Y-100882476D01*
X110394523Y-100787238D01*
X110489761Y-100692000D01*
X110632619Y-100644380D01*
X110727857Y-100644380D01*
X110870714Y-100692000D01*
X110918333Y-100739619D01*
X111823095Y-100644380D02*
X111346904Y-100644380D01*
X111299285Y-101120571D01*
X111346904Y-101072952D01*
X111442142Y-101025333D01*
X111680238Y-101025333D01*
X111775476Y-101072952D01*
X111823095Y-101120571D01*
X111870714Y-101215809D01*
X111870714Y-101453904D01*
X111823095Y-101549142D01*
X111775476Y-101596761D01*
X111680238Y-101644380D01*
X111442142Y-101644380D01*
X111346904Y-101596761D01*
X111299285Y-101549142D01*
%TO.C,J2*%
X152066666Y-93432380D02*
X152066666Y-94146666D01*
X152019047Y-94289523D01*
X151923809Y-94384761D01*
X151780952Y-94432380D01*
X151685714Y-94432380D01*
X152495238Y-93527619D02*
X152542857Y-93480000D01*
X152638095Y-93432380D01*
X152876190Y-93432380D01*
X152971428Y-93480000D01*
X153019047Y-93527619D01*
X153066666Y-93622857D01*
X153066666Y-93718095D01*
X153019047Y-93860952D01*
X152447619Y-94432380D01*
X153066666Y-94432380D01*
X149312380Y-79853500D02*
X149550476Y-79853500D01*
X149455238Y-80091595D02*
X149550476Y-79853500D01*
X149455238Y-79615404D01*
X149740952Y-79996357D02*
X149550476Y-79853500D01*
X149740952Y-79710642D01*
%TO.C,REF\u002A\u002A*%
X146896295Y-74763380D02*
X147467723Y-74763380D01*
X147182009Y-75763380D02*
X147182009Y-74763380D01*
X147801057Y-75763380D02*
X147801057Y-74763380D01*
X148182009Y-74763380D01*
X148277247Y-74811000D01*
X148324866Y-74858619D01*
X148372485Y-74953857D01*
X148372485Y-75096714D01*
X148324866Y-75191952D01*
X148277247Y-75239571D01*
X148182009Y-75287190D01*
X147801057Y-75287190D01*
X149229628Y-75096714D02*
X149229628Y-75763380D01*
X148991533Y-74715761D02*
X148753438Y-75430047D01*
X149372485Y-75430047D01*
%TO.C,C4*%
X100905410Y-102236542D02*
X100857791Y-102284161D01*
X100714934Y-102331780D01*
X100619696Y-102331780D01*
X100476838Y-102284161D01*
X100381600Y-102188923D01*
X100333981Y-102093685D01*
X100286362Y-101903209D01*
X100286362Y-101760352D01*
X100333981Y-101569876D01*
X100381600Y-101474638D01*
X100476838Y-101379400D01*
X100619696Y-101331780D01*
X100714934Y-101331780D01*
X100857791Y-101379400D01*
X100905410Y-101427019D01*
X101762553Y-101665114D02*
X101762553Y-102331780D01*
X101524457Y-101284161D02*
X101286362Y-101998447D01*
X101905410Y-101998447D01*
%TO.C,C7*%
X133081733Y-109856542D02*
X133034114Y-109904161D01*
X132891257Y-109951780D01*
X132796019Y-109951780D01*
X132653161Y-109904161D01*
X132557923Y-109808923D01*
X132510304Y-109713685D01*
X132462685Y-109523209D01*
X132462685Y-109380352D01*
X132510304Y-109189876D01*
X132557923Y-109094638D01*
X132653161Y-108999400D01*
X132796019Y-108951780D01*
X132891257Y-108951780D01*
X133034114Y-108999400D01*
X133081733Y-109047019D01*
X133415066Y-108951780D02*
X134081733Y-108951780D01*
X133653161Y-109951780D01*
%TO.C,J1*%
X88922266Y-101585780D02*
X88922266Y-102300066D01*
X88874647Y-102442923D01*
X88779409Y-102538161D01*
X88636552Y-102585780D01*
X88541314Y-102585780D01*
X89922266Y-102585780D02*
X89350838Y-102585780D01*
X89636552Y-102585780D02*
X89636552Y-101585780D01*
X89541314Y-101728638D01*
X89446076Y-101823876D01*
X89350838Y-101871495D01*
X91620980Y-77774499D02*
X91859076Y-77774499D01*
X91763838Y-78012594D02*
X91859076Y-77774499D01*
X91763838Y-77536403D01*
X92049552Y-77917356D02*
X91859076Y-77774499D01*
X92049552Y-77631641D01*
%TO.C,R7*%
X139787333Y-77889180D02*
X139454000Y-77412990D01*
X139215904Y-77889180D02*
X139215904Y-76889180D01*
X139596857Y-76889180D01*
X139692095Y-76936800D01*
X139739714Y-76984419D01*
X139787333Y-77079657D01*
X139787333Y-77222514D01*
X139739714Y-77317752D01*
X139692095Y-77365371D01*
X139596857Y-77412990D01*
X139215904Y-77412990D01*
X140120666Y-76889180D02*
X140787333Y-76889180D01*
X140358761Y-77889180D01*
%TO.C,C3*%
X120483333Y-106071942D02*
X120435714Y-106119561D01*
X120292857Y-106167180D01*
X120197619Y-106167180D01*
X120054761Y-106119561D01*
X119959523Y-106024323D01*
X119911904Y-105929085D01*
X119864285Y-105738609D01*
X119864285Y-105595752D01*
X119911904Y-105405276D01*
X119959523Y-105310038D01*
X120054761Y-105214800D01*
X120197619Y-105167180D01*
X120292857Y-105167180D01*
X120435714Y-105214800D01*
X120483333Y-105262419D01*
X120816666Y-105167180D02*
X121435714Y-105167180D01*
X121102380Y-105548133D01*
X121245238Y-105548133D01*
X121340476Y-105595752D01*
X121388095Y-105643371D01*
X121435714Y-105738609D01*
X121435714Y-105976704D01*
X121388095Y-106071942D01*
X121340476Y-106119561D01*
X121245238Y-106167180D01*
X120959523Y-106167180D01*
X120864285Y-106119561D01*
X120816666Y-106071942D01*
%TO.C,R4*%
X106818133Y-80190780D02*
X106484800Y-79714590D01*
X106246704Y-80190780D02*
X106246704Y-79190780D01*
X106627657Y-79190780D01*
X106722895Y-79238400D01*
X106770514Y-79286019D01*
X106818133Y-79381257D01*
X106818133Y-79524114D01*
X106770514Y-79619352D01*
X106722895Y-79666971D01*
X106627657Y-79714590D01*
X106246704Y-79714590D01*
X107675276Y-79524114D02*
X107675276Y-80190780D01*
X107437180Y-79143161D02*
X107199085Y-79857447D01*
X107818133Y-79857447D01*
%TO.C,R8*%
X139736533Y-86329780D02*
X139403200Y-85853590D01*
X139165104Y-86329780D02*
X139165104Y-85329780D01*
X139546057Y-85329780D01*
X139641295Y-85377400D01*
X139688914Y-85425019D01*
X139736533Y-85520257D01*
X139736533Y-85663114D01*
X139688914Y-85758352D01*
X139641295Y-85805971D01*
X139546057Y-85853590D01*
X139165104Y-85853590D01*
X140307961Y-85758352D02*
X140212723Y-85710733D01*
X140165104Y-85663114D01*
X140117485Y-85567876D01*
X140117485Y-85520257D01*
X140165104Y-85425019D01*
X140212723Y-85377400D01*
X140307961Y-85329780D01*
X140498438Y-85329780D01*
X140593676Y-85377400D01*
X140641295Y-85425019D01*
X140688914Y-85520257D01*
X140688914Y-85567876D01*
X140641295Y-85663114D01*
X140593676Y-85710733D01*
X140498438Y-85758352D01*
X140307961Y-85758352D01*
X140212723Y-85805971D01*
X140165104Y-85853590D01*
X140117485Y-85948828D01*
X140117485Y-86139304D01*
X140165104Y-86234542D01*
X140212723Y-86282161D01*
X140307961Y-86329780D01*
X140498438Y-86329780D01*
X140593676Y-86282161D01*
X140641295Y-86234542D01*
X140688914Y-86139304D01*
X140688914Y-85948828D01*
X140641295Y-85853590D01*
X140593676Y-85805971D01*
X140498438Y-85758352D01*
%TO.C,U1*%
X119949980Y-102361904D02*
X120759504Y-102361904D01*
X120854742Y-102314285D01*
X120902361Y-102266666D01*
X120949980Y-102171428D01*
X120949980Y-101980952D01*
X120902361Y-101885714D01*
X120854742Y-101838095D01*
X120759504Y-101790476D01*
X119949980Y-101790476D01*
X120949980Y-100790476D02*
X120949980Y-101361904D01*
X120949980Y-101076190D02*
X119949980Y-101076190D01*
X120092838Y-101171428D01*
X120188076Y-101266666D01*
X120235695Y-101361904D01*
%TO.C,C8*%
X115174733Y-89917542D02*
X115127114Y-89965161D01*
X114984257Y-90012780D01*
X114889019Y-90012780D01*
X114746161Y-89965161D01*
X114650923Y-89869923D01*
X114603304Y-89774685D01*
X114555685Y-89584209D01*
X114555685Y-89441352D01*
X114603304Y-89250876D01*
X114650923Y-89155638D01*
X114746161Y-89060400D01*
X114889019Y-89012780D01*
X114984257Y-89012780D01*
X115127114Y-89060400D01*
X115174733Y-89108019D01*
X115746161Y-89441352D02*
X115650923Y-89393733D01*
X115603304Y-89346114D01*
X115555685Y-89250876D01*
X115555685Y-89203257D01*
X115603304Y-89108019D01*
X115650923Y-89060400D01*
X115746161Y-89012780D01*
X115936638Y-89012780D01*
X116031876Y-89060400D01*
X116079495Y-89108019D01*
X116127114Y-89203257D01*
X116127114Y-89250876D01*
X116079495Y-89346114D01*
X116031876Y-89393733D01*
X115936638Y-89441352D01*
X115746161Y-89441352D01*
X115650923Y-89488971D01*
X115603304Y-89536590D01*
X115555685Y-89631828D01*
X115555685Y-89822304D01*
X115603304Y-89917542D01*
X115650923Y-89965161D01*
X115746161Y-90012780D01*
X115936638Y-90012780D01*
X116031876Y-89965161D01*
X116079495Y-89917542D01*
X116127114Y-89822304D01*
X116127114Y-89631828D01*
X116079495Y-89536590D01*
X116031876Y-89488971D01*
X115936638Y-89441352D01*
%TO.C,R9*%
X103211333Y-87320380D02*
X102878000Y-86844190D01*
X102639904Y-87320380D02*
X102639904Y-86320380D01*
X103020857Y-86320380D01*
X103116095Y-86368000D01*
X103163714Y-86415619D01*
X103211333Y-86510857D01*
X103211333Y-86653714D01*
X103163714Y-86748952D01*
X103116095Y-86796571D01*
X103020857Y-86844190D01*
X102639904Y-86844190D01*
X103687523Y-87320380D02*
X103878000Y-87320380D01*
X103973238Y-87272761D01*
X104020857Y-87225142D01*
X104116095Y-87082285D01*
X104163714Y-86891809D01*
X104163714Y-86510857D01*
X104116095Y-86415619D01*
X104068476Y-86368000D01*
X103973238Y-86320380D01*
X103782761Y-86320380D01*
X103687523Y-86368000D01*
X103639904Y-86415619D01*
X103592285Y-86510857D01*
X103592285Y-86748952D01*
X103639904Y-86844190D01*
X103687523Y-86891809D01*
X103782761Y-86939428D01*
X103973238Y-86939428D01*
X104068476Y-86891809D01*
X104116095Y-86844190D01*
X104163714Y-86748952D01*
%TO.C,R3*%
X124099580Y-86247266D02*
X123623390Y-86580600D01*
X124099580Y-86818695D02*
X123099580Y-86818695D01*
X123099580Y-86437742D01*
X123147200Y-86342504D01*
X123194819Y-86294885D01*
X123290057Y-86247266D01*
X123432914Y-86247266D01*
X123528152Y-86294885D01*
X123575771Y-86342504D01*
X123623390Y-86437742D01*
X123623390Y-86818695D01*
X123099580Y-85913933D02*
X123099580Y-85294885D01*
X123480533Y-85628219D01*
X123480533Y-85485361D01*
X123528152Y-85390123D01*
X123575771Y-85342504D01*
X123671009Y-85294885D01*
X123909104Y-85294885D01*
X124004342Y-85342504D01*
X124051961Y-85390123D01*
X124099580Y-85485361D01*
X124099580Y-85771076D01*
X124051961Y-85866314D01*
X124004342Y-85913933D01*
%TO.C,REF\u002A\u002A*%
X120505695Y-83145380D02*
X121077123Y-83145380D01*
X120791409Y-84145380D02*
X120791409Y-83145380D01*
X121410457Y-84145380D02*
X121410457Y-83145380D01*
X121791409Y-83145380D01*
X121886647Y-83193000D01*
X121934266Y-83240619D01*
X121981885Y-83335857D01*
X121981885Y-83478714D01*
X121934266Y-83573952D01*
X121886647Y-83621571D01*
X121791409Y-83669190D01*
X121410457Y-83669190D01*
X122362838Y-83240619D02*
X122410457Y-83193000D01*
X122505695Y-83145380D01*
X122743790Y-83145380D01*
X122839028Y-83193000D01*
X122886647Y-83240619D01*
X122934266Y-83335857D01*
X122934266Y-83431095D01*
X122886647Y-83573952D01*
X122315219Y-84145380D01*
X122934266Y-84145380D01*
X112338095Y-87352380D02*
X112909523Y-87352380D01*
X112623809Y-88352380D02*
X112623809Y-87352380D01*
X113242857Y-88352380D02*
X113242857Y-87352380D01*
X113623809Y-87352380D01*
X113719047Y-87400000D01*
X113766666Y-87447619D01*
X113814285Y-87542857D01*
X113814285Y-87685714D01*
X113766666Y-87780952D01*
X113719047Y-87828571D01*
X113623809Y-87876190D01*
X113242857Y-87876190D01*
X114766666Y-88352380D02*
X114195238Y-88352380D01*
X114480952Y-88352380D02*
X114480952Y-87352380D01*
X114385714Y-87495238D01*
X114290476Y-87590476D01*
X114195238Y-87638095D01*
%TO.C,R2*%
X129052580Y-85713866D02*
X128576390Y-86047200D01*
X129052580Y-86285295D02*
X128052580Y-86285295D01*
X128052580Y-85904342D01*
X128100200Y-85809104D01*
X128147819Y-85761485D01*
X128243057Y-85713866D01*
X128385914Y-85713866D01*
X128481152Y-85761485D01*
X128528771Y-85809104D01*
X128576390Y-85904342D01*
X128576390Y-86285295D01*
X128147819Y-85332914D02*
X128100200Y-85285295D01*
X128052580Y-85190057D01*
X128052580Y-84951961D01*
X128100200Y-84856723D01*
X128147819Y-84809104D01*
X128243057Y-84761485D01*
X128338295Y-84761485D01*
X128481152Y-84809104D01*
X129052580Y-85380533D01*
X129052580Y-84761485D01*
%TO.C,R6*%
X142024180Y-93968866D02*
X141547990Y-94302200D01*
X142024180Y-94540295D02*
X141024180Y-94540295D01*
X141024180Y-94159342D01*
X141071800Y-94064104D01*
X141119419Y-94016485D01*
X141214657Y-93968866D01*
X141357514Y-93968866D01*
X141452752Y-94016485D01*
X141500371Y-94064104D01*
X141547990Y-94159342D01*
X141547990Y-94540295D01*
X141024180Y-93111723D02*
X141024180Y-93302200D01*
X141071800Y-93397438D01*
X141119419Y-93445057D01*
X141262276Y-93540295D01*
X141452752Y-93587914D01*
X141833704Y-93587914D01*
X141928942Y-93540295D01*
X141976561Y-93492676D01*
X142024180Y-93397438D01*
X142024180Y-93206961D01*
X141976561Y-93111723D01*
X141928942Y-93064104D01*
X141833704Y-93016485D01*
X141595609Y-93016485D01*
X141500371Y-93064104D01*
X141452752Y-93111723D01*
X141405133Y-93206961D01*
X141405133Y-93397438D01*
X141452752Y-93492676D01*
X141500371Y-93540295D01*
X141595609Y-93587914D01*
%TO.C,R1*%
X125537933Y-75450780D02*
X125204600Y-74974590D01*
X124966504Y-75450780D02*
X124966504Y-74450780D01*
X125347457Y-74450780D01*
X125442695Y-74498400D01*
X125490314Y-74546019D01*
X125537933Y-74641257D01*
X125537933Y-74784114D01*
X125490314Y-74879352D01*
X125442695Y-74926971D01*
X125347457Y-74974590D01*
X124966504Y-74974590D01*
X126490314Y-75450780D02*
X125918885Y-75450780D01*
X126204600Y-75450780D02*
X126204600Y-74450780D01*
X126109361Y-74593638D01*
X126014123Y-74688876D01*
X125918885Y-74736495D01*
%TO.C,C6*%
X138593533Y-110872542D02*
X138545914Y-110920161D01*
X138403057Y-110967780D01*
X138307819Y-110967780D01*
X138164961Y-110920161D01*
X138069723Y-110824923D01*
X138022104Y-110729685D01*
X137974485Y-110539209D01*
X137974485Y-110396352D01*
X138022104Y-110205876D01*
X138069723Y-110110638D01*
X138164961Y-110015400D01*
X138307819Y-109967780D01*
X138403057Y-109967780D01*
X138545914Y-110015400D01*
X138593533Y-110063019D01*
X139450676Y-109967780D02*
X139260200Y-109967780D01*
X139164961Y-110015400D01*
X139117342Y-110063019D01*
X139022104Y-110205876D01*
X138974485Y-110396352D01*
X138974485Y-110777304D01*
X139022104Y-110872542D01*
X139069723Y-110920161D01*
X139164961Y-110967780D01*
X139355438Y-110967780D01*
X139450676Y-110920161D01*
X139498295Y-110872542D01*
X139545914Y-110777304D01*
X139545914Y-110539209D01*
X139498295Y-110443971D01*
X139450676Y-110396352D01*
X139355438Y-110348733D01*
X139164961Y-110348733D01*
X139069723Y-110396352D01*
X139022104Y-110443971D01*
X138974485Y-110539209D01*
%TO.C,REF\u002A\u002A*%
X138311095Y-91019380D02*
X138882523Y-91019380D01*
X138596809Y-92019380D02*
X138596809Y-91019380D01*
X139215857Y-92019380D02*
X139215857Y-91019380D01*
X139596809Y-91019380D01*
X139692047Y-91067000D01*
X139739666Y-91114619D01*
X139787285Y-91209857D01*
X139787285Y-91352714D01*
X139739666Y-91447952D01*
X139692047Y-91495571D01*
X139596809Y-91543190D01*
X139215857Y-91543190D01*
X140120619Y-91019380D02*
X140739666Y-91019380D01*
X140406333Y-91400333D01*
X140549190Y-91400333D01*
X140644428Y-91447952D01*
X140692047Y-91495571D01*
X140739666Y-91590809D01*
X140739666Y-91828904D01*
X140692047Y-91924142D01*
X140644428Y-91971761D01*
X140549190Y-92019380D01*
X140263476Y-92019380D01*
X140168238Y-91971761D01*
X140120619Y-91924142D01*
D12*
%TO.C,Q3*%
X113800000Y-85300000D02*
X117650000Y-85300000D01*
X113417369Y-84722045D02*
G75*
G03*
X113800000Y-85300000I2322631J1122045D01*
G01*
X115740000Y-81000000D02*
G75*
G03*
X113383600Y-82501193I0J-2600000D01*
G01*
X118096400Y-82501193D02*
G75*
G03*
X115740000Y-81000000I-2356400J-1098807D01*
G01*
X117650000Y-85300000D02*
G75*
G03*
X118042383Y-84712264I-1910000J1700000D01*
G01*
%TO.C,C2*%
X117615400Y-93957000D02*
X113575400Y-93957000D01*
X118305400Y-95377000D02*
X117615400Y-95377000D01*
X113575400Y-93957000D02*
X113575400Y-96797000D01*
X117615400Y-96797000D02*
X117615400Y-93957000D01*
X112885400Y-95377000D02*
X113575400Y-95377000D01*
X113575400Y-96797000D02*
X117615400Y-96797000D01*
%TO.C,R10*%
X148614000Y-100787200D02*
X149384000Y-100787200D01*
X156694000Y-100787200D02*
X155924000Y-100787200D01*
X149384000Y-99417200D02*
X149384000Y-102157200D01*
X149384000Y-102157200D02*
X155924000Y-102157200D01*
X155924000Y-102157200D02*
X155924000Y-99417200D01*
X155924000Y-99417200D02*
X149384000Y-99417200D01*
%TO.C,C1*%
X134899400Y-95334000D02*
X134899400Y-96024000D01*
X133479400Y-96024000D02*
X133479400Y-100064000D01*
X134899400Y-100754000D02*
X134899400Y-100064000D01*
X136319400Y-96024000D02*
X133479400Y-96024000D01*
X133479400Y-100064000D02*
X136319400Y-100064000D01*
X136319400Y-100064000D02*
X136319400Y-96024000D01*
%TO.C,C5*%
X113166000Y-108683000D02*
X113166000Y-112081000D01*
X113406000Y-108683000D02*
X113406000Y-111967000D01*
X112686000Y-108683000D02*
X112686000Y-112266000D01*
X115446000Y-104797000D02*
X115446000Y-110087000D01*
X114806000Y-108683000D02*
X114806000Y-110920000D01*
X113246000Y-108683000D02*
X113246000Y-112045000D01*
X115686000Y-105233000D02*
X115686000Y-109651000D01*
X114646000Y-108683000D02*
X114646000Y-111082000D01*
X115966000Y-105932000D02*
X115966000Y-108952000D01*
X112086000Y-102460000D02*
X112086000Y-112424000D01*
X114206000Y-108683000D02*
X114206000Y-111462000D01*
X112246000Y-102495000D02*
X112246000Y-112389000D01*
X112686000Y-102618000D02*
X112686000Y-106201000D01*
X113646000Y-103047000D02*
X113646000Y-106201000D01*
X112966000Y-108683000D02*
X112966000Y-112165000D01*
X112046000Y-102452000D02*
X112046000Y-112432000D01*
X114366000Y-103550000D02*
X114366000Y-106201000D01*
X113966000Y-108683000D02*
X113966000Y-111636000D01*
X113566000Y-108683000D02*
X113566000Y-111882000D01*
X114926000Y-104095000D02*
X114926000Y-110789000D01*
X113286000Y-102858000D02*
X113286000Y-106201000D01*
X114406000Y-108683000D02*
X114406000Y-111300000D01*
X115326000Y-104612000D02*
X115326000Y-110272000D01*
X112446000Y-102545000D02*
X112446000Y-106201000D01*
X113806000Y-103144000D02*
X113806000Y-106201000D01*
X112486000Y-108683000D02*
X112486000Y-112327000D01*
X112806000Y-108683000D02*
X112806000Y-112225000D01*
X112646000Y-108683000D02*
X112646000Y-112279000D01*
X113126000Y-108683000D02*
X113126000Y-112099000D01*
X112566000Y-108683000D02*
X112566000Y-112304000D01*
X113606000Y-108683000D02*
X113606000Y-111859000D01*
X116166000Y-106843000D02*
X116166000Y-108041000D01*
X112366000Y-108683000D02*
X112366000Y-112360000D01*
X112606000Y-102592000D02*
X112606000Y-106201000D01*
X112726000Y-102631000D02*
X112726000Y-106201000D01*
X114326000Y-103517000D02*
X114326000Y-106201000D01*
X115286000Y-104553000D02*
X115286000Y-110331000D01*
X115246000Y-104497000D02*
X115246000Y-110387000D01*
X113286000Y-108683000D02*
X113286000Y-112026000D01*
X112206000Y-102486000D02*
X112206000Y-112398000D01*
X114606000Y-103763000D02*
X114606000Y-106201000D01*
X114446000Y-103618000D02*
X114446000Y-106201000D01*
X113686000Y-103071000D02*
X113686000Y-106201000D01*
X112006000Y-102445000D02*
X112006000Y-112439000D01*
X114646000Y-103802000D02*
X114646000Y-106201000D01*
X114886000Y-104050000D02*
X114886000Y-110834000D01*
X111806000Y-102412000D02*
X111806000Y-112472000D01*
X113046000Y-108683000D02*
X113046000Y-112132000D01*
X115646000Y-105153000D02*
X115646000Y-109731000D01*
X114366000Y-108683000D02*
X114366000Y-111334000D01*
X114126000Y-103362000D02*
X114126000Y-106201000D01*
X112726000Y-108683000D02*
X112726000Y-112253000D01*
X112926000Y-108683000D02*
X112926000Y-112180000D01*
X114326000Y-108683000D02*
X114326000Y-111367000D01*
X115846000Y-105596000D02*
X115846000Y-109288000D01*
X113006000Y-102735000D02*
X113006000Y-106201000D01*
X114726000Y-108683000D02*
X114726000Y-111003000D01*
X114486000Y-108683000D02*
X114486000Y-111231000D01*
X112806000Y-102659000D02*
X112806000Y-106201000D01*
X111565000Y-102384000D02*
X111565000Y-112500000D01*
X114566000Y-108683000D02*
X114566000Y-111158000D01*
X113126000Y-102785000D02*
X113126000Y-106201000D01*
X112646000Y-102605000D02*
X112646000Y-106201000D01*
X111125000Y-102362000D02*
X111125000Y-112522000D01*
X111445000Y-102374000D02*
X111445000Y-112510000D01*
X113686000Y-108683000D02*
X113686000Y-111813000D01*
X112886000Y-102688000D02*
X112886000Y-106201000D01*
X113486000Y-108683000D02*
X113486000Y-111925000D01*
X114406000Y-103584000D02*
X114406000Y-106201000D01*
X113646000Y-108683000D02*
X113646000Y-111837000D01*
X113886000Y-103195000D02*
X113886000Y-106201000D01*
X112406000Y-108683000D02*
X112406000Y-112349000D01*
X112526000Y-108683000D02*
X112526000Y-112316000D01*
X112886000Y-108683000D02*
X112886000Y-112196000D01*
X115526000Y-104932000D02*
X115526000Y-109952000D01*
X115926000Y-105812000D02*
X115926000Y-109072000D01*
X116086000Y-106380000D02*
X116086000Y-108504000D01*
X114846000Y-104006000D02*
X114846000Y-110878000D01*
X113486000Y-102959000D02*
X113486000Y-106201000D01*
X114206000Y-103422000D02*
X114206000Y-106201000D01*
X115726000Y-105317000D02*
X115726000Y-109567000D01*
X114006000Y-108683000D02*
X114006000Y-111608000D01*
X113966000Y-103248000D02*
X113966000Y-106201000D01*
X116006000Y-106064000D02*
X116006000Y-108820000D01*
X113926000Y-103221000D02*
X113926000Y-106201000D01*
X114006000Y-103276000D02*
X114006000Y-106201000D01*
X114086000Y-108683000D02*
X114086000Y-111552000D01*
X114286000Y-103485000D02*
X114286000Y-106201000D01*
X113046000Y-102752000D02*
X113046000Y-106201000D01*
X111325000Y-102367000D02*
X111325000Y-112517000D01*
X111685000Y-102397000D02*
X111685000Y-112487000D01*
X113366000Y-108683000D02*
X113366000Y-111987000D01*
X115486000Y-104863000D02*
X115486000Y-110021000D01*
X113806000Y-108683000D02*
X113806000Y-111740000D01*
X113726000Y-103095000D02*
X113726000Y-106201000D01*
X115766000Y-105405000D02*
X115766000Y-109479000D01*
X113726000Y-108683000D02*
X113726000Y-111789000D01*
X113766000Y-108683000D02*
X113766000Y-111765000D01*
X112606000Y-108683000D02*
X112606000Y-112292000D01*
X111485000Y-102377000D02*
X111485000Y-112507000D01*
X112446000Y-108683000D02*
X112446000Y-112339000D01*
X112486000Y-102557000D02*
X112486000Y-106201000D01*
X113406000Y-102917000D02*
X113406000Y-106201000D01*
X111285000Y-102365000D02*
X111285000Y-112519000D01*
X113846000Y-103169000D02*
X113846000Y-106201000D01*
X114526000Y-108683000D02*
X114526000Y-111195000D01*
X113326000Y-102878000D02*
X113326000Y-106201000D01*
X112406000Y-102535000D02*
X112406000Y-106201000D01*
X115366000Y-104672000D02*
X115366000Y-110212000D01*
X111165000Y-102362000D02*
X111165000Y-112522000D01*
X111245000Y-102364000D02*
X111245000Y-112520000D01*
X113246000Y-102839000D02*
X113246000Y-106201000D01*
X114046000Y-103304000D02*
X114046000Y-106201000D01*
X113886000Y-108683000D02*
X113886000Y-111689000D01*
X114086000Y-103332000D02*
X114086000Y-106201000D01*
X114966000Y-104141000D02*
X114966000Y-110743000D01*
X112566000Y-102580000D02*
X112566000Y-106201000D01*
X115406000Y-104733000D02*
X115406000Y-110151000D01*
X112126000Y-102468000D02*
X112126000Y-112416000D01*
X115806000Y-105498000D02*
X115806000Y-109386000D01*
X113366000Y-102897000D02*
X113366000Y-106201000D01*
X112926000Y-102704000D02*
X112926000Y-106201000D01*
X114806000Y-103964000D02*
X114806000Y-106201000D01*
X114606000Y-108683000D02*
X114606000Y-111121000D01*
X115206000Y-104442000D02*
X115206000Y-110442000D01*
X115006000Y-104188000D02*
X115006000Y-110696000D01*
X106105354Y-104067000D02*
X106105354Y-105067000D01*
X112286000Y-102504000D02*
X112286000Y-112380000D01*
X111926000Y-102431000D02*
X111926000Y-112453000D01*
X113766000Y-103119000D02*
X113766000Y-106201000D01*
X115886000Y-105700000D02*
X115886000Y-109184000D01*
X114766000Y-103922000D02*
X114766000Y-106201000D01*
X112846000Y-102674000D02*
X112846000Y-106201000D01*
X115126000Y-104336000D02*
X115126000Y-110548000D01*
X114486000Y-103653000D02*
X114486000Y-106201000D01*
X115046000Y-104236000D02*
X115046000Y-110648000D01*
X111886000Y-102424000D02*
X111886000Y-112460000D01*
X113166000Y-102803000D02*
X113166000Y-106201000D01*
X113206000Y-102821000D02*
X113206000Y-106201000D01*
X111725000Y-102402000D02*
X111725000Y-112482000D01*
X115086000Y-104286000D02*
X115086000Y-110598000D01*
X115166000Y-104388000D02*
X115166000Y-110496000D01*
X114726000Y-103881000D02*
X114726000Y-106201000D01*
X114526000Y-103689000D02*
X114526000Y-106201000D01*
X112966000Y-102719000D02*
X112966000Y-106201000D01*
X114686000Y-103841000D02*
X114686000Y-106201000D01*
X111405000Y-102372000D02*
X111405000Y-112512000D01*
X113446000Y-108683000D02*
X113446000Y-111946000D01*
X114446000Y-108683000D02*
X114446000Y-111266000D01*
X114686000Y-108683000D02*
X114686000Y-111043000D01*
X113526000Y-108683000D02*
X113526000Y-111904000D01*
X111846000Y-102418000D02*
X111846000Y-112466000D01*
X115566000Y-105003000D02*
X115566000Y-109881000D01*
X112766000Y-108683000D02*
X112766000Y-112239000D01*
X111966000Y-102438000D02*
X111966000Y-112446000D01*
X112526000Y-102568000D02*
X112526000Y-106201000D01*
X111605000Y-102388000D02*
X111605000Y-112496000D01*
X113606000Y-103025000D02*
X113606000Y-106201000D01*
X113006000Y-108683000D02*
X113006000Y-112149000D01*
X114566000Y-103726000D02*
X114566000Y-106201000D01*
X114246000Y-108683000D02*
X114246000Y-111431000D01*
X111365000Y-102369000D02*
X111365000Y-112515000D01*
X112366000Y-102524000D02*
X112366000Y-106201000D01*
X114166000Y-103392000D02*
X114166000Y-106201000D01*
X113526000Y-102980000D02*
X113526000Y-106201000D01*
X113326000Y-108683000D02*
X113326000Y-112006000D01*
X113446000Y-102938000D02*
X113446000Y-106201000D01*
X114166000Y-108683000D02*
X114166000Y-111492000D01*
X114246000Y-103453000D02*
X114246000Y-106201000D01*
X112326000Y-102514000D02*
X112326000Y-112370000D01*
X111205000Y-102363000D02*
X111205000Y-112521000D01*
X116046000Y-106212000D02*
X116046000Y-108672000D01*
X114126000Y-108683000D02*
X114126000Y-111522000D01*
X114766000Y-108683000D02*
X114766000Y-110962000D01*
X112766000Y-102645000D02*
X112766000Y-106201000D01*
X105605354Y-104567000D02*
X106605354Y-104567000D01*
X113566000Y-103002000D02*
X113566000Y-106201000D01*
X116126000Y-106580000D02*
X116126000Y-108304000D01*
X111645000Y-102392000D02*
X111645000Y-112492000D01*
X113086000Y-108683000D02*
X113086000Y-112116000D01*
X113206000Y-108683000D02*
X113206000Y-112063000D01*
X115606000Y-105077000D02*
X115606000Y-109807000D01*
X112166000Y-102477000D02*
X112166000Y-112407000D01*
X111525000Y-102380000D02*
X111525000Y-112504000D01*
X113086000Y-102768000D02*
X113086000Y-106201000D01*
X114286000Y-108683000D02*
X114286000Y-111399000D01*
X113846000Y-108683000D02*
X113846000Y-111715000D01*
X111765000Y-102407000D02*
X111765000Y-112477000D01*
X112846000Y-108683000D02*
X112846000Y-112210000D01*
X114046000Y-108683000D02*
X114046000Y-111580000D01*
X111085000Y-102362000D02*
X111085000Y-112522000D01*
X113926000Y-108683000D02*
X113926000Y-111663000D01*
X116205000Y-107442000D02*
G75*
G03*
X116205000Y-107442000I-5120000J0D01*
G01*
%TO.C,J2*%
X157027000Y-92480501D02*
X157027000Y-77226500D01*
X157027000Y-77226500D02*
X147773000Y-77226500D01*
X147773000Y-77226500D02*
X147773000Y-92480501D01*
X147773000Y-92480501D02*
X157027000Y-92480501D01*
X153281000Y-75448500D02*
G75*
G03*
X153281000Y-75448500I-381000J0D01*
G01*
%TO.C,C4*%
X94911154Y-106175600D02*
X94911154Y-103855600D01*
X97471154Y-112381600D02*
X97471154Y-102451600D01*
X98432154Y-112495600D02*
X98432154Y-102337600D01*
X94871154Y-106175600D02*
X94871154Y-103896600D01*
X94951154Y-106175600D02*
X94951154Y-103815600D01*
X94831154Y-110894600D02*
X94831154Y-108657600D01*
X96071154Y-111856600D02*
X96071154Y-108657600D01*
X95351154Y-111373600D02*
X95351154Y-108657600D01*
X96671154Y-106175600D02*
X96671154Y-102693600D01*
X96751154Y-112170600D02*
X96751154Y-108657600D01*
X98472154Y-112496600D02*
X98472154Y-102336600D01*
X95831154Y-106175600D02*
X95831154Y-103118600D01*
X94591154Y-110622600D02*
X94591154Y-104210600D01*
X97912154Y-112456600D02*
X97912154Y-102376600D01*
X95671154Y-106175600D02*
X95671154Y-103222600D01*
X96351154Y-106175600D02*
X96351154Y-102832600D01*
X93951154Y-109625600D02*
X93951154Y-105207600D01*
X98272154Y-112489600D02*
X98272154Y-102343600D01*
X95271154Y-111308600D02*
X95271154Y-108657600D01*
X96911154Y-112227600D02*
X96911154Y-108657600D01*
X98232154Y-112486600D02*
X98232154Y-102346600D01*
X96391154Y-112019600D02*
X96391154Y-108657600D01*
X95471154Y-106175600D02*
X95471154Y-103366600D01*
X96551154Y-106175600D02*
X96551154Y-102742600D01*
X93551154Y-108478600D02*
X93551154Y-106354600D01*
X95751154Y-106175600D02*
X95751154Y-103169600D01*
X96271154Y-106175600D02*
X96271154Y-102871600D01*
X94111154Y-109926600D02*
X94111154Y-104906600D01*
X96191154Y-106175600D02*
X96191154Y-102912600D01*
X96271154Y-111961600D02*
X96271154Y-108657600D01*
X96391154Y-106175600D02*
X96391154Y-102813600D01*
X97031154Y-106175600D02*
X97031154Y-102566600D01*
X95831154Y-111714600D02*
X95831154Y-108657600D01*
X98512154Y-112496600D02*
X98512154Y-102336600D01*
X95871154Y-111739600D02*
X95871154Y-108657600D01*
X95911154Y-111763600D02*
X95911154Y-108657600D01*
X97151154Y-106175600D02*
X97151154Y-102531600D01*
X94511154Y-110522600D02*
X94511154Y-104310600D01*
X96751154Y-106175600D02*
X96751154Y-102662600D01*
X97111154Y-106175600D02*
X97111154Y-102542600D01*
X95911154Y-106175600D02*
X95911154Y-103069600D01*
X94671154Y-110717600D02*
X94671154Y-104115600D01*
X93591154Y-108646600D02*
X93591154Y-106186600D01*
X96151154Y-111899600D02*
X96151154Y-108657600D01*
X95151154Y-111205600D02*
X95151154Y-108657600D01*
X95071154Y-111132600D02*
X95071154Y-108657600D01*
X95991154Y-111811600D02*
X95991154Y-108657600D01*
X97391154Y-112363600D02*
X97391154Y-102469600D01*
X98072154Y-112474600D02*
X98072154Y-102358600D01*
X96471154Y-112055600D02*
X96471154Y-108657600D01*
X95791154Y-111689600D02*
X95791154Y-108657600D01*
X93471154Y-108015600D02*
X93471154Y-106817600D01*
X95191154Y-106175600D02*
X95191154Y-103592600D01*
X97271154Y-112334600D02*
X97271154Y-108657600D01*
X95431154Y-106175600D02*
X95431154Y-103396600D01*
X97231154Y-106175600D02*
X97231154Y-102509600D01*
X95951154Y-111787600D02*
X95951154Y-108657600D01*
X96711154Y-112154600D02*
X96711154Y-108657600D01*
X94711154Y-110763600D02*
X94711154Y-104069600D01*
X94231154Y-110125600D02*
X94231154Y-104707600D01*
X97431154Y-112372600D02*
X97431154Y-102460600D01*
X95791154Y-106175600D02*
X95791154Y-103143600D01*
X96951154Y-112240600D02*
X96951154Y-108657600D01*
X95231154Y-111274600D02*
X95231154Y-108657600D01*
X97952154Y-112461600D02*
X97952154Y-102371600D01*
X93871154Y-109453600D02*
X93871154Y-105379600D01*
X95471154Y-111466600D02*
X95471154Y-108657600D01*
X97271154Y-106175600D02*
X97271154Y-102498600D01*
X97831154Y-112446600D02*
X97831154Y-102386600D01*
X95391154Y-111405600D02*
X95391154Y-108657600D01*
X96511154Y-106175600D02*
X96511154Y-102759600D01*
X96831154Y-112199600D02*
X96831154Y-108657600D01*
X98192154Y-112484600D02*
X98192154Y-102348600D01*
X98392154Y-112494600D02*
X98392154Y-102338600D01*
X94871154Y-110936600D02*
X94871154Y-108657600D01*
X94991154Y-111056600D02*
X94991154Y-108657600D01*
X95311154Y-111341600D02*
X95311154Y-108657600D01*
X94271154Y-110186600D02*
X94271154Y-104646600D01*
X97191154Y-106175600D02*
X97191154Y-102519600D01*
X95031154Y-106175600D02*
X95031154Y-103737600D01*
X93911154Y-109541600D02*
X93911154Y-105291600D01*
X96031154Y-111833600D02*
X96031154Y-108657600D01*
X96311154Y-111980600D02*
X96311154Y-108657600D01*
X96191154Y-111920600D02*
X96191154Y-108657600D01*
X95151154Y-106175600D02*
X95151154Y-103627600D01*
X95631154Y-111582600D02*
X95631154Y-108657600D01*
X96311154Y-106175600D02*
X96311154Y-102852600D01*
X95871154Y-106175600D02*
X95871154Y-103093600D01*
X95191154Y-111240600D02*
X95191154Y-108657600D01*
X95631154Y-106175600D02*
X95631154Y-103250600D01*
X98312154Y-112491600D02*
X98312154Y-102341600D01*
X95671154Y-111610600D02*
X95671154Y-108657600D01*
X93991154Y-109705600D02*
X93991154Y-105127600D01*
X97551154Y-112398600D02*
X97551154Y-102434600D01*
X96071154Y-106175600D02*
X96071154Y-102976600D01*
X94991154Y-106175600D02*
X94991154Y-103776600D01*
X98552154Y-112496600D02*
X98552154Y-102336600D01*
X95111154Y-106175600D02*
X95111154Y-103663600D01*
X95431154Y-111436600D02*
X95431154Y-108657600D01*
X97872154Y-112451600D02*
X97872154Y-102381600D01*
X98032154Y-112470600D02*
X98032154Y-102362600D01*
X104031800Y-110291600D02*
X103031800Y-110291600D01*
X94311154Y-110246600D02*
X94311154Y-104586600D01*
X97711154Y-112427600D02*
X97711154Y-102405600D01*
X97631154Y-112413600D02*
X97631154Y-102419600D01*
X95751154Y-111663600D02*
X95751154Y-108657600D01*
X94471154Y-110470600D02*
X94471154Y-104362600D01*
X94391154Y-110361600D02*
X94391154Y-104471600D01*
X97151154Y-112301600D02*
X97151154Y-108657600D01*
X97671154Y-112420600D02*
X97671154Y-102412600D01*
X96351154Y-112000600D02*
X96351154Y-108657600D01*
X96791154Y-106175600D02*
X96791154Y-102648600D01*
X96591154Y-106175600D02*
X96591154Y-102726600D01*
X97311154Y-112344600D02*
X97311154Y-102488600D01*
X96231154Y-111941600D02*
X96231154Y-108657600D01*
X97791154Y-112440600D02*
X97791154Y-102392600D01*
X96591154Y-112106600D02*
X96591154Y-108657600D01*
X96431154Y-106175600D02*
X96431154Y-102795600D01*
X95111154Y-111169600D02*
X95111154Y-108657600D01*
X94431154Y-110416600D02*
X94431154Y-104416600D01*
X97071154Y-112278600D02*
X97071154Y-108657600D01*
X98112154Y-112478600D02*
X98112154Y-102354600D01*
X97591154Y-112406600D02*
X97591154Y-102426600D01*
X94031154Y-109781600D02*
X94031154Y-105051600D01*
X97511154Y-112390600D02*
X97511154Y-102442600D01*
X94631154Y-110670600D02*
X94631154Y-104162600D01*
X94351154Y-110305600D02*
X94351154Y-104527600D01*
X97111154Y-112290600D02*
X97111154Y-108657600D01*
X96431154Y-112037600D02*
X96431154Y-108657600D01*
X96031154Y-106175600D02*
X96031154Y-102999600D01*
X96831154Y-106175600D02*
X96831154Y-102633600D01*
X93791154Y-109262600D02*
X93791154Y-105570600D01*
X93511154Y-108278600D02*
X93511154Y-106554600D01*
X96991154Y-112253600D02*
X96991154Y-108657600D01*
X96231154Y-106175600D02*
X96231154Y-102891600D01*
X97031154Y-112266600D02*
X97031154Y-108657600D01*
X94831154Y-106175600D02*
X94831154Y-103938600D01*
X94071154Y-109855600D02*
X94071154Y-104977600D01*
X96871154Y-112213600D02*
X96871154Y-108657600D01*
X97191154Y-112313600D02*
X97191154Y-108657600D01*
X95231154Y-106175600D02*
X95231154Y-103558600D01*
X95711154Y-111637600D02*
X95711154Y-108657600D01*
X96111154Y-111878600D02*
X96111154Y-108657600D01*
X93671154Y-108926600D02*
X93671154Y-105906600D01*
X96671154Y-112139600D02*
X96671154Y-108657600D01*
X95391154Y-106175600D02*
X95391154Y-103427600D01*
X95031154Y-111095600D02*
X95031154Y-108657600D01*
X96871154Y-106175600D02*
X96871154Y-102619600D01*
X93631154Y-108794600D02*
X93631154Y-106038600D01*
X103531800Y-110791600D02*
X103531800Y-109791600D01*
X98152154Y-112481600D02*
X98152154Y-102351600D01*
X95951154Y-106175600D02*
X95951154Y-103045600D01*
X97071154Y-106175600D02*
X97071154Y-102554600D01*
X95551154Y-111526600D02*
X95551154Y-108657600D01*
X96711154Y-106175600D02*
X96711154Y-102678600D01*
X97992154Y-112466600D02*
X97992154Y-102366600D01*
X95351154Y-106175600D02*
X95351154Y-103459600D01*
X95271154Y-106175600D02*
X95271154Y-103524600D01*
X97751154Y-112434600D02*
X97751154Y-102398600D01*
X95711154Y-106175600D02*
X95711154Y-103195600D01*
X94951154Y-111017600D02*
X94951154Y-108657600D01*
X96151154Y-106175600D02*
X96151154Y-102933600D01*
X94751154Y-110808600D02*
X94751154Y-104024600D01*
X95591154Y-111554600D02*
X95591154Y-108657600D01*
X95591154Y-106175600D02*
X95591154Y-103278600D01*
X97231154Y-112323600D02*
X97231154Y-108657600D01*
X93831154Y-109360600D02*
X93831154Y-105472600D01*
X94191154Y-110061600D02*
X94191154Y-104771600D01*
X97351154Y-112354600D02*
X97351154Y-102478600D01*
X95311154Y-106175600D02*
X95311154Y-103491600D01*
X96951154Y-106175600D02*
X96951154Y-102592600D01*
X94911154Y-110977600D02*
X94911154Y-108657600D01*
X96551154Y-112090600D02*
X96551154Y-108657600D01*
X96111154Y-106175600D02*
X96111154Y-102954600D01*
X95511154Y-106175600D02*
X95511154Y-103336600D01*
X96911154Y-106175600D02*
X96911154Y-102605600D01*
X94551154Y-110572600D02*
X94551154Y-104260600D01*
X96991154Y-106175600D02*
X96991154Y-102579600D01*
X96511154Y-112073600D02*
X96511154Y-108657600D01*
X95991154Y-106175600D02*
X95991154Y-103021600D01*
X95071154Y-106175600D02*
X95071154Y-103700600D01*
X95551154Y-106175600D02*
X95551154Y-103306600D01*
X96471154Y-106175600D02*
X96471154Y-102777600D01*
X95511154Y-111496600D02*
X95511154Y-108657600D01*
X93711154Y-109046600D02*
X93711154Y-105786600D01*
X96631154Y-106175600D02*
X96631154Y-102709600D01*
X98352154Y-112493600D02*
X98352154Y-102339600D01*
X94151154Y-109995600D02*
X94151154Y-104837600D01*
X96631154Y-112123600D02*
X96631154Y-108657600D01*
X96791154Y-112184600D02*
X96791154Y-108657600D01*
X94791154Y-110852600D02*
X94791154Y-103980600D01*
X93751154Y-109158600D02*
X93751154Y-105674600D01*
X103672154Y-107416600D02*
G75*
G03*
X103672154Y-107416600I-5120000J0D01*
G01*
%TO.C,C7*%
X129760800Y-109575600D02*
X129070800Y-109575600D01*
X124340800Y-109575600D02*
X125030800Y-109575600D01*
X125030800Y-110995600D02*
X129070800Y-110995600D01*
X129070800Y-108155600D02*
X125030800Y-108155600D01*
X129070800Y-110995600D02*
X129070800Y-108155600D01*
X125030800Y-108155600D02*
X125030800Y-110995600D01*
%TO.C,J1*%
X98835600Y-100401500D02*
X98835600Y-75147499D01*
X98835600Y-75147499D02*
X89581600Y-75147499D01*
X89581600Y-100401500D02*
X98835600Y-100401500D01*
X89581600Y-75147499D02*
X89581600Y-100401500D01*
X95089600Y-73369500D02*
G75*
G03*
X95089600Y-73369500I-381000J0D01*
G01*
%TO.C,R7*%
X143994000Y-79806800D02*
X143224000Y-79806800D01*
X136684000Y-78436800D02*
X136684000Y-81176800D01*
X143224000Y-81176800D02*
X143224000Y-78436800D01*
X135914000Y-79806800D02*
X136684000Y-79806800D01*
X136684000Y-81176800D02*
X143224000Y-81176800D01*
X143224000Y-78436800D02*
X136684000Y-78436800D01*
%TO.C,C3*%
X129070800Y-104371000D02*
X125030800Y-104371000D01*
X129070800Y-107211000D02*
X129070800Y-104371000D01*
X125030800Y-107211000D02*
X129070800Y-107211000D01*
X129760800Y-105791000D02*
X129070800Y-105791000D01*
X125030800Y-104371000D02*
X125030800Y-107211000D01*
X124340800Y-105791000D02*
X125030800Y-105791000D01*
%TO.C,R4*%
X103714800Y-75998400D02*
X103714800Y-78738400D01*
X110254800Y-78738400D02*
X110254800Y-75998400D01*
X102944800Y-77368400D02*
X103714800Y-77368400D01*
X103714800Y-78738400D02*
X110254800Y-78738400D01*
X111024800Y-77368400D02*
X110254800Y-77368400D01*
X110254800Y-75998400D02*
X103714800Y-75998400D01*
%TO.C,R8*%
X144019400Y-83489800D02*
X143249400Y-83489800D01*
X143249400Y-82119800D02*
X136709400Y-82119800D01*
X143249400Y-84859800D02*
X143249400Y-82119800D01*
X136709400Y-82119800D02*
X136709400Y-84859800D01*
X136709400Y-84859800D02*
X143249400Y-84859800D01*
X135939400Y-83489800D02*
X136709400Y-83489800D01*
%TO.C,U1*%
X121790000Y-92545000D02*
X121790000Y-103045000D01*
X132130000Y-100045000D02*
X132130000Y-98795000D01*
X121850000Y-95545000D02*
X121850000Y-100045000D01*
X132190000Y-103045000D02*
X132190000Y-92545000D01*
X132130000Y-95545000D02*
X121850000Y-95545000D01*
X132190000Y-92545000D02*
X121790000Y-92545000D01*
X121790000Y-103045000D02*
X132190000Y-103045000D01*
X121850000Y-100045000D02*
X132130000Y-100045000D01*
X132130000Y-96795000D02*
X132130000Y-95545000D01*
X132130000Y-96795000D02*
G75*
G03*
X132130000Y-98795000I0J-1000000D01*
G01*
%TO.C,C8*%
X113575400Y-90680400D02*
X113575400Y-93520400D01*
X117615400Y-90680400D02*
X113575400Y-90680400D01*
X113575400Y-93520400D02*
X117615400Y-93520400D01*
X117615400Y-93520400D02*
X117615400Y-90680400D01*
X112885400Y-92100400D02*
X113575400Y-92100400D01*
X118305400Y-92100400D02*
X117615400Y-92100400D01*
%TO.C,R9*%
X107415000Y-90112600D02*
X107415000Y-83572600D01*
X106045000Y-82802600D02*
X106045000Y-83572600D01*
X104675000Y-90112600D02*
X107415000Y-90112600D01*
X107415000Y-83572600D02*
X104675000Y-83572600D01*
X104675000Y-83572600D02*
X104675000Y-90112600D01*
X106045000Y-90882600D02*
X106045000Y-90112600D01*
%TO.C,R3*%
X125755400Y-90120600D02*
X125755400Y-89350600D01*
X127125400Y-89350600D02*
X127125400Y-82810600D01*
X125755400Y-82040600D02*
X125755400Y-82810600D01*
X124385400Y-89350600D02*
X127125400Y-89350600D01*
X127125400Y-82810600D02*
X124385400Y-82810600D01*
X124385400Y-82810600D02*
X124385400Y-89350600D01*
%TO.C,R2*%
X129414600Y-82277200D02*
X129414600Y-88817200D01*
X129414600Y-88817200D02*
X132154600Y-88817200D01*
X132154600Y-88817200D02*
X132154600Y-82277200D01*
X130784600Y-81507200D02*
X130784600Y-82277200D01*
X130784600Y-89587200D02*
X130784600Y-88817200D01*
X132154600Y-82277200D02*
X129414600Y-82277200D01*
%TO.C,R6*%
X143941800Y-89762200D02*
X143941800Y-90532200D01*
X145311800Y-97072200D02*
X145311800Y-90532200D01*
X145311800Y-90532200D02*
X142571800Y-90532200D01*
X143941800Y-97842200D02*
X143941800Y-97072200D01*
X142571800Y-97072200D02*
X145311800Y-97072200D01*
X142571800Y-90532200D02*
X142571800Y-97072200D01*
%TO.C,R1*%
X128974600Y-75998400D02*
X122434600Y-75998400D01*
X128974600Y-78738400D02*
X128974600Y-75998400D01*
X122434600Y-78738400D02*
X128974600Y-78738400D01*
X121664600Y-77368400D02*
X122434600Y-77368400D01*
X122434600Y-75998400D02*
X122434600Y-78738400D01*
X129744600Y-77368400D02*
X128974600Y-77368400D01*
%TO.C,C6*%
X141952677Y-105921600D02*
X141952677Y-102700600D01*
X140952677Y-110915600D02*
X140952677Y-108403600D01*
X140792677Y-105921600D02*
X140792677Y-103561600D01*
X141592677Y-105921600D02*
X141592677Y-102915600D01*
X141272677Y-111182600D02*
X141272677Y-108403600D01*
X140552677Y-110509600D02*
X140552677Y-103815600D01*
X142312677Y-111801600D02*
X142312677Y-108403600D01*
X141992677Y-105921600D02*
X141992677Y-102679600D01*
X142432677Y-111852600D02*
X142432677Y-108403600D01*
X141832677Y-111557600D02*
X141832677Y-108403600D01*
X141312677Y-111212600D02*
X141312677Y-108403600D01*
X142392677Y-111836600D02*
X142392677Y-108403600D01*
X139832677Y-109451600D02*
X139832677Y-104873600D01*
X140512677Y-110463600D02*
X140512677Y-103861600D01*
X142552677Y-105921600D02*
X142552677Y-102424600D01*
X142272677Y-111783600D02*
X142272677Y-108403600D01*
X142792677Y-105921600D02*
X142792677Y-102338600D01*
X143833677Y-112212600D02*
X143833677Y-102112600D01*
X142072677Y-105921600D02*
X142072677Y-102637600D01*
X142912677Y-112024600D02*
X142912677Y-108403600D01*
X143512677Y-112166600D02*
X143512677Y-102158600D01*
X143632677Y-112186600D02*
X143632677Y-102138600D01*
X141432677Y-105921600D02*
X141432677Y-103024600D01*
X139432677Y-108392600D02*
X139432677Y-105932600D01*
X140592677Y-110554600D02*
X140592677Y-103770600D01*
X142832677Y-105921600D02*
X142832677Y-102325600D01*
X140672677Y-105921600D02*
X140672677Y-103684600D01*
X142032677Y-111666600D02*
X142032677Y-108403600D01*
X143272677Y-112118600D02*
X143272677Y-102206600D01*
X143753677Y-112202600D02*
X143753677Y-102122600D01*
X141792677Y-111533600D02*
X141792677Y-108403600D01*
X139952677Y-109672600D02*
X139952677Y-104652600D01*
X140952677Y-105921600D02*
X140952677Y-103409600D01*
X142272677Y-105921600D02*
X142272677Y-102541600D01*
X142832677Y-111999600D02*
X142832677Y-108403600D01*
X149873323Y-110037600D02*
X148873323Y-110037600D01*
X139512677Y-108672600D02*
X139512677Y-105652600D01*
X140712677Y-110682600D02*
X140712677Y-108403600D01*
X141192677Y-105921600D02*
X141192677Y-103205600D01*
X140472677Y-110416600D02*
X140472677Y-103908600D01*
X139792677Y-109371600D02*
X139792677Y-104953600D01*
X141512677Y-105921600D02*
X141512677Y-102968600D01*
X140912677Y-110878600D02*
X140912677Y-108403600D01*
X143032677Y-105921600D02*
X143032677Y-102265600D01*
X141872677Y-105921600D02*
X141872677Y-102745600D01*
X143672677Y-112192600D02*
X143672677Y-102132600D01*
X141352677Y-111242600D02*
X141352677Y-108403600D01*
X141952677Y-111624600D02*
X141952677Y-108403600D01*
X139992677Y-109741600D02*
X139992677Y-104583600D01*
X142792677Y-111986600D02*
X142792677Y-108403600D01*
X149373323Y-110537600D02*
X149373323Y-109537600D01*
X143472677Y-112159600D02*
X143472677Y-102165600D01*
X141792677Y-105921600D02*
X141792677Y-102791600D01*
X141472677Y-111328600D02*
X141472677Y-108403600D01*
X144073677Y-112232600D02*
X144073677Y-102092600D01*
X144113677Y-112235600D02*
X144113677Y-102089600D01*
X140752677Y-105921600D02*
X140752677Y-103601600D01*
X144313677Y-112242600D02*
X144313677Y-102082600D01*
X140192677Y-110051600D02*
X140192677Y-104273600D01*
X144353677Y-112242600D02*
X144353677Y-102082600D01*
X144273677Y-112241600D02*
X144273677Y-102083600D01*
X140832677Y-105921600D02*
X140832677Y-103522600D01*
X141632677Y-111435600D02*
X141632677Y-108403600D01*
X140792677Y-110763600D02*
X140792677Y-108403600D01*
X141112677Y-105921600D02*
X141112677Y-103270600D01*
X139552677Y-108792600D02*
X139552677Y-105532600D01*
X140752677Y-110723600D02*
X140752677Y-108403600D01*
X141632677Y-105921600D02*
X141632677Y-102889600D01*
X142752677Y-105921600D02*
X142752677Y-102351600D01*
X141032677Y-110986600D02*
X141032677Y-108403600D01*
X141752677Y-105921600D02*
X141752677Y-102815600D01*
X143312677Y-112127600D02*
X143312677Y-102197600D01*
X142872677Y-112012600D02*
X142872677Y-108403600D01*
X142232677Y-105921600D02*
X142232677Y-102559600D01*
X143873677Y-112216600D02*
X143873677Y-102108600D01*
X140312677Y-110216600D02*
X140312677Y-104108600D01*
X143592677Y-112180600D02*
X143592677Y-102144600D01*
X142872677Y-105921600D02*
X142872677Y-102312600D01*
X142672677Y-111945600D02*
X142672677Y-108403600D01*
X140272677Y-110162600D02*
X140272677Y-104162600D01*
X141232677Y-105921600D02*
X141232677Y-103173600D01*
X142592677Y-111916600D02*
X142592677Y-108403600D01*
X141472677Y-105921600D02*
X141472677Y-102996600D01*
X143112677Y-105921600D02*
X143112677Y-102244600D01*
X140352677Y-110268600D02*
X140352677Y-104056600D01*
X140392677Y-110318600D02*
X140392677Y-104006600D01*
X143392677Y-112144600D02*
X143392677Y-102180600D01*
X142592677Y-105921600D02*
X142592677Y-102408600D01*
X143352677Y-112136600D02*
X143352677Y-102188600D01*
X142672677Y-105921600D02*
X142672677Y-102379600D01*
X143713677Y-112197600D02*
X143713677Y-102127600D01*
X143032677Y-112059600D02*
X143032677Y-108403600D01*
X144393677Y-112242600D02*
X144393677Y-102082600D01*
X140072677Y-109871600D02*
X140072677Y-104453600D01*
X141992677Y-111645600D02*
X141992677Y-108403600D01*
X140632677Y-110598600D02*
X140632677Y-103726600D01*
X141832677Y-105921600D02*
X141832677Y-102767600D01*
X142112677Y-105921600D02*
X142112677Y-102617600D01*
X142992677Y-105921600D02*
X142992677Y-102277600D01*
X144233677Y-112240600D02*
X144233677Y-102084600D01*
X142472677Y-105921600D02*
X142472677Y-102455600D01*
X142352677Y-105921600D02*
X142352677Y-102505600D01*
X143072677Y-105921600D02*
X143072677Y-102255600D01*
X140152677Y-109992600D02*
X140152677Y-104332600D01*
X141512677Y-111356600D02*
X141512677Y-108403600D01*
X142032677Y-105921600D02*
X142032677Y-102658600D01*
X142952677Y-112036600D02*
X142952677Y-108403600D01*
X143432677Y-112152600D02*
X143432677Y-102172600D01*
X140112677Y-109932600D02*
X140112677Y-104392600D01*
X139352677Y-108024600D02*
X139352677Y-106300600D01*
X143993677Y-112227600D02*
X143993677Y-102097600D01*
X142392677Y-105921600D02*
X142392677Y-102488600D01*
X142632677Y-105921600D02*
X142632677Y-102394600D01*
X141912677Y-111602600D02*
X141912677Y-108403600D01*
X142352677Y-111819600D02*
X142352677Y-108403600D01*
X139672677Y-109106600D02*
X139672677Y-105218600D01*
X143192677Y-112100600D02*
X143192677Y-102224600D01*
X142112677Y-111707600D02*
X142112677Y-108403600D01*
X139472677Y-108540600D02*
X139472677Y-105784600D01*
X140432677Y-110368600D02*
X140432677Y-103956600D01*
X139912677Y-109601600D02*
X139912677Y-104723600D01*
X143152677Y-112090600D02*
X143152677Y-102234600D01*
X142552677Y-111900600D02*
X142552677Y-108403600D01*
X140672677Y-110640600D02*
X140672677Y-108403600D01*
X141072677Y-105921600D02*
X141072677Y-103304600D01*
X142992677Y-112047600D02*
X142992677Y-108403600D01*
X139632677Y-109008600D02*
X139632677Y-105316600D01*
X143552677Y-112173600D02*
X143552677Y-102151600D01*
X144153677Y-112237600D02*
X144153677Y-102087600D01*
X143112677Y-112080600D02*
X143112677Y-108403600D01*
X142712677Y-111959600D02*
X142712677Y-108403600D01*
X142952677Y-105921600D02*
X142952677Y-102288600D01*
X143953677Y-112224600D02*
X143953677Y-102100600D01*
X141712677Y-111485600D02*
X141712677Y-108403600D01*
X139392677Y-108224600D02*
X139392677Y-106100600D01*
X139712677Y-109199600D02*
X139712677Y-105125600D01*
X141672677Y-105921600D02*
X141672677Y-102864600D01*
X143072677Y-112069600D02*
X143072677Y-108403600D01*
X140872677Y-105921600D02*
X140872677Y-103483600D01*
X141592677Y-111409600D02*
X141592677Y-108403600D01*
X142512677Y-105921600D02*
X142512677Y-102439600D01*
X142192677Y-105921600D02*
X142192677Y-102578600D01*
X141672677Y-111460600D02*
X141672677Y-108403600D01*
X142432677Y-105921600D02*
X142432677Y-102472600D01*
X142152677Y-105921600D02*
X142152677Y-102598600D01*
X141272677Y-105921600D02*
X141272677Y-103142600D01*
X141312677Y-105921600D02*
X141312677Y-103112600D01*
X139752677Y-109287600D02*
X139752677Y-105037600D01*
X142072677Y-111687600D02*
X142072677Y-108403600D01*
X140992677Y-110951600D02*
X140992677Y-108403600D01*
X142712677Y-105921600D02*
X142712677Y-102365600D01*
X139592677Y-108904600D02*
X139592677Y-105420600D01*
X142312677Y-105921600D02*
X142312677Y-102523600D01*
X141752677Y-111509600D02*
X141752677Y-108403600D01*
X139312677Y-107761600D02*
X139312677Y-106563600D01*
X142632677Y-111930600D02*
X142632677Y-108403600D01*
X141712677Y-105921600D02*
X141712677Y-102839600D01*
X143232677Y-112109600D02*
X143232677Y-102215600D01*
X140872677Y-110841600D02*
X140872677Y-108403600D01*
X144033677Y-112230600D02*
X144033677Y-102094600D01*
X141032677Y-105921600D02*
X141032677Y-103338600D01*
X141072677Y-111020600D02*
X141072677Y-108403600D01*
X141872677Y-111579600D02*
X141872677Y-108403600D01*
X141112677Y-111054600D02*
X141112677Y-108403600D01*
X141392677Y-111272600D02*
X141392677Y-108403600D01*
X142512677Y-111885600D02*
X142512677Y-108403600D01*
X140992677Y-105921600D02*
X140992677Y-103373600D01*
X140712677Y-105921600D02*
X140712677Y-103642600D01*
X141232677Y-111151600D02*
X141232677Y-108403600D01*
X141912677Y-105921600D02*
X141912677Y-102722600D01*
X140912677Y-105921600D02*
X140912677Y-103446600D01*
X140032677Y-109807600D02*
X140032677Y-104517600D01*
X141552677Y-105921600D02*
X141552677Y-102941600D01*
X141152677Y-111087600D02*
X141152677Y-108403600D01*
X139872677Y-109527600D02*
X139872677Y-104797600D01*
X140232677Y-110107600D02*
X140232677Y-104217600D01*
X142472677Y-111869600D02*
X142472677Y-108403600D01*
X140832677Y-110802600D02*
X140832677Y-108403600D01*
X142152677Y-111726600D02*
X142152677Y-108403600D01*
X143913677Y-112220600D02*
X143913677Y-102104600D01*
X141352677Y-105921600D02*
X141352677Y-103082600D01*
X142192677Y-111746600D02*
X142192677Y-108403600D01*
X142752677Y-111973600D02*
X142752677Y-108403600D01*
X142232677Y-111765600D02*
X142232677Y-108403600D01*
X141392677Y-105921600D02*
X141392677Y-103052600D01*
X143793677Y-112207600D02*
X143793677Y-102117600D01*
X141152677Y-105921600D02*
X141152677Y-103237600D01*
X141552677Y-111383600D02*
X141552677Y-108403600D01*
X144193677Y-112239600D02*
X144193677Y-102085600D01*
X141432677Y-111300600D02*
X141432677Y-108403600D01*
X142912677Y-105921600D02*
X142912677Y-102300600D01*
X141192677Y-111119600D02*
X141192677Y-108403600D01*
X149513677Y-107162600D02*
G75*
G03*
X149513677Y-107162600I-5120000J0D01*
G01*
%TD*%
M02*
