%TF.GenerationSoftware,KiCad,Pcbnew,(6.0.0)*%
%TF.CreationDate,2022-02-02T10:45:07-05:00*%
%TF.ProjectId,PID_electronics,5049445f-656c-4656-9374-726f6e696373,rev?*%
%TF.SameCoordinates,Original*%
%TF.FileFunction,Copper,L2,Bot*%
%TF.FilePolarity,Positive*%
%FSLAX46Y46*%
G04 Gerber Fmt 4.6, Leading zero omitted, Abs format (unit mm)*
G04 Created by KiCad (PCBNEW (6.0.0)) date 2022-02-02 10:45:07*
%MOMM*%
%LPD*%
G01*
G04 APERTURE LIST*
G04 Aperture macros list*
%AMRoundRect*
0 Rectangle with rounded corners*
0 $1 Rounding radius*
0 $2 $3 $4 $5 $6 $7 $8 $9 X,Y pos of 4 corners*
0 Add a 4 corners polygon primitive as box body*
4,1,4,$2,$3,$4,$5,$6,$7,$8,$9,$2,$3,0*
0 Add four circle primitives for the rounded corners*
1,1,$1+$1,$2,$3*
1,1,$1+$1,$4,$5*
1,1,$1+$1,$6,$7*
1,1,$1+$1,$8,$9*
0 Add four rect primitives between the rounded corners*
20,1,$1+$1,$2,$3,$4,$5,0*
20,1,$1+$1,$4,$5,$6,$7,0*
20,1,$1+$1,$6,$7,$8,$9,0*
20,1,$1+$1,$8,$9,$2,$3,0*%
G04 Aperture macros list end*
%TA.AperFunction,ComponentPad*%
%ADD10C,2.500000*%
%TD*%
%TA.AperFunction,ComponentPad*%
%ADD11C,5.000000*%
%TD*%
%TA.AperFunction,ComponentPad*%
%ADD12RoundRect,0.275000X-0.275000X-0.625000X0.275000X-0.625000X0.275000X0.625000X-0.275000X0.625000X0*%
%TD*%
%TA.AperFunction,ComponentPad*%
%ADD13R,1.100000X1.800000*%
%TD*%
%TA.AperFunction,ComponentPad*%
%ADD14C,1.600000*%
%TD*%
%TA.AperFunction,ComponentPad*%
%ADD15O,1.600000X1.600000*%
%TD*%
%TA.AperFunction,ComponentPad*%
%ADD16R,2.000000X2.000000*%
%TD*%
%TA.AperFunction,ComponentPad*%
%ADD17C,2.000000*%
%TD*%
%TA.AperFunction,ComponentPad*%
%ADD18C,1.803400*%
%TD*%
%TA.AperFunction,ComponentPad*%
%ADD19O,1.600000X2.400000*%
%TD*%
%TA.AperFunction,ComponentPad*%
%ADD20R,1.600000X2.400000*%
%TD*%
G04 APERTURE END LIST*
D10*
%TO.P,REF\u002A\u002A,1*%
%TO.N,Net-(R1-Pad1)*%
X121767600Y-80975200D03*
%TD*%
%TO.P,REF\u002A\u002A,1*%
%TO.N,Net-(J2-Pad1)*%
X145034000Y-75361800D03*
%TD*%
%TO.P,REF\u002A\u002A,1*%
%TO.N,Net-(J2-Pad2)*%
X139522200Y-88900000D03*
%TD*%
%TO.P,REF\u002A\u002A,1*%
%TO.N,Net-(Q3-Pad2)*%
X114376200Y-88646000D03*
%TD*%
D11*
%TO.P,REF\u002A\u002A,*%
%TO.N,GNDREF*%
X135661400Y-74404000D03*
%TD*%
%TO.P,REF\u002A\u002A,*%
%TO.N,GNDREF*%
X137769600Y-110490000D03*
%TD*%
%TO.P,REF\u002A\u002A,*%
%TO.N,GNDREF*%
X115849400Y-110490000D03*
%TD*%
D12*
%TO.P,Q3,2,G*%
%TO.N,Net-(Q3-Pad2)*%
X115570000Y-82150000D03*
%TO.P,Q3,3,D*%
%TO.N,Net-(Q3-Pad3)*%
X116840000Y-84220000D03*
D13*
%TO.P,Q3,1,S*%
%TO.N,GNDREF*%
X114300000Y-84220000D03*
%TD*%
D14*
%TO.P,R10,1*%
%TO.N,Net-(J2-Pad1)*%
X155143200Y-95656400D03*
D15*
%TO.P,R10,2*%
%TO.N,Net-(R10-Pad2)*%
X155143200Y-105816400D03*
%TD*%
D14*
%TO.P,C1,1*%
%TO.N,Net-(C1-Pad1)*%
X134899400Y-101794000D03*
D15*
%TO.P,C1,2*%
%TO.N,Net-(C1-Pad2)*%
X134899400Y-94294000D03*
%TD*%
D16*
%TO.P,C5,1*%
%TO.N,+15V*%
X102331123Y-107340400D03*
D17*
%TO.P,C5,2*%
%TO.N,GNDREF*%
X107331123Y-107340400D03*
%TD*%
D18*
%TO.P,J2,1,Pin_1*%
%TO.N,Net-(J2-Pad1)*%
X152900000Y-79853500D03*
%TO.P,J2,2,Pin_2*%
%TO.N,Net-(J2-Pad2)*%
X152900000Y-84853500D03*
%TO.P,J2,3,Pin_3*%
%TO.N,GNDREF*%
X152900000Y-89853500D03*
%TD*%
D16*
%TO.P,C4,1*%
%TO.N,GNDREF*%
X94798277Y-107315000D03*
D17*
%TO.P,C4,2*%
%TO.N,-15V*%
X89798277Y-107315000D03*
%TD*%
D14*
%TO.P,C7,1*%
%TO.N,+15V*%
X130800800Y-109575600D03*
D15*
%TO.P,C7,2*%
%TO.N,GNDREF*%
X123300800Y-109575600D03*
%TD*%
D18*
%TO.P,J1,1,Pin_1*%
%TO.N,Net-(R1-Pad1)*%
X93337000Y-76148899D03*
%TO.P,J1,2,Pin_2*%
%TO.N,Net-(Q3-Pad2)*%
X93337000Y-81148899D03*
%TO.P,J1,3,Pin_3*%
%TO.N,GNDREF*%
X93337000Y-86148899D03*
%TO.P,J1,4,Pin_4*%
%TO.N,-15V*%
X93337000Y-91148900D03*
%TO.P,J1,5,Pin_5*%
%TO.N,+15V*%
X93337000Y-96148900D03*
%TD*%
D14*
%TO.P,R7,1*%
%TO.N,Net-(C1-Pad2)*%
X134874000Y-79806800D03*
D15*
%TO.P,R7,2*%
%TO.N,Net-(J2-Pad1)*%
X145034000Y-79806800D03*
%TD*%
D14*
%TO.P,C3,1*%
%TO.N,+15V*%
X130800800Y-105791000D03*
D15*
%TO.P,C3,2*%
%TO.N,GNDREF*%
X123300800Y-105791000D03*
%TD*%
D14*
%TO.P,R4,1*%
%TO.N,Net-(R1-Pad1)*%
X110210600Y-78587600D03*
D15*
%TO.P,R4,2*%
%TO.N,GNDREF*%
X100050600Y-78587600D03*
%TD*%
D14*
%TO.P,R8,1*%
%TO.N,Net-(C1-Pad2)*%
X134899400Y-83489800D03*
D15*
%TO.P,R8,2*%
%TO.N,GNDREF*%
X145059400Y-83489800D03*
%TD*%
D19*
%TO.P,U1,8,V+*%
%TO.N,+15V*%
X130800000Y-101605000D03*
%TO.P,U1,7*%
%TO.N,Net-(C1-Pad1)*%
X128260000Y-101605000D03*
%TO.P,U1,6,-*%
%TO.N,Net-(C1-Pad2)*%
X125720000Y-101605000D03*
%TO.P,U1,5,+*%
%TO.N,Net-(R2-Pad2)*%
X123180000Y-101605000D03*
%TO.P,U1,4,V-*%
%TO.N,-15V*%
X123180000Y-93985000D03*
%TO.P,U1,3,+*%
%TO.N,Net-(Q3-Pad3)*%
X125720000Y-93985000D03*
%TO.P,U1,2,-*%
%TO.N,Net-(R1-Pad2)*%
X128260000Y-93985000D03*
D20*
%TO.P,U1,1*%
%TO.N,Net-(R2-Pad2)*%
X130800000Y-93985000D03*
%TD*%
D14*
%TO.P,C8,1*%
%TO.N,GNDREF*%
X111820000Y-98094800D03*
D15*
%TO.P,C8,2*%
%TO.N,-15V*%
X119320000Y-98094800D03*
%TD*%
D14*
%TO.P,C2,1*%
%TO.N,GNDREF*%
X111921600Y-93954600D03*
D15*
%TO.P,C2,2*%
%TO.N,-15V*%
X119421600Y-93954600D03*
%TD*%
D14*
%TO.P,R9,1*%
%TO.N,Net-(Q3-Pad2)*%
X110312200Y-88036400D03*
D15*
%TO.P,R9,2*%
%TO.N,GNDREF*%
X100152200Y-88036400D03*
%TD*%
D14*
%TO.P,R3,1*%
%TO.N,Net-(R1-Pad1)*%
X125755400Y-81000600D03*
D15*
%TO.P,R3,2*%
%TO.N,Net-(Q3-Pad3)*%
X125755400Y-91160600D03*
%TD*%
D14*
%TO.P,R2,1*%
%TO.N,Net-(R1-Pad2)*%
X130784600Y-80467200D03*
D15*
%TO.P,R2,2*%
%TO.N,Net-(R2-Pad2)*%
X130784600Y-90627200D03*
%TD*%
D14*
%TO.P,R6,1*%
%TO.N,Net-(C1-Pad1)*%
X143941800Y-98882200D03*
D15*
%TO.P,R6,2*%
%TO.N,Net-(J2-Pad2)*%
X143941800Y-88722200D03*
%TD*%
D14*
%TO.P,R1,1*%
%TO.N,Net-(R1-Pad1)*%
X120624600Y-77368400D03*
D15*
%TO.P,R1,2*%
%TO.N,Net-(R1-Pad2)*%
X130784600Y-77368400D03*
%TD*%
D16*
%TO.P,C6,1*%
%TO.N,Net-(R10-Pad2)*%
X148620877Y-105791000D03*
D17*
%TO.P,C6,2*%
%TO.N,GNDREF*%
X143620877Y-105791000D03*
%TD*%
%TA.AperFunction,Conductor*%
%TO.N,GNDREF*%
G36*
X159479081Y-71394380D02*
G01*
X159525610Y-71448004D01*
X159537031Y-71500494D01*
X159522826Y-95889802D01*
X159512369Y-113843873D01*
X159492327Y-113911982D01*
X159438645Y-113958444D01*
X159386369Y-113969800D01*
X84454370Y-113969800D01*
X84386249Y-113949798D01*
X84339756Y-113896142D01*
X84328370Y-113843727D01*
X84328984Y-112791681D01*
X113913260Y-112791681D01*
X113913278Y-112791933D01*
X113919193Y-112800677D01*
X113950511Y-112829174D01*
X113956148Y-112833738D01*
X114231944Y-113031918D01*
X114238082Y-113035813D01*
X114534835Y-113200984D01*
X114541355Y-113204136D01*
X114855138Y-113334109D01*
X114861989Y-113336495D01*
X115188612Y-113429536D01*
X115195701Y-113431120D01*
X115530865Y-113486006D01*
X115538071Y-113486763D01*
X115877326Y-113502762D01*
X115884576Y-113502686D01*
X116223410Y-113479587D01*
X116230619Y-113478676D01*
X116564560Y-113416784D01*
X116571590Y-113415057D01*
X116896219Y-113315187D01*
X116902997Y-113312667D01*
X117214003Y-113176145D01*
X117220443Y-113172864D01*
X117513693Y-113001502D01*
X117519726Y-112997493D01*
X117778228Y-112803405D01*
X117786682Y-112792078D01*
X117786465Y-112791681D01*
X135833460Y-112791681D01*
X135833478Y-112791933D01*
X135839393Y-112800677D01*
X135870711Y-112829174D01*
X135876348Y-112833738D01*
X136152144Y-113031918D01*
X136158282Y-113035813D01*
X136455035Y-113200984D01*
X136461555Y-113204136D01*
X136775338Y-113334109D01*
X136782189Y-113336495D01*
X137108812Y-113429536D01*
X137115901Y-113431120D01*
X137451065Y-113486006D01*
X137458271Y-113486763D01*
X137797526Y-113502762D01*
X137804776Y-113502686D01*
X138143610Y-113479587D01*
X138150819Y-113478676D01*
X138484760Y-113416784D01*
X138491790Y-113415057D01*
X138816419Y-113315187D01*
X138823197Y-113312667D01*
X139134203Y-113176145D01*
X139140643Y-113172864D01*
X139433893Y-113001502D01*
X139439926Y-112997493D01*
X139698428Y-112803405D01*
X139706882Y-112792078D01*
X139700137Y-112779748D01*
X137782410Y-110862020D01*
X137768469Y-110854408D01*
X137766634Y-110854539D01*
X137760020Y-110858790D01*
X135841074Y-112777737D01*
X135833460Y-112791681D01*
X117786465Y-112791681D01*
X117779937Y-112779748D01*
X115862210Y-110862020D01*
X115848269Y-110854408D01*
X115846434Y-110854539D01*
X115839820Y-110858790D01*
X113920874Y-112777737D01*
X113913260Y-112791681D01*
X84328984Y-112791681D01*
X84330379Y-110398987D01*
X112837884Y-110398987D01*
X112846774Y-110738505D01*
X112847380Y-110745721D01*
X112895235Y-111081963D01*
X112896669Y-111089074D01*
X112982855Y-111417595D01*
X112985092Y-111424478D01*
X113108464Y-111740914D01*
X113111481Y-111747503D01*
X113270402Y-112047652D01*
X113274161Y-112053860D01*
X113466529Y-112333757D01*
X113470974Y-112339486D01*
X113538143Y-112416484D01*
X113551317Y-112424888D01*
X113561169Y-112419020D01*
X115477380Y-110502810D01*
X115483757Y-110491131D01*
X116213808Y-110491131D01*
X116213939Y-110492966D01*
X116218190Y-110499580D01*
X118135668Y-112417057D01*
X118149022Y-112424349D01*
X118158994Y-112417295D01*
X118266041Y-112289267D01*
X118270357Y-112283456D01*
X118456832Y-111999575D01*
X118460446Y-111993313D01*
X118613058Y-111689882D01*
X118615930Y-111683244D01*
X118732649Y-111364293D01*
X118734745Y-111357351D01*
X118814031Y-111027103D01*
X118815315Y-111019964D01*
X118856216Y-110681973D01*
X118856640Y-110676403D01*
X118862410Y-110492797D01*
X118862337Y-110487204D01*
X118842738Y-110147303D01*
X118841906Y-110140113D01*
X118789899Y-109842122D01*
X122018073Y-109842122D01*
X122065564Y-110019361D01*
X122069310Y-110029653D01*
X122161386Y-110227111D01*
X122166869Y-110236607D01*
X122291828Y-110415067D01*
X122298884Y-110423475D01*
X122452925Y-110577516D01*
X122461333Y-110584572D01*
X122639793Y-110709531D01*
X122649289Y-110715014D01*
X122846747Y-110807090D01*
X122857039Y-110810836D01*
X123029303Y-110856994D01*
X123043399Y-110856658D01*
X123046800Y-110848716D01*
X123046800Y-110843567D01*
X123554800Y-110843567D01*
X123558773Y-110857098D01*
X123567322Y-110858327D01*
X123744561Y-110810836D01*
X123754853Y-110807090D01*
X123952311Y-110715014D01*
X123961807Y-110709531D01*
X124140267Y-110584572D01*
X124148675Y-110577516D01*
X124302716Y-110423475D01*
X124309772Y-110415067D01*
X124434731Y-110236607D01*
X124440214Y-110227111D01*
X124532290Y-110029653D01*
X124536036Y-110019361D01*
X124582194Y-109847097D01*
X124581858Y-109833001D01*
X124573916Y-109829600D01*
X123572915Y-109829600D01*
X123557676Y-109834075D01*
X123556471Y-109835465D01*
X123554800Y-109843148D01*
X123554800Y-110843567D01*
X123046800Y-110843567D01*
X123046800Y-109847715D01*
X123042325Y-109832476D01*
X123040935Y-109831271D01*
X123033252Y-109829600D01*
X122032833Y-109829600D01*
X122019302Y-109833573D01*
X122018073Y-109842122D01*
X118789899Y-109842122D01*
X118783513Y-109805529D01*
X118781858Y-109798474D01*
X118715839Y-109575600D01*
X129487302Y-109575600D01*
X129507257Y-109803687D01*
X129508681Y-109809000D01*
X129508681Y-109809002D01*
X129517831Y-109843148D01*
X129566516Y-110024843D01*
X129568839Y-110029824D01*
X129568839Y-110029825D01*
X129660951Y-110227362D01*
X129660954Y-110227367D01*
X129663277Y-110232349D01*
X129666434Y-110236857D01*
X129779959Y-110398987D01*
X129794602Y-110419900D01*
X129956500Y-110581798D01*
X129961008Y-110584955D01*
X129961011Y-110584957D01*
X130039189Y-110639698D01*
X130144051Y-110713123D01*
X130149033Y-110715446D01*
X130149038Y-110715449D01*
X130345565Y-110807090D01*
X130351557Y-110809884D01*
X130356865Y-110811306D01*
X130356867Y-110811307D01*
X130567398Y-110867719D01*
X130567400Y-110867719D01*
X130572713Y-110869143D01*
X130800800Y-110889098D01*
X131028887Y-110869143D01*
X131034200Y-110867719D01*
X131034202Y-110867719D01*
X131244733Y-110811307D01*
X131244735Y-110811306D01*
X131250043Y-110809884D01*
X131256035Y-110807090D01*
X131452562Y-110715449D01*
X131452567Y-110715446D01*
X131457549Y-110713123D01*
X131562411Y-110639698D01*
X131640589Y-110584957D01*
X131640592Y-110584955D01*
X131645100Y-110581798D01*
X131806998Y-110419900D01*
X131821642Y-110398987D01*
X134758084Y-110398987D01*
X134766974Y-110738505D01*
X134767580Y-110745721D01*
X134815435Y-111081963D01*
X134816869Y-111089074D01*
X134903055Y-111417595D01*
X134905292Y-111424478D01*
X135028664Y-111740914D01*
X135031681Y-111747503D01*
X135190602Y-112047652D01*
X135194361Y-112053860D01*
X135386729Y-112333757D01*
X135391174Y-112339486D01*
X135458343Y-112416484D01*
X135471517Y-112424888D01*
X135481369Y-112419020D01*
X137397580Y-110502810D01*
X137403957Y-110491131D01*
X138134008Y-110491131D01*
X138134139Y-110492966D01*
X138138390Y-110499580D01*
X140055868Y-112417057D01*
X140069222Y-112424349D01*
X140079194Y-112417295D01*
X140186241Y-112289267D01*
X140190557Y-112283456D01*
X140377032Y-111999575D01*
X140380646Y-111993313D01*
X140533258Y-111689882D01*
X140536130Y-111683244D01*
X140652849Y-111364293D01*
X140654945Y-111357351D01*
X140734231Y-111027103D01*
X140735515Y-111019964D01*
X140776416Y-110681973D01*
X140776840Y-110676403D01*
X140782610Y-110492797D01*
X140782537Y-110487204D01*
X140762938Y-110147303D01*
X140762106Y-110140113D01*
X140703713Y-109805529D01*
X140702058Y-109798474D01*
X140605598Y-109472834D01*
X140603140Y-109466006D01*
X140469890Y-109153608D01*
X140466673Y-109147125D01*
X140298388Y-108852089D01*
X140294456Y-108846034D01*
X140093374Y-108572295D01*
X140088766Y-108566726D01*
X140083430Y-108560984D01*
X140069778Y-108552866D01*
X140069170Y-108552887D01*
X140060692Y-108558119D01*
X138141620Y-110477190D01*
X138134008Y-110491131D01*
X137403957Y-110491131D01*
X137405192Y-110488869D01*
X137405061Y-110487034D01*
X137400810Y-110480420D01*
X135481974Y-108561585D01*
X135469181Y-108554599D01*
X135458427Y-108562464D01*
X135297637Y-108767527D01*
X135293502Y-108773476D01*
X135116040Y-109063068D01*
X135112619Y-109069447D01*
X134969616Y-109377522D01*
X134966956Y-109384241D01*
X134860311Y-109706707D01*
X134858434Y-109713711D01*
X134789561Y-110046288D01*
X134788504Y-110053449D01*
X134758312Y-110391735D01*
X134758084Y-110398987D01*
X131821642Y-110398987D01*
X131935166Y-110236857D01*
X131938323Y-110232349D01*
X131940646Y-110227367D01*
X131940649Y-110227362D01*
X132032761Y-110029825D01*
X132032761Y-110029824D01*
X132035084Y-110024843D01*
X132083770Y-109843148D01*
X132092919Y-109809002D01*
X132092919Y-109809000D01*
X132094343Y-109803687D01*
X132114298Y-109575600D01*
X132094343Y-109347513D01*
X132084044Y-109309078D01*
X132036507Y-109131667D01*
X132036506Y-109131665D01*
X132035084Y-109126357D01*
X131940766Y-108924089D01*
X131940649Y-108923838D01*
X131940646Y-108923833D01*
X131938323Y-108918851D01*
X131841226Y-108780183D01*
X131810157Y-108735811D01*
X131810155Y-108735808D01*
X131806998Y-108731300D01*
X131645100Y-108569402D01*
X131640592Y-108566245D01*
X131640589Y-108566243D01*
X131475599Y-108450716D01*
X131457549Y-108438077D01*
X131452567Y-108435754D01*
X131452562Y-108435751D01*
X131255025Y-108343639D01*
X131255024Y-108343639D01*
X131250043Y-108341316D01*
X131244735Y-108339894D01*
X131244733Y-108339893D01*
X131034202Y-108283481D01*
X131034200Y-108283481D01*
X131028887Y-108282057D01*
X130800800Y-108262102D01*
X130572713Y-108282057D01*
X130567400Y-108283481D01*
X130567398Y-108283481D01*
X130356867Y-108339893D01*
X130356865Y-108339894D01*
X130351557Y-108341316D01*
X130346576Y-108343639D01*
X130346575Y-108343639D01*
X130149038Y-108435751D01*
X130149033Y-108435754D01*
X130144051Y-108438077D01*
X130126001Y-108450716D01*
X129961011Y-108566243D01*
X129961008Y-108566245D01*
X129956500Y-108569402D01*
X129794602Y-108731300D01*
X129791445Y-108735808D01*
X129791443Y-108735811D01*
X129760374Y-108780183D01*
X129663277Y-108918851D01*
X129660954Y-108923833D01*
X129660951Y-108923838D01*
X129660834Y-108924089D01*
X129566516Y-109126357D01*
X129565094Y-109131665D01*
X129565093Y-109131667D01*
X129517556Y-109309078D01*
X129507257Y-109347513D01*
X129487302Y-109575600D01*
X118715839Y-109575600D01*
X118685398Y-109472834D01*
X118682940Y-109466006D01*
X118613882Y-109304103D01*
X122019406Y-109304103D01*
X122019742Y-109318199D01*
X122027684Y-109321600D01*
X123028685Y-109321600D01*
X123043924Y-109317125D01*
X123045129Y-109315735D01*
X123046800Y-109308052D01*
X123046800Y-109303485D01*
X123554800Y-109303485D01*
X123559275Y-109318724D01*
X123560665Y-109319929D01*
X123568348Y-109321600D01*
X124568767Y-109321600D01*
X124582298Y-109317627D01*
X124583527Y-109309078D01*
X124536036Y-109131839D01*
X124532290Y-109121547D01*
X124440214Y-108924089D01*
X124434731Y-108914593D01*
X124309772Y-108736133D01*
X124302716Y-108727725D01*
X124148675Y-108573684D01*
X124140267Y-108566628D01*
X123961807Y-108441669D01*
X123952311Y-108436186D01*
X123754853Y-108344110D01*
X123744561Y-108340364D01*
X123572297Y-108294206D01*
X123558201Y-108294542D01*
X123554800Y-108302484D01*
X123554800Y-109303485D01*
X123046800Y-109303485D01*
X123046800Y-108307633D01*
X123042827Y-108294102D01*
X123034278Y-108292873D01*
X122857039Y-108340364D01*
X122846747Y-108344110D01*
X122649289Y-108436186D01*
X122639793Y-108441669D01*
X122461333Y-108566628D01*
X122452925Y-108573684D01*
X122298884Y-108727725D01*
X122291828Y-108736133D01*
X122166869Y-108914593D01*
X122161386Y-108924089D01*
X122069310Y-109121547D01*
X122065564Y-109131839D01*
X122019406Y-109304103D01*
X118613882Y-109304103D01*
X118549690Y-109153608D01*
X118546473Y-109147125D01*
X118378188Y-108852089D01*
X118374256Y-108846034D01*
X118173174Y-108572295D01*
X118168566Y-108566726D01*
X118163230Y-108560984D01*
X118149578Y-108552866D01*
X118148970Y-108552887D01*
X118140492Y-108558119D01*
X116221420Y-110477190D01*
X116213808Y-110491131D01*
X115483757Y-110491131D01*
X115484992Y-110488869D01*
X115484861Y-110487034D01*
X115480610Y-110480420D01*
X113561774Y-108561585D01*
X113548981Y-108554599D01*
X113538227Y-108562464D01*
X113377437Y-108767527D01*
X113373302Y-108773476D01*
X113195840Y-109063068D01*
X113192419Y-109069447D01*
X113049416Y-109377522D01*
X113046756Y-109384241D01*
X112940111Y-109706707D01*
X112938234Y-109713711D01*
X112869361Y-110046288D01*
X112868304Y-110053449D01*
X112838112Y-110391735D01*
X112837884Y-110398987D01*
X84330379Y-110398987D01*
X84332177Y-107315000D01*
X88285112Y-107315000D01*
X88303742Y-107551711D01*
X88304896Y-107556518D01*
X88304897Y-107556524D01*
X88319192Y-107616065D01*
X88359172Y-107782594D01*
X88361065Y-107787165D01*
X88361066Y-107787167D01*
X88387728Y-107851534D01*
X88450037Y-108001963D01*
X88452623Y-108006183D01*
X88571518Y-108200202D01*
X88571522Y-108200208D01*
X88574101Y-108204416D01*
X88728308Y-108384969D01*
X88908861Y-108539176D01*
X88913069Y-108541755D01*
X88913075Y-108541759D01*
X89107094Y-108660654D01*
X89111314Y-108663240D01*
X89115884Y-108665133D01*
X89115888Y-108665135D01*
X89275626Y-108731300D01*
X89330683Y-108754105D01*
X89386590Y-108767527D01*
X89556753Y-108808380D01*
X89556759Y-108808381D01*
X89561566Y-108809535D01*
X89798277Y-108828165D01*
X90034988Y-108809535D01*
X90039795Y-108808381D01*
X90039801Y-108808380D01*
X90209964Y-108767527D01*
X90265871Y-108754105D01*
X90320928Y-108731300D01*
X90480666Y-108665135D01*
X90480670Y-108665133D01*
X90485240Y-108663240D01*
X90489460Y-108660654D01*
X90683479Y-108541759D01*
X90683485Y-108541755D01*
X90687693Y-108539176D01*
X90868246Y-108384969D01*
X90889854Y-108359669D01*
X93290278Y-108359669D01*
X93290648Y-108366490D01*
X93296172Y-108417352D01*
X93299798Y-108432604D01*
X93344953Y-108553054D01*
X93353491Y-108568649D01*
X93429992Y-108670724D01*
X93442553Y-108683285D01*
X93544628Y-108759786D01*
X93560223Y-108768324D01*
X93680671Y-108813478D01*
X93695926Y-108817105D01*
X93746791Y-108822631D01*
X93753605Y-108823000D01*
X94526162Y-108823000D01*
X94541401Y-108818525D01*
X94542606Y-108817135D01*
X94544277Y-108809452D01*
X94544277Y-108804884D01*
X95052277Y-108804884D01*
X95056752Y-108820123D01*
X95058142Y-108821328D01*
X95065825Y-108822999D01*
X95842946Y-108822999D01*
X95849767Y-108822629D01*
X95900629Y-108817105D01*
X95915881Y-108813479D01*
X96036331Y-108768324D01*
X96051926Y-108759786D01*
X96154001Y-108683285D01*
X96166562Y-108670724D01*
X96243063Y-108568649D01*
X96251601Y-108553054D01*
X96296755Y-108432606D01*
X96300382Y-108417351D01*
X96303513Y-108388534D01*
X100822623Y-108388534D01*
X100829378Y-108450716D01*
X100880508Y-108587105D01*
X100967862Y-108703661D01*
X101084418Y-108791015D01*
X101220807Y-108842145D01*
X101282989Y-108848900D01*
X103379257Y-108848900D01*
X103441439Y-108842145D01*
X103577828Y-108791015D01*
X103694384Y-108703661D01*
X103781738Y-108587105D01*
X103786999Y-108573070D01*
X106463283Y-108573070D01*
X106469010Y-108580720D01*
X106640165Y-108685605D01*
X106648960Y-108690087D01*
X106859111Y-108777134D01*
X106868496Y-108780183D01*
X107089677Y-108833285D01*
X107099424Y-108834828D01*
X107326193Y-108852675D01*
X107336053Y-108852675D01*
X107562822Y-108834828D01*
X107572569Y-108833285D01*
X107793750Y-108780183D01*
X107803135Y-108777134D01*
X108013286Y-108690087D01*
X108022081Y-108685605D01*
X108189568Y-108582968D01*
X108199030Y-108572510D01*
X108195247Y-108563734D01*
X107343935Y-107712422D01*
X107329991Y-107704808D01*
X107328158Y-107704939D01*
X107321543Y-107709190D01*
X106470043Y-108560690D01*
X106463283Y-108573070D01*
X103786999Y-108573070D01*
X103832868Y-108450716D01*
X103839623Y-108388534D01*
X103839623Y-107345330D01*
X105818848Y-107345330D01*
X105836695Y-107572099D01*
X105838238Y-107581846D01*
X105891340Y-107803027D01*
X105894389Y-107812412D01*
X105981436Y-108022563D01*
X105985918Y-108031358D01*
X106088555Y-108198845D01*
X106099013Y-108208307D01*
X106107789Y-108204524D01*
X106959101Y-107353212D01*
X106965479Y-107341532D01*
X107695531Y-107341532D01*
X107695662Y-107343365D01*
X107699913Y-107349980D01*
X108551413Y-108201480D01*
X108563793Y-108208240D01*
X108571443Y-108202513D01*
X108578469Y-108191048D01*
X113914532Y-108191048D01*
X113920927Y-108202316D01*
X115836590Y-110117980D01*
X115850531Y-110125592D01*
X115852366Y-110125461D01*
X115858980Y-110121210D01*
X117776474Y-108203716D01*
X117783391Y-108191048D01*
X135834732Y-108191048D01*
X135841127Y-108202316D01*
X137756790Y-110117980D01*
X137770731Y-110125592D01*
X137772566Y-110125461D01*
X137779180Y-110121210D01*
X139696674Y-108203716D01*
X139704066Y-108190179D01*
X139697279Y-108180479D01*
X139594076Y-108092335D01*
X139588304Y-108087953D01*
X139306396Y-107898519D01*
X139300175Y-107894839D01*
X138998357Y-107739060D01*
X138991746Y-107736116D01*
X138674039Y-107616065D01*
X138667113Y-107613894D01*
X138337712Y-107531155D01*
X138330605Y-107529799D01*
X137993878Y-107485468D01*
X137986636Y-107484937D01*
X137647067Y-107479602D01*
X137639805Y-107479906D01*
X137301856Y-107513638D01*
X137294708Y-107514770D01*
X136962863Y-107587124D01*
X136955885Y-107589072D01*
X136634560Y-107699086D01*
X136627853Y-107701823D01*
X136321307Y-107848039D01*
X136314949Y-107851534D01*
X136027254Y-108032005D01*
X136021331Y-108036214D01*
X135843201Y-108178923D01*
X135834732Y-108191048D01*
X117783391Y-108191048D01*
X117783866Y-108190179D01*
X117777079Y-108180479D01*
X117673876Y-108092335D01*
X117668104Y-108087953D01*
X117386196Y-107898519D01*
X117379975Y-107894839D01*
X117078157Y-107739060D01*
X117071546Y-107736116D01*
X116753839Y-107616065D01*
X116746913Y-107613894D01*
X116417512Y-107531155D01*
X116410405Y-107529799D01*
X116073678Y-107485468D01*
X116066436Y-107484937D01*
X115726867Y-107479602D01*
X115719605Y-107479906D01*
X115381656Y-107513638D01*
X115374508Y-107514770D01*
X115042663Y-107587124D01*
X115035685Y-107589072D01*
X114714360Y-107699086D01*
X114707653Y-107701823D01*
X114401107Y-107848039D01*
X114394749Y-107851534D01*
X114107054Y-108032005D01*
X114101131Y-108036214D01*
X113923001Y-108178923D01*
X113914532Y-108191048D01*
X108578469Y-108191048D01*
X108676328Y-108031358D01*
X108680810Y-108022563D01*
X108767857Y-107812412D01*
X108770906Y-107803027D01*
X108824008Y-107581846D01*
X108825551Y-107572099D01*
X108843398Y-107345330D01*
X108843398Y-107335470D01*
X108825551Y-107108701D01*
X108824008Y-107098954D01*
X108770906Y-106877773D01*
X108767857Y-106868388D01*
X108680810Y-106658237D01*
X108676328Y-106649442D01*
X108573691Y-106481955D01*
X108563233Y-106472493D01*
X108554457Y-106476276D01*
X107703145Y-107327588D01*
X107695531Y-107341532D01*
X106965479Y-107341532D01*
X106966715Y-107339268D01*
X106966584Y-107337435D01*
X106962333Y-107330820D01*
X106110833Y-106479320D01*
X106098453Y-106472560D01*
X106090803Y-106478287D01*
X105985918Y-106649442D01*
X105981436Y-106658237D01*
X105894389Y-106868388D01*
X105891340Y-106877773D01*
X105838238Y-107098954D01*
X105836695Y-107108701D01*
X105818848Y-107335470D01*
X105818848Y-107345330D01*
X103839623Y-107345330D01*
X103839623Y-106292266D01*
X103832868Y-106230084D01*
X103787209Y-106108290D01*
X106463216Y-106108290D01*
X106466999Y-106117066D01*
X107318311Y-106968378D01*
X107332255Y-106975992D01*
X107334088Y-106975861D01*
X107340703Y-106971610D01*
X108192203Y-106120110D01*
X108198963Y-106107730D01*
X108193236Y-106100080D01*
X108123788Y-106057522D01*
X122018073Y-106057522D01*
X122065564Y-106234761D01*
X122069310Y-106245053D01*
X122161386Y-106442511D01*
X122166869Y-106452007D01*
X122291828Y-106630467D01*
X122298884Y-106638875D01*
X122452925Y-106792916D01*
X122461333Y-106799972D01*
X122639793Y-106924931D01*
X122649289Y-106930414D01*
X122846747Y-107022490D01*
X122857039Y-107026236D01*
X123029303Y-107072394D01*
X123043399Y-107072058D01*
X123046800Y-107064116D01*
X123046800Y-107058967D01*
X123554800Y-107058967D01*
X123558773Y-107072498D01*
X123567322Y-107073727D01*
X123744561Y-107026236D01*
X123754853Y-107022490D01*
X123952311Y-106930414D01*
X123961807Y-106924931D01*
X124140267Y-106799972D01*
X124148675Y-106792916D01*
X124302716Y-106638875D01*
X124309772Y-106630467D01*
X124434731Y-106452007D01*
X124440214Y-106442511D01*
X124532290Y-106245053D01*
X124536036Y-106234761D01*
X124582194Y-106062497D01*
X124581858Y-106048401D01*
X124573916Y-106045000D01*
X123572915Y-106045000D01*
X123557676Y-106049475D01*
X123556471Y-106050865D01*
X123554800Y-106058548D01*
X123554800Y-107058967D01*
X123046800Y-107058967D01*
X123046800Y-106063115D01*
X123042325Y-106047876D01*
X123040935Y-106046671D01*
X123033252Y-106045000D01*
X122032833Y-106045000D01*
X122019302Y-106048973D01*
X122018073Y-106057522D01*
X108123788Y-106057522D01*
X108022081Y-105995195D01*
X108013286Y-105990713D01*
X107803135Y-105903666D01*
X107793750Y-105900617D01*
X107572569Y-105847515D01*
X107562822Y-105845972D01*
X107336053Y-105828125D01*
X107326193Y-105828125D01*
X107099424Y-105845972D01*
X107089677Y-105847515D01*
X106868496Y-105900617D01*
X106859111Y-105903666D01*
X106648960Y-105990713D01*
X106640165Y-105995195D01*
X106472678Y-106097832D01*
X106463216Y-106108290D01*
X103787209Y-106108290D01*
X103781738Y-106093695D01*
X103694384Y-105977139D01*
X103577828Y-105889785D01*
X103441439Y-105838655D01*
X103379257Y-105831900D01*
X101282989Y-105831900D01*
X101220807Y-105838655D01*
X101084418Y-105889785D01*
X100967862Y-105977139D01*
X100880508Y-106093695D01*
X100829378Y-106230084D01*
X100822623Y-106292266D01*
X100822623Y-108388534D01*
X96303513Y-108388534D01*
X96305908Y-108366486D01*
X96306277Y-108359672D01*
X96306277Y-107587115D01*
X96301802Y-107571876D01*
X96300412Y-107570671D01*
X96292729Y-107569000D01*
X95070392Y-107569000D01*
X95055153Y-107573475D01*
X95053948Y-107574865D01*
X95052277Y-107582548D01*
X95052277Y-108804884D01*
X94544277Y-108804884D01*
X94544277Y-107587115D01*
X94539802Y-107571876D01*
X94538412Y-107570671D01*
X94530729Y-107569000D01*
X93308393Y-107569000D01*
X93293154Y-107573475D01*
X93291949Y-107574865D01*
X93290278Y-107582548D01*
X93290278Y-108359669D01*
X90889854Y-108359669D01*
X91022453Y-108204416D01*
X91025032Y-108200208D01*
X91025036Y-108200202D01*
X91143931Y-108006183D01*
X91146517Y-108001963D01*
X91208827Y-107851534D01*
X91235488Y-107787167D01*
X91235489Y-107787165D01*
X91237382Y-107782594D01*
X91277362Y-107616065D01*
X91291657Y-107556524D01*
X91291658Y-107556518D01*
X91292812Y-107551711D01*
X91311442Y-107315000D01*
X91292812Y-107078289D01*
X91291317Y-107072058D01*
X91284313Y-107042885D01*
X93290277Y-107042885D01*
X93294752Y-107058124D01*
X93296142Y-107059329D01*
X93303825Y-107061000D01*
X94526162Y-107061000D01*
X94541401Y-107056525D01*
X94542606Y-107055135D01*
X94544277Y-107047452D01*
X94544277Y-107042885D01*
X95052277Y-107042885D01*
X95056752Y-107058124D01*
X95058142Y-107059329D01*
X95065825Y-107061000D01*
X96288161Y-107061000D01*
X96303400Y-107056525D01*
X96304605Y-107055135D01*
X96306276Y-107047452D01*
X96306276Y-106270331D01*
X96305906Y-106263510D01*
X96300382Y-106212648D01*
X96296756Y-106197396D01*
X96251601Y-106076946D01*
X96243063Y-106061351D01*
X96166562Y-105959276D01*
X96154001Y-105946715D01*
X96051926Y-105870214D01*
X96036331Y-105861676D01*
X95915883Y-105816522D01*
X95900628Y-105812895D01*
X95849763Y-105807369D01*
X95842949Y-105807000D01*
X95070392Y-105807000D01*
X95055153Y-105811475D01*
X95053948Y-105812865D01*
X95052277Y-105820548D01*
X95052277Y-107042885D01*
X94544277Y-107042885D01*
X94544277Y-105825116D01*
X94539802Y-105809877D01*
X94538412Y-105808672D01*
X94530729Y-105807001D01*
X93753608Y-105807001D01*
X93746787Y-105807371D01*
X93695925Y-105812895D01*
X93680673Y-105816521D01*
X93560223Y-105861676D01*
X93544628Y-105870214D01*
X93442553Y-105946715D01*
X93429992Y-105959276D01*
X93353491Y-106061351D01*
X93344953Y-106076946D01*
X93299799Y-106197394D01*
X93296172Y-106212649D01*
X93290646Y-106263514D01*
X93290277Y-106270328D01*
X93290277Y-107042885D01*
X91284313Y-107042885D01*
X91256637Y-106927609D01*
X91237382Y-106847406D01*
X91217894Y-106800357D01*
X91148412Y-106632611D01*
X91148410Y-106632607D01*
X91146517Y-106628037D01*
X91143931Y-106623817D01*
X91025036Y-106429798D01*
X91025032Y-106429792D01*
X91022453Y-106425584D01*
X90868246Y-106245031D01*
X90687693Y-106090824D01*
X90683485Y-106088245D01*
X90683479Y-106088241D01*
X90489460Y-105969346D01*
X90485240Y-105966760D01*
X90480670Y-105964867D01*
X90480666Y-105964865D01*
X90270444Y-105877789D01*
X90270442Y-105877788D01*
X90265871Y-105875895D01*
X90122310Y-105841429D01*
X90039801Y-105821620D01*
X90039795Y-105821619D01*
X90034988Y-105820465D01*
X89798277Y-105801835D01*
X89561566Y-105820465D01*
X89556759Y-105821619D01*
X89556753Y-105821620D01*
X89474244Y-105841429D01*
X89330683Y-105875895D01*
X89326112Y-105877788D01*
X89326110Y-105877789D01*
X89115888Y-105964865D01*
X89115884Y-105964867D01*
X89111314Y-105966760D01*
X89107094Y-105969346D01*
X88913075Y-106088241D01*
X88913069Y-106088245D01*
X88908861Y-106090824D01*
X88728308Y-106245031D01*
X88574101Y-106425584D01*
X88571522Y-106429792D01*
X88571518Y-106429798D01*
X88452623Y-106623817D01*
X88450037Y-106628037D01*
X88448144Y-106632607D01*
X88448142Y-106632611D01*
X88378660Y-106800357D01*
X88359172Y-106847406D01*
X88339917Y-106927609D01*
X88305238Y-107072058D01*
X88303742Y-107078289D01*
X88285112Y-107315000D01*
X84332177Y-107315000D01*
X84333066Y-105791000D01*
X129487302Y-105791000D01*
X129507257Y-106019087D01*
X129508681Y-106024400D01*
X129508681Y-106024402D01*
X129555035Y-106197394D01*
X129566516Y-106240243D01*
X129568839Y-106245224D01*
X129568839Y-106245225D01*
X129660951Y-106442762D01*
X129660954Y-106442767D01*
X129663277Y-106447749D01*
X129794602Y-106635300D01*
X129956500Y-106797198D01*
X129961008Y-106800355D01*
X129961011Y-106800357D01*
X130021242Y-106842531D01*
X130144051Y-106928523D01*
X130149033Y-106930846D01*
X130149038Y-106930849D01*
X130328074Y-107014334D01*
X130351557Y-107025284D01*
X130356865Y-107026706D01*
X130356867Y-107026707D01*
X130567398Y-107083119D01*
X130567400Y-107083119D01*
X130572713Y-107084543D01*
X130800800Y-107104498D01*
X131028887Y-107084543D01*
X131034200Y-107083119D01*
X131034202Y-107083119D01*
X131244733Y-107026707D01*
X131244735Y-107026706D01*
X131250043Y-107025284D01*
X131253504Y-107023670D01*
X142753037Y-107023670D01*
X142758764Y-107031320D01*
X142929919Y-107136205D01*
X142938714Y-107140687D01*
X143148865Y-107227734D01*
X143158250Y-107230783D01*
X143379431Y-107283885D01*
X143389178Y-107285428D01*
X143615947Y-107303275D01*
X143625807Y-107303275D01*
X143852576Y-107285428D01*
X143862323Y-107283885D01*
X144083504Y-107230783D01*
X144092889Y-107227734D01*
X144303040Y-107140687D01*
X144311835Y-107136205D01*
X144479322Y-107033568D01*
X144488784Y-107023110D01*
X144485001Y-107014334D01*
X144309801Y-106839134D01*
X147112377Y-106839134D01*
X147119132Y-106901316D01*
X147170262Y-107037705D01*
X147257616Y-107154261D01*
X147374172Y-107241615D01*
X147510561Y-107292745D01*
X147572743Y-107299500D01*
X149669011Y-107299500D01*
X149731193Y-107292745D01*
X149867582Y-107241615D01*
X149984138Y-107154261D01*
X150071492Y-107037705D01*
X150122622Y-106901316D01*
X150129377Y-106839134D01*
X150129377Y-105816400D01*
X153829702Y-105816400D01*
X153849657Y-106044487D01*
X153851081Y-106049800D01*
X153851081Y-106049802D01*
X153890629Y-106197394D01*
X153908916Y-106265643D01*
X153911239Y-106270624D01*
X153911239Y-106270625D01*
X154003351Y-106468162D01*
X154003354Y-106468167D01*
X154005677Y-106473149D01*
X154079102Y-106578011D01*
X154133098Y-106655124D01*
X154137002Y-106660700D01*
X154298900Y-106822598D01*
X154303408Y-106825755D01*
X154303411Y-106825757D01*
X154364295Y-106868388D01*
X154486451Y-106953923D01*
X154491433Y-106956246D01*
X154491438Y-106956249D01*
X154687026Y-107047452D01*
X154693957Y-107050684D01*
X154699265Y-107052106D01*
X154699267Y-107052107D01*
X154909798Y-107108519D01*
X154909800Y-107108519D01*
X154915113Y-107109943D01*
X155143200Y-107129898D01*
X155371287Y-107109943D01*
X155376600Y-107108519D01*
X155376602Y-107108519D01*
X155587133Y-107052107D01*
X155587135Y-107052106D01*
X155592443Y-107050684D01*
X155599374Y-107047452D01*
X155794962Y-106956249D01*
X155794967Y-106956246D01*
X155799949Y-106953923D01*
X155922105Y-106868388D01*
X155982989Y-106825757D01*
X155982992Y-106825755D01*
X155987500Y-106822598D01*
X156149398Y-106660700D01*
X156153303Y-106655124D01*
X156207298Y-106578011D01*
X156280723Y-106473149D01*
X156283046Y-106468167D01*
X156283049Y-106468162D01*
X156375161Y-106270625D01*
X156375161Y-106270624D01*
X156377484Y-106265643D01*
X156395772Y-106197394D01*
X156435319Y-106049802D01*
X156435319Y-106049800D01*
X156436743Y-106044487D01*
X156456698Y-105816400D01*
X156436743Y-105588313D01*
X156435319Y-105582998D01*
X156378907Y-105372467D01*
X156378906Y-105372465D01*
X156377484Y-105367157D01*
X156355023Y-105318988D01*
X156283049Y-105164638D01*
X156283046Y-105164633D01*
X156280723Y-105159651D01*
X156149398Y-104972100D01*
X155987500Y-104810202D01*
X155982992Y-104807045D01*
X155982989Y-104807043D01*
X155896214Y-104746283D01*
X155799949Y-104678877D01*
X155794967Y-104676554D01*
X155794962Y-104676551D01*
X155597425Y-104584439D01*
X155597424Y-104584439D01*
X155592443Y-104582116D01*
X155587135Y-104580694D01*
X155587133Y-104580693D01*
X155376602Y-104524281D01*
X155376600Y-104524281D01*
X155371287Y-104522857D01*
X155143200Y-104502902D01*
X154915113Y-104522857D01*
X154909800Y-104524281D01*
X154909798Y-104524281D01*
X154699267Y-104580693D01*
X154699265Y-104580694D01*
X154693957Y-104582116D01*
X154688976Y-104584439D01*
X154688975Y-104584439D01*
X154491438Y-104676551D01*
X154491433Y-104676554D01*
X154486451Y-104678877D01*
X154390186Y-104746283D01*
X154303411Y-104807043D01*
X154303408Y-104807045D01*
X154298900Y-104810202D01*
X154137002Y-104972100D01*
X154005677Y-105159651D01*
X154003354Y-105164633D01*
X154003351Y-105164638D01*
X153931377Y-105318988D01*
X153908916Y-105367157D01*
X153907494Y-105372465D01*
X153907493Y-105372467D01*
X153851081Y-105582998D01*
X153849657Y-105588313D01*
X153829702Y-105816400D01*
X150129377Y-105816400D01*
X150129377Y-104742866D01*
X150122622Y-104680684D01*
X150071492Y-104544295D01*
X149984138Y-104427739D01*
X149867582Y-104340385D01*
X149731193Y-104289255D01*
X149669011Y-104282500D01*
X147572743Y-104282500D01*
X147510561Y-104289255D01*
X147374172Y-104340385D01*
X147257616Y-104427739D01*
X147170262Y-104544295D01*
X147119132Y-104680684D01*
X147112377Y-104742866D01*
X147112377Y-106839134D01*
X144309801Y-106839134D01*
X143633689Y-106163022D01*
X143619745Y-106155408D01*
X143617912Y-106155539D01*
X143611297Y-106159790D01*
X142759797Y-107011290D01*
X142753037Y-107023670D01*
X131253504Y-107023670D01*
X131273526Y-107014334D01*
X131452562Y-106930849D01*
X131452567Y-106930846D01*
X131457549Y-106928523D01*
X131580358Y-106842531D01*
X131640589Y-106800357D01*
X131640592Y-106800355D01*
X131645100Y-106797198D01*
X131806998Y-106635300D01*
X131938323Y-106447749D01*
X131940646Y-106442767D01*
X131940649Y-106442762D01*
X132032761Y-106245225D01*
X132032761Y-106245224D01*
X132035084Y-106240243D01*
X132046566Y-106197394D01*
X132092919Y-106024402D01*
X132092919Y-106024400D01*
X132094343Y-106019087D01*
X132113867Y-105795930D01*
X142108602Y-105795930D01*
X142126449Y-106022699D01*
X142127992Y-106032446D01*
X142181094Y-106253627D01*
X142184143Y-106263012D01*
X142271190Y-106473163D01*
X142275672Y-106481958D01*
X142378309Y-106649445D01*
X142388767Y-106658907D01*
X142397543Y-106655124D01*
X143248855Y-105803812D01*
X143255233Y-105792132D01*
X143985285Y-105792132D01*
X143985416Y-105793965D01*
X143989667Y-105800580D01*
X144841167Y-106652080D01*
X144853547Y-106658840D01*
X144861197Y-106653113D01*
X144966082Y-106481958D01*
X144970564Y-106473163D01*
X145057611Y-106263012D01*
X145060660Y-106253627D01*
X145113762Y-106032446D01*
X145115305Y-106022699D01*
X145133152Y-105795930D01*
X145133152Y-105786070D01*
X145115305Y-105559301D01*
X145113762Y-105549554D01*
X145060660Y-105328373D01*
X145057611Y-105318988D01*
X144970564Y-105108837D01*
X144966082Y-105100042D01*
X144863445Y-104932555D01*
X144852987Y-104923093D01*
X144844211Y-104926876D01*
X143992899Y-105778188D01*
X143985285Y-105792132D01*
X143255233Y-105792132D01*
X143256469Y-105789868D01*
X143256338Y-105788035D01*
X143252087Y-105781420D01*
X142400587Y-104929920D01*
X142388207Y-104923160D01*
X142380557Y-104928887D01*
X142275672Y-105100042D01*
X142271190Y-105108837D01*
X142184143Y-105318988D01*
X142181094Y-105328373D01*
X142127992Y-105549554D01*
X142126449Y-105559301D01*
X142108602Y-105786070D01*
X142108602Y-105795930D01*
X132113867Y-105795930D01*
X132114298Y-105791000D01*
X132094343Y-105562913D01*
X132092919Y-105557598D01*
X132036507Y-105347067D01*
X132036506Y-105347065D01*
X132035084Y-105341757D01*
X131952493Y-105164638D01*
X131940649Y-105139238D01*
X131940646Y-105139233D01*
X131938323Y-105134251D01*
X131827942Y-104976611D01*
X131810157Y-104951211D01*
X131810155Y-104951208D01*
X131806998Y-104946700D01*
X131645100Y-104784802D01*
X131640592Y-104781645D01*
X131640589Y-104781643D01*
X131507624Y-104688540D01*
X131457549Y-104653477D01*
X131452567Y-104651154D01*
X131452562Y-104651151D01*
X131255025Y-104559039D01*
X131255024Y-104559039D01*
X131254705Y-104558890D01*
X142752970Y-104558890D01*
X142756753Y-104567666D01*
X143608065Y-105418978D01*
X143622009Y-105426592D01*
X143623842Y-105426461D01*
X143630457Y-105422210D01*
X144481957Y-104570710D01*
X144488717Y-104558330D01*
X144482990Y-104550680D01*
X144311835Y-104445795D01*
X144303040Y-104441313D01*
X144092889Y-104354266D01*
X144083504Y-104351217D01*
X143862323Y-104298115D01*
X143852576Y-104296572D01*
X143625807Y-104278725D01*
X143615947Y-104278725D01*
X143389178Y-104296572D01*
X143379431Y-104298115D01*
X143158250Y-104351217D01*
X143148865Y-104354266D01*
X142938714Y-104441313D01*
X142929919Y-104445795D01*
X142762432Y-104548432D01*
X142752970Y-104558890D01*
X131254705Y-104558890D01*
X131250043Y-104556716D01*
X131244735Y-104555294D01*
X131244733Y-104555293D01*
X131034202Y-104498881D01*
X131034200Y-104498881D01*
X131028887Y-104497457D01*
X130800800Y-104477502D01*
X130572713Y-104497457D01*
X130567400Y-104498881D01*
X130567398Y-104498881D01*
X130356867Y-104555293D01*
X130356865Y-104555294D01*
X130351557Y-104556716D01*
X130346576Y-104559039D01*
X130346575Y-104559039D01*
X130149038Y-104651151D01*
X130149033Y-104651154D01*
X130144051Y-104653477D01*
X130093976Y-104688540D01*
X129961011Y-104781643D01*
X129961008Y-104781645D01*
X129956500Y-104784802D01*
X129794602Y-104946700D01*
X129791445Y-104951208D01*
X129791443Y-104951211D01*
X129773658Y-104976611D01*
X129663277Y-105134251D01*
X129660954Y-105139233D01*
X129660951Y-105139238D01*
X129649107Y-105164638D01*
X129566516Y-105341757D01*
X129565094Y-105347065D01*
X129565093Y-105347067D01*
X129508681Y-105557598D01*
X129507257Y-105562913D01*
X129487302Y-105791000D01*
X84333066Y-105791000D01*
X84333224Y-105519503D01*
X122019406Y-105519503D01*
X122019742Y-105533599D01*
X122027684Y-105537000D01*
X123028685Y-105537000D01*
X123043924Y-105532525D01*
X123045129Y-105531135D01*
X123046800Y-105523452D01*
X123046800Y-105518885D01*
X123554800Y-105518885D01*
X123559275Y-105534124D01*
X123560665Y-105535329D01*
X123568348Y-105537000D01*
X124568767Y-105537000D01*
X124582298Y-105533027D01*
X124583527Y-105524478D01*
X124536036Y-105347239D01*
X124532290Y-105336947D01*
X124440214Y-105139489D01*
X124434731Y-105129993D01*
X124309772Y-104951533D01*
X124302716Y-104943125D01*
X124148675Y-104789084D01*
X124140267Y-104782028D01*
X123961807Y-104657069D01*
X123952311Y-104651586D01*
X123754853Y-104559510D01*
X123744561Y-104555764D01*
X123572297Y-104509606D01*
X123558201Y-104509942D01*
X123554800Y-104517884D01*
X123554800Y-105518885D01*
X123046800Y-105518885D01*
X123046800Y-104523033D01*
X123042827Y-104509502D01*
X123034278Y-104508273D01*
X122857039Y-104555764D01*
X122846747Y-104559510D01*
X122649289Y-104651586D01*
X122639793Y-104657069D01*
X122461333Y-104782028D01*
X122452925Y-104789084D01*
X122298884Y-104943125D01*
X122291828Y-104951533D01*
X122166869Y-105129993D01*
X122161386Y-105139489D01*
X122069310Y-105336947D01*
X122065564Y-105347239D01*
X122019406Y-105519503D01*
X84333224Y-105519503D01*
X84335240Y-102062127D01*
X121871500Y-102062127D01*
X121886457Y-102233087D01*
X121887881Y-102238400D01*
X121887881Y-102238402D01*
X121943444Y-102445762D01*
X121945716Y-102454243D01*
X121948039Y-102459224D01*
X121948039Y-102459225D01*
X122040151Y-102656762D01*
X122040154Y-102656767D01*
X122042477Y-102661749D01*
X122045634Y-102666257D01*
X122136692Y-102796301D01*
X122173802Y-102849300D01*
X122335700Y-103011198D01*
X122340208Y-103014355D01*
X122340211Y-103014357D01*
X122418389Y-103069098D01*
X122523251Y-103142523D01*
X122528233Y-103144846D01*
X122528238Y-103144849D01*
X122725775Y-103236961D01*
X122730757Y-103239284D01*
X122736065Y-103240706D01*
X122736067Y-103240707D01*
X122946598Y-103297119D01*
X122946600Y-103297119D01*
X122951913Y-103298543D01*
X123180000Y-103318498D01*
X123408087Y-103298543D01*
X123413400Y-103297119D01*
X123413402Y-103297119D01*
X123623933Y-103240707D01*
X123623935Y-103240706D01*
X123629243Y-103239284D01*
X123634225Y-103236961D01*
X123831762Y-103144849D01*
X123831767Y-103144846D01*
X123836749Y-103142523D01*
X123941611Y-103069098D01*
X124019789Y-103014357D01*
X124019792Y-103014355D01*
X124024300Y-103011198D01*
X124186198Y-102849300D01*
X124223309Y-102796301D01*
X124314366Y-102666257D01*
X124317523Y-102661749D01*
X124319846Y-102656767D01*
X124319849Y-102656762D01*
X124335805Y-102622543D01*
X124382722Y-102569258D01*
X124450999Y-102549797D01*
X124518959Y-102570339D01*
X124564195Y-102622543D01*
X124580151Y-102656762D01*
X124580154Y-102656767D01*
X124582477Y-102661749D01*
X124585634Y-102666257D01*
X124676692Y-102796301D01*
X124713802Y-102849300D01*
X124875700Y-103011198D01*
X124880208Y-103014355D01*
X124880211Y-103014357D01*
X124958389Y-103069098D01*
X125063251Y-103142523D01*
X125068233Y-103144846D01*
X125068238Y-103144849D01*
X125265775Y-103236961D01*
X125270757Y-103239284D01*
X125276065Y-103240706D01*
X125276067Y-103240707D01*
X125486598Y-103297119D01*
X125486600Y-103297119D01*
X125491913Y-103298543D01*
X125720000Y-103318498D01*
X125948087Y-103298543D01*
X125953400Y-103297119D01*
X125953402Y-103297119D01*
X126163933Y-103240707D01*
X126163935Y-103240706D01*
X126169243Y-103239284D01*
X126174225Y-103236961D01*
X126371762Y-103144849D01*
X126371767Y-103144846D01*
X126376749Y-103142523D01*
X126481611Y-103069098D01*
X126559789Y-103014357D01*
X126559792Y-103014355D01*
X126564300Y-103011198D01*
X126726198Y-102849300D01*
X126763309Y-102796301D01*
X126854366Y-102666257D01*
X126857523Y-102661749D01*
X126859846Y-102656767D01*
X126859849Y-102656762D01*
X126875805Y-102622543D01*
X126922722Y-102569258D01*
X126990999Y-102549797D01*
X127058959Y-102570339D01*
X127104195Y-102622543D01*
X127120151Y-102656762D01*
X127120154Y-102656767D01*
X127122477Y-102661749D01*
X127125634Y-102666257D01*
X127216692Y-102796301D01*
X127253802Y-102849300D01*
X127415700Y-103011198D01*
X127420208Y-103014355D01*
X127420211Y-103014357D01*
X127498389Y-103069098D01*
X127603251Y-103142523D01*
X127608233Y-103144846D01*
X127608238Y-103144849D01*
X127805775Y-103236961D01*
X127810757Y-103239284D01*
X127816065Y-103240706D01*
X127816067Y-103240707D01*
X128026598Y-103297119D01*
X128026600Y-103297119D01*
X128031913Y-103298543D01*
X128260000Y-103318498D01*
X128488087Y-103298543D01*
X128493400Y-103297119D01*
X128493402Y-103297119D01*
X128703933Y-103240707D01*
X128703935Y-103240706D01*
X128709243Y-103239284D01*
X128714225Y-103236961D01*
X128911762Y-103144849D01*
X128911767Y-103144846D01*
X128916749Y-103142523D01*
X129021611Y-103069098D01*
X129099789Y-103014357D01*
X129099792Y-103014355D01*
X129104300Y-103011198D01*
X129266198Y-102849300D01*
X129303309Y-102796301D01*
X129394366Y-102666257D01*
X129397523Y-102661749D01*
X129399846Y-102656767D01*
X129399849Y-102656762D01*
X129415805Y-102622543D01*
X129462722Y-102569258D01*
X129530999Y-102549797D01*
X129598959Y-102570339D01*
X129644195Y-102622543D01*
X129660151Y-102656762D01*
X129660154Y-102656767D01*
X129662477Y-102661749D01*
X129665634Y-102666257D01*
X129756692Y-102796301D01*
X129793802Y-102849300D01*
X129955700Y-103011198D01*
X129960208Y-103014355D01*
X129960211Y-103014357D01*
X130038389Y-103069098D01*
X130143251Y-103142523D01*
X130148233Y-103144846D01*
X130148238Y-103144849D01*
X130345775Y-103236961D01*
X130350757Y-103239284D01*
X130356065Y-103240706D01*
X130356067Y-103240707D01*
X130566598Y-103297119D01*
X130566600Y-103297119D01*
X130571913Y-103298543D01*
X130800000Y-103318498D01*
X131028087Y-103298543D01*
X131033400Y-103297119D01*
X131033402Y-103297119D01*
X131243933Y-103240707D01*
X131243935Y-103240706D01*
X131249243Y-103239284D01*
X131254225Y-103236961D01*
X131451762Y-103144849D01*
X131451767Y-103144846D01*
X131456749Y-103142523D01*
X131561611Y-103069098D01*
X131639789Y-103014357D01*
X131639792Y-103014355D01*
X131644300Y-103011198D01*
X131806198Y-102849300D01*
X131843309Y-102796301D01*
X131934366Y-102666257D01*
X131937523Y-102661749D01*
X131939846Y-102656767D01*
X131939849Y-102656762D01*
X132031961Y-102459225D01*
X132031961Y-102459224D01*
X132034284Y-102454243D01*
X132036557Y-102445762D01*
X132092119Y-102238402D01*
X132092119Y-102238400D01*
X132093543Y-102233087D01*
X132108500Y-102062127D01*
X132108500Y-101794000D01*
X133585902Y-101794000D01*
X133605857Y-102022087D01*
X133607281Y-102027400D01*
X133607281Y-102027402D01*
X133617316Y-102064851D01*
X133665116Y-102243243D01*
X133667439Y-102248224D01*
X133667439Y-102248225D01*
X133759551Y-102445762D01*
X133759554Y-102445767D01*
X133761877Y-102450749D01*
X133765034Y-102455257D01*
X133882169Y-102622543D01*
X133893202Y-102638300D01*
X134055100Y-102800198D01*
X134059608Y-102803355D01*
X134059611Y-102803357D01*
X134118782Y-102844789D01*
X134242651Y-102931523D01*
X134247633Y-102933846D01*
X134247638Y-102933849D01*
X134420290Y-103014357D01*
X134450157Y-103028284D01*
X134455465Y-103029706D01*
X134455467Y-103029707D01*
X134665998Y-103086119D01*
X134666000Y-103086119D01*
X134671313Y-103087543D01*
X134899400Y-103107498D01*
X135127487Y-103087543D01*
X135132800Y-103086119D01*
X135132802Y-103086119D01*
X135343333Y-103029707D01*
X135343335Y-103029706D01*
X135348643Y-103028284D01*
X135378510Y-103014357D01*
X135551162Y-102933849D01*
X135551167Y-102933846D01*
X135556149Y-102931523D01*
X135680018Y-102844789D01*
X135739189Y-102803357D01*
X135739192Y-102803355D01*
X135743700Y-102800198D01*
X135905598Y-102638300D01*
X135916632Y-102622543D01*
X136033766Y-102455257D01*
X136036923Y-102450749D01*
X136039246Y-102445767D01*
X136039249Y-102445762D01*
X136131361Y-102248225D01*
X136131361Y-102248224D01*
X136133684Y-102243243D01*
X136181485Y-102064851D01*
X136191519Y-102027402D01*
X136191519Y-102027400D01*
X136192943Y-102022087D01*
X136212898Y-101794000D01*
X136192943Y-101565913D01*
X136133684Y-101344757D01*
X136043154Y-101150613D01*
X136039249Y-101142238D01*
X136039246Y-101142233D01*
X136036923Y-101137251D01*
X135905598Y-100949700D01*
X135743700Y-100787802D01*
X135739192Y-100784645D01*
X135739189Y-100784643D01*
X135561470Y-100660203D01*
X135556149Y-100656477D01*
X135551167Y-100654154D01*
X135551162Y-100654151D01*
X135353625Y-100562039D01*
X135353624Y-100562039D01*
X135348643Y-100559716D01*
X135343335Y-100558294D01*
X135343333Y-100558293D01*
X135132802Y-100501881D01*
X135132800Y-100501881D01*
X135127487Y-100500457D01*
X134899400Y-100480502D01*
X134671313Y-100500457D01*
X134666000Y-100501881D01*
X134665998Y-100501881D01*
X134455467Y-100558293D01*
X134455465Y-100558294D01*
X134450157Y-100559716D01*
X134445176Y-100562039D01*
X134445175Y-100562039D01*
X134247638Y-100654151D01*
X134247633Y-100654154D01*
X134242651Y-100656477D01*
X134237330Y-100660203D01*
X134059611Y-100784643D01*
X134059608Y-100784645D01*
X134055100Y-100787802D01*
X133893202Y-100949700D01*
X133761877Y-101137251D01*
X133759554Y-101142233D01*
X133759551Y-101142238D01*
X133755646Y-101150613D01*
X133665116Y-101344757D01*
X133605857Y-101565913D01*
X133585902Y-101794000D01*
X132108500Y-101794000D01*
X132108500Y-101147873D01*
X132107177Y-101132743D01*
X132094022Y-100982393D01*
X132093543Y-100976913D01*
X132043915Y-100791699D01*
X132035707Y-100761067D01*
X132035706Y-100761065D01*
X132034284Y-100755757D01*
X131989727Y-100660203D01*
X131939849Y-100553238D01*
X131939846Y-100553233D01*
X131937523Y-100548251D01*
X131806198Y-100360700D01*
X131644300Y-100198802D01*
X131639792Y-100195645D01*
X131639789Y-100195643D01*
X131523420Y-100114161D01*
X131456749Y-100067477D01*
X131451767Y-100065154D01*
X131451762Y-100065151D01*
X131254225Y-99973039D01*
X131254224Y-99973039D01*
X131249243Y-99970716D01*
X131243935Y-99969294D01*
X131243933Y-99969293D01*
X131033402Y-99912881D01*
X131033400Y-99912881D01*
X131028087Y-99911457D01*
X130800000Y-99891502D01*
X130571913Y-99911457D01*
X130566600Y-99912881D01*
X130566598Y-99912881D01*
X130356067Y-99969293D01*
X130356065Y-99969294D01*
X130350757Y-99970716D01*
X130345776Y-99973039D01*
X130345775Y-99973039D01*
X130148238Y-100065151D01*
X130148233Y-100065154D01*
X130143251Y-100067477D01*
X130076580Y-100114161D01*
X129960211Y-100195643D01*
X129960208Y-100195645D01*
X129955700Y-100198802D01*
X129793802Y-100360700D01*
X129662477Y-100548251D01*
X129660154Y-100553233D01*
X129660151Y-100553238D01*
X129644195Y-100587457D01*
X129597278Y-100640742D01*
X129529001Y-100660203D01*
X129461041Y-100639661D01*
X129415805Y-100587457D01*
X129399849Y-100553238D01*
X129399846Y-100553233D01*
X129397523Y-100548251D01*
X129266198Y-100360700D01*
X129104300Y-100198802D01*
X129099792Y-100195645D01*
X129099789Y-100195643D01*
X128983420Y-100114161D01*
X128916749Y-100067477D01*
X128911767Y-100065154D01*
X128911762Y-100065151D01*
X128714225Y-99973039D01*
X128714224Y-99973039D01*
X128709243Y-99970716D01*
X128703935Y-99969294D01*
X128703933Y-99969293D01*
X128493402Y-99912881D01*
X128493400Y-99912881D01*
X128488087Y-99911457D01*
X128260000Y-99891502D01*
X128031913Y-99911457D01*
X128026600Y-99912881D01*
X128026598Y-99912881D01*
X127816067Y-99969293D01*
X127816065Y-99969294D01*
X127810757Y-99970716D01*
X127805776Y-99973039D01*
X127805775Y-99973039D01*
X127608238Y-100065151D01*
X127608233Y-100065154D01*
X127603251Y-100067477D01*
X127536580Y-100114161D01*
X127420211Y-100195643D01*
X127420208Y-100195645D01*
X127415700Y-100198802D01*
X127253802Y-100360700D01*
X127122477Y-100548251D01*
X127120154Y-100553233D01*
X127120151Y-100553238D01*
X127104195Y-100587457D01*
X127057278Y-100640742D01*
X126989001Y-100660203D01*
X126921041Y-100639661D01*
X126875805Y-100587457D01*
X126859849Y-100553238D01*
X126859846Y-100553233D01*
X126857523Y-100548251D01*
X126726198Y-100360700D01*
X126564300Y-100198802D01*
X126559792Y-100195645D01*
X126559789Y-100195643D01*
X126443420Y-100114161D01*
X126376749Y-100067477D01*
X126371767Y-100065154D01*
X126371762Y-100065151D01*
X126174225Y-99973039D01*
X126174224Y-99973039D01*
X126169243Y-99970716D01*
X126163935Y-99969294D01*
X126163933Y-99969293D01*
X125953402Y-99912881D01*
X125953400Y-99912881D01*
X125948087Y-99911457D01*
X125720000Y-99891502D01*
X125491913Y-99911457D01*
X125486600Y-99912881D01*
X125486598Y-99912881D01*
X125276067Y-99969293D01*
X125276065Y-99969294D01*
X125270757Y-99970716D01*
X125265776Y-99973039D01*
X125265775Y-99973039D01*
X125068238Y-100065151D01*
X125068233Y-100065154D01*
X125063251Y-100067477D01*
X124996580Y-100114161D01*
X124880211Y-100195643D01*
X124880208Y-100195645D01*
X124875700Y-100198802D01*
X124713802Y-100360700D01*
X124582477Y-100548251D01*
X124580154Y-100553233D01*
X124580151Y-100553238D01*
X124564195Y-100587457D01*
X124517278Y-100640742D01*
X124449001Y-100660203D01*
X124381041Y-100639661D01*
X124335805Y-100587457D01*
X124319849Y-100553238D01*
X124319846Y-100553233D01*
X124317523Y-100548251D01*
X124186198Y-100360700D01*
X124024300Y-100198802D01*
X124019792Y-100195645D01*
X124019789Y-100195643D01*
X123903420Y-100114161D01*
X123836749Y-100067477D01*
X123831767Y-100065154D01*
X123831762Y-100065151D01*
X123634225Y-99973039D01*
X123634224Y-99973039D01*
X123629243Y-99970716D01*
X123623935Y-99969294D01*
X123623933Y-99969293D01*
X123413402Y-99912881D01*
X123413400Y-99912881D01*
X123408087Y-99911457D01*
X123180000Y-99891502D01*
X122951913Y-99911457D01*
X122946600Y-99912881D01*
X122946598Y-99912881D01*
X122736067Y-99969293D01*
X122736065Y-99969294D01*
X122730757Y-99970716D01*
X122725776Y-99973039D01*
X122725775Y-99973039D01*
X122528238Y-100065151D01*
X122528233Y-100065154D01*
X122523251Y-100067477D01*
X122456580Y-100114161D01*
X122340211Y-100195643D01*
X122340208Y-100195645D01*
X122335700Y-100198802D01*
X122173802Y-100360700D01*
X122042477Y-100548251D01*
X122040154Y-100553233D01*
X122040151Y-100553238D01*
X121990273Y-100660203D01*
X121945716Y-100755757D01*
X121944294Y-100761065D01*
X121944293Y-100761067D01*
X121936085Y-100791699D01*
X121886457Y-100976913D01*
X121885978Y-100982393D01*
X121872824Y-101132743D01*
X121871500Y-101147873D01*
X121871500Y-102062127D01*
X84335240Y-102062127D01*
X84336920Y-99180862D01*
X111098493Y-99180862D01*
X111107789Y-99192877D01*
X111158994Y-99228731D01*
X111168489Y-99234214D01*
X111365947Y-99326290D01*
X111376239Y-99330036D01*
X111586688Y-99386425D01*
X111597481Y-99388328D01*
X111814525Y-99407317D01*
X111825475Y-99407317D01*
X112042519Y-99388328D01*
X112053312Y-99386425D01*
X112263761Y-99330036D01*
X112274053Y-99326290D01*
X112471511Y-99234214D01*
X112481006Y-99228731D01*
X112533048Y-99192291D01*
X112541424Y-99181812D01*
X112534356Y-99168366D01*
X111832812Y-98466822D01*
X111818868Y-98459208D01*
X111817035Y-98459339D01*
X111810420Y-98463590D01*
X111104923Y-99169087D01*
X111098493Y-99180862D01*
X84336920Y-99180862D01*
X84337550Y-98100275D01*
X110507483Y-98100275D01*
X110526472Y-98317319D01*
X110528375Y-98328112D01*
X110584764Y-98538561D01*
X110588510Y-98548853D01*
X110680586Y-98746311D01*
X110686069Y-98755806D01*
X110722509Y-98807848D01*
X110732988Y-98816224D01*
X110746434Y-98809156D01*
X111447978Y-98107612D01*
X111454356Y-98095932D01*
X112184408Y-98095932D01*
X112184539Y-98097765D01*
X112188790Y-98104380D01*
X112894287Y-98809877D01*
X112906062Y-98816307D01*
X112918077Y-98807011D01*
X112953931Y-98755806D01*
X112959414Y-98746311D01*
X113051490Y-98548853D01*
X113055236Y-98538561D01*
X113111625Y-98328112D01*
X113113528Y-98317319D01*
X113132517Y-98100275D01*
X113132517Y-98094800D01*
X118006502Y-98094800D01*
X118026457Y-98322887D01*
X118027881Y-98328200D01*
X118027881Y-98328202D01*
X118065025Y-98466822D01*
X118085716Y-98544043D01*
X118088039Y-98549024D01*
X118088039Y-98549025D01*
X118180151Y-98746562D01*
X118180154Y-98746567D01*
X118182477Y-98751549D01*
X118313802Y-98939100D01*
X118475700Y-99100998D01*
X118480208Y-99104155D01*
X118480211Y-99104157D01*
X118558389Y-99158898D01*
X118663251Y-99232323D01*
X118668233Y-99234646D01*
X118668238Y-99234649D01*
X118864765Y-99326290D01*
X118870757Y-99329084D01*
X118876065Y-99330506D01*
X118876067Y-99330507D01*
X119086598Y-99386919D01*
X119086600Y-99386919D01*
X119091913Y-99388343D01*
X119320000Y-99408298D01*
X119548087Y-99388343D01*
X119553400Y-99386919D01*
X119553402Y-99386919D01*
X119763933Y-99330507D01*
X119763935Y-99330506D01*
X119769243Y-99329084D01*
X119775235Y-99326290D01*
X119971762Y-99234649D01*
X119971767Y-99234646D01*
X119976749Y-99232323D01*
X120081611Y-99158898D01*
X120159789Y-99104157D01*
X120159792Y-99104155D01*
X120164300Y-99100998D01*
X120326198Y-98939100D01*
X120366040Y-98882200D01*
X142628302Y-98882200D01*
X142648257Y-99110287D01*
X142649681Y-99115600D01*
X142649681Y-99115602D01*
X142667168Y-99180862D01*
X142707516Y-99331443D01*
X142709839Y-99336424D01*
X142709839Y-99336425D01*
X142801951Y-99533962D01*
X142801954Y-99533967D01*
X142804277Y-99538949D01*
X142935602Y-99726500D01*
X143097500Y-99888398D01*
X143102008Y-99891555D01*
X143102011Y-99891557D01*
X143132465Y-99912881D01*
X143285051Y-100019723D01*
X143290033Y-100022046D01*
X143290038Y-100022049D01*
X143487575Y-100114161D01*
X143492557Y-100116484D01*
X143497865Y-100117906D01*
X143497867Y-100117907D01*
X143708398Y-100174319D01*
X143708400Y-100174319D01*
X143713713Y-100175743D01*
X143941800Y-100195698D01*
X144169887Y-100175743D01*
X144175200Y-100174319D01*
X144175202Y-100174319D01*
X144385733Y-100117907D01*
X144385735Y-100117906D01*
X144391043Y-100116484D01*
X144396025Y-100114161D01*
X144593562Y-100022049D01*
X144593567Y-100022046D01*
X144598549Y-100019723D01*
X144751135Y-99912881D01*
X144781589Y-99891557D01*
X144781592Y-99891555D01*
X144786100Y-99888398D01*
X144947998Y-99726500D01*
X145079323Y-99538949D01*
X145081646Y-99533967D01*
X145081649Y-99533962D01*
X145173761Y-99336425D01*
X145173761Y-99336424D01*
X145176084Y-99331443D01*
X145216433Y-99180862D01*
X145233919Y-99115602D01*
X145233919Y-99115600D01*
X145235343Y-99110287D01*
X145255298Y-98882200D01*
X145235343Y-98654113D01*
X145207185Y-98549025D01*
X145177507Y-98438267D01*
X145177506Y-98438265D01*
X145176084Y-98432957D01*
X145173761Y-98427975D01*
X145081649Y-98230438D01*
X145081646Y-98230433D01*
X145079323Y-98225451D01*
X144947998Y-98037900D01*
X144786100Y-97876002D01*
X144781592Y-97872845D01*
X144781589Y-97872843D01*
X144703411Y-97818102D01*
X144598549Y-97744677D01*
X144593567Y-97742354D01*
X144593562Y-97742351D01*
X144396025Y-97650239D01*
X144396024Y-97650239D01*
X144391043Y-97647916D01*
X144385735Y-97646494D01*
X144385733Y-97646493D01*
X144175202Y-97590081D01*
X144175200Y-97590081D01*
X144169887Y-97588657D01*
X143941800Y-97568702D01*
X143713713Y-97588657D01*
X143708400Y-97590081D01*
X143708398Y-97590081D01*
X143497867Y-97646493D01*
X143497865Y-97646494D01*
X143492557Y-97647916D01*
X143487576Y-97650239D01*
X143487575Y-97650239D01*
X143290038Y-97742351D01*
X143290033Y-97742354D01*
X143285051Y-97744677D01*
X143180189Y-97818102D01*
X143102011Y-97872843D01*
X143102008Y-97872845D01*
X143097500Y-97876002D01*
X142935602Y-98037900D01*
X142804277Y-98225451D01*
X142801954Y-98230433D01*
X142801951Y-98230438D01*
X142709839Y-98427975D01*
X142707516Y-98432957D01*
X142706094Y-98438265D01*
X142706093Y-98438267D01*
X142676415Y-98549025D01*
X142648257Y-98654113D01*
X142628302Y-98882200D01*
X120366040Y-98882200D01*
X120457523Y-98751549D01*
X120459846Y-98746567D01*
X120459849Y-98746562D01*
X120551961Y-98549025D01*
X120551961Y-98549024D01*
X120554284Y-98544043D01*
X120574976Y-98466822D01*
X120612119Y-98328202D01*
X120612119Y-98328200D01*
X120613543Y-98322887D01*
X120633498Y-98094800D01*
X120613543Y-97866713D01*
X120576981Y-97730261D01*
X120555707Y-97650867D01*
X120555706Y-97650865D01*
X120554284Y-97645557D01*
X120551961Y-97640575D01*
X120459849Y-97443038D01*
X120459846Y-97443033D01*
X120457523Y-97438051D01*
X120326198Y-97250500D01*
X120164300Y-97088602D01*
X120159792Y-97085445D01*
X120159789Y-97085443D01*
X120033920Y-96997309D01*
X119976749Y-96957277D01*
X119971767Y-96954954D01*
X119971762Y-96954951D01*
X119774225Y-96862839D01*
X119774224Y-96862839D01*
X119769243Y-96860516D01*
X119763935Y-96859094D01*
X119763933Y-96859093D01*
X119553402Y-96802681D01*
X119553400Y-96802681D01*
X119548087Y-96801257D01*
X119320000Y-96781302D01*
X119091913Y-96801257D01*
X119086600Y-96802681D01*
X119086598Y-96802681D01*
X118876067Y-96859093D01*
X118876065Y-96859094D01*
X118870757Y-96860516D01*
X118865776Y-96862839D01*
X118865775Y-96862839D01*
X118668238Y-96954951D01*
X118668233Y-96954954D01*
X118663251Y-96957277D01*
X118606080Y-96997309D01*
X118480211Y-97085443D01*
X118480208Y-97085445D01*
X118475700Y-97088602D01*
X118313802Y-97250500D01*
X118182477Y-97438051D01*
X118180154Y-97443033D01*
X118180151Y-97443038D01*
X118088039Y-97640575D01*
X118085716Y-97645557D01*
X118084294Y-97650865D01*
X118084293Y-97650867D01*
X118063019Y-97730261D01*
X118026457Y-97866713D01*
X118006502Y-98094800D01*
X113132517Y-98094800D01*
X113132517Y-98089325D01*
X113113528Y-97872281D01*
X113111625Y-97861488D01*
X113055236Y-97651039D01*
X113051490Y-97640747D01*
X112959414Y-97443289D01*
X112953931Y-97433794D01*
X112917491Y-97381752D01*
X112907012Y-97373376D01*
X112893566Y-97380444D01*
X112192022Y-98081988D01*
X112184408Y-98095932D01*
X111454356Y-98095932D01*
X111455592Y-98093668D01*
X111455461Y-98091835D01*
X111451210Y-98085220D01*
X110745713Y-97379723D01*
X110733938Y-97373293D01*
X110721923Y-97382589D01*
X110686069Y-97433794D01*
X110680586Y-97443289D01*
X110588510Y-97640747D01*
X110584764Y-97651039D01*
X110528375Y-97861488D01*
X110526472Y-97872281D01*
X110507483Y-98089325D01*
X110507483Y-98100275D01*
X84337550Y-98100275D01*
X84338708Y-96114328D01*
X91922389Y-96114328D01*
X91935738Y-96345835D01*
X91986718Y-96572053D01*
X92073962Y-96786907D01*
X92076659Y-96791308D01*
X92185806Y-96969419D01*
X92195125Y-96984627D01*
X92346953Y-97159902D01*
X92525370Y-97308027D01*
X92529822Y-97310629D01*
X92529827Y-97310632D01*
X92652967Y-97382589D01*
X92725584Y-97425023D01*
X92942218Y-97507747D01*
X92947286Y-97508778D01*
X92947289Y-97508779D01*
X93059090Y-97531525D01*
X93169454Y-97553979D01*
X93174627Y-97554169D01*
X93174630Y-97554169D01*
X93396026Y-97562287D01*
X93396030Y-97562287D01*
X93401190Y-97562476D01*
X93406310Y-97561820D01*
X93406312Y-97561820D01*
X93477109Y-97552751D01*
X93631202Y-97533011D01*
X93636151Y-97531526D01*
X93636157Y-97531525D01*
X93848370Y-97467858D01*
X93853313Y-97466375D01*
X93900438Y-97443289D01*
X94056920Y-97366629D01*
X94061558Y-97364357D01*
X94145156Y-97304727D01*
X94246132Y-97232702D01*
X94246137Y-97232698D01*
X94250344Y-97229697D01*
X94414602Y-97066011D01*
X94456439Y-97007788D01*
X111098576Y-97007788D01*
X111105644Y-97021234D01*
X111807188Y-97722778D01*
X111821132Y-97730392D01*
X111822965Y-97730261D01*
X111829580Y-97726010D01*
X112535077Y-97020513D01*
X112541507Y-97008738D01*
X112532211Y-96996723D01*
X112481006Y-96960869D01*
X112471511Y-96955386D01*
X112274053Y-96863310D01*
X112263761Y-96859564D01*
X112053312Y-96803175D01*
X112042519Y-96801272D01*
X111825475Y-96782283D01*
X111814525Y-96782283D01*
X111597481Y-96801272D01*
X111586688Y-96803175D01*
X111376239Y-96859564D01*
X111365947Y-96863310D01*
X111168489Y-96955386D01*
X111158994Y-96960869D01*
X111106952Y-96997309D01*
X111098576Y-97007788D01*
X94456439Y-97007788D01*
X94549920Y-96877696D01*
X94558882Y-96859564D01*
X94650370Y-96674450D01*
X94650371Y-96674448D01*
X94652664Y-96669808D01*
X94704044Y-96500700D01*
X94718572Y-96452884D01*
X94718573Y-96452878D01*
X94720076Y-96447932D01*
X94750344Y-96218024D01*
X94752033Y-96148900D01*
X94745734Y-96072286D01*
X94733456Y-95922939D01*
X94733455Y-95922933D01*
X94733032Y-95917788D01*
X94676540Y-95692883D01*
X94584073Y-95480225D01*
X94458116Y-95285524D01*
X94430027Y-95254654D01*
X94305528Y-95117832D01*
X94305526Y-95117831D01*
X94302050Y-95114010D01*
X94297999Y-95110811D01*
X94297995Y-95110807D01*
X94209175Y-95040662D01*
X111200093Y-95040662D01*
X111209389Y-95052677D01*
X111260594Y-95088531D01*
X111270089Y-95094014D01*
X111467547Y-95186090D01*
X111477839Y-95189836D01*
X111688288Y-95246225D01*
X111699081Y-95248128D01*
X111916125Y-95267117D01*
X111927075Y-95267117D01*
X112144119Y-95248128D01*
X112154912Y-95246225D01*
X112365361Y-95189836D01*
X112375653Y-95186090D01*
X112573111Y-95094014D01*
X112582606Y-95088531D01*
X112634648Y-95052091D01*
X112643024Y-95041612D01*
X112635956Y-95028166D01*
X111934412Y-94326622D01*
X111920468Y-94319008D01*
X111918635Y-94319139D01*
X111912020Y-94323390D01*
X111206523Y-95028887D01*
X111200093Y-95040662D01*
X94209175Y-95040662D01*
X94124125Y-94973494D01*
X94120067Y-94970289D01*
X93917055Y-94858220D01*
X93760545Y-94802797D01*
X93703339Y-94782539D01*
X93703335Y-94782538D01*
X93698464Y-94780813D01*
X93693371Y-94779906D01*
X93693368Y-94779905D01*
X93475255Y-94741053D01*
X93475249Y-94741052D01*
X93470166Y-94740147D01*
X93381632Y-94739065D01*
X93243461Y-94737377D01*
X93243459Y-94737377D01*
X93238292Y-94737314D01*
X93009069Y-94772390D01*
X92788653Y-94844433D01*
X92784065Y-94846821D01*
X92784061Y-94846823D01*
X92624670Y-94929797D01*
X92582962Y-94951509D01*
X92578829Y-94954612D01*
X92578826Y-94954614D01*
X92401657Y-95087636D01*
X92397522Y-95090741D01*
X92237313Y-95258391D01*
X92234399Y-95262663D01*
X92234398Y-95262664D01*
X92208794Y-95300198D01*
X92106636Y-95449956D01*
X92104456Y-95454653D01*
X92018993Y-95638767D01*
X92009001Y-95660292D01*
X91947031Y-95883749D01*
X91922389Y-96114328D01*
X84338708Y-96114328D01*
X84339964Y-93960075D01*
X110609083Y-93960075D01*
X110628072Y-94177119D01*
X110629975Y-94187912D01*
X110686364Y-94398361D01*
X110690110Y-94408653D01*
X110782186Y-94606111D01*
X110787669Y-94615606D01*
X110824109Y-94667648D01*
X110834588Y-94676024D01*
X110848034Y-94668956D01*
X111549578Y-93967412D01*
X111555956Y-93955732D01*
X112286008Y-93955732D01*
X112286139Y-93957565D01*
X112290390Y-93964180D01*
X112995887Y-94669677D01*
X113007662Y-94676107D01*
X113019677Y-94666811D01*
X113055531Y-94615606D01*
X113061014Y-94606111D01*
X113153090Y-94408653D01*
X113156836Y-94398361D01*
X113213225Y-94187912D01*
X113215128Y-94177119D01*
X113234117Y-93960075D01*
X113234117Y-93954600D01*
X118108102Y-93954600D01*
X118128057Y-94182687D01*
X118129481Y-94188000D01*
X118129481Y-94188002D01*
X118166625Y-94326622D01*
X118187316Y-94403843D01*
X118189639Y-94408824D01*
X118189639Y-94408825D01*
X118281751Y-94606362D01*
X118281754Y-94606367D01*
X118284077Y-94611349D01*
X118357502Y-94716211D01*
X118402102Y-94779905D01*
X118415402Y-94798900D01*
X118577300Y-94960798D01*
X118581808Y-94963955D01*
X118581811Y-94963957D01*
X118636918Y-95002543D01*
X118764851Y-95092123D01*
X118769833Y-95094446D01*
X118769838Y-95094449D01*
X118940918Y-95174224D01*
X118972357Y-95188884D01*
X118977665Y-95190306D01*
X118977667Y-95190307D01*
X119188198Y-95246719D01*
X119188200Y-95246719D01*
X119193513Y-95248143D01*
X119421600Y-95268098D01*
X119649687Y-95248143D01*
X119655000Y-95246719D01*
X119655002Y-95246719D01*
X119865533Y-95190307D01*
X119865535Y-95190306D01*
X119870843Y-95188884D01*
X119902282Y-95174224D01*
X120073362Y-95094449D01*
X120073367Y-95094446D01*
X120078349Y-95092123D01*
X120206282Y-95002543D01*
X120261389Y-94963957D01*
X120261392Y-94963955D01*
X120265900Y-94960798D01*
X120427798Y-94798900D01*
X120441099Y-94779905D01*
X120485698Y-94716211D01*
X120559123Y-94611349D01*
X120561446Y-94606367D01*
X120561449Y-94606362D01*
X120638032Y-94442127D01*
X121871500Y-94442127D01*
X121886457Y-94613087D01*
X121887881Y-94618400D01*
X121887881Y-94618402D01*
X121938739Y-94808203D01*
X121945716Y-94834243D01*
X121948039Y-94839224D01*
X121948039Y-94839225D01*
X122040151Y-95036762D01*
X122040154Y-95036767D01*
X122042477Y-95041749D01*
X122173802Y-95229300D01*
X122335700Y-95391198D01*
X122340208Y-95394355D01*
X122340211Y-95394357D01*
X122388781Y-95428366D01*
X122523251Y-95522523D01*
X122528233Y-95524846D01*
X122528238Y-95524849D01*
X122725775Y-95616961D01*
X122730757Y-95619284D01*
X122736065Y-95620706D01*
X122736067Y-95620707D01*
X122946598Y-95677119D01*
X122946600Y-95677119D01*
X122951913Y-95678543D01*
X123180000Y-95698498D01*
X123408087Y-95678543D01*
X123413400Y-95677119D01*
X123413402Y-95677119D01*
X123623933Y-95620707D01*
X123623935Y-95620706D01*
X123629243Y-95619284D01*
X123634225Y-95616961D01*
X123831762Y-95524849D01*
X123831767Y-95524846D01*
X123836749Y-95522523D01*
X123971219Y-95428366D01*
X124019789Y-95394357D01*
X124019792Y-95394355D01*
X124024300Y-95391198D01*
X124186198Y-95229300D01*
X124317523Y-95041749D01*
X124319846Y-95036767D01*
X124319849Y-95036762D01*
X124335805Y-95002543D01*
X124382722Y-94949258D01*
X124450999Y-94929797D01*
X124518959Y-94950339D01*
X124564195Y-95002543D01*
X124580151Y-95036762D01*
X124580154Y-95036767D01*
X124582477Y-95041749D01*
X124713802Y-95229300D01*
X124875700Y-95391198D01*
X124880208Y-95394355D01*
X124880211Y-95394357D01*
X124928781Y-95428366D01*
X125063251Y-95522523D01*
X125068233Y-95524846D01*
X125068238Y-95524849D01*
X125265775Y-95616961D01*
X125270757Y-95619284D01*
X125276065Y-95620706D01*
X125276067Y-95620707D01*
X125486598Y-95677119D01*
X125486600Y-95677119D01*
X125491913Y-95678543D01*
X125720000Y-95698498D01*
X125948087Y-95678543D01*
X125953400Y-95677119D01*
X125953402Y-95677119D01*
X126163933Y-95620707D01*
X126163935Y-95620706D01*
X126169243Y-95619284D01*
X126174225Y-95616961D01*
X126371762Y-95524849D01*
X126371767Y-95524846D01*
X126376749Y-95522523D01*
X126511219Y-95428366D01*
X126559789Y-95394357D01*
X126559792Y-95394355D01*
X126564300Y-95391198D01*
X126726198Y-95229300D01*
X126857523Y-95041749D01*
X126859846Y-95036767D01*
X126859849Y-95036762D01*
X126875805Y-95002543D01*
X126922722Y-94949258D01*
X126990999Y-94929797D01*
X127058959Y-94950339D01*
X127104195Y-95002543D01*
X127120151Y-95036762D01*
X127120154Y-95036767D01*
X127122477Y-95041749D01*
X127253802Y-95229300D01*
X127415700Y-95391198D01*
X127420208Y-95394355D01*
X127420211Y-95394357D01*
X127468781Y-95428366D01*
X127603251Y-95522523D01*
X127608233Y-95524846D01*
X127608238Y-95524849D01*
X127805775Y-95616961D01*
X127810757Y-95619284D01*
X127816065Y-95620706D01*
X127816067Y-95620707D01*
X128026598Y-95677119D01*
X128026600Y-95677119D01*
X128031913Y-95678543D01*
X128260000Y-95698498D01*
X128488087Y-95678543D01*
X128493400Y-95677119D01*
X128493402Y-95677119D01*
X128703933Y-95620707D01*
X128703935Y-95620706D01*
X128709243Y-95619284D01*
X128714225Y-95616961D01*
X128911762Y-95524849D01*
X128911767Y-95524846D01*
X128916749Y-95522523D01*
X129051219Y-95428366D01*
X129099789Y-95394357D01*
X129099792Y-95394355D01*
X129104300Y-95391198D01*
X129266198Y-95229300D01*
X129269357Y-95224789D01*
X129272892Y-95220576D01*
X129274026Y-95221527D01*
X129324071Y-95181529D01*
X129394690Y-95174224D01*
X129458049Y-95206258D01*
X129494030Y-95267462D01*
X129497082Y-95284517D01*
X129498255Y-95295316D01*
X129549385Y-95431705D01*
X129636739Y-95548261D01*
X129753295Y-95635615D01*
X129889684Y-95686745D01*
X129951866Y-95693500D01*
X131648134Y-95693500D01*
X131710316Y-95686745D01*
X131791261Y-95656400D01*
X153829702Y-95656400D01*
X153849657Y-95884487D01*
X153908916Y-96105643D01*
X153911239Y-96110624D01*
X153911239Y-96110625D01*
X154003351Y-96308162D01*
X154003354Y-96308167D01*
X154005677Y-96313149D01*
X154137002Y-96500700D01*
X154298900Y-96662598D01*
X154303408Y-96665755D01*
X154303411Y-96665757D01*
X154315826Y-96674450D01*
X154486451Y-96793923D01*
X154491433Y-96796246D01*
X154491438Y-96796249D01*
X154688975Y-96888361D01*
X154693957Y-96890684D01*
X154699265Y-96892106D01*
X154699267Y-96892107D01*
X154909798Y-96948519D01*
X154909800Y-96948519D01*
X154915113Y-96949943D01*
X155143200Y-96969898D01*
X155371287Y-96949943D01*
X155376600Y-96948519D01*
X155376602Y-96948519D01*
X155587133Y-96892107D01*
X155587135Y-96892106D01*
X155592443Y-96890684D01*
X155597425Y-96888361D01*
X155794962Y-96796249D01*
X155794967Y-96796246D01*
X155799949Y-96793923D01*
X155970574Y-96674450D01*
X155982989Y-96665757D01*
X155982992Y-96665755D01*
X155987500Y-96662598D01*
X156149398Y-96500700D01*
X156280723Y-96313149D01*
X156283046Y-96308167D01*
X156283049Y-96308162D01*
X156375161Y-96110625D01*
X156375161Y-96110624D01*
X156377484Y-96105643D01*
X156436743Y-95884487D01*
X156456698Y-95656400D01*
X156436743Y-95428313D01*
X156435319Y-95422998D01*
X156378907Y-95212467D01*
X156378906Y-95212465D01*
X156377484Y-95207157D01*
X156367880Y-95186561D01*
X156283049Y-95004638D01*
X156283046Y-95004633D01*
X156280723Y-94999651D01*
X156181692Y-94858220D01*
X156152557Y-94816611D01*
X156152555Y-94816608D01*
X156149398Y-94812100D01*
X155987500Y-94650202D01*
X155982992Y-94647045D01*
X155982989Y-94647043D01*
X155904811Y-94592302D01*
X155799949Y-94518877D01*
X155794967Y-94516554D01*
X155794962Y-94516551D01*
X155597425Y-94424439D01*
X155597424Y-94424439D01*
X155592443Y-94422116D01*
X155587135Y-94420694D01*
X155587133Y-94420693D01*
X155376602Y-94364281D01*
X155376600Y-94364281D01*
X155371287Y-94362857D01*
X155143200Y-94342902D01*
X154915113Y-94362857D01*
X154909800Y-94364281D01*
X154909798Y-94364281D01*
X154699267Y-94420693D01*
X154699265Y-94420694D01*
X154693957Y-94422116D01*
X154688976Y-94424439D01*
X154688975Y-94424439D01*
X154491438Y-94516551D01*
X154491433Y-94516554D01*
X154486451Y-94518877D01*
X154381589Y-94592302D01*
X154303411Y-94647043D01*
X154303408Y-94647045D01*
X154298900Y-94650202D01*
X154137002Y-94812100D01*
X154133845Y-94816608D01*
X154133843Y-94816611D01*
X154104708Y-94858220D01*
X154005677Y-94999651D01*
X154003354Y-95004633D01*
X154003351Y-95004638D01*
X153918520Y-95186561D01*
X153908916Y-95207157D01*
X153907494Y-95212465D01*
X153907493Y-95212467D01*
X153851081Y-95422998D01*
X153849657Y-95428313D01*
X153829702Y-95656400D01*
X131791261Y-95656400D01*
X131846705Y-95635615D01*
X131963261Y-95548261D01*
X132050615Y-95431705D01*
X132101745Y-95295316D01*
X132108500Y-95233134D01*
X132108500Y-94294000D01*
X133585902Y-94294000D01*
X133605857Y-94522087D01*
X133607281Y-94527400D01*
X133607281Y-94527402D01*
X133653784Y-94700950D01*
X133665116Y-94743243D01*
X133667439Y-94748224D01*
X133667439Y-94748225D01*
X133759551Y-94945762D01*
X133759554Y-94945767D01*
X133761877Y-94950749D01*
X133792962Y-94995143D01*
X133862193Y-95094014D01*
X133893202Y-95138300D01*
X134055100Y-95300198D01*
X134059608Y-95303355D01*
X134059611Y-95303357D01*
X134137789Y-95358098D01*
X134242651Y-95431523D01*
X134247633Y-95433846D01*
X134247638Y-95433849D01*
X134445175Y-95525961D01*
X134450157Y-95528284D01*
X134455465Y-95529706D01*
X134455467Y-95529707D01*
X134665998Y-95586119D01*
X134666000Y-95586119D01*
X134671313Y-95587543D01*
X134899400Y-95607498D01*
X135127487Y-95587543D01*
X135132800Y-95586119D01*
X135132802Y-95586119D01*
X135343333Y-95529707D01*
X135343335Y-95529706D01*
X135348643Y-95528284D01*
X135353625Y-95525961D01*
X135551162Y-95433849D01*
X135551167Y-95433846D01*
X135556149Y-95431523D01*
X135661011Y-95358098D01*
X135739189Y-95303357D01*
X135739192Y-95303355D01*
X135743700Y-95300198D01*
X135905598Y-95138300D01*
X135936608Y-95094014D01*
X136005838Y-94995143D01*
X136036923Y-94950749D01*
X136039246Y-94945767D01*
X136039249Y-94945762D01*
X136131361Y-94748225D01*
X136131361Y-94748224D01*
X136133684Y-94743243D01*
X136145017Y-94700950D01*
X136191519Y-94527402D01*
X136191519Y-94527400D01*
X136192943Y-94522087D01*
X136212898Y-94294000D01*
X136192943Y-94065913D01*
X136133684Y-93844757D01*
X136081102Y-93731993D01*
X136039249Y-93642238D01*
X136039246Y-93642233D01*
X136036923Y-93637251D01*
X135962254Y-93530613D01*
X135908757Y-93454211D01*
X135908755Y-93454208D01*
X135905598Y-93449700D01*
X135743700Y-93287802D01*
X135739192Y-93284645D01*
X135739189Y-93284643D01*
X135661011Y-93229902D01*
X135556149Y-93156477D01*
X135551167Y-93154154D01*
X135551162Y-93154151D01*
X135353625Y-93062039D01*
X135353624Y-93062039D01*
X135348643Y-93059716D01*
X135343335Y-93058294D01*
X135343333Y-93058293D01*
X135132802Y-93001881D01*
X135132800Y-93001881D01*
X135127487Y-93000457D01*
X134899400Y-92980502D01*
X134671313Y-93000457D01*
X134666000Y-93001881D01*
X134665998Y-93001881D01*
X134455467Y-93058293D01*
X134455465Y-93058294D01*
X134450157Y-93059716D01*
X134445176Y-93062039D01*
X134445175Y-93062039D01*
X134247638Y-93154151D01*
X134247633Y-93154154D01*
X134242651Y-93156477D01*
X134137789Y-93229902D01*
X134059611Y-93284643D01*
X134059608Y-93284645D01*
X134055100Y-93287802D01*
X133893202Y-93449700D01*
X133890045Y-93454208D01*
X133890043Y-93454211D01*
X133836546Y-93530613D01*
X133761877Y-93637251D01*
X133759554Y-93642233D01*
X133759551Y-93642238D01*
X133717698Y-93731993D01*
X133665116Y-93844757D01*
X133605857Y-94065913D01*
X133585902Y-94294000D01*
X132108500Y-94294000D01*
X132108500Y-92736866D01*
X132101745Y-92674684D01*
X132050615Y-92538295D01*
X131963261Y-92421739D01*
X131846705Y-92334385D01*
X131710316Y-92283255D01*
X131648134Y-92276500D01*
X129951866Y-92276500D01*
X129889684Y-92283255D01*
X129753295Y-92334385D01*
X129636739Y-92421739D01*
X129549385Y-92538295D01*
X129498255Y-92674684D01*
X129497083Y-92685474D01*
X129496197Y-92687606D01*
X129495575Y-92690222D01*
X129495152Y-92690121D01*
X129469845Y-92751035D01*
X129411483Y-92791463D01*
X129340529Y-92793922D01*
X129279510Y-92757629D01*
X129272511Y-92748969D01*
X129269354Y-92745207D01*
X129266198Y-92740700D01*
X129104300Y-92578802D01*
X129099792Y-92575645D01*
X129099789Y-92575643D01*
X128939802Y-92463619D01*
X128916749Y-92447477D01*
X128911767Y-92445154D01*
X128911762Y-92445151D01*
X128714225Y-92353039D01*
X128714224Y-92353039D01*
X128709243Y-92350716D01*
X128703935Y-92349294D01*
X128703933Y-92349293D01*
X128493402Y-92292881D01*
X128493400Y-92292881D01*
X128488087Y-92291457D01*
X128260000Y-92271502D01*
X128031913Y-92291457D01*
X128026600Y-92292881D01*
X128026598Y-92292881D01*
X127816067Y-92349293D01*
X127816065Y-92349294D01*
X127810757Y-92350716D01*
X127805776Y-92353039D01*
X127805775Y-92353039D01*
X127608238Y-92445151D01*
X127608233Y-92445154D01*
X127603251Y-92447477D01*
X127580198Y-92463619D01*
X127420211Y-92575643D01*
X127420208Y-92575645D01*
X127415700Y-92578802D01*
X127253802Y-92740700D01*
X127122477Y-92928251D01*
X127120154Y-92933233D01*
X127120151Y-92933238D01*
X127104195Y-92967457D01*
X127057278Y-93020742D01*
X126989001Y-93040203D01*
X126921041Y-93019661D01*
X126875805Y-92967457D01*
X126859849Y-92933238D01*
X126859846Y-92933233D01*
X126857523Y-92928251D01*
X126726198Y-92740700D01*
X126564300Y-92578802D01*
X126559792Y-92575645D01*
X126559789Y-92575643D01*
X126435203Y-92488407D01*
X126390875Y-92432950D01*
X126383566Y-92362330D01*
X126415597Y-92298970D01*
X126435203Y-92281981D01*
X126595189Y-92169957D01*
X126595192Y-92169955D01*
X126599700Y-92166798D01*
X126761598Y-92004900D01*
X126773061Y-91988530D01*
X126889766Y-91821857D01*
X126892923Y-91817349D01*
X126895246Y-91812367D01*
X126895249Y-91812362D01*
X126987361Y-91614825D01*
X126987361Y-91614824D01*
X126989684Y-91609843D01*
X127031742Y-91452884D01*
X127047519Y-91394002D01*
X127047519Y-91394000D01*
X127048943Y-91388687D01*
X127068898Y-91160600D01*
X127048943Y-90932513D01*
X127046378Y-90922939D01*
X126991107Y-90716667D01*
X126991106Y-90716665D01*
X126989684Y-90711357D01*
X126983407Y-90697896D01*
X126950441Y-90627200D01*
X129471102Y-90627200D01*
X129491057Y-90855287D01*
X129492481Y-90860600D01*
X129492481Y-90860602D01*
X129536051Y-91023204D01*
X129550316Y-91076443D01*
X129552639Y-91081424D01*
X129552639Y-91081425D01*
X129644751Y-91278962D01*
X129644754Y-91278967D01*
X129647077Y-91283949D01*
X129778402Y-91471500D01*
X129940300Y-91633398D01*
X129944808Y-91636555D01*
X129944811Y-91636557D01*
X129992299Y-91669808D01*
X130127851Y-91764723D01*
X130132833Y-91767046D01*
X130132838Y-91767049D01*
X130330375Y-91859161D01*
X130335357Y-91861484D01*
X130340665Y-91862906D01*
X130340667Y-91862907D01*
X130551198Y-91919319D01*
X130551200Y-91919319D01*
X130556513Y-91920743D01*
X130784600Y-91940698D01*
X131012687Y-91920743D01*
X131018000Y-91919319D01*
X131018002Y-91919319D01*
X131228533Y-91862907D01*
X131228535Y-91862906D01*
X131233843Y-91861484D01*
X131238825Y-91859161D01*
X131436362Y-91767049D01*
X131436367Y-91767046D01*
X131441349Y-91764723D01*
X131576901Y-91669808D01*
X131624389Y-91636557D01*
X131624392Y-91636555D01*
X131628900Y-91633398D01*
X131790798Y-91471500D01*
X131922123Y-91283949D01*
X131924446Y-91278967D01*
X131924449Y-91278962D01*
X132016561Y-91081425D01*
X132016561Y-91081424D01*
X132018884Y-91076443D01*
X132033150Y-91023204D01*
X132035040Y-91016149D01*
X152102181Y-91016149D01*
X152107462Y-91023204D01*
X152284343Y-91126565D01*
X152293626Y-91131012D01*
X152500527Y-91210020D01*
X152510425Y-91212896D01*
X152727452Y-91257050D01*
X152737681Y-91258269D01*
X152959003Y-91266386D01*
X152969289Y-91265919D01*
X153188970Y-91237777D01*
X153199048Y-91235635D01*
X153411175Y-91171994D01*
X153420782Y-91168228D01*
X153619653Y-91070802D01*
X153628512Y-91065522D01*
X153686315Y-91024291D01*
X153694715Y-91013591D01*
X153687728Y-91000438D01*
X152912812Y-90225522D01*
X152898868Y-90217908D01*
X152897035Y-90218039D01*
X152890420Y-90222290D01*
X152108941Y-91003769D01*
X152102181Y-91016149D01*
X132035040Y-91016149D01*
X132076719Y-90860602D01*
X132076719Y-90860600D01*
X132078143Y-90855287D01*
X132098098Y-90627200D01*
X132078143Y-90399113D01*
X132073132Y-90380412D01*
X132020307Y-90183267D01*
X132020306Y-90183265D01*
X132018884Y-90177957D01*
X132010878Y-90160787D01*
X131924449Y-89975438D01*
X131924446Y-89975433D01*
X131922123Y-89970451D01*
X131835753Y-89847102D01*
X131793957Y-89787411D01*
X131793955Y-89787408D01*
X131790798Y-89782900D01*
X131628900Y-89621002D01*
X131624392Y-89617845D01*
X131624389Y-89617843D01*
X131544621Y-89561989D01*
X131441349Y-89489677D01*
X131436367Y-89487354D01*
X131436362Y-89487351D01*
X131238825Y-89395239D01*
X131238824Y-89395239D01*
X131233843Y-89392916D01*
X131228535Y-89391494D01*
X131228533Y-89391493D01*
X131018002Y-89335081D01*
X131018000Y-89335081D01*
X131012687Y-89333657D01*
X130784600Y-89313702D01*
X130556513Y-89333657D01*
X130551200Y-89335081D01*
X130551198Y-89335081D01*
X130340667Y-89391493D01*
X130340665Y-89391494D01*
X130335357Y-89392916D01*
X130330376Y-89395239D01*
X130330375Y-89395239D01*
X130132838Y-89487351D01*
X130132833Y-89487354D01*
X130127851Y-89489677D01*
X130024579Y-89561989D01*
X129944811Y-89617843D01*
X129944808Y-89617845D01*
X129940300Y-89621002D01*
X129778402Y-89782900D01*
X129775245Y-89787408D01*
X129775243Y-89787411D01*
X129733447Y-89847102D01*
X129647077Y-89970451D01*
X129644754Y-89975433D01*
X129644751Y-89975438D01*
X129558322Y-90160787D01*
X129550316Y-90177957D01*
X129548894Y-90183265D01*
X129548893Y-90183267D01*
X129496068Y-90380412D01*
X129491057Y-90399113D01*
X129471102Y-90627200D01*
X126950441Y-90627200D01*
X126895249Y-90508838D01*
X126895246Y-90508833D01*
X126892923Y-90503851D01*
X126798690Y-90369273D01*
X126764757Y-90320811D01*
X126764755Y-90320808D01*
X126761598Y-90316300D01*
X126599700Y-90154402D01*
X126595192Y-90151245D01*
X126595189Y-90151243D01*
X126508783Y-90090741D01*
X126412149Y-90023077D01*
X126407167Y-90020754D01*
X126407162Y-90020751D01*
X126209625Y-89928639D01*
X126209624Y-89928639D01*
X126204643Y-89926316D01*
X126199335Y-89924894D01*
X126199333Y-89924893D01*
X125988802Y-89868481D01*
X125988800Y-89868481D01*
X125983487Y-89867057D01*
X125755400Y-89847102D01*
X125527313Y-89867057D01*
X125522000Y-89868481D01*
X125521998Y-89868481D01*
X125311467Y-89924893D01*
X125311465Y-89924894D01*
X125306157Y-89926316D01*
X125301176Y-89928639D01*
X125301175Y-89928639D01*
X125103638Y-90020751D01*
X125103633Y-90020754D01*
X125098651Y-90023077D01*
X125002017Y-90090741D01*
X124915611Y-90151243D01*
X124915608Y-90151245D01*
X124911100Y-90154402D01*
X124749202Y-90316300D01*
X124746045Y-90320808D01*
X124746043Y-90320811D01*
X124712110Y-90369273D01*
X124617877Y-90503851D01*
X124615554Y-90508833D01*
X124615551Y-90508838D01*
X124527393Y-90697896D01*
X124521116Y-90711357D01*
X124519694Y-90716665D01*
X124519693Y-90716667D01*
X124464422Y-90922939D01*
X124461857Y-90932513D01*
X124441902Y-91160600D01*
X124461857Y-91388687D01*
X124463281Y-91394000D01*
X124463281Y-91394002D01*
X124479059Y-91452884D01*
X124521116Y-91609843D01*
X124523439Y-91614824D01*
X124523439Y-91614825D01*
X124615551Y-91812362D01*
X124615554Y-91812367D01*
X124617877Y-91817349D01*
X124621034Y-91821857D01*
X124737740Y-91988530D01*
X124749202Y-92004900D01*
X124911100Y-92166798D01*
X124915608Y-92169955D01*
X124915611Y-92169957D01*
X125040197Y-92257193D01*
X125084525Y-92312650D01*
X125091834Y-92383270D01*
X125059803Y-92446630D01*
X125040197Y-92463619D01*
X124880211Y-92575643D01*
X124880208Y-92575645D01*
X124875700Y-92578802D01*
X124713802Y-92740700D01*
X124582477Y-92928251D01*
X124580154Y-92933233D01*
X124580151Y-92933238D01*
X124564195Y-92967457D01*
X124517278Y-93020742D01*
X124449001Y-93040203D01*
X124381041Y-93019661D01*
X124335805Y-92967457D01*
X124319849Y-92933238D01*
X124319846Y-92933233D01*
X124317523Y-92928251D01*
X124186198Y-92740700D01*
X124024300Y-92578802D01*
X124019792Y-92575645D01*
X124019789Y-92575643D01*
X123859802Y-92463619D01*
X123836749Y-92447477D01*
X123831767Y-92445154D01*
X123831762Y-92445151D01*
X123634225Y-92353039D01*
X123634224Y-92353039D01*
X123629243Y-92350716D01*
X123623935Y-92349294D01*
X123623933Y-92349293D01*
X123413402Y-92292881D01*
X123413400Y-92292881D01*
X123408087Y-92291457D01*
X123180000Y-92271502D01*
X122951913Y-92291457D01*
X122946600Y-92292881D01*
X122946598Y-92292881D01*
X122736067Y-92349293D01*
X122736065Y-92349294D01*
X122730757Y-92350716D01*
X122725776Y-92353039D01*
X122725775Y-92353039D01*
X122528238Y-92445151D01*
X122528233Y-92445154D01*
X122523251Y-92447477D01*
X122500198Y-92463619D01*
X122340211Y-92575643D01*
X122340208Y-92575645D01*
X122335700Y-92578802D01*
X122173802Y-92740700D01*
X122042477Y-92928251D01*
X122040154Y-92933233D01*
X122040151Y-92933238D01*
X122009030Y-92999978D01*
X121945716Y-93135757D01*
X121944294Y-93141065D01*
X121944293Y-93141067D01*
X121903423Y-93293594D01*
X121886457Y-93356913D01*
X121871500Y-93527873D01*
X121871500Y-94442127D01*
X120638032Y-94442127D01*
X120653561Y-94408825D01*
X120653561Y-94408824D01*
X120655884Y-94403843D01*
X120676576Y-94326622D01*
X120713719Y-94188002D01*
X120713719Y-94188000D01*
X120715143Y-94182687D01*
X120735098Y-93954600D01*
X120715143Y-93726513D01*
X120713719Y-93721198D01*
X120657307Y-93510667D01*
X120657306Y-93510665D01*
X120655884Y-93505357D01*
X120653561Y-93500375D01*
X120561449Y-93302838D01*
X120561446Y-93302833D01*
X120559123Y-93297851D01*
X120458503Y-93154151D01*
X120430957Y-93114811D01*
X120430955Y-93114808D01*
X120427798Y-93110300D01*
X120265900Y-92948402D01*
X120261392Y-92945245D01*
X120261389Y-92945243D01*
X120135520Y-92857109D01*
X120078349Y-92817077D01*
X120073367Y-92814754D01*
X120073362Y-92814751D01*
X119875825Y-92722639D01*
X119875824Y-92722639D01*
X119870843Y-92720316D01*
X119865535Y-92718894D01*
X119865533Y-92718893D01*
X119655002Y-92662481D01*
X119655000Y-92662481D01*
X119649687Y-92661057D01*
X119421600Y-92641102D01*
X119193513Y-92661057D01*
X119188200Y-92662481D01*
X119188198Y-92662481D01*
X118977667Y-92718893D01*
X118977665Y-92718894D01*
X118972357Y-92720316D01*
X118967376Y-92722639D01*
X118967375Y-92722639D01*
X118769838Y-92814751D01*
X118769833Y-92814754D01*
X118764851Y-92817077D01*
X118707680Y-92857109D01*
X118581811Y-92945243D01*
X118581808Y-92945245D01*
X118577300Y-92948402D01*
X118415402Y-93110300D01*
X118412245Y-93114808D01*
X118412243Y-93114811D01*
X118384697Y-93154151D01*
X118284077Y-93297851D01*
X118281754Y-93302833D01*
X118281751Y-93302838D01*
X118189639Y-93500375D01*
X118187316Y-93505357D01*
X118185894Y-93510665D01*
X118185893Y-93510667D01*
X118129481Y-93721198D01*
X118128057Y-93726513D01*
X118108102Y-93954600D01*
X113234117Y-93954600D01*
X113234117Y-93949125D01*
X113215128Y-93732081D01*
X113213225Y-93721288D01*
X113156836Y-93510839D01*
X113153090Y-93500547D01*
X113061014Y-93303089D01*
X113055531Y-93293594D01*
X113019091Y-93241552D01*
X113008612Y-93233176D01*
X112995166Y-93240244D01*
X112293622Y-93941788D01*
X112286008Y-93955732D01*
X111555956Y-93955732D01*
X111557192Y-93953468D01*
X111557061Y-93951635D01*
X111552810Y-93945020D01*
X110847313Y-93239523D01*
X110835538Y-93233093D01*
X110823523Y-93242389D01*
X110787669Y-93293594D01*
X110782186Y-93303089D01*
X110690110Y-93500547D01*
X110686364Y-93510839D01*
X110629975Y-93721288D01*
X110628072Y-93732081D01*
X110609083Y-93949125D01*
X110609083Y-93960075D01*
X84339964Y-93960075D01*
X84340601Y-92867588D01*
X111200176Y-92867588D01*
X111207244Y-92881034D01*
X111908788Y-93582578D01*
X111922732Y-93590192D01*
X111924565Y-93590061D01*
X111931180Y-93585810D01*
X112636677Y-92880313D01*
X112643107Y-92868538D01*
X112633811Y-92856523D01*
X112582606Y-92820669D01*
X112573111Y-92815186D01*
X112375653Y-92723110D01*
X112365361Y-92719364D01*
X112154912Y-92662975D01*
X112144119Y-92661072D01*
X111927075Y-92642083D01*
X111916125Y-92642083D01*
X111699081Y-92661072D01*
X111688288Y-92662975D01*
X111477839Y-92719364D01*
X111467547Y-92723110D01*
X111270089Y-92815186D01*
X111260594Y-92820669D01*
X111208552Y-92857109D01*
X111200176Y-92867588D01*
X84340601Y-92867588D01*
X84341624Y-91114328D01*
X91922389Y-91114328D01*
X91922686Y-91119480D01*
X91922686Y-91119484D01*
X91923351Y-91131012D01*
X91935738Y-91345835D01*
X91936873Y-91350872D01*
X91936874Y-91350878D01*
X91964936Y-91475397D01*
X91986718Y-91572053D01*
X92073962Y-91786907D01*
X92195125Y-91984627D01*
X92346953Y-92159902D01*
X92525370Y-92308027D01*
X92529822Y-92310629D01*
X92529827Y-92310632D01*
X92710756Y-92416358D01*
X92725584Y-92425023D01*
X92942218Y-92507747D01*
X92947286Y-92508778D01*
X92947289Y-92508779D01*
X93057045Y-92531109D01*
X93169454Y-92553979D01*
X93174627Y-92554169D01*
X93174630Y-92554169D01*
X93396026Y-92562287D01*
X93396030Y-92562287D01*
X93401190Y-92562476D01*
X93406310Y-92561820D01*
X93406312Y-92561820D01*
X93524318Y-92546703D01*
X93631202Y-92533011D01*
X93636151Y-92531526D01*
X93636157Y-92531525D01*
X93848370Y-92467858D01*
X93853313Y-92466375D01*
X93885445Y-92450634D01*
X94056920Y-92366629D01*
X94061558Y-92364357D01*
X94107996Y-92331233D01*
X94246132Y-92232702D01*
X94246137Y-92232698D01*
X94250344Y-92229697D01*
X94414602Y-92066011D01*
X94549920Y-91877696D01*
X94557933Y-91861484D01*
X94650370Y-91674450D01*
X94650371Y-91674448D01*
X94652664Y-91669808D01*
X94683900Y-91566999D01*
X94718572Y-91452884D01*
X94718573Y-91452878D01*
X94720076Y-91447932D01*
X94743977Y-91266386D01*
X94749907Y-91221345D01*
X94749907Y-91221341D01*
X94750344Y-91218024D01*
X94751561Y-91168228D01*
X94751951Y-91152265D01*
X94751951Y-91152261D01*
X94752033Y-91148900D01*
X94741119Y-91016149D01*
X94733456Y-90922939D01*
X94733455Y-90922933D01*
X94733032Y-90917788D01*
X94676540Y-90692883D01*
X94584073Y-90480225D01*
X94458116Y-90285524D01*
X94445315Y-90271455D01*
X94305528Y-90117832D01*
X94305526Y-90117831D01*
X94302050Y-90114010D01*
X94297999Y-90110811D01*
X94297995Y-90110807D01*
X94124125Y-89973494D01*
X94120067Y-89970289D01*
X93917055Y-89858220D01*
X93770158Y-89806201D01*
X93703339Y-89782539D01*
X93703335Y-89782538D01*
X93698464Y-89780813D01*
X93693371Y-89779906D01*
X93693368Y-89779905D01*
X93475255Y-89741053D01*
X93475249Y-89741052D01*
X93470166Y-89740147D01*
X93381632Y-89739065D01*
X93243461Y-89737377D01*
X93243459Y-89737377D01*
X93238292Y-89737314D01*
X93009069Y-89772390D01*
X92788653Y-89844433D01*
X92784065Y-89846821D01*
X92784061Y-89846823D01*
X92587551Y-89949120D01*
X92582962Y-89951509D01*
X92578829Y-89954612D01*
X92578826Y-89954614D01*
X92401657Y-90087636D01*
X92397522Y-90090741D01*
X92237313Y-90258391D01*
X92234399Y-90262663D01*
X92234398Y-90262664D01*
X92189076Y-90329104D01*
X92106636Y-90449956D01*
X92099177Y-90466025D01*
X92012806Y-90652095D01*
X92009001Y-90660292D01*
X91947031Y-90883749D01*
X91922389Y-91114328D01*
X84341624Y-91114328D01*
X84343263Y-88302922D01*
X98869473Y-88302922D01*
X98916964Y-88480161D01*
X98920710Y-88490453D01*
X99012786Y-88687911D01*
X99018269Y-88697407D01*
X99143228Y-88875867D01*
X99150284Y-88884275D01*
X99304325Y-89038316D01*
X99312733Y-89045372D01*
X99491193Y-89170331D01*
X99500689Y-89175814D01*
X99698147Y-89267890D01*
X99708439Y-89271636D01*
X99880703Y-89317794D01*
X99894799Y-89317458D01*
X99898200Y-89309516D01*
X99898200Y-89304367D01*
X100406200Y-89304367D01*
X100410173Y-89317898D01*
X100418722Y-89319127D01*
X100595961Y-89271636D01*
X100606253Y-89267890D01*
X100803711Y-89175814D01*
X100813207Y-89170331D01*
X100991667Y-89045372D01*
X101000075Y-89038316D01*
X101154116Y-88884275D01*
X101161172Y-88875867D01*
X101286131Y-88697407D01*
X101291614Y-88687911D01*
X101383690Y-88490453D01*
X101387436Y-88480161D01*
X101433594Y-88307897D01*
X101433258Y-88293801D01*
X101425316Y-88290400D01*
X100424315Y-88290400D01*
X100409076Y-88294875D01*
X100407871Y-88296265D01*
X100406200Y-88303948D01*
X100406200Y-89304367D01*
X99898200Y-89304367D01*
X99898200Y-88308515D01*
X99893725Y-88293276D01*
X99892335Y-88292071D01*
X99884652Y-88290400D01*
X98884233Y-88290400D01*
X98870702Y-88294373D01*
X98869473Y-88302922D01*
X84343263Y-88302922D01*
X84343419Y-88036400D01*
X108998702Y-88036400D01*
X109018657Y-88264487D01*
X109020081Y-88269800D01*
X109020081Y-88269802D01*
X109075519Y-88476696D01*
X109077916Y-88485643D01*
X109080239Y-88490624D01*
X109080239Y-88490625D01*
X109172351Y-88688162D01*
X109172354Y-88688167D01*
X109174677Y-88693149D01*
X109204076Y-88735135D01*
X109287194Y-88853839D01*
X109306002Y-88880700D01*
X109467900Y-89042598D01*
X109472408Y-89045755D01*
X109472411Y-89045757D01*
X109550589Y-89100498D01*
X109655451Y-89173923D01*
X109660433Y-89176246D01*
X109660438Y-89176249D01*
X109856965Y-89267890D01*
X109862957Y-89270684D01*
X109868265Y-89272106D01*
X109868267Y-89272107D01*
X110078798Y-89328519D01*
X110078800Y-89328519D01*
X110084113Y-89329943D01*
X110312200Y-89349898D01*
X110540287Y-89329943D01*
X110545600Y-89328519D01*
X110545602Y-89328519D01*
X110756133Y-89272107D01*
X110756135Y-89272106D01*
X110761443Y-89270684D01*
X110767435Y-89267890D01*
X110963962Y-89176249D01*
X110963967Y-89176246D01*
X110968949Y-89173923D01*
X111073811Y-89100498D01*
X111151989Y-89045757D01*
X111151992Y-89045755D01*
X111156500Y-89042598D01*
X111318398Y-88880700D01*
X111337207Y-88853839D01*
X111420324Y-88735135D01*
X111449723Y-88693149D01*
X111452046Y-88688167D01*
X111452049Y-88688162D01*
X111493234Y-88599839D01*
X112613373Y-88599839D01*
X112613597Y-88604505D01*
X112613597Y-88604511D01*
X112618440Y-88705328D01*
X112625913Y-88860908D01*
X112676904Y-89117256D01*
X112765226Y-89363252D01*
X112780400Y-89391493D01*
X112883548Y-89583461D01*
X112888937Y-89593491D01*
X112891732Y-89597234D01*
X112891734Y-89597237D01*
X113042530Y-89799177D01*
X113042535Y-89799183D01*
X113045322Y-89802915D01*
X113048631Y-89806195D01*
X113048636Y-89806201D01*
X113217396Y-89973494D01*
X113230943Y-89986923D01*
X113234705Y-89989681D01*
X113234708Y-89989684D01*
X113409480Y-90117832D01*
X113441724Y-90141474D01*
X113445867Y-90143654D01*
X113445869Y-90143655D01*
X113668884Y-90260989D01*
X113668889Y-90260991D01*
X113673034Y-90263172D01*
X113919790Y-90349344D01*
X113924383Y-90350216D01*
X114171985Y-90397224D01*
X114171988Y-90397224D01*
X114176574Y-90398095D01*
X114307159Y-90403226D01*
X114433075Y-90408174D01*
X114433081Y-90408174D01*
X114437743Y-90408357D01*
X114522148Y-90399113D01*
X114692907Y-90380412D01*
X114692912Y-90380411D01*
X114697560Y-90379902D01*
X114810316Y-90350216D01*
X114945794Y-90314548D01*
X114945796Y-90314547D01*
X114950317Y-90313357D01*
X115190462Y-90210182D01*
X115233957Y-90183267D01*
X115408747Y-90075104D01*
X115408748Y-90075104D01*
X115412719Y-90072646D01*
X115416282Y-90069629D01*
X115416287Y-90069626D01*
X115608639Y-89906787D01*
X115608640Y-89906786D01*
X115612205Y-89903768D01*
X115645053Y-89866312D01*
X115781457Y-89710774D01*
X115781461Y-89710769D01*
X115784539Y-89707259D01*
X115925933Y-89487437D01*
X116033283Y-89249129D01*
X116053788Y-89176425D01*
X116102960Y-89002076D01*
X116102961Y-89002073D01*
X116104230Y-88997572D01*
X116110942Y-88944807D01*
X116122515Y-88853839D01*
X137759373Y-88853839D01*
X137759597Y-88858505D01*
X137759597Y-88858511D01*
X137760663Y-88880700D01*
X137771913Y-89114908D01*
X137822904Y-89371256D01*
X137911226Y-89617252D01*
X137949050Y-89687647D01*
X138031282Y-89840688D01*
X138034937Y-89847491D01*
X138037732Y-89851234D01*
X138037734Y-89851237D01*
X138188530Y-90053177D01*
X138188535Y-90053183D01*
X138191322Y-90056915D01*
X138194631Y-90060195D01*
X138194636Y-90060201D01*
X138361407Y-90225522D01*
X138376943Y-90240923D01*
X138380705Y-90243681D01*
X138380708Y-90243684D01*
X138566486Y-90379902D01*
X138587724Y-90395474D01*
X138591867Y-90397654D01*
X138591869Y-90397655D01*
X138814884Y-90514989D01*
X138814889Y-90514991D01*
X138819034Y-90517172D01*
X139065790Y-90603344D01*
X139070383Y-90604216D01*
X139317985Y-90651224D01*
X139317988Y-90651224D01*
X139322574Y-90652095D01*
X139453159Y-90657226D01*
X139579075Y-90662174D01*
X139579081Y-90662174D01*
X139583743Y-90662357D01*
X139663177Y-90653657D01*
X139838907Y-90634412D01*
X139838912Y-90634411D01*
X139843560Y-90633902D01*
X139848084Y-90632711D01*
X140091794Y-90568548D01*
X140091796Y-90568547D01*
X140096317Y-90567357D01*
X140336462Y-90464182D01*
X140426971Y-90408174D01*
X140554747Y-90329104D01*
X140554748Y-90329104D01*
X140558719Y-90326646D01*
X140562282Y-90323629D01*
X140562287Y-90323626D01*
X140754639Y-90160787D01*
X140754640Y-90160786D01*
X140758205Y-90157768D01*
X140819709Y-90087636D01*
X140927457Y-89964774D01*
X140927461Y-89964769D01*
X140930539Y-89961259D01*
X140933611Y-89956484D01*
X141045495Y-89782539D01*
X141071933Y-89741437D01*
X141179283Y-89503129D01*
X141207619Y-89402659D01*
X141248960Y-89256076D01*
X141248961Y-89256073D01*
X141250230Y-89251572D01*
X141260108Y-89173923D01*
X141282816Y-88995421D01*
X141282816Y-88995417D01*
X141283214Y-88992291D01*
X141285631Y-88900000D01*
X141281855Y-88849185D01*
X141272418Y-88722200D01*
X142628302Y-88722200D01*
X142648257Y-88950287D01*
X142649681Y-88955600D01*
X142649681Y-88955602D01*
X142704316Y-89159499D01*
X142707516Y-89171443D01*
X142709839Y-89176424D01*
X142709839Y-89176425D01*
X142801951Y-89373962D01*
X142801954Y-89373967D01*
X142804277Y-89378949D01*
X142935602Y-89566500D01*
X143097500Y-89728398D01*
X143102008Y-89731555D01*
X143102011Y-89731557D01*
X143121734Y-89745367D01*
X143285051Y-89859723D01*
X143290033Y-89862046D01*
X143290038Y-89862049D01*
X143481888Y-89951509D01*
X143492557Y-89956484D01*
X143497865Y-89957906D01*
X143497867Y-89957907D01*
X143708398Y-90014319D01*
X143708400Y-90014319D01*
X143713713Y-90015743D01*
X143941800Y-90035698D01*
X144169887Y-90015743D01*
X144175200Y-90014319D01*
X144175202Y-90014319D01*
X144385733Y-89957907D01*
X144385735Y-89957906D01*
X144391043Y-89956484D01*
X144401712Y-89951509D01*
X144593562Y-89862049D01*
X144593567Y-89862046D01*
X144598549Y-89859723D01*
X144649430Y-89824096D01*
X151486188Y-89824096D01*
X151498937Y-90045196D01*
X151500373Y-90055417D01*
X151549060Y-90271455D01*
X151552144Y-90281296D01*
X151635464Y-90486487D01*
X151640114Y-90495692D01*
X151728862Y-90640515D01*
X151739320Y-90649977D01*
X151748096Y-90646194D01*
X152527978Y-89866312D01*
X152534356Y-89854632D01*
X153264408Y-89854632D01*
X153264539Y-89856465D01*
X153268790Y-89863080D01*
X154047520Y-90641810D01*
X154059531Y-90648369D01*
X154071269Y-90639401D01*
X154109469Y-90586241D01*
X154114784Y-90577395D01*
X154212904Y-90378866D01*
X154216702Y-90369273D01*
X154281083Y-90157369D01*
X154283260Y-90147299D01*
X154312405Y-89925922D01*
X154312924Y-89919247D01*
X154314449Y-89856864D01*
X154314255Y-89850146D01*
X154295961Y-89627621D01*
X154294278Y-89617459D01*
X154240324Y-89402659D01*
X154237005Y-89392908D01*
X154148689Y-89189796D01*
X154143825Y-89180725D01*
X154070453Y-89067310D01*
X154059766Y-89058106D01*
X154050201Y-89062509D01*
X153272022Y-89840688D01*
X153264408Y-89854632D01*
X152534356Y-89854632D01*
X152535592Y-89852368D01*
X152535461Y-89850535D01*
X152531210Y-89843920D01*
X151752643Y-89065353D01*
X151741107Y-89059053D01*
X151728824Y-89068677D01*
X151672991Y-89150525D01*
X151667893Y-89159499D01*
X151574652Y-89360370D01*
X151571089Y-89370057D01*
X151511906Y-89583461D01*
X151509975Y-89593580D01*
X151486440Y-89813807D01*
X151486188Y-89824096D01*
X144649430Y-89824096D01*
X144761866Y-89745367D01*
X144781589Y-89731557D01*
X144781592Y-89731555D01*
X144786100Y-89728398D01*
X144947998Y-89566500D01*
X145079323Y-89378949D01*
X145081646Y-89373967D01*
X145081649Y-89373962D01*
X145173761Y-89176425D01*
X145173761Y-89176424D01*
X145176084Y-89171443D01*
X145179285Y-89159499D01*
X145233919Y-88955602D01*
X145233919Y-88955600D01*
X145235343Y-88950287D01*
X145255298Y-88722200D01*
X145252743Y-88692998D01*
X152104294Y-88692998D01*
X152111038Y-88705328D01*
X152887188Y-89481478D01*
X152901132Y-89489092D01*
X152902965Y-89488961D01*
X152909580Y-89484710D01*
X153690200Y-88704090D01*
X153697220Y-88691234D01*
X153689446Y-88680564D01*
X153686848Y-88678512D01*
X153678265Y-88672809D01*
X153484375Y-88565777D01*
X153474976Y-88561552D01*
X153266211Y-88487624D01*
X153256240Y-88484990D01*
X153038208Y-88446153D01*
X153027955Y-88445184D01*
X152806496Y-88442478D01*
X152796213Y-88443198D01*
X152577297Y-88476696D01*
X152567270Y-88479085D01*
X152356766Y-88547888D01*
X152347257Y-88551885D01*
X152150820Y-88654145D01*
X152142092Y-88659641D01*
X152112747Y-88681673D01*
X152104294Y-88692998D01*
X145252743Y-88692998D01*
X145235343Y-88494113D01*
X145233604Y-88487624D01*
X145177507Y-88278267D01*
X145177506Y-88278265D01*
X145176084Y-88272957D01*
X145173761Y-88267975D01*
X145081649Y-88070438D01*
X145081646Y-88070433D01*
X145079323Y-88065451D01*
X145005898Y-87960589D01*
X144951157Y-87882411D01*
X144951155Y-87882408D01*
X144947998Y-87877900D01*
X144786100Y-87716002D01*
X144781592Y-87712845D01*
X144781589Y-87712843D01*
X144700743Y-87656234D01*
X144598549Y-87584677D01*
X144593567Y-87582354D01*
X144593562Y-87582351D01*
X144396025Y-87490239D01*
X144396024Y-87490239D01*
X144391043Y-87487916D01*
X144385735Y-87486494D01*
X144385733Y-87486493D01*
X144175202Y-87430081D01*
X144175200Y-87430081D01*
X144169887Y-87428657D01*
X143941800Y-87408702D01*
X143713713Y-87428657D01*
X143708400Y-87430081D01*
X143708398Y-87430081D01*
X143497867Y-87486493D01*
X143497865Y-87486494D01*
X143492557Y-87487916D01*
X143487576Y-87490239D01*
X143487575Y-87490239D01*
X143290038Y-87582351D01*
X143290033Y-87582354D01*
X143285051Y-87584677D01*
X143182857Y-87656234D01*
X143102011Y-87712843D01*
X143102008Y-87712845D01*
X143097500Y-87716002D01*
X142935602Y-87877900D01*
X142932445Y-87882408D01*
X142932443Y-87882411D01*
X142877702Y-87960589D01*
X142804277Y-88065451D01*
X142801954Y-88070433D01*
X142801951Y-88070438D01*
X142709839Y-88267975D01*
X142707516Y-88272957D01*
X142706094Y-88278265D01*
X142706093Y-88278267D01*
X142649996Y-88487624D01*
X142648257Y-88494113D01*
X142628302Y-88722200D01*
X141272418Y-88722200D01*
X141266607Y-88644000D01*
X141266606Y-88643996D01*
X141266261Y-88639348D01*
X141258379Y-88604511D01*
X141222326Y-88445184D01*
X141208577Y-88384423D01*
X141173559Y-88294373D01*
X141115540Y-88145176D01*
X141115539Y-88145173D01*
X141113847Y-88140823D01*
X141110508Y-88134980D01*
X140986470Y-87917960D01*
X140984151Y-87913902D01*
X140822338Y-87708643D01*
X140631963Y-87529557D01*
X140457752Y-87408702D01*
X140421051Y-87383241D01*
X140421048Y-87383239D01*
X140417209Y-87380576D01*
X140406192Y-87375143D01*
X140186981Y-87267040D01*
X140186978Y-87267039D01*
X140182793Y-87264975D01*
X140136649Y-87250204D01*
X139938323Y-87186720D01*
X139933865Y-87185293D01*
X139675893Y-87143279D01*
X139562142Y-87141790D01*
X139419222Y-87139919D01*
X139419219Y-87139919D01*
X139414545Y-87139858D01*
X139155562Y-87175104D01*
X139151076Y-87176412D01*
X139151074Y-87176412D01*
X139097251Y-87192100D01*
X138904633Y-87248243D01*
X138900380Y-87250203D01*
X138900379Y-87250204D01*
X138863859Y-87267040D01*
X138667272Y-87357668D01*
X138628267Y-87383241D01*
X138452604Y-87498410D01*
X138452599Y-87498414D01*
X138448691Y-87500976D01*
X138253694Y-87675018D01*
X138086563Y-87875970D01*
X138079977Y-87886823D01*
X137956092Y-88090980D01*
X137950971Y-88099419D01*
X137849897Y-88340455D01*
X137785559Y-88593783D01*
X137785091Y-88598434D01*
X137785090Y-88598438D01*
X137777027Y-88678512D01*
X137759373Y-88853839D01*
X116122515Y-88853839D01*
X116136816Y-88741421D01*
X116136816Y-88741417D01*
X116137214Y-88738291D01*
X116137636Y-88722200D01*
X116139274Y-88659641D01*
X116139631Y-88646000D01*
X116136201Y-88599839D01*
X116120607Y-88390000D01*
X116120606Y-88389996D01*
X116120261Y-88385348D01*
X116119067Y-88380069D01*
X116064930Y-88140823D01*
X116062577Y-88130423D01*
X116023885Y-88030925D01*
X115969540Y-87891176D01*
X115969539Y-87891173D01*
X115967847Y-87886823D01*
X115965326Y-87882411D01*
X115906521Y-87779524D01*
X115838151Y-87659902D01*
X115676338Y-87454643D01*
X115485963Y-87275557D01*
X115295198Y-87143218D01*
X115275051Y-87129241D01*
X115275048Y-87129239D01*
X115271209Y-87126576D01*
X115267016Y-87124508D01*
X115040981Y-87013040D01*
X115040978Y-87013039D01*
X115036793Y-87010975D01*
X114990649Y-86996204D01*
X114792323Y-86932720D01*
X114787865Y-86931293D01*
X114529893Y-86889279D01*
X114416142Y-86887790D01*
X114273222Y-86885919D01*
X114273219Y-86885919D01*
X114268545Y-86885858D01*
X114009562Y-86921104D01*
X113758633Y-86994243D01*
X113754380Y-86996203D01*
X113754379Y-86996204D01*
X113717859Y-87013040D01*
X113521272Y-87103668D01*
X113482267Y-87129241D01*
X113306604Y-87244410D01*
X113306599Y-87244414D01*
X113302691Y-87246976D01*
X113107694Y-87421018D01*
X112940563Y-87621970D01*
X112938134Y-87625973D01*
X112830713Y-87802998D01*
X112804971Y-87845419D01*
X112703897Y-88086455D01*
X112639559Y-88339783D01*
X112639091Y-88344434D01*
X112639090Y-88344438D01*
X112635502Y-88380069D01*
X112613373Y-88599839D01*
X111493234Y-88599839D01*
X111544161Y-88490625D01*
X111544161Y-88490624D01*
X111546484Y-88485643D01*
X111548882Y-88476696D01*
X111604319Y-88269802D01*
X111604319Y-88269800D01*
X111605743Y-88264487D01*
X111625698Y-88036400D01*
X111605743Y-87808313D01*
X111595444Y-87769878D01*
X111547907Y-87592467D01*
X111547906Y-87592465D01*
X111546484Y-87587157D01*
X111530300Y-87552449D01*
X111452049Y-87384638D01*
X111452046Y-87384633D01*
X111449723Y-87379651D01*
X111318398Y-87192100D01*
X111156500Y-87030202D01*
X111151992Y-87027045D01*
X111151989Y-87027043D01*
X111033060Y-86943768D01*
X110968949Y-86898877D01*
X110963967Y-86896554D01*
X110963962Y-86896551D01*
X110766425Y-86804439D01*
X110766424Y-86804439D01*
X110761443Y-86802116D01*
X110756135Y-86800694D01*
X110756133Y-86800693D01*
X110545602Y-86744281D01*
X110545600Y-86744281D01*
X110540287Y-86742857D01*
X110312200Y-86722902D01*
X110084113Y-86742857D01*
X110078800Y-86744281D01*
X110078798Y-86744281D01*
X109868267Y-86800693D01*
X109868265Y-86800694D01*
X109862957Y-86802116D01*
X109857976Y-86804439D01*
X109857975Y-86804439D01*
X109660438Y-86896551D01*
X109660433Y-86896554D01*
X109655451Y-86898877D01*
X109591340Y-86943768D01*
X109472411Y-87027043D01*
X109472408Y-87027045D01*
X109467900Y-87030202D01*
X109306002Y-87192100D01*
X109174677Y-87379651D01*
X109172354Y-87384633D01*
X109172351Y-87384638D01*
X109094100Y-87552449D01*
X109077916Y-87587157D01*
X109076494Y-87592465D01*
X109076493Y-87592467D01*
X109028956Y-87769878D01*
X109018657Y-87808313D01*
X108998702Y-88036400D01*
X84343419Y-88036400D01*
X84343577Y-87764903D01*
X98870806Y-87764903D01*
X98871142Y-87778999D01*
X98879084Y-87782400D01*
X99880085Y-87782400D01*
X99895324Y-87777925D01*
X99896529Y-87776535D01*
X99898200Y-87768852D01*
X99898200Y-87764285D01*
X100406200Y-87764285D01*
X100410675Y-87779524D01*
X100412065Y-87780729D01*
X100419748Y-87782400D01*
X101420167Y-87782400D01*
X101433698Y-87778427D01*
X101434927Y-87769878D01*
X101387436Y-87592639D01*
X101383690Y-87582347D01*
X101291614Y-87384889D01*
X101286131Y-87375393D01*
X101161172Y-87196933D01*
X101154116Y-87188525D01*
X101000075Y-87034484D01*
X100991667Y-87027428D01*
X100813207Y-86902469D01*
X100803711Y-86896986D01*
X100606253Y-86804910D01*
X100595961Y-86801164D01*
X100423697Y-86755006D01*
X100409601Y-86755342D01*
X100406200Y-86763284D01*
X100406200Y-87764285D01*
X99898200Y-87764285D01*
X99898200Y-86768433D01*
X99894227Y-86754902D01*
X99885678Y-86753673D01*
X99708439Y-86801164D01*
X99698147Y-86804910D01*
X99500689Y-86896986D01*
X99491193Y-86902469D01*
X99312733Y-87027428D01*
X99304325Y-87034484D01*
X99150284Y-87188525D01*
X99143228Y-87196933D01*
X99018269Y-87375393D01*
X99012786Y-87384889D01*
X98920710Y-87582347D01*
X98916964Y-87592639D01*
X98870806Y-87764903D01*
X84343577Y-87764903D01*
X84343841Y-87311548D01*
X92539181Y-87311548D01*
X92544462Y-87318603D01*
X92721343Y-87421964D01*
X92730626Y-87426411D01*
X92937527Y-87505419D01*
X92947425Y-87508295D01*
X93164452Y-87552449D01*
X93174681Y-87553668D01*
X93396003Y-87561785D01*
X93406289Y-87561318D01*
X93625970Y-87533176D01*
X93636048Y-87531034D01*
X93848175Y-87467393D01*
X93857782Y-87463627D01*
X94056653Y-87366201D01*
X94065512Y-87360921D01*
X94123315Y-87319690D01*
X94131715Y-87308990D01*
X94124728Y-87295837D01*
X93349812Y-86520921D01*
X93335868Y-86513307D01*
X93334035Y-86513438D01*
X93327420Y-86517689D01*
X92545941Y-87299168D01*
X92539181Y-87311548D01*
X84343841Y-87311548D01*
X84344536Y-86119495D01*
X91923188Y-86119495D01*
X91935937Y-86340595D01*
X91937373Y-86350816D01*
X91986060Y-86566854D01*
X91989144Y-86576695D01*
X92072464Y-86781886D01*
X92077114Y-86791091D01*
X92165862Y-86935914D01*
X92176320Y-86945376D01*
X92185096Y-86941593D01*
X92964978Y-86161711D01*
X92971356Y-86150031D01*
X93701408Y-86150031D01*
X93701539Y-86151864D01*
X93705790Y-86158479D01*
X94484520Y-86937209D01*
X94496531Y-86943768D01*
X94508269Y-86934800D01*
X94546469Y-86881640D01*
X94551784Y-86872794D01*
X94649904Y-86674265D01*
X94653702Y-86664672D01*
X94718083Y-86452768D01*
X94720260Y-86442698D01*
X94749405Y-86221321D01*
X94749924Y-86214646D01*
X94751449Y-86152263D01*
X94751255Y-86145545D01*
X94732961Y-85923020D01*
X94731278Y-85912858D01*
X94677324Y-85698058D01*
X94674005Y-85688307D01*
X94585689Y-85485195D01*
X94580825Y-85476124D01*
X94507453Y-85362709D01*
X94496766Y-85353505D01*
X94487201Y-85357908D01*
X93709022Y-86136087D01*
X93701408Y-86150031D01*
X92971356Y-86150031D01*
X92972592Y-86147767D01*
X92972461Y-86145934D01*
X92968210Y-86139319D01*
X92189643Y-85360752D01*
X92178107Y-85354452D01*
X92165824Y-85364076D01*
X92109991Y-85445924D01*
X92104893Y-85454898D01*
X92011652Y-85655769D01*
X92008089Y-85665456D01*
X91948906Y-85878860D01*
X91946975Y-85888979D01*
X91923440Y-86109206D01*
X91923188Y-86119495D01*
X84344536Y-86119495D01*
X84345196Y-84988397D01*
X92541294Y-84988397D01*
X92548038Y-85000727D01*
X93324188Y-85776877D01*
X93338132Y-85784491D01*
X93339965Y-85784360D01*
X93346580Y-85780109D01*
X93962020Y-85164669D01*
X113242001Y-85164669D01*
X113242371Y-85171490D01*
X113247895Y-85222352D01*
X113251521Y-85237604D01*
X113296676Y-85358054D01*
X113305214Y-85373649D01*
X113381715Y-85475724D01*
X113394276Y-85488285D01*
X113496351Y-85564786D01*
X113511946Y-85573324D01*
X113632394Y-85618478D01*
X113647649Y-85622105D01*
X113698514Y-85627631D01*
X113705328Y-85628000D01*
X114027885Y-85628000D01*
X114043124Y-85623525D01*
X114044329Y-85622135D01*
X114046000Y-85614452D01*
X114046000Y-85609884D01*
X114554000Y-85609884D01*
X114558475Y-85625123D01*
X114559865Y-85626328D01*
X114567548Y-85627999D01*
X114894669Y-85627999D01*
X114901490Y-85627629D01*
X114952352Y-85622105D01*
X114967604Y-85618479D01*
X115088054Y-85573324D01*
X115103649Y-85564786D01*
X115205724Y-85488285D01*
X115218285Y-85475724D01*
X115294786Y-85373649D01*
X115303324Y-85358054D01*
X115348478Y-85237606D01*
X115352105Y-85222351D01*
X115357631Y-85171486D01*
X115358000Y-85164672D01*
X115358000Y-84492115D01*
X115353525Y-84476876D01*
X115352135Y-84475671D01*
X115344452Y-84474000D01*
X114572115Y-84474000D01*
X114556876Y-84478475D01*
X114555671Y-84479865D01*
X114554000Y-84487548D01*
X114554000Y-85609884D01*
X114046000Y-85609884D01*
X114046000Y-84492115D01*
X114041525Y-84476876D01*
X114040135Y-84475671D01*
X114032452Y-84474000D01*
X113260116Y-84474000D01*
X113244877Y-84478475D01*
X113243672Y-84479865D01*
X113242001Y-84487548D01*
X113242001Y-85164669D01*
X93962020Y-85164669D01*
X94127200Y-84999489D01*
X94134220Y-84986633D01*
X94126446Y-84975963D01*
X94123848Y-84973911D01*
X94115265Y-84968208D01*
X93921375Y-84861176D01*
X93911976Y-84856951D01*
X93703211Y-84783023D01*
X93693240Y-84780389D01*
X93475208Y-84741552D01*
X93464955Y-84740583D01*
X93243496Y-84737877D01*
X93233213Y-84738597D01*
X93014297Y-84772095D01*
X93004270Y-84774484D01*
X92793766Y-84843287D01*
X92784257Y-84847284D01*
X92587820Y-84949544D01*
X92579092Y-84955040D01*
X92549747Y-84977072D01*
X92541294Y-84988397D01*
X84345196Y-84988397D01*
X84345803Y-83947885D01*
X113242000Y-83947885D01*
X113246475Y-83963124D01*
X113247865Y-83964329D01*
X113255548Y-83966000D01*
X114027885Y-83966000D01*
X114043124Y-83961525D01*
X114044329Y-83960135D01*
X114046000Y-83952452D01*
X114046000Y-82860992D01*
X114511500Y-82860992D01*
X114511767Y-82865623D01*
X114512967Y-82870820D01*
X114550771Y-83034565D01*
X114554000Y-83062909D01*
X114554000Y-83947885D01*
X114558475Y-83963124D01*
X114559865Y-83964329D01*
X114567548Y-83966000D01*
X115339884Y-83966000D01*
X115355123Y-83961525D01*
X115356328Y-83960135D01*
X115357999Y-83952452D01*
X115357999Y-83684500D01*
X115378001Y-83616379D01*
X115431657Y-83569886D01*
X115483999Y-83558500D01*
X115655500Y-83558500D01*
X115723621Y-83578502D01*
X115770114Y-83632158D01*
X115781500Y-83684500D01*
X115781500Y-84930992D01*
X115781767Y-84935623D01*
X115821309Y-85106895D01*
X115897812Y-85265151D01*
X116007476Y-85402524D01*
X116144849Y-85512188D01*
X116303105Y-85588691D01*
X116474377Y-85628233D01*
X116479008Y-85628500D01*
X117200992Y-85628500D01*
X117205623Y-85628233D01*
X117376895Y-85588691D01*
X117535151Y-85512188D01*
X117672524Y-85402524D01*
X117782188Y-85265151D01*
X117858691Y-85106895D01*
X117898233Y-84935623D01*
X117898500Y-84930992D01*
X117898500Y-84818928D01*
X151485389Y-84818928D01*
X151485686Y-84824080D01*
X151485686Y-84824084D01*
X151487024Y-84847284D01*
X151498738Y-85050435D01*
X151499873Y-85055472D01*
X151499874Y-85055478D01*
X151537481Y-85222352D01*
X151549718Y-85276653D01*
X151636962Y-85491507D01*
X151758125Y-85689227D01*
X151909953Y-85864502D01*
X151913928Y-85867802D01*
X151913931Y-85867805D01*
X151968198Y-85912858D01*
X152088370Y-86012627D01*
X152092822Y-86015229D01*
X152092827Y-86015232D01*
X152271252Y-86119495D01*
X152288584Y-86129623D01*
X152505218Y-86212347D01*
X152510286Y-86213378D01*
X152510289Y-86213379D01*
X152622090Y-86236125D01*
X152732454Y-86258579D01*
X152737627Y-86258769D01*
X152737630Y-86258769D01*
X152959026Y-86266887D01*
X152959030Y-86266887D01*
X152964190Y-86267076D01*
X152969310Y-86266420D01*
X152969312Y-86266420D01*
X153040109Y-86257351D01*
X153194202Y-86237611D01*
X153199151Y-86236126D01*
X153199157Y-86236125D01*
X153411370Y-86172458D01*
X153416313Y-86170975D01*
X153435224Y-86161711D01*
X153619920Y-86071229D01*
X153624558Y-86068957D01*
X153708156Y-86009327D01*
X153809132Y-85937302D01*
X153809137Y-85937298D01*
X153813344Y-85934297D01*
X153824661Y-85923020D01*
X153973941Y-85774259D01*
X153977602Y-85770611D01*
X154112920Y-85582296D01*
X154147570Y-85512188D01*
X154213370Y-85379050D01*
X154213371Y-85379048D01*
X154215664Y-85374408D01*
X154261863Y-85222351D01*
X154281572Y-85157484D01*
X154281573Y-85157478D01*
X154283076Y-85152532D01*
X154307343Y-84968208D01*
X154312907Y-84925945D01*
X154312907Y-84925941D01*
X154313344Y-84922624D01*
X154313426Y-84919272D01*
X154314951Y-84856865D01*
X154314951Y-84856861D01*
X154315033Y-84853500D01*
X154305829Y-84741552D01*
X154296456Y-84627539D01*
X154296455Y-84627533D01*
X154296032Y-84622388D01*
X154239540Y-84397483D01*
X154147073Y-84184825D01*
X154021116Y-83990124D01*
X153997645Y-83964329D01*
X153868528Y-83822432D01*
X153868526Y-83822431D01*
X153865050Y-83818610D01*
X153860999Y-83815411D01*
X153860995Y-83815407D01*
X153730573Y-83712407D01*
X153683067Y-83674889D01*
X153480055Y-83562820D01*
X153333251Y-83510834D01*
X153266339Y-83487139D01*
X153266335Y-83487138D01*
X153261464Y-83485413D01*
X153256371Y-83484506D01*
X153256368Y-83484505D01*
X153038255Y-83445653D01*
X153038249Y-83445652D01*
X153033166Y-83444747D01*
X152944632Y-83443665D01*
X152806461Y-83441977D01*
X152806459Y-83441977D01*
X152801292Y-83441914D01*
X152572069Y-83476990D01*
X152351653Y-83549033D01*
X152347065Y-83551421D01*
X152347061Y-83551423D01*
X152191971Y-83632158D01*
X152145962Y-83656109D01*
X152141829Y-83659212D01*
X152141826Y-83659214D01*
X152011124Y-83757348D01*
X151960522Y-83795341D01*
X151800313Y-83962991D01*
X151669636Y-84154556D01*
X151667456Y-84159253D01*
X151584635Y-84337675D01*
X151572001Y-84364892D01*
X151510031Y-84588349D01*
X151485389Y-84818928D01*
X117898500Y-84818928D01*
X117898500Y-83509008D01*
X117898233Y-83504377D01*
X117894868Y-83489800D01*
X133585902Y-83489800D01*
X133605857Y-83717887D01*
X133607281Y-83723200D01*
X133607281Y-83723202D01*
X133631988Y-83815407D01*
X133665116Y-83939043D01*
X133667439Y-83944024D01*
X133667439Y-83944025D01*
X133759551Y-84141562D01*
X133759554Y-84141567D01*
X133761877Y-84146549D01*
X133893202Y-84334100D01*
X134055100Y-84495998D01*
X134059608Y-84499155D01*
X134059611Y-84499157D01*
X134137789Y-84553898D01*
X134242651Y-84627323D01*
X134247633Y-84629646D01*
X134247638Y-84629649D01*
X134444165Y-84721290D01*
X134450157Y-84724084D01*
X134455465Y-84725506D01*
X134455467Y-84725507D01*
X134665998Y-84781919D01*
X134666000Y-84781919D01*
X134671313Y-84783343D01*
X134899400Y-84803298D01*
X135127487Y-84783343D01*
X135132800Y-84781919D01*
X135132802Y-84781919D01*
X135343333Y-84725507D01*
X135343335Y-84725506D01*
X135348643Y-84724084D01*
X135354635Y-84721290D01*
X135551162Y-84629649D01*
X135551167Y-84629646D01*
X135556149Y-84627323D01*
X135661011Y-84553898D01*
X135739189Y-84499157D01*
X135739192Y-84499155D01*
X135743700Y-84495998D01*
X135905598Y-84334100D01*
X136036923Y-84146549D01*
X136039246Y-84141567D01*
X136039249Y-84141562D01*
X136131361Y-83944025D01*
X136131361Y-83944024D01*
X136133684Y-83939043D01*
X136166813Y-83815407D01*
X136182645Y-83756322D01*
X143776673Y-83756322D01*
X143824164Y-83933561D01*
X143827910Y-83943853D01*
X143919986Y-84141311D01*
X143925469Y-84150807D01*
X144050428Y-84329267D01*
X144057484Y-84337675D01*
X144211525Y-84491716D01*
X144219933Y-84498772D01*
X144398393Y-84623731D01*
X144407889Y-84629214D01*
X144605347Y-84721290D01*
X144615639Y-84725036D01*
X144787903Y-84771194D01*
X144801999Y-84770858D01*
X144805400Y-84762916D01*
X144805400Y-84757767D01*
X145313400Y-84757767D01*
X145317373Y-84771298D01*
X145325922Y-84772527D01*
X145503161Y-84725036D01*
X145513453Y-84721290D01*
X145710911Y-84629214D01*
X145720407Y-84623731D01*
X145898867Y-84498772D01*
X145907275Y-84491716D01*
X146061316Y-84337675D01*
X146068372Y-84329267D01*
X146193331Y-84150807D01*
X146198814Y-84141311D01*
X146290890Y-83943853D01*
X146294636Y-83933561D01*
X146340794Y-83761297D01*
X146340458Y-83747201D01*
X146332516Y-83743800D01*
X145331515Y-83743800D01*
X145316276Y-83748275D01*
X145315071Y-83749665D01*
X145313400Y-83757348D01*
X145313400Y-84757767D01*
X144805400Y-84757767D01*
X144805400Y-83761915D01*
X144800925Y-83746676D01*
X144799535Y-83745471D01*
X144791852Y-83743800D01*
X143791433Y-83743800D01*
X143777902Y-83747773D01*
X143776673Y-83756322D01*
X136182645Y-83756322D01*
X136191519Y-83723202D01*
X136191519Y-83723200D01*
X136192943Y-83717887D01*
X136212898Y-83489800D01*
X136192943Y-83261713D01*
X136182644Y-83223278D01*
X136181311Y-83218303D01*
X143778006Y-83218303D01*
X143778342Y-83232399D01*
X143786284Y-83235800D01*
X144787285Y-83235800D01*
X144802524Y-83231325D01*
X144803729Y-83229935D01*
X144805400Y-83222252D01*
X144805400Y-83217685D01*
X145313400Y-83217685D01*
X145317875Y-83232924D01*
X145319265Y-83234129D01*
X145326948Y-83235800D01*
X146327367Y-83235800D01*
X146340898Y-83231827D01*
X146342127Y-83223278D01*
X146294636Y-83046039D01*
X146290890Y-83035747D01*
X146198814Y-82838289D01*
X146193331Y-82828793D01*
X146068372Y-82650333D01*
X146061316Y-82641925D01*
X145907275Y-82487884D01*
X145898867Y-82480828D01*
X145720407Y-82355869D01*
X145710911Y-82350386D01*
X145513453Y-82258310D01*
X145503161Y-82254564D01*
X145330897Y-82208406D01*
X145316801Y-82208742D01*
X145313400Y-82216684D01*
X145313400Y-83217685D01*
X144805400Y-83217685D01*
X144805400Y-82221833D01*
X144801427Y-82208302D01*
X144792878Y-82207073D01*
X144615639Y-82254564D01*
X144605347Y-82258310D01*
X144407889Y-82350386D01*
X144398393Y-82355869D01*
X144219933Y-82480828D01*
X144211525Y-82487884D01*
X144057484Y-82641925D01*
X144050428Y-82650333D01*
X143925469Y-82828793D01*
X143919986Y-82838289D01*
X143827910Y-83035747D01*
X143824164Y-83046039D01*
X143778006Y-83218303D01*
X136181311Y-83218303D01*
X136135107Y-83045867D01*
X136135106Y-83045865D01*
X136133684Y-83040557D01*
X136083161Y-82932209D01*
X136039249Y-82838038D01*
X136039246Y-82838033D01*
X136036923Y-82833051D01*
X135949299Y-82707911D01*
X135908757Y-82650011D01*
X135908755Y-82650008D01*
X135905598Y-82645500D01*
X135743700Y-82483602D01*
X135739192Y-82480445D01*
X135739189Y-82480443D01*
X135630451Y-82404304D01*
X135556149Y-82352277D01*
X135551167Y-82349954D01*
X135551162Y-82349951D01*
X135353625Y-82257839D01*
X135353624Y-82257839D01*
X135348643Y-82255516D01*
X135343335Y-82254094D01*
X135343333Y-82254093D01*
X135132802Y-82197681D01*
X135132800Y-82197681D01*
X135127487Y-82196257D01*
X134899400Y-82176302D01*
X134671313Y-82196257D01*
X134666000Y-82197681D01*
X134665998Y-82197681D01*
X134455467Y-82254093D01*
X134455465Y-82254094D01*
X134450157Y-82255516D01*
X134445176Y-82257839D01*
X134445175Y-82257839D01*
X134247638Y-82349951D01*
X134247633Y-82349954D01*
X134242651Y-82352277D01*
X134168349Y-82404304D01*
X134059611Y-82480443D01*
X134059608Y-82480445D01*
X134055100Y-82483602D01*
X133893202Y-82645500D01*
X133890045Y-82650008D01*
X133890043Y-82650011D01*
X133849501Y-82707911D01*
X133761877Y-82833051D01*
X133759554Y-82838033D01*
X133759551Y-82838038D01*
X133715639Y-82932209D01*
X133665116Y-83040557D01*
X133663694Y-83045865D01*
X133663693Y-83045867D01*
X133616156Y-83223278D01*
X133605857Y-83261713D01*
X133585902Y-83489800D01*
X117894868Y-83489800D01*
X117858691Y-83333105D01*
X117803194Y-83218303D01*
X117785255Y-83181193D01*
X117785254Y-83181191D01*
X117782188Y-83174849D01*
X117672524Y-83037476D01*
X117535151Y-82927812D01*
X117376895Y-82851309D01*
X117205623Y-82811767D01*
X117200992Y-82811500D01*
X116754500Y-82811500D01*
X116686379Y-82791498D01*
X116639886Y-82737842D01*
X116628500Y-82685500D01*
X116628500Y-81439008D01*
X116628233Y-81434377D01*
X116588691Y-81263105D01*
X116524164Y-81129623D01*
X116515255Y-81111193D01*
X116515254Y-81111191D01*
X116512188Y-81104849D01*
X116402524Y-80967476D01*
X116354375Y-80929039D01*
X120004773Y-80929039D01*
X120004997Y-80933705D01*
X120004997Y-80933711D01*
X120006990Y-80975200D01*
X120017313Y-81190108D01*
X120068304Y-81446456D01*
X120156626Y-81692452D01*
X120158842Y-81696576D01*
X120240633Y-81848797D01*
X120280337Y-81922691D01*
X120283132Y-81926434D01*
X120283134Y-81926437D01*
X120433930Y-82128377D01*
X120433935Y-82128383D01*
X120436722Y-82132115D01*
X120440031Y-82135395D01*
X120440036Y-82135401D01*
X120610846Y-82304726D01*
X120622343Y-82316123D01*
X120626105Y-82318881D01*
X120626108Y-82318884D01*
X120829282Y-82467857D01*
X120833124Y-82470674D01*
X120837267Y-82472854D01*
X120837269Y-82472855D01*
X121060284Y-82590189D01*
X121060289Y-82590191D01*
X121064434Y-82592372D01*
X121311190Y-82678544D01*
X121315783Y-82679416D01*
X121563385Y-82726424D01*
X121563388Y-82726424D01*
X121567974Y-82727295D01*
X121698559Y-82732426D01*
X121824475Y-82737374D01*
X121824481Y-82737374D01*
X121829143Y-82737557D01*
X121908577Y-82728857D01*
X122084307Y-82709612D01*
X122084312Y-82709611D01*
X122088960Y-82709102D01*
X122093484Y-82707911D01*
X122337194Y-82643748D01*
X122337196Y-82643747D01*
X122341717Y-82642557D01*
X122581862Y-82539382D01*
X122591098Y-82533667D01*
X122800147Y-82404304D01*
X122800148Y-82404304D01*
X122804119Y-82401846D01*
X122807682Y-82398829D01*
X122807687Y-82398826D01*
X123000039Y-82235987D01*
X123000040Y-82235986D01*
X123003605Y-82232968D01*
X123053300Y-82176302D01*
X123172857Y-82039974D01*
X123172861Y-82039969D01*
X123175939Y-82036459D01*
X123317333Y-81816637D01*
X123424683Y-81578329D01*
X123463461Y-81440834D01*
X123494360Y-81331276D01*
X123494361Y-81331273D01*
X123495630Y-81326772D01*
X123498777Y-81302037D01*
X123528216Y-81070621D01*
X123528216Y-81070617D01*
X123528614Y-81067491D01*
X123529269Y-81042507D01*
X123530366Y-81000600D01*
X124441902Y-81000600D01*
X124461857Y-81228687D01*
X124463281Y-81234000D01*
X124463281Y-81234002D01*
X124471968Y-81266420D01*
X124521116Y-81449843D01*
X124523439Y-81454824D01*
X124523439Y-81454825D01*
X124615551Y-81652362D01*
X124615554Y-81652367D01*
X124617877Y-81657349D01*
X124749202Y-81844900D01*
X124911100Y-82006798D01*
X124915608Y-82009955D01*
X124915611Y-82009957D01*
X124947843Y-82032526D01*
X125098651Y-82138123D01*
X125103633Y-82140446D01*
X125103638Y-82140449D01*
X125295031Y-82229696D01*
X125306157Y-82234884D01*
X125311465Y-82236306D01*
X125311467Y-82236307D01*
X125521998Y-82292719D01*
X125522000Y-82292719D01*
X125527313Y-82294143D01*
X125755400Y-82314098D01*
X125983487Y-82294143D01*
X125988800Y-82292719D01*
X125988802Y-82292719D01*
X126199333Y-82236307D01*
X126199335Y-82236306D01*
X126204643Y-82234884D01*
X126215769Y-82229696D01*
X126407162Y-82140449D01*
X126407167Y-82140446D01*
X126412149Y-82138123D01*
X126562957Y-82032526D01*
X126595189Y-82009957D01*
X126595192Y-82009955D01*
X126599700Y-82006798D01*
X126761598Y-81844900D01*
X126892923Y-81657349D01*
X126895246Y-81652367D01*
X126895249Y-81652362D01*
X126987361Y-81454825D01*
X126987361Y-81454824D01*
X126989684Y-81449843D01*
X127038833Y-81266420D01*
X127047519Y-81234002D01*
X127047519Y-81234000D01*
X127048943Y-81228687D01*
X127068898Y-81000600D01*
X127048943Y-80772513D01*
X127032191Y-80709994D01*
X126991107Y-80556667D01*
X126991106Y-80556665D01*
X126989684Y-80551357D01*
X126959544Y-80486721D01*
X126950441Y-80467200D01*
X129471102Y-80467200D01*
X129491057Y-80695287D01*
X129492481Y-80700600D01*
X129492481Y-80700602D01*
X129521554Y-80809101D01*
X129550316Y-80916443D01*
X129552639Y-80921424D01*
X129552639Y-80921425D01*
X129644751Y-81118962D01*
X129644754Y-81118967D01*
X129647077Y-81123949D01*
X129690131Y-81185436D01*
X129747164Y-81266887D01*
X129778402Y-81311500D01*
X129940300Y-81473398D01*
X129944808Y-81476555D01*
X129944811Y-81476557D01*
X130022989Y-81531298D01*
X130127851Y-81604723D01*
X130132833Y-81607046D01*
X130132838Y-81607049D01*
X130330375Y-81699161D01*
X130335357Y-81701484D01*
X130340665Y-81702906D01*
X130340667Y-81702907D01*
X130551198Y-81759319D01*
X130551200Y-81759319D01*
X130556513Y-81760743D01*
X130784600Y-81780698D01*
X131012687Y-81760743D01*
X131018000Y-81759319D01*
X131018002Y-81759319D01*
X131228533Y-81702907D01*
X131228535Y-81702906D01*
X131233843Y-81701484D01*
X131238825Y-81699161D01*
X131436362Y-81607049D01*
X131436367Y-81607046D01*
X131441349Y-81604723D01*
X131546211Y-81531298D01*
X131624389Y-81476557D01*
X131624392Y-81476555D01*
X131628900Y-81473398D01*
X131790798Y-81311500D01*
X131822037Y-81266887D01*
X131879069Y-81185436D01*
X131922123Y-81123949D01*
X131924446Y-81118967D01*
X131924449Y-81118962D01*
X132016561Y-80921425D01*
X132016561Y-80921424D01*
X132018884Y-80916443D01*
X132047647Y-80809101D01*
X132076719Y-80700602D01*
X132076719Y-80700600D01*
X132078143Y-80695287D01*
X132098098Y-80467200D01*
X132078143Y-80239113D01*
X132076719Y-80233798D01*
X132020307Y-80023267D01*
X132020306Y-80023265D01*
X132018884Y-80017957D01*
X132016561Y-80012975D01*
X131924449Y-79815438D01*
X131924446Y-79815433D01*
X131922123Y-79810451D01*
X131919567Y-79806800D01*
X133560502Y-79806800D01*
X133580457Y-80034887D01*
X133581881Y-80040200D01*
X133581881Y-80040202D01*
X133635180Y-80239113D01*
X133639716Y-80256043D01*
X133642039Y-80261024D01*
X133642039Y-80261025D01*
X133734151Y-80458562D01*
X133734154Y-80458567D01*
X133736477Y-80463549D01*
X133759135Y-80495908D01*
X133816377Y-80577657D01*
X133867802Y-80651100D01*
X134029700Y-80812998D01*
X134034208Y-80816155D01*
X134034211Y-80816157D01*
X134089321Y-80854745D01*
X134217251Y-80944323D01*
X134222233Y-80946646D01*
X134222238Y-80946649D01*
X134419775Y-81038761D01*
X134424757Y-81041084D01*
X134430065Y-81042506D01*
X134430067Y-81042507D01*
X134640598Y-81098919D01*
X134640600Y-81098919D01*
X134645913Y-81100343D01*
X134874000Y-81120298D01*
X135102087Y-81100343D01*
X135107400Y-81098919D01*
X135107402Y-81098919D01*
X135317933Y-81042507D01*
X135317935Y-81042506D01*
X135323243Y-81041084D01*
X135328225Y-81038761D01*
X135525762Y-80946649D01*
X135525767Y-80946646D01*
X135530749Y-80944323D01*
X135658679Y-80854745D01*
X135713789Y-80816157D01*
X135713792Y-80816155D01*
X135718300Y-80812998D01*
X135880198Y-80651100D01*
X135931624Y-80577657D01*
X135988865Y-80495908D01*
X136011523Y-80463549D01*
X136013846Y-80458567D01*
X136013849Y-80458562D01*
X136105961Y-80261025D01*
X136105961Y-80261024D01*
X136108284Y-80256043D01*
X136112821Y-80239113D01*
X136166119Y-80040202D01*
X136166119Y-80040200D01*
X136167543Y-80034887D01*
X136187498Y-79806800D01*
X143720502Y-79806800D01*
X143740457Y-80034887D01*
X143741881Y-80040200D01*
X143741881Y-80040202D01*
X143795180Y-80239113D01*
X143799716Y-80256043D01*
X143802039Y-80261024D01*
X143802039Y-80261025D01*
X143894151Y-80458562D01*
X143894154Y-80458567D01*
X143896477Y-80463549D01*
X143919135Y-80495908D01*
X143976377Y-80577657D01*
X144027802Y-80651100D01*
X144189700Y-80812998D01*
X144194208Y-80816155D01*
X144194211Y-80816157D01*
X144249321Y-80854745D01*
X144377251Y-80944323D01*
X144382233Y-80946646D01*
X144382238Y-80946649D01*
X144579775Y-81038761D01*
X144584757Y-81041084D01*
X144590065Y-81042506D01*
X144590067Y-81042507D01*
X144800598Y-81098919D01*
X144800600Y-81098919D01*
X144805913Y-81100343D01*
X145034000Y-81120298D01*
X145262087Y-81100343D01*
X145267400Y-81098919D01*
X145267402Y-81098919D01*
X145477933Y-81042507D01*
X145477935Y-81042506D01*
X145483243Y-81041084D01*
X145488225Y-81038761D01*
X145685762Y-80946649D01*
X145685767Y-80946646D01*
X145690749Y-80944323D01*
X145818679Y-80854745D01*
X145873789Y-80816157D01*
X145873792Y-80816155D01*
X145878300Y-80812998D01*
X146040198Y-80651100D01*
X146091624Y-80577657D01*
X146148865Y-80495908D01*
X146171523Y-80463549D01*
X146173846Y-80458567D01*
X146173849Y-80458562D01*
X146265961Y-80261025D01*
X146265961Y-80261024D01*
X146268284Y-80256043D01*
X146272821Y-80239113D01*
X146326119Y-80040202D01*
X146326119Y-80040200D01*
X146327543Y-80034887D01*
X146346437Y-79818928D01*
X151485389Y-79818928D01*
X151485686Y-79824080D01*
X151485686Y-79824084D01*
X151487935Y-79863077D01*
X151498738Y-80050435D01*
X151499873Y-80055472D01*
X151499874Y-80055478D01*
X151540060Y-80233798D01*
X151549718Y-80276653D01*
X151636962Y-80491507D01*
X151758125Y-80689227D01*
X151909953Y-80864502D01*
X151913928Y-80867802D01*
X151913931Y-80867805D01*
X151933135Y-80883748D01*
X152088370Y-81012627D01*
X152092822Y-81015229D01*
X152092827Y-81015232D01*
X152272626Y-81120298D01*
X152288584Y-81129623D01*
X152505218Y-81212347D01*
X152510286Y-81213378D01*
X152510289Y-81213379D01*
X152585531Y-81228687D01*
X152732454Y-81258579D01*
X152737627Y-81258769D01*
X152737630Y-81258769D01*
X152959026Y-81266887D01*
X152959030Y-81266887D01*
X152964190Y-81267076D01*
X152969310Y-81266420D01*
X152969312Y-81266420D01*
X153044696Y-81256763D01*
X153194202Y-81237611D01*
X153199151Y-81236126D01*
X153199157Y-81236125D01*
X153411370Y-81172458D01*
X153416313Y-81170975D01*
X153624558Y-81068957D01*
X153720391Y-81000600D01*
X153809132Y-80937302D01*
X153809137Y-80937298D01*
X153813344Y-80934297D01*
X153818621Y-80929039D01*
X153963790Y-80784375D01*
X153977602Y-80770611D01*
X154112920Y-80582296D01*
X154155616Y-80495908D01*
X154213370Y-80379050D01*
X154213371Y-80379048D01*
X154215664Y-80374408D01*
X154250113Y-80261025D01*
X154281572Y-80157484D01*
X154281573Y-80157478D01*
X154283076Y-80152532D01*
X154309133Y-79954613D01*
X154312907Y-79925945D01*
X154312907Y-79925941D01*
X154313344Y-79922624D01*
X154314358Y-79881143D01*
X154314951Y-79856865D01*
X154314951Y-79856861D01*
X154315033Y-79853500D01*
X154304634Y-79727014D01*
X154296456Y-79627539D01*
X154296455Y-79627533D01*
X154296032Y-79622388D01*
X154239540Y-79397483D01*
X154147073Y-79184825D01*
X154021116Y-78990124D01*
X153993027Y-78959254D01*
X153868528Y-78822432D01*
X153868526Y-78822431D01*
X153865050Y-78818610D01*
X153860999Y-78815411D01*
X153860995Y-78815407D01*
X153687125Y-78678094D01*
X153683067Y-78674889D01*
X153480055Y-78562820D01*
X153361620Y-78520880D01*
X153266339Y-78487139D01*
X153266335Y-78487138D01*
X153261464Y-78485413D01*
X153256371Y-78484506D01*
X153256368Y-78484505D01*
X153038255Y-78445653D01*
X153038249Y-78445652D01*
X153033166Y-78444747D01*
X152944632Y-78443665D01*
X152806461Y-78441977D01*
X152806459Y-78441977D01*
X152801292Y-78441914D01*
X152572069Y-78476990D01*
X152351653Y-78549033D01*
X152347065Y-78551421D01*
X152347061Y-78551423D01*
X152150551Y-78653720D01*
X152145962Y-78656109D01*
X152141829Y-78659212D01*
X152141826Y-78659214D01*
X152112252Y-78681419D01*
X151960522Y-78795341D01*
X151800313Y-78962991D01*
X151669636Y-79154556D01*
X151667456Y-79159253D01*
X151575406Y-79357557D01*
X151572001Y-79364892D01*
X151510031Y-79588349D01*
X151485389Y-79818928D01*
X146346437Y-79818928D01*
X146347498Y-79806800D01*
X146327543Y-79578713D01*
X146326119Y-79573398D01*
X146269707Y-79362867D01*
X146269706Y-79362865D01*
X146268284Y-79357557D01*
X146256756Y-79332834D01*
X146173849Y-79155038D01*
X146173846Y-79155033D01*
X146171523Y-79150051D01*
X146040198Y-78962500D01*
X145878300Y-78800602D01*
X145873792Y-78797445D01*
X145873789Y-78797443D01*
X145795611Y-78742702D01*
X145690749Y-78669277D01*
X145685767Y-78666954D01*
X145685762Y-78666951D01*
X145488225Y-78574839D01*
X145488224Y-78574839D01*
X145483243Y-78572516D01*
X145477935Y-78571094D01*
X145477933Y-78571093D01*
X145267402Y-78514681D01*
X145267400Y-78514681D01*
X145262087Y-78513257D01*
X145034000Y-78493302D01*
X144805913Y-78513257D01*
X144800600Y-78514681D01*
X144800598Y-78514681D01*
X144590067Y-78571093D01*
X144590065Y-78571094D01*
X144584757Y-78572516D01*
X144579776Y-78574839D01*
X144579775Y-78574839D01*
X144382238Y-78666951D01*
X144382233Y-78666954D01*
X144377251Y-78669277D01*
X144272389Y-78742702D01*
X144194211Y-78797443D01*
X144194208Y-78797445D01*
X144189700Y-78800602D01*
X144027802Y-78962500D01*
X143896477Y-79150051D01*
X143894154Y-79155033D01*
X143894151Y-79155038D01*
X143811244Y-79332834D01*
X143799716Y-79357557D01*
X143798294Y-79362865D01*
X143798293Y-79362867D01*
X143741881Y-79573398D01*
X143740457Y-79578713D01*
X143720502Y-79806800D01*
X136187498Y-79806800D01*
X136167543Y-79578713D01*
X136166119Y-79573398D01*
X136109707Y-79362867D01*
X136109706Y-79362865D01*
X136108284Y-79357557D01*
X136096756Y-79332834D01*
X136013849Y-79155038D01*
X136013846Y-79155033D01*
X136011523Y-79150051D01*
X135880198Y-78962500D01*
X135718300Y-78800602D01*
X135713792Y-78797445D01*
X135713789Y-78797443D01*
X135635611Y-78742702D01*
X135530749Y-78669277D01*
X135525767Y-78666954D01*
X135525762Y-78666951D01*
X135328225Y-78574839D01*
X135328224Y-78574839D01*
X135323243Y-78572516D01*
X135317935Y-78571094D01*
X135317933Y-78571093D01*
X135107402Y-78514681D01*
X135107400Y-78514681D01*
X135102087Y-78513257D01*
X134874000Y-78493302D01*
X134645913Y-78513257D01*
X134640600Y-78514681D01*
X134640598Y-78514681D01*
X134430067Y-78571093D01*
X134430065Y-78571094D01*
X134424757Y-78572516D01*
X134419776Y-78574839D01*
X134419775Y-78574839D01*
X134222238Y-78666951D01*
X134222233Y-78666954D01*
X134217251Y-78669277D01*
X134112389Y-78742702D01*
X134034211Y-78797443D01*
X134034208Y-78797445D01*
X134029700Y-78800602D01*
X133867802Y-78962500D01*
X133736477Y-79150051D01*
X133734154Y-79155033D01*
X133734151Y-79155038D01*
X133651244Y-79332834D01*
X133639716Y-79357557D01*
X133638294Y-79362865D01*
X133638293Y-79362867D01*
X133581881Y-79573398D01*
X133580457Y-79578713D01*
X133560502Y-79806800D01*
X131919567Y-79806800D01*
X131835753Y-79687102D01*
X131793957Y-79627411D01*
X131793955Y-79627408D01*
X131790798Y-79622900D01*
X131628900Y-79461002D01*
X131624392Y-79457845D01*
X131624389Y-79457843D01*
X131488749Y-79362867D01*
X131441349Y-79329677D01*
X131436367Y-79327354D01*
X131436362Y-79327351D01*
X131238825Y-79235239D01*
X131238824Y-79235239D01*
X131233843Y-79232916D01*
X131228535Y-79231494D01*
X131228533Y-79231493D01*
X131018002Y-79175081D01*
X131018000Y-79175081D01*
X131012687Y-79173657D01*
X130784600Y-79153702D01*
X130556513Y-79173657D01*
X130551200Y-79175081D01*
X130551198Y-79175081D01*
X130340667Y-79231493D01*
X130340665Y-79231494D01*
X130335357Y-79232916D01*
X130330376Y-79235239D01*
X130330375Y-79235239D01*
X130132838Y-79327351D01*
X130132833Y-79327354D01*
X130127851Y-79329677D01*
X130080451Y-79362867D01*
X129944811Y-79457843D01*
X129944808Y-79457845D01*
X129940300Y-79461002D01*
X129778402Y-79622900D01*
X129775245Y-79627408D01*
X129775243Y-79627411D01*
X129733447Y-79687102D01*
X129647077Y-79810451D01*
X129644754Y-79815433D01*
X129644751Y-79815438D01*
X129552639Y-80012975D01*
X129550316Y-80017957D01*
X129548894Y-80023265D01*
X129548893Y-80023267D01*
X129492481Y-80233798D01*
X129491057Y-80239113D01*
X129471102Y-80467200D01*
X126950441Y-80467200D01*
X126895249Y-80348838D01*
X126895246Y-80348833D01*
X126892923Y-80343851D01*
X126774425Y-80174619D01*
X126764757Y-80160811D01*
X126764755Y-80160808D01*
X126761598Y-80156300D01*
X126599700Y-79994402D01*
X126595192Y-79991245D01*
X126595189Y-79991243D01*
X126517011Y-79936502D01*
X126412149Y-79863077D01*
X126407167Y-79860754D01*
X126407162Y-79860751D01*
X126209625Y-79768639D01*
X126209624Y-79768639D01*
X126204643Y-79766316D01*
X126199335Y-79764894D01*
X126199333Y-79764893D01*
X125988802Y-79708481D01*
X125988800Y-79708481D01*
X125983487Y-79707057D01*
X125755400Y-79687102D01*
X125527313Y-79707057D01*
X125522000Y-79708481D01*
X125521998Y-79708481D01*
X125311467Y-79764893D01*
X125311465Y-79764894D01*
X125306157Y-79766316D01*
X125301176Y-79768639D01*
X125301175Y-79768639D01*
X125103638Y-79860751D01*
X125103633Y-79860754D01*
X125098651Y-79863077D01*
X124993789Y-79936502D01*
X124915611Y-79991243D01*
X124915608Y-79991245D01*
X124911100Y-79994402D01*
X124749202Y-80156300D01*
X124746045Y-80160808D01*
X124746043Y-80160811D01*
X124736375Y-80174619D01*
X124617877Y-80343851D01*
X124615554Y-80348833D01*
X124615551Y-80348838D01*
X124551256Y-80486721D01*
X124521116Y-80551357D01*
X124519694Y-80556665D01*
X124519693Y-80556667D01*
X124478609Y-80709994D01*
X124461857Y-80772513D01*
X124441902Y-81000600D01*
X123530366Y-81000600D01*
X123530948Y-80978360D01*
X123531031Y-80975200D01*
X123527035Y-80921425D01*
X123512007Y-80719200D01*
X123512006Y-80719196D01*
X123511661Y-80714548D01*
X123508506Y-80700602D01*
X123468453Y-80523599D01*
X123453977Y-80459623D01*
X123452044Y-80454652D01*
X123360940Y-80220376D01*
X123360939Y-80220373D01*
X123359247Y-80216023D01*
X123229551Y-79989102D01*
X123067738Y-79783843D01*
X122877363Y-79604757D01*
X122675760Y-79464899D01*
X122666451Y-79458441D01*
X122666448Y-79458439D01*
X122662609Y-79455776D01*
X122621443Y-79435475D01*
X122432381Y-79342240D01*
X122432378Y-79342239D01*
X122428193Y-79340175D01*
X122382049Y-79325404D01*
X122183723Y-79261920D01*
X122179265Y-79260493D01*
X121921293Y-79218479D01*
X121807542Y-79216990D01*
X121664622Y-79215119D01*
X121664619Y-79215119D01*
X121659945Y-79215058D01*
X121400962Y-79250304D01*
X121150033Y-79323443D01*
X121145780Y-79325403D01*
X121145779Y-79325404D01*
X121109259Y-79342240D01*
X120912672Y-79432868D01*
X120874579Y-79457843D01*
X120698004Y-79573610D01*
X120697999Y-79573614D01*
X120694091Y-79576176D01*
X120636687Y-79627411D01*
X120512676Y-79738096D01*
X120499094Y-79750218D01*
X120331963Y-79951170D01*
X120329534Y-79955173D01*
X120204750Y-80160811D01*
X120196371Y-80174619D01*
X120095297Y-80415655D01*
X120030959Y-80668983D01*
X120030491Y-80673634D01*
X120030490Y-80673638D01*
X120028310Y-80695287D01*
X120004773Y-80929039D01*
X116354375Y-80929039D01*
X116265151Y-80857812D01*
X116106895Y-80781309D01*
X115935623Y-80741767D01*
X115930992Y-80741500D01*
X115209008Y-80741500D01*
X115204377Y-80741767D01*
X115033105Y-80781309D01*
X114874849Y-80857812D01*
X114737476Y-80967476D01*
X114627812Y-81104849D01*
X114624746Y-81111191D01*
X114624745Y-81111193D01*
X114615836Y-81129623D01*
X114551309Y-81263105D01*
X114511767Y-81434377D01*
X114511500Y-81439008D01*
X114511500Y-82860992D01*
X114046000Y-82860992D01*
X114046000Y-82830116D01*
X114041525Y-82814877D01*
X114040135Y-82813672D01*
X114032452Y-82812001D01*
X113705331Y-82812001D01*
X113698510Y-82812371D01*
X113647648Y-82817895D01*
X113632396Y-82821521D01*
X113511946Y-82866676D01*
X113496351Y-82875214D01*
X113394276Y-82951715D01*
X113381715Y-82964276D01*
X113305214Y-83066351D01*
X113296676Y-83081946D01*
X113251522Y-83202394D01*
X113247895Y-83217649D01*
X113242369Y-83268514D01*
X113242000Y-83275328D01*
X113242000Y-83947885D01*
X84345803Y-83947885D01*
X84347455Y-81114327D01*
X91922389Y-81114327D01*
X91922686Y-81119479D01*
X91922686Y-81119483D01*
X91925655Y-81170975D01*
X91935738Y-81345834D01*
X91936873Y-81350871D01*
X91936874Y-81350877D01*
X91965197Y-81476557D01*
X91986718Y-81572052D01*
X92073962Y-81786906D01*
X92195125Y-81984626D01*
X92346953Y-82159901D01*
X92525370Y-82308026D01*
X92529822Y-82310628D01*
X92529827Y-82310631D01*
X92721126Y-82422417D01*
X92725584Y-82425022D01*
X92942218Y-82507746D01*
X92947286Y-82508777D01*
X92947289Y-82508778D01*
X93059090Y-82531524D01*
X93169454Y-82553978D01*
X93174627Y-82554168D01*
X93174630Y-82554168D01*
X93396026Y-82562286D01*
X93396030Y-82562286D01*
X93401190Y-82562475D01*
X93406310Y-82561819D01*
X93406312Y-82561819D01*
X93477109Y-82552750D01*
X93631202Y-82533010D01*
X93636151Y-82531525D01*
X93636157Y-82531524D01*
X93848370Y-82467857D01*
X93853313Y-82466374D01*
X94061558Y-82364356D01*
X94145156Y-82304726D01*
X94246132Y-82232701D01*
X94246137Y-82232697D01*
X94250344Y-82229696D01*
X94258235Y-82221833D01*
X94342237Y-82138123D01*
X94414602Y-82066010D01*
X94549920Y-81877695D01*
X94582203Y-81812376D01*
X94650370Y-81674449D01*
X94650371Y-81674447D01*
X94652664Y-81669807D01*
X94672438Y-81604723D01*
X94718572Y-81452883D01*
X94718573Y-81452877D01*
X94720076Y-81447931D01*
X94743911Y-81266887D01*
X94749907Y-81221344D01*
X94749907Y-81221340D01*
X94750344Y-81218023D01*
X94750426Y-81214671D01*
X94751951Y-81152264D01*
X94751951Y-81152260D01*
X94752033Y-81148899D01*
X94742978Y-81038761D01*
X94733456Y-80922938D01*
X94733455Y-80922932D01*
X94733032Y-80917787D01*
X94676540Y-80692882D01*
X94584073Y-80480224D01*
X94458116Y-80285523D01*
X94445447Y-80271599D01*
X94305528Y-80117831D01*
X94305526Y-80117830D01*
X94302050Y-80114009D01*
X94297999Y-80110810D01*
X94297995Y-80110806D01*
X94124125Y-79973493D01*
X94120067Y-79970288D01*
X93917055Y-79858219D01*
X93756391Y-79801325D01*
X93703339Y-79782538D01*
X93703335Y-79782537D01*
X93698464Y-79780812D01*
X93693371Y-79779905D01*
X93693368Y-79779904D01*
X93475255Y-79741052D01*
X93475249Y-79741051D01*
X93470166Y-79740146D01*
X93381632Y-79739064D01*
X93243461Y-79737376D01*
X93243459Y-79737376D01*
X93238292Y-79737313D01*
X93009069Y-79772389D01*
X92788653Y-79844432D01*
X92784065Y-79846820D01*
X92784061Y-79846822D01*
X92632068Y-79925945D01*
X92582962Y-79951508D01*
X92578829Y-79954611D01*
X92578826Y-79954613D01*
X92401657Y-80087635D01*
X92397522Y-80090740D01*
X92237313Y-80258390D01*
X92234399Y-80262662D01*
X92234398Y-80262663D01*
X92179015Y-80343851D01*
X92106636Y-80449955D01*
X92096090Y-80472675D01*
X92047359Y-80577657D01*
X92009001Y-80660291D01*
X91947031Y-80883748D01*
X91922389Y-81114327D01*
X84347455Y-81114327D01*
X84348773Y-78854122D01*
X98767873Y-78854122D01*
X98815364Y-79031361D01*
X98819110Y-79041653D01*
X98911186Y-79239111D01*
X98916669Y-79248607D01*
X99041628Y-79427067D01*
X99048684Y-79435475D01*
X99202725Y-79589516D01*
X99211133Y-79596572D01*
X99389593Y-79721531D01*
X99399089Y-79727014D01*
X99596547Y-79819090D01*
X99606839Y-79822836D01*
X99779103Y-79868994D01*
X99793199Y-79868658D01*
X99796600Y-79860716D01*
X99796600Y-79855567D01*
X100304600Y-79855567D01*
X100308573Y-79869098D01*
X100317122Y-79870327D01*
X100494361Y-79822836D01*
X100504653Y-79819090D01*
X100702111Y-79727014D01*
X100711607Y-79721531D01*
X100890067Y-79596572D01*
X100898475Y-79589516D01*
X101052516Y-79435475D01*
X101059572Y-79427067D01*
X101184531Y-79248607D01*
X101190014Y-79239111D01*
X101282090Y-79041653D01*
X101285836Y-79031361D01*
X101331994Y-78859097D01*
X101331658Y-78845001D01*
X101323716Y-78841600D01*
X100322715Y-78841600D01*
X100307476Y-78846075D01*
X100306271Y-78847465D01*
X100304600Y-78855148D01*
X100304600Y-79855567D01*
X99796600Y-79855567D01*
X99796600Y-78859715D01*
X99792125Y-78844476D01*
X99790735Y-78843271D01*
X99783052Y-78841600D01*
X98782633Y-78841600D01*
X98769102Y-78845573D01*
X98767873Y-78854122D01*
X84348773Y-78854122D01*
X84348929Y-78587600D01*
X108897102Y-78587600D01*
X108917057Y-78815687D01*
X108918481Y-78821000D01*
X108918481Y-78821002D01*
X108963798Y-78990124D01*
X108976316Y-79036843D01*
X108978639Y-79041824D01*
X108978639Y-79041825D01*
X109070751Y-79239362D01*
X109070754Y-79239367D01*
X109073077Y-79244349D01*
X109204402Y-79431900D01*
X109366300Y-79593798D01*
X109370808Y-79596955D01*
X109370811Y-79596957D01*
X109407862Y-79622900D01*
X109553851Y-79725123D01*
X109558833Y-79727446D01*
X109558838Y-79727449D01*
X109740750Y-79812275D01*
X109761357Y-79821884D01*
X109766665Y-79823306D01*
X109766667Y-79823307D01*
X109977198Y-79879719D01*
X109977200Y-79879719D01*
X109982513Y-79881143D01*
X110210600Y-79901098D01*
X110438687Y-79881143D01*
X110444000Y-79879719D01*
X110444002Y-79879719D01*
X110654533Y-79823307D01*
X110654535Y-79823306D01*
X110659843Y-79821884D01*
X110680450Y-79812275D01*
X110862362Y-79727449D01*
X110862367Y-79727446D01*
X110867349Y-79725123D01*
X111013338Y-79622900D01*
X111050389Y-79596957D01*
X111050392Y-79596955D01*
X111054900Y-79593798D01*
X111216798Y-79431900D01*
X111348123Y-79244349D01*
X111350446Y-79239367D01*
X111350449Y-79239362D01*
X111442561Y-79041825D01*
X111442561Y-79041824D01*
X111444884Y-79036843D01*
X111457403Y-78990124D01*
X111502719Y-78821002D01*
X111502719Y-78821000D01*
X111504143Y-78815687D01*
X111524098Y-78587600D01*
X111504143Y-78359513D01*
X111493844Y-78321078D01*
X111446307Y-78143667D01*
X111446306Y-78143665D01*
X111444884Y-78138357D01*
X111350566Y-77936089D01*
X111350449Y-77935838D01*
X111350446Y-77935833D01*
X111348123Y-77930851D01*
X111216798Y-77743300D01*
X111054900Y-77581402D01*
X111050392Y-77578245D01*
X111050389Y-77578243D01*
X110951182Y-77508778D01*
X110867349Y-77450077D01*
X110862367Y-77447754D01*
X110862362Y-77447751D01*
X110692191Y-77368400D01*
X119311102Y-77368400D01*
X119331057Y-77596487D01*
X119332481Y-77601800D01*
X119332481Y-77601802D01*
X119369352Y-77739403D01*
X119390316Y-77817643D01*
X119392639Y-77822624D01*
X119392639Y-77822625D01*
X119484751Y-78020162D01*
X119484754Y-78020167D01*
X119487077Y-78025149D01*
X119618402Y-78212700D01*
X119780300Y-78374598D01*
X119784808Y-78377755D01*
X119784811Y-78377757D01*
X119862989Y-78432498D01*
X119967851Y-78505923D01*
X119972833Y-78508246D01*
X119972838Y-78508249D01*
X120143009Y-78587600D01*
X120175357Y-78602684D01*
X120180665Y-78604106D01*
X120180667Y-78604107D01*
X120391198Y-78660519D01*
X120391200Y-78660519D01*
X120396513Y-78661943D01*
X120624600Y-78681898D01*
X120852687Y-78661943D01*
X120858000Y-78660519D01*
X120858002Y-78660519D01*
X121068533Y-78604107D01*
X121068535Y-78604106D01*
X121073843Y-78602684D01*
X121106191Y-78587600D01*
X121276362Y-78508249D01*
X121276367Y-78508246D01*
X121281349Y-78505923D01*
X121386211Y-78432498D01*
X121464389Y-78377757D01*
X121464392Y-78377755D01*
X121468900Y-78374598D01*
X121630798Y-78212700D01*
X121762123Y-78025149D01*
X121764446Y-78020167D01*
X121764449Y-78020162D01*
X121856561Y-77822625D01*
X121856561Y-77822624D01*
X121858884Y-77817643D01*
X121879849Y-77739403D01*
X121916719Y-77601802D01*
X121916719Y-77601800D01*
X121918143Y-77596487D01*
X121938098Y-77368400D01*
X129471102Y-77368400D01*
X129491057Y-77596487D01*
X129492481Y-77601800D01*
X129492481Y-77601802D01*
X129529352Y-77739403D01*
X129550316Y-77817643D01*
X129552639Y-77822624D01*
X129552639Y-77822625D01*
X129644751Y-78020162D01*
X129644754Y-78020167D01*
X129647077Y-78025149D01*
X129778402Y-78212700D01*
X129940300Y-78374598D01*
X129944808Y-78377755D01*
X129944811Y-78377757D01*
X130022989Y-78432498D01*
X130127851Y-78505923D01*
X130132833Y-78508246D01*
X130132838Y-78508249D01*
X130303009Y-78587600D01*
X130335357Y-78602684D01*
X130340665Y-78604106D01*
X130340667Y-78604107D01*
X130551198Y-78660519D01*
X130551200Y-78660519D01*
X130556513Y-78661943D01*
X130784600Y-78681898D01*
X131012687Y-78661943D01*
X131018000Y-78660519D01*
X131018002Y-78660519D01*
X131228533Y-78604107D01*
X131228535Y-78604106D01*
X131233843Y-78602684D01*
X131266191Y-78587600D01*
X131436362Y-78508249D01*
X131436367Y-78508246D01*
X131441349Y-78505923D01*
X131546211Y-78432498D01*
X131624389Y-78377757D01*
X131624392Y-78377755D01*
X131628900Y-78374598D01*
X131790798Y-78212700D01*
X131922123Y-78025149D01*
X131924446Y-78020167D01*
X131924449Y-78020162D01*
X132016561Y-77822625D01*
X132016561Y-77822624D01*
X132018884Y-77817643D01*
X132039849Y-77739403D01*
X132076719Y-77601802D01*
X132076719Y-77601800D01*
X132078143Y-77596487D01*
X132098098Y-77368400D01*
X132078143Y-77140313D01*
X132066326Y-77096212D01*
X132020307Y-76924467D01*
X132020306Y-76924465D01*
X132018884Y-76919157D01*
X131990028Y-76857274D01*
X131924449Y-76716638D01*
X131924446Y-76716633D01*
X131922123Y-76711651D01*
X131917943Y-76705681D01*
X133725260Y-76705681D01*
X133725278Y-76705933D01*
X133731193Y-76714677D01*
X133762511Y-76743174D01*
X133768148Y-76747738D01*
X134043944Y-76945918D01*
X134050082Y-76949813D01*
X134346835Y-77114984D01*
X134353355Y-77118136D01*
X134667138Y-77248109D01*
X134673989Y-77250495D01*
X135000612Y-77343536D01*
X135007701Y-77345120D01*
X135342865Y-77400006D01*
X135350071Y-77400763D01*
X135689326Y-77416762D01*
X135696576Y-77416686D01*
X136035410Y-77393587D01*
X136042619Y-77392676D01*
X136376560Y-77330784D01*
X136383590Y-77329057D01*
X136708219Y-77229187D01*
X136714997Y-77226667D01*
X137026003Y-77090145D01*
X137032443Y-77086864D01*
X137325693Y-76915502D01*
X137331726Y-76911493D01*
X137590228Y-76717405D01*
X137598682Y-76706078D01*
X137591937Y-76693748D01*
X135674210Y-74776020D01*
X135660269Y-74768408D01*
X135658434Y-74768539D01*
X135651820Y-74772790D01*
X133732874Y-76691737D01*
X133725260Y-76705681D01*
X131917943Y-76705681D01*
X131827735Y-76576851D01*
X131793957Y-76528611D01*
X131793955Y-76528608D01*
X131790798Y-76524100D01*
X131628900Y-76362202D01*
X131624392Y-76359045D01*
X131624389Y-76359043D01*
X131546211Y-76304302D01*
X131441349Y-76230877D01*
X131436367Y-76228554D01*
X131436362Y-76228551D01*
X131238825Y-76136439D01*
X131238824Y-76136439D01*
X131233843Y-76134116D01*
X131228535Y-76132694D01*
X131228533Y-76132693D01*
X131018002Y-76076281D01*
X131018000Y-76076281D01*
X131012687Y-76074857D01*
X130784600Y-76054902D01*
X130556513Y-76074857D01*
X130551200Y-76076281D01*
X130551198Y-76076281D01*
X130340667Y-76132693D01*
X130340665Y-76132694D01*
X130335357Y-76134116D01*
X130330376Y-76136439D01*
X130330375Y-76136439D01*
X130132838Y-76228551D01*
X130132833Y-76228554D01*
X130127851Y-76230877D01*
X130022989Y-76304302D01*
X129944811Y-76359043D01*
X129944808Y-76359045D01*
X129940300Y-76362202D01*
X129778402Y-76524100D01*
X129775245Y-76528608D01*
X129775243Y-76528611D01*
X129741465Y-76576851D01*
X129647077Y-76711651D01*
X129644754Y-76716633D01*
X129644751Y-76716638D01*
X129579172Y-76857274D01*
X129550316Y-76919157D01*
X129548894Y-76924465D01*
X129548893Y-76924467D01*
X129502874Y-77096212D01*
X129491057Y-77140313D01*
X129471102Y-77368400D01*
X121938098Y-77368400D01*
X121918143Y-77140313D01*
X121906326Y-77096212D01*
X121860307Y-76924467D01*
X121860306Y-76924465D01*
X121858884Y-76919157D01*
X121830028Y-76857274D01*
X121764449Y-76716638D01*
X121764446Y-76716633D01*
X121762123Y-76711651D01*
X121667735Y-76576851D01*
X121633957Y-76528611D01*
X121633955Y-76528608D01*
X121630798Y-76524100D01*
X121468900Y-76362202D01*
X121464392Y-76359045D01*
X121464389Y-76359043D01*
X121386211Y-76304302D01*
X121281349Y-76230877D01*
X121276367Y-76228554D01*
X121276362Y-76228551D01*
X121078825Y-76136439D01*
X121078824Y-76136439D01*
X121073843Y-76134116D01*
X121068535Y-76132694D01*
X121068533Y-76132693D01*
X120858002Y-76076281D01*
X120858000Y-76076281D01*
X120852687Y-76074857D01*
X120624600Y-76054902D01*
X120396513Y-76074857D01*
X120391200Y-76076281D01*
X120391198Y-76076281D01*
X120180667Y-76132693D01*
X120180665Y-76132694D01*
X120175357Y-76134116D01*
X120170376Y-76136439D01*
X120170375Y-76136439D01*
X119972838Y-76228551D01*
X119972833Y-76228554D01*
X119967851Y-76230877D01*
X119862989Y-76304302D01*
X119784811Y-76359043D01*
X119784808Y-76359045D01*
X119780300Y-76362202D01*
X119618402Y-76524100D01*
X119615245Y-76528608D01*
X119615243Y-76528611D01*
X119581465Y-76576851D01*
X119487077Y-76711651D01*
X119484754Y-76716633D01*
X119484751Y-76716638D01*
X119419172Y-76857274D01*
X119390316Y-76919157D01*
X119388894Y-76924465D01*
X119388893Y-76924467D01*
X119342874Y-77096212D01*
X119331057Y-77140313D01*
X119311102Y-77368400D01*
X110692191Y-77368400D01*
X110664825Y-77355639D01*
X110664824Y-77355639D01*
X110659843Y-77353316D01*
X110654535Y-77351894D01*
X110654533Y-77351893D01*
X110444002Y-77295481D01*
X110444000Y-77295481D01*
X110438687Y-77294057D01*
X110210600Y-77274102D01*
X109982513Y-77294057D01*
X109977200Y-77295481D01*
X109977198Y-77295481D01*
X109766667Y-77351893D01*
X109766665Y-77351894D01*
X109761357Y-77353316D01*
X109756376Y-77355639D01*
X109756375Y-77355639D01*
X109558838Y-77447751D01*
X109558833Y-77447754D01*
X109553851Y-77450077D01*
X109470018Y-77508778D01*
X109370811Y-77578243D01*
X109370808Y-77578245D01*
X109366300Y-77581402D01*
X109204402Y-77743300D01*
X109073077Y-77930851D01*
X109070754Y-77935833D01*
X109070751Y-77935838D01*
X109070634Y-77936089D01*
X108976316Y-78138357D01*
X108974894Y-78143665D01*
X108974893Y-78143667D01*
X108927356Y-78321078D01*
X108917057Y-78359513D01*
X108897102Y-78587600D01*
X84348929Y-78587600D01*
X84349087Y-78316103D01*
X98769206Y-78316103D01*
X98769542Y-78330199D01*
X98777484Y-78333600D01*
X99778485Y-78333600D01*
X99793724Y-78329125D01*
X99794929Y-78327735D01*
X99796600Y-78320052D01*
X99796600Y-78315485D01*
X100304600Y-78315485D01*
X100309075Y-78330724D01*
X100310465Y-78331929D01*
X100318148Y-78333600D01*
X101318567Y-78333600D01*
X101332098Y-78329627D01*
X101333327Y-78321078D01*
X101285836Y-78143839D01*
X101282090Y-78133547D01*
X101190014Y-77936089D01*
X101184531Y-77926593D01*
X101059572Y-77748133D01*
X101052516Y-77739725D01*
X100898475Y-77585684D01*
X100890067Y-77578628D01*
X100711607Y-77453669D01*
X100702111Y-77448186D01*
X100504653Y-77356110D01*
X100494361Y-77352364D01*
X100322097Y-77306206D01*
X100308001Y-77306542D01*
X100304600Y-77314484D01*
X100304600Y-78315485D01*
X99796600Y-78315485D01*
X99796600Y-77319633D01*
X99792627Y-77306102D01*
X99784078Y-77304873D01*
X99606839Y-77352364D01*
X99596547Y-77356110D01*
X99399089Y-77448186D01*
X99389593Y-77453669D01*
X99211133Y-77578628D01*
X99202725Y-77585684D01*
X99048684Y-77739725D01*
X99041628Y-77748133D01*
X98916669Y-77926593D01*
X98911186Y-77936089D01*
X98819110Y-78133547D01*
X98815364Y-78143839D01*
X98769206Y-78316103D01*
X84349087Y-78316103D01*
X84350370Y-76114327D01*
X91922389Y-76114327D01*
X91935738Y-76345834D01*
X91936873Y-76350871D01*
X91936874Y-76350877D01*
X91975912Y-76524100D01*
X91986718Y-76572052D01*
X92073962Y-76786906D01*
X92076659Y-76791307D01*
X92158260Y-76924467D01*
X92195125Y-76984626D01*
X92346953Y-77159901D01*
X92525370Y-77308026D01*
X92529822Y-77310628D01*
X92529827Y-77310631D01*
X92682774Y-77400006D01*
X92725584Y-77425022D01*
X92942218Y-77507746D01*
X92947286Y-77508777D01*
X92947289Y-77508778D01*
X93059090Y-77531524D01*
X93169454Y-77553978D01*
X93174627Y-77554168D01*
X93174630Y-77554168D01*
X93396026Y-77562286D01*
X93396030Y-77562286D01*
X93401190Y-77562475D01*
X93406310Y-77561819D01*
X93406312Y-77561819D01*
X93477109Y-77552750D01*
X93631202Y-77533010D01*
X93636151Y-77531525D01*
X93636157Y-77531524D01*
X93848370Y-77467857D01*
X93853313Y-77466374D01*
X93886580Y-77450077D01*
X94001890Y-77393587D01*
X94061558Y-77364356D01*
X94158117Y-77295481D01*
X94246132Y-77232701D01*
X94246137Y-77232697D01*
X94250344Y-77229696D01*
X94414602Y-77066010D01*
X94549920Y-76877695D01*
X94592616Y-76791307D01*
X94650370Y-76674449D01*
X94650371Y-76674447D01*
X94652664Y-76669807D01*
X94683900Y-76566998D01*
X94718572Y-76452883D01*
X94718573Y-76452877D01*
X94720076Y-76447931D01*
X94745675Y-76253486D01*
X94749907Y-76221344D01*
X94749907Y-76221340D01*
X94750344Y-76218023D01*
X94750705Y-76203237D01*
X94751951Y-76152264D01*
X94751951Y-76152260D01*
X94752033Y-76148899D01*
X94744305Y-76054902D01*
X94733456Y-75922938D01*
X94733455Y-75922932D01*
X94733032Y-75917787D01*
X94676540Y-75692882D01*
X94584073Y-75480224D01*
X94458116Y-75285523D01*
X94451538Y-75278293D01*
X94305528Y-75117831D01*
X94305526Y-75117830D01*
X94302050Y-75114009D01*
X94297999Y-75110810D01*
X94297995Y-75110806D01*
X94124125Y-74973493D01*
X94120067Y-74970288D01*
X93917055Y-74858219D01*
X93798620Y-74816279D01*
X93703339Y-74782538D01*
X93703335Y-74782537D01*
X93698464Y-74780812D01*
X93693371Y-74779905D01*
X93693368Y-74779904D01*
X93475255Y-74741052D01*
X93475249Y-74741051D01*
X93470166Y-74740146D01*
X93381632Y-74739064D01*
X93243461Y-74737376D01*
X93243459Y-74737376D01*
X93238292Y-74737313D01*
X93009069Y-74772389D01*
X92788653Y-74844432D01*
X92784065Y-74846820D01*
X92784061Y-74846822D01*
X92602950Y-74941103D01*
X92582962Y-74951508D01*
X92578829Y-74954611D01*
X92578826Y-74954613D01*
X92401657Y-75087635D01*
X92397522Y-75090740D01*
X92237313Y-75258390D01*
X92234399Y-75262662D01*
X92234398Y-75262663D01*
X92223736Y-75278293D01*
X92106636Y-75449955D01*
X92104456Y-75454652D01*
X92011497Y-75654914D01*
X92009001Y-75660291D01*
X91947031Y-75883748D01*
X91922389Y-76114327D01*
X84350370Y-76114327D01*
X84351420Y-74312987D01*
X132649884Y-74312987D01*
X132658774Y-74652505D01*
X132659380Y-74659721D01*
X132707235Y-74995963D01*
X132708669Y-75003074D01*
X132794855Y-75331595D01*
X132797092Y-75338478D01*
X132920464Y-75654914D01*
X132923481Y-75661503D01*
X133082402Y-75961652D01*
X133086161Y-75967860D01*
X133278529Y-76247757D01*
X133282974Y-76253486D01*
X133350143Y-76330484D01*
X133363317Y-76338888D01*
X133373169Y-76333020D01*
X135289380Y-74416810D01*
X135295757Y-74405131D01*
X136025808Y-74405131D01*
X136025939Y-74406966D01*
X136030190Y-74413580D01*
X137947668Y-76331057D01*
X137961022Y-76338349D01*
X137970994Y-76331295D01*
X138078041Y-76203267D01*
X138082357Y-76197456D01*
X138268832Y-75913575D01*
X138272446Y-75907313D01*
X138425058Y-75603882D01*
X138427930Y-75597244D01*
X138530982Y-75315639D01*
X143271173Y-75315639D01*
X143283713Y-75576708D01*
X143334704Y-75833056D01*
X143423026Y-76079052D01*
X143425242Y-76083176D01*
X143489753Y-76203237D01*
X143546737Y-76309291D01*
X143549532Y-76313034D01*
X143549534Y-76313037D01*
X143700330Y-76514977D01*
X143700335Y-76514983D01*
X143703122Y-76518715D01*
X143706431Y-76521995D01*
X143706436Y-76522001D01*
X143879689Y-76693748D01*
X143888743Y-76702723D01*
X143892505Y-76705481D01*
X143892508Y-76705484D01*
X144009556Y-76791307D01*
X144099524Y-76857274D01*
X144103667Y-76859454D01*
X144103669Y-76859455D01*
X144326684Y-76976789D01*
X144326689Y-76976791D01*
X144330834Y-76978972D01*
X144358201Y-76988529D01*
X144568052Y-77061813D01*
X144577590Y-77065144D01*
X144582183Y-77066016D01*
X144829785Y-77113024D01*
X144829788Y-77113024D01*
X144834374Y-77113895D01*
X144964959Y-77119026D01*
X145090875Y-77123974D01*
X145090881Y-77123974D01*
X145095543Y-77124157D01*
X145179300Y-77114984D01*
X145350707Y-77096212D01*
X145350712Y-77096211D01*
X145355360Y-77095702D01*
X145376467Y-77090145D01*
X145603594Y-77030348D01*
X145603596Y-77030347D01*
X145608117Y-77029157D01*
X145848262Y-76925982D01*
X146070519Y-76788446D01*
X146074082Y-76785429D01*
X146074087Y-76785426D01*
X146266439Y-76622587D01*
X146266440Y-76622586D01*
X146270005Y-76619568D01*
X146307467Y-76576851D01*
X146439257Y-76426574D01*
X146439261Y-76426569D01*
X146442339Y-76423059D01*
X146481484Y-76362202D01*
X146565954Y-76230877D01*
X146583733Y-76203237D01*
X146691083Y-75964929D01*
X146704379Y-75917787D01*
X146760760Y-75717876D01*
X146760761Y-75717873D01*
X146762030Y-75713372D01*
X146778832Y-75581296D01*
X146794616Y-75457221D01*
X146794616Y-75457217D01*
X146795014Y-75454091D01*
X146795123Y-75449955D01*
X146797348Y-75364960D01*
X146797431Y-75361800D01*
X146791225Y-75278293D01*
X146778407Y-75105800D01*
X146778406Y-75105796D01*
X146778061Y-75101148D01*
X146775004Y-75087635D01*
X146721408Y-74850780D01*
X146720377Y-74846223D01*
X146701603Y-74797946D01*
X146627340Y-74606976D01*
X146627339Y-74606973D01*
X146625647Y-74602623D01*
X146495951Y-74375702D01*
X146334138Y-74170443D01*
X146143763Y-73991357D01*
X145929009Y-73842376D01*
X145924816Y-73840308D01*
X145698781Y-73728840D01*
X145698778Y-73728839D01*
X145694593Y-73726775D01*
X145671957Y-73719529D01*
X145450123Y-73648520D01*
X145445665Y-73647093D01*
X145187693Y-73605079D01*
X145073942Y-73603590D01*
X144931022Y-73601719D01*
X144931019Y-73601719D01*
X144926345Y-73601658D01*
X144667362Y-73636904D01*
X144416433Y-73710043D01*
X144412180Y-73712003D01*
X144412179Y-73712004D01*
X144375659Y-73728840D01*
X144179072Y-73819468D01*
X144140067Y-73845041D01*
X143964404Y-73960210D01*
X143964399Y-73960214D01*
X143960491Y-73962776D01*
X143765494Y-74136818D01*
X143598363Y-74337770D01*
X143595934Y-74341773D01*
X143559974Y-74401034D01*
X143462771Y-74561219D01*
X143361697Y-74802255D01*
X143297359Y-75055583D01*
X143296891Y-75060234D01*
X143296890Y-75060238D01*
X143293229Y-75096594D01*
X143271173Y-75315639D01*
X138530982Y-75315639D01*
X138544649Y-75278293D01*
X138546745Y-75271351D01*
X138626031Y-74941103D01*
X138627315Y-74933964D01*
X138668216Y-74595973D01*
X138668640Y-74590403D01*
X138674410Y-74406797D01*
X138674337Y-74401204D01*
X138654738Y-74061303D01*
X138653906Y-74054113D01*
X138595513Y-73719529D01*
X138593858Y-73712474D01*
X138497398Y-73386834D01*
X138494940Y-73380006D01*
X138361690Y-73067608D01*
X138358473Y-73061125D01*
X138190188Y-72766089D01*
X138186256Y-72760034D01*
X137985174Y-72486295D01*
X137980566Y-72480726D01*
X137975230Y-72474984D01*
X137961578Y-72466866D01*
X137960970Y-72466887D01*
X137952492Y-72472119D01*
X136033420Y-74391190D01*
X136025808Y-74405131D01*
X135295757Y-74405131D01*
X135296992Y-74402869D01*
X135296861Y-74401034D01*
X135292610Y-74394420D01*
X133373774Y-72475585D01*
X133360981Y-72468599D01*
X133350227Y-72476464D01*
X133189437Y-72681527D01*
X133185302Y-72687476D01*
X133007840Y-72977068D01*
X133004419Y-72983447D01*
X132861416Y-73291522D01*
X132858756Y-73298241D01*
X132752111Y-73620707D01*
X132750234Y-73627711D01*
X132681361Y-73960288D01*
X132680304Y-73967449D01*
X132650112Y-74305735D01*
X132649884Y-74312987D01*
X84351420Y-74312987D01*
X84353031Y-71550304D01*
X84373073Y-71482194D01*
X84426756Y-71435733D01*
X84478947Y-71424377D01*
X134433927Y-71391074D01*
X134502060Y-71411031D01*
X134548589Y-71464655D01*
X134558739Y-71534923D01*
X134529289Y-71599523D01*
X134488254Y-71630800D01*
X134213107Y-71762039D01*
X134206749Y-71765534D01*
X133919054Y-71946005D01*
X133913131Y-71950214D01*
X133735001Y-72092923D01*
X133726532Y-72105048D01*
X133732927Y-72116316D01*
X135648590Y-74031980D01*
X135662531Y-74039592D01*
X135664366Y-74039461D01*
X135670980Y-74035210D01*
X137588474Y-72117716D01*
X137595866Y-72104179D01*
X137589079Y-72094479D01*
X137485876Y-72006335D01*
X137480104Y-72001953D01*
X137198196Y-71812519D01*
X137191975Y-71808839D01*
X136890157Y-71653060D01*
X136883545Y-71650116D01*
X136839061Y-71633307D01*
X136782408Y-71590517D01*
X136757883Y-71523891D01*
X136773271Y-71454582D01*
X136823688Y-71404596D01*
X136883514Y-71389441D01*
X159410947Y-71374423D01*
X159479081Y-71394380D01*
G37*
%TD.AperFunction*%
%TD*%
M02*
