%TF.GenerationSoftware,KiCad,Pcbnew,(6.0.0)*%
%TF.CreationDate,2022-02-02T10:45:07-05:00*%
%TF.ProjectId,PID_electronics,5049445f-656c-4656-9374-726f6e696373,rev?*%
%TF.SameCoordinates,Original*%
%TF.FileFunction,Copper,L1,Top*%
%TF.FilePolarity,Positive*%
%FSLAX46Y46*%
G04 Gerber Fmt 4.6, Leading zero omitted, Abs format (unit mm)*
G04 Created by KiCad (PCBNEW (6.0.0)) date 2022-02-02 10:45:07*
%MOMM*%
%LPD*%
G01*
G04 APERTURE LIST*
G04 Aperture macros list*
%AMRoundRect*
0 Rectangle with rounded corners*
0 $1 Rounding radius*
0 $2 $3 $4 $5 $6 $7 $8 $9 X,Y pos of 4 corners*
0 Add a 4 corners polygon primitive as box body*
4,1,4,$2,$3,$4,$5,$6,$7,$8,$9,$2,$3,0*
0 Add four circle primitives for the rounded corners*
1,1,$1+$1,$2,$3*
1,1,$1+$1,$4,$5*
1,1,$1+$1,$6,$7*
1,1,$1+$1,$8,$9*
0 Add four rect primitives between the rounded corners*
20,1,$1+$1,$2,$3,$4,$5,0*
20,1,$1+$1,$4,$5,$6,$7,0*
20,1,$1+$1,$6,$7,$8,$9,0*
20,1,$1+$1,$8,$9,$2,$3,0*%
G04 Aperture macros list end*
%TA.AperFunction,ComponentPad*%
%ADD10C,2.500000*%
%TD*%
%TA.AperFunction,ComponentPad*%
%ADD11C,5.000000*%
%TD*%
%TA.AperFunction,ComponentPad*%
%ADD12RoundRect,0.275000X-0.275000X-0.625000X0.275000X-0.625000X0.275000X0.625000X-0.275000X0.625000X0*%
%TD*%
%TA.AperFunction,ComponentPad*%
%ADD13R,1.100000X1.800000*%
%TD*%
%TA.AperFunction,ComponentPad*%
%ADD14C,1.600000*%
%TD*%
%TA.AperFunction,ComponentPad*%
%ADD15O,1.600000X1.600000*%
%TD*%
%TA.AperFunction,ComponentPad*%
%ADD16R,2.000000X2.000000*%
%TD*%
%TA.AperFunction,ComponentPad*%
%ADD17C,2.000000*%
%TD*%
%TA.AperFunction,ComponentPad*%
%ADD18C,1.803400*%
%TD*%
%TA.AperFunction,ComponentPad*%
%ADD19O,1.600000X2.400000*%
%TD*%
%TA.AperFunction,ComponentPad*%
%ADD20R,1.600000X2.400000*%
%TD*%
%TA.AperFunction,Conductor*%
%ADD21C,0.250000*%
%TD*%
G04 APERTURE END LIST*
D10*
%TO.P,REF\u002A\u002A,1*%
%TO.N,Net-(R1-Pad1)*%
X121767600Y-80975200D03*
%TD*%
%TO.P,REF\u002A\u002A,1*%
%TO.N,Net-(J2-Pad1)*%
X145034000Y-75361800D03*
%TD*%
%TO.P,REF\u002A\u002A,1*%
%TO.N,Net-(J2-Pad2)*%
X139522200Y-88900000D03*
%TD*%
%TO.P,REF\u002A\u002A,1*%
%TO.N,Net-(Q3-Pad2)*%
X114376200Y-88646000D03*
%TD*%
D11*
%TO.P,REF\u002A\u002A,*%
%TO.N,GNDREF*%
X135661400Y-74404000D03*
%TD*%
%TO.P,REF\u002A\u002A,*%
%TO.N,GNDREF*%
X137769600Y-110490000D03*
%TD*%
%TO.P,REF\u002A\u002A,*%
%TO.N,GNDREF*%
X115849400Y-110490000D03*
%TD*%
D12*
%TO.P,Q3,2,G*%
%TO.N,Net-(Q3-Pad2)*%
X115570000Y-82150000D03*
%TO.P,Q3,3,D*%
%TO.N,Net-(Q3-Pad3)*%
X116840000Y-84220000D03*
D13*
%TO.P,Q3,1,S*%
%TO.N,GNDREF*%
X114300000Y-84220000D03*
%TD*%
D14*
%TO.P,R10,1*%
%TO.N,Net-(J2-Pad1)*%
X155143200Y-95656400D03*
D15*
%TO.P,R10,2*%
%TO.N,Net-(R10-Pad2)*%
X155143200Y-105816400D03*
%TD*%
D14*
%TO.P,C1,1*%
%TO.N,Net-(C1-Pad1)*%
X134899400Y-101794000D03*
D15*
%TO.P,C1,2*%
%TO.N,Net-(C1-Pad2)*%
X134899400Y-94294000D03*
%TD*%
D16*
%TO.P,C5,1*%
%TO.N,+15V*%
X102331123Y-107340400D03*
D17*
%TO.P,C5,2*%
%TO.N,GNDREF*%
X107331123Y-107340400D03*
%TD*%
D18*
%TO.P,J2,1,Pin_1*%
%TO.N,Net-(J2-Pad1)*%
X152900000Y-79853500D03*
%TO.P,J2,2,Pin_2*%
%TO.N,Net-(J2-Pad2)*%
X152900000Y-84853500D03*
%TO.P,J2,3,Pin_3*%
%TO.N,GNDREF*%
X152900000Y-89853500D03*
%TD*%
D16*
%TO.P,C4,1*%
%TO.N,GNDREF*%
X94798277Y-107315000D03*
D17*
%TO.P,C4,2*%
%TO.N,-15V*%
X89798277Y-107315000D03*
%TD*%
D14*
%TO.P,C7,1*%
%TO.N,+15V*%
X130800800Y-109575600D03*
D15*
%TO.P,C7,2*%
%TO.N,GNDREF*%
X123300800Y-109575600D03*
%TD*%
D18*
%TO.P,J1,1,Pin_1*%
%TO.N,Net-(R1-Pad1)*%
X93337000Y-76148899D03*
%TO.P,J1,2,Pin_2*%
%TO.N,Net-(Q3-Pad2)*%
X93337000Y-81148899D03*
%TO.P,J1,3,Pin_3*%
%TO.N,GNDREF*%
X93337000Y-86148899D03*
%TO.P,J1,4,Pin_4*%
%TO.N,-15V*%
X93337000Y-91148900D03*
%TO.P,J1,5,Pin_5*%
%TO.N,+15V*%
X93337000Y-96148900D03*
%TD*%
D14*
%TO.P,R7,1*%
%TO.N,Net-(C1-Pad2)*%
X134874000Y-79806800D03*
D15*
%TO.P,R7,2*%
%TO.N,Net-(J2-Pad1)*%
X145034000Y-79806800D03*
%TD*%
D14*
%TO.P,C3,1*%
%TO.N,+15V*%
X130800800Y-105791000D03*
D15*
%TO.P,C3,2*%
%TO.N,GNDREF*%
X123300800Y-105791000D03*
%TD*%
D14*
%TO.P,R4,1*%
%TO.N,Net-(R1-Pad1)*%
X110210600Y-78587600D03*
D15*
%TO.P,R4,2*%
%TO.N,GNDREF*%
X100050600Y-78587600D03*
%TD*%
D14*
%TO.P,R8,1*%
%TO.N,Net-(C1-Pad2)*%
X134899400Y-83489800D03*
D15*
%TO.P,R8,2*%
%TO.N,GNDREF*%
X145059400Y-83489800D03*
%TD*%
D19*
%TO.P,U1,8,V+*%
%TO.N,+15V*%
X130800000Y-101605000D03*
%TO.P,U1,7*%
%TO.N,Net-(C1-Pad1)*%
X128260000Y-101605000D03*
%TO.P,U1,6,-*%
%TO.N,Net-(C1-Pad2)*%
X125720000Y-101605000D03*
%TO.P,U1,5,+*%
%TO.N,Net-(R2-Pad2)*%
X123180000Y-101605000D03*
%TO.P,U1,4,V-*%
%TO.N,-15V*%
X123180000Y-93985000D03*
%TO.P,U1,3,+*%
%TO.N,Net-(Q3-Pad3)*%
X125720000Y-93985000D03*
%TO.P,U1,2,-*%
%TO.N,Net-(R1-Pad2)*%
X128260000Y-93985000D03*
D20*
%TO.P,U1,1*%
%TO.N,Net-(R2-Pad2)*%
X130800000Y-93985000D03*
%TD*%
D14*
%TO.P,C8,1*%
%TO.N,GNDREF*%
X111820000Y-98094800D03*
D15*
%TO.P,C8,2*%
%TO.N,-15V*%
X119320000Y-98094800D03*
%TD*%
D14*
%TO.P,C2,1*%
%TO.N,GNDREF*%
X111921600Y-93954600D03*
D15*
%TO.P,C2,2*%
%TO.N,-15V*%
X119421600Y-93954600D03*
%TD*%
D14*
%TO.P,R9,1*%
%TO.N,Net-(Q3-Pad2)*%
X110312200Y-88036400D03*
D15*
%TO.P,R9,2*%
%TO.N,GNDREF*%
X100152200Y-88036400D03*
%TD*%
D14*
%TO.P,R3,1*%
%TO.N,Net-(R1-Pad1)*%
X125755400Y-81000600D03*
D15*
%TO.P,R3,2*%
%TO.N,Net-(Q3-Pad3)*%
X125755400Y-91160600D03*
%TD*%
D14*
%TO.P,R2,1*%
%TO.N,Net-(R1-Pad2)*%
X130784600Y-80467200D03*
D15*
%TO.P,R2,2*%
%TO.N,Net-(R2-Pad2)*%
X130784600Y-90627200D03*
%TD*%
D14*
%TO.P,R6,1*%
%TO.N,Net-(C1-Pad1)*%
X143941800Y-98882200D03*
D15*
%TO.P,R6,2*%
%TO.N,Net-(J2-Pad2)*%
X143941800Y-88722200D03*
%TD*%
D14*
%TO.P,R1,1*%
%TO.N,Net-(R1-Pad1)*%
X120624600Y-77368400D03*
D15*
%TO.P,R1,2*%
%TO.N,Net-(R1-Pad2)*%
X130784600Y-77368400D03*
%TD*%
D16*
%TO.P,C6,1*%
%TO.N,Net-(R10-Pad2)*%
X148620877Y-105791000D03*
D17*
%TO.P,C6,2*%
%TO.N,GNDREF*%
X143620877Y-105791000D03*
%TD*%
D21*
%TO.N,Net-(R1-Pad1)*%
X121767600Y-80975200D02*
X125730000Y-80975200D01*
X125730000Y-80975200D02*
X125755400Y-81000600D01*
%TO.N,Net-(J2-Pad1)*%
X145034000Y-75361800D02*
X145034000Y-79806800D01*
%TO.N,Net-(J2-Pad2)*%
X139522200Y-88900000D02*
X143764000Y-88900000D01*
X143764000Y-88900000D02*
X143941800Y-88722200D01*
%TO.N,Net-(Q3-Pad2)*%
X113766600Y-88036400D02*
X114376200Y-88646000D01*
X110312200Y-88036400D02*
X113766600Y-88036400D01*
%TO.N,Net-(Q3-Pad3)*%
X116840000Y-83820000D02*
X121920000Y-88900000D01*
%TO.N,Net-(Q3-Pad2)*%
X110312200Y-82550000D02*
X115570000Y-82550000D01*
X110312200Y-88036400D02*
X110312200Y-82550000D01*
%TO.N,Net-(C1-Pad1)*%
X128260000Y-99527200D02*
X128270000Y-99517200D01*
X128260000Y-101605000D02*
X128260000Y-99527200D01*
X132622600Y-99517200D02*
X134899400Y-101794000D01*
X128270000Y-99517200D02*
X132622600Y-99517200D01*
X141030000Y-101794000D02*
X143941800Y-98882200D01*
X134899400Y-101794000D02*
X141030000Y-101794000D01*
%TO.N,-15V*%
X89800700Y-91148900D02*
X93337000Y-91148900D01*
X115484600Y-93954600D02*
X123149600Y-93954600D01*
X112678900Y-91148900D02*
X115484600Y-93954600D01*
X119421600Y-97993200D02*
X119320000Y-98094800D01*
X89798277Y-91151323D02*
X89800700Y-91148900D01*
X93337000Y-91148900D02*
X112678900Y-91148900D01*
X123149600Y-93954600D02*
X123180000Y-93985000D01*
X119421600Y-93954600D02*
X119421600Y-97993200D01*
X89798277Y-107315000D02*
X89798277Y-91151323D01*
%TO.N,+15V*%
X129429200Y-104419400D02*
X130800800Y-105791000D01*
X107147100Y-96148900D02*
X93337000Y-96148900D01*
X107147100Y-96148900D02*
X107147100Y-98257100D01*
X102260400Y-101625400D02*
X102331123Y-101696123D01*
X130800800Y-105791000D02*
X130800800Y-109575600D01*
X130800000Y-101605000D02*
X130800000Y-105790200D01*
X107147100Y-98257100D02*
X113309400Y-104419400D01*
X130800000Y-105790200D02*
X130800800Y-105791000D01*
X98813500Y-101625400D02*
X102260400Y-101625400D01*
X93337000Y-96148900D02*
X98813500Y-101625400D01*
X113309400Y-104419400D02*
X129429200Y-104419400D01*
X102331123Y-101696123D02*
X102331123Y-107340400D01*
%TO.N,Net-(Q3-Pad3)*%
X121920000Y-91084400D02*
X121996200Y-91160600D01*
X125755400Y-91160600D02*
X125755400Y-93949600D01*
X121996200Y-91160600D02*
X125755400Y-91160600D01*
X125755400Y-93949600D02*
X125720000Y-93985000D01*
X121920000Y-88900000D02*
X121920000Y-91084400D01*
%TO.N,Net-(R1-Pad2)*%
X130784600Y-80467200D02*
X128260000Y-82991800D01*
X128260000Y-82991800D02*
X128260000Y-93985000D01*
X130784600Y-77368400D02*
X130784600Y-80467200D01*
%TO.N,Net-(R2-Pad2)*%
X130800000Y-93985000D02*
X130800000Y-95615600D01*
X130800000Y-95615600D02*
X129743200Y-96672400D01*
X130784600Y-93969600D02*
X130800000Y-93985000D01*
X129743200Y-96672400D02*
X123215400Y-96672400D01*
X130784600Y-90627200D02*
X130784600Y-93969600D01*
X123215400Y-96672400D02*
X123180000Y-96707800D01*
X123180000Y-96707800D02*
X123180000Y-101605000D01*
%TO.N,Net-(C1-Pad2)*%
X134874000Y-79806800D02*
X134874000Y-83464400D01*
X125704600Y-98221800D02*
X125720000Y-98237200D01*
X134874000Y-83464400D02*
X134899400Y-83489800D01*
X134899400Y-94294000D02*
X133768030Y-94294000D01*
X133768030Y-94294000D02*
X129840230Y-98221800D01*
X125720000Y-98237200D02*
X125720000Y-101605000D01*
X134899400Y-83489800D02*
X134899400Y-94294000D01*
X129840230Y-98221800D02*
X125704600Y-98221800D01*
%TO.N,Net-(J2-Pad1)*%
X145034000Y-79806800D02*
X152853300Y-79806800D01*
X155143200Y-95656400D02*
X155143200Y-82096700D01*
X152853300Y-79806800D02*
X152900000Y-79853500D01*
X155143200Y-82096700D02*
X152900000Y-79853500D01*
%TO.N,Net-(J2-Pad2)*%
X152900000Y-84853500D02*
X147810500Y-84853500D01*
X147810500Y-84853500D02*
X143764000Y-88900000D01*
%TO.N,Net-(R10-Pad2)*%
X155117800Y-105791000D02*
X155143200Y-105816400D01*
X148620877Y-105791000D02*
X155117800Y-105791000D01*
%TO.N,Net-(Q3-Pad2)*%
X103424699Y-81148899D02*
X110312200Y-88036400D01*
X93337000Y-81148899D02*
X103424699Y-81148899D01*
%TO.N,Net-(R1-Pad1)*%
X110210600Y-78587600D02*
X119405400Y-78587600D01*
X120624600Y-77368400D02*
X122123200Y-77368400D01*
X108559600Y-78587600D02*
X106120899Y-76148899D01*
X119405400Y-78587600D02*
X120624600Y-77368400D01*
X122123200Y-77368400D02*
X125755400Y-81000600D01*
X110210600Y-78587600D02*
X108559600Y-78587600D01*
X106120899Y-76148899D02*
X93337000Y-76148899D01*
%TD*%
M02*
