M48
; DRILL file {KiCad (6.0.0)} date Tue Jan 25 19:40:02 2022
; FORMAT={-:-/ absolute / inch / decimal}
; #@! TF.CreationDate,2022-01-25T19:40:02-05:00
; #@! TF.GenerationSoftware,Kicad,Pcbnew,(6.0.0)
; #@! TF.FileFunction,Plated,1,2,PTH
FMAT,2
INCH
; #@! TA.AperFunction,Plated,PTH,ComponentDrill
T1C0.0295
; #@! TA.AperFunction,Plated,PTH,ComponentDrill
T2C0.0315
; #@! TA.AperFunction,Plated,PTH,ComponentDrill
T3C0.0510
%
G90
G05
T1
X4.5Y-3.3
X4.55Y-3.3
X4.6Y-3.3
T2
X3.892Y-3.112
X3.943Y-3.466
X4.292Y-3.112
X4.343Y-3.466
X4.392Y-2.979
X4.4064Y-3.699
X4.7016Y-3.699
X4.792Y-2.979
X4.798Y-3.095
X4.798Y-3.495
X4.8496Y-3.7002
X4.8496Y-4.1002
X4.8514Y-4.309
X4.9496Y-3.7002
X4.9496Y-4.1002
X5.0496Y-3.7002
X5.0496Y-4.1002
X5.1Y-3.101
X5.1Y-3.501
X5.1466Y-4.309
X5.1496Y-3.7002
X5.1496Y-4.1002
X5.31Y-3.142
X5.313Y-3.245
X5.313Y-3.645
X5.4Y-3.7524
X5.4Y-4.0476
X5.667Y-3.493
X5.667Y-3.893
X5.71Y-3.142
T3
X3.5617Y-3.005
X3.5617Y-3.2018
X3.5617Y-3.3987
X3.5617Y-3.5955
X3.5617Y-3.7924
X6.0197Y-3.1438
X6.0197Y-3.3407
X6.0197Y-3.5375
T0
M30
