%TF.GenerationSoftware,KiCad,Pcbnew,(6.0.0)*%
%TF.CreationDate,2022-01-25T19:39:59-05:00*%
%TF.ProjectId,PID_electronics,5049445f-656c-4656-9374-726f6e696373,rev?*%
%TF.SameCoordinates,Original*%
%TF.FileFunction,Legend,Top*%
%TF.FilePolarity,Positive*%
%FSLAX46Y46*%
G04 Gerber Fmt 4.6, Leading zero omitted, Abs format (unit mm)*
G04 Created by KiCad (PCBNEW (6.0.0)) date 2022-01-25 19:39:59*
%MOMM*%
%LPD*%
G01*
G04 APERTURE LIST*
%ADD10C,0.187500*%
%ADD11C,0.710000*%
%ADD12C,0.325000*%
%ADD13C,0.150000*%
%ADD14C,0.120000*%
G04 APERTURE END LIST*
D10*
X157694380Y-85555672D02*
X157694380Y-85412815D01*
X157742000Y-85347339D01*
X157837238Y-85287815D01*
X158027714Y-85275910D01*
X158361047Y-85317577D01*
X158551523Y-85377101D01*
X158646761Y-85460434D01*
X158694380Y-85537815D01*
X158694380Y-85680672D01*
X158646761Y-85746148D01*
X158551523Y-85805672D01*
X158361047Y-85817577D01*
X158027714Y-85775910D01*
X157837238Y-85716386D01*
X157742000Y-85633053D01*
X157694380Y-85555672D01*
X157694380Y-84912815D02*
X158503904Y-85014005D01*
X158599142Y-84990196D01*
X158646761Y-84960434D01*
X158694380Y-84894958D01*
X158694380Y-84752101D01*
X158646761Y-84674720D01*
X158599142Y-84633053D01*
X158503904Y-84585434D01*
X157694380Y-84484244D01*
X157694380Y-84234244D02*
X157694380Y-83805672D01*
X158694380Y-84144958D02*
X157694380Y-84019958D01*
X157919800Y-91498767D02*
X157872180Y-91564244D01*
X157872180Y-91671386D01*
X157919800Y-91784482D01*
X158015038Y-91867815D01*
X158110276Y-91915434D01*
X158300752Y-91974958D01*
X158443609Y-91992815D01*
X158634085Y-91980910D01*
X158729323Y-91957101D01*
X158824561Y-91897577D01*
X158872180Y-91796386D01*
X158872180Y-91724958D01*
X158824561Y-91611863D01*
X158776942Y-91570196D01*
X158443609Y-91528529D01*
X158443609Y-91671386D01*
X158872180Y-91260672D02*
X157872180Y-91135672D01*
X158872180Y-90832101D01*
X157872180Y-90707101D01*
X158872180Y-90474958D02*
X157872180Y-90349958D01*
X157872180Y-90171386D01*
X157919800Y-90070196D01*
X158015038Y-90010672D01*
X158110276Y-89986863D01*
X158300752Y-89974958D01*
X158443609Y-89992815D01*
X158634085Y-90052339D01*
X158729323Y-90099958D01*
X158824561Y-90183291D01*
X158872180Y-90296386D01*
X158872180Y-90474958D01*
X158872180Y-89296386D02*
X158395990Y-89486863D01*
X158872180Y-89724958D02*
X157872180Y-89599958D01*
X157872180Y-89314244D01*
X157919800Y-89248767D01*
X157967419Y-89219005D01*
X158062657Y-89195196D01*
X158205514Y-89213053D01*
X158300752Y-89260672D01*
X158348371Y-89302339D01*
X158395990Y-89379720D01*
X158395990Y-89665434D01*
X158348371Y-88909482D02*
X158348371Y-88659482D01*
X158872180Y-88617815D02*
X158872180Y-88974958D01*
X157872180Y-88849958D01*
X157872180Y-88492815D01*
X158348371Y-87980910D02*
X158348371Y-88230910D01*
X158872180Y-88296386D02*
X157872180Y-88171386D01*
X157872180Y-87814244D01*
X158170571Y-80853853D02*
X158170571Y-81103853D01*
X158694380Y-81169329D02*
X157694380Y-81044329D01*
X157694380Y-80687186D01*
X158694380Y-80526472D02*
X157694380Y-80401472D01*
X157694380Y-80222901D01*
X157742000Y-80121710D01*
X157837238Y-80062186D01*
X157932476Y-80038377D01*
X158122952Y-80026472D01*
X158265809Y-80044329D01*
X158456285Y-80103853D01*
X158551523Y-80151472D01*
X158646761Y-80234805D01*
X158694380Y-80347901D01*
X158694380Y-80526472D01*
X158170571Y-79460996D02*
X158218190Y-79359805D01*
X158265809Y-79330044D01*
X158361047Y-79306234D01*
X158503904Y-79324091D01*
X158599142Y-79371710D01*
X158646761Y-79413377D01*
X158694380Y-79490758D01*
X158694380Y-79776472D01*
X157694380Y-79651472D01*
X157694380Y-79401472D01*
X157742000Y-79335996D01*
X157789619Y-79306234D01*
X157884857Y-79282425D01*
X157980095Y-79294329D01*
X158075333Y-79341948D01*
X158122952Y-79383615D01*
X158170571Y-79460996D01*
X158170571Y-79710996D01*
X158694380Y-79026472D02*
X157694380Y-78901472D01*
X158694380Y-78597901D02*
X158122952Y-78847901D01*
X157694380Y-78472901D02*
X158265809Y-78972901D01*
X83320000Y-87942767D02*
X83272380Y-88008244D01*
X83272380Y-88115386D01*
X83320000Y-88228482D01*
X83415238Y-88311815D01*
X83510476Y-88359434D01*
X83700952Y-88418958D01*
X83843809Y-88436815D01*
X84034285Y-88424910D01*
X84129523Y-88401101D01*
X84224761Y-88341577D01*
X84272380Y-88240386D01*
X84272380Y-88168958D01*
X84224761Y-88055863D01*
X84177142Y-88014196D01*
X83843809Y-87972529D01*
X83843809Y-88115386D01*
X84272380Y-87704672D02*
X83272380Y-87579672D01*
X84272380Y-87276101D01*
X83272380Y-87151101D01*
X84272380Y-86918958D02*
X83272380Y-86793958D01*
X83272380Y-86615386D01*
X83320000Y-86514196D01*
X83415238Y-86454672D01*
X83510476Y-86430863D01*
X83700952Y-86418958D01*
X83843809Y-86436815D01*
X84034285Y-86496339D01*
X84129523Y-86543958D01*
X84224761Y-86627291D01*
X84272380Y-86740386D01*
X84272380Y-86918958D01*
X84272380Y-85740386D02*
X83796190Y-85930863D01*
X84272380Y-86168958D02*
X83272380Y-86043958D01*
X83272380Y-85758244D01*
X83320000Y-85692767D01*
X83367619Y-85663005D01*
X83462857Y-85639196D01*
X83605714Y-85657053D01*
X83700952Y-85704672D01*
X83748571Y-85746339D01*
X83796190Y-85823720D01*
X83796190Y-86109434D01*
X83748571Y-85353482D02*
X83748571Y-85103482D01*
X84272380Y-85061815D02*
X84272380Y-85418958D01*
X83272380Y-85293958D01*
X83272380Y-84936815D01*
X83748571Y-84424910D02*
X83748571Y-84674910D01*
X84272380Y-84740386D02*
X83272380Y-84615386D01*
X83272380Y-84258244D01*
X84119980Y-82267529D02*
X83119980Y-82142529D01*
X83119980Y-81856815D01*
X83167600Y-81791339D01*
X83215219Y-81761577D01*
X83310457Y-81737767D01*
X83453314Y-81755625D01*
X83548552Y-81803244D01*
X83596171Y-81844910D01*
X83643790Y-81922291D01*
X83643790Y-82208005D01*
X83119980Y-81249672D02*
X83119980Y-81106815D01*
X83167600Y-81041339D01*
X83262838Y-80981815D01*
X83453314Y-80969910D01*
X83786647Y-81011577D01*
X83977123Y-81071101D01*
X84072361Y-81154434D01*
X84119980Y-81231815D01*
X84119980Y-81374672D01*
X84072361Y-81440148D01*
X83977123Y-81499672D01*
X83786647Y-81511577D01*
X83453314Y-81469910D01*
X83262838Y-81410386D01*
X83167600Y-81327053D01*
X83119980Y-81249672D01*
X84119980Y-80374672D02*
X84119980Y-80731815D01*
X83119980Y-80606815D01*
X83996161Y-77574434D02*
X84043780Y-77473244D01*
X84043780Y-77294672D01*
X83996161Y-77217291D01*
X83948542Y-77175625D01*
X83853304Y-77128005D01*
X83758066Y-77116101D01*
X83662828Y-77139910D01*
X83615209Y-77169672D01*
X83567590Y-77235148D01*
X83519971Y-77372053D01*
X83472352Y-77437529D01*
X83424733Y-77467291D01*
X83329495Y-77491101D01*
X83234257Y-77479196D01*
X83139019Y-77431577D01*
X83091400Y-77389910D01*
X83043780Y-77312529D01*
X83043780Y-77133958D01*
X83091400Y-77032767D01*
X83091400Y-76318482D02*
X83043780Y-76383958D01*
X83043780Y-76491101D01*
X83091400Y-76604196D01*
X83186638Y-76687529D01*
X83281876Y-76735148D01*
X83472352Y-76794672D01*
X83615209Y-76812529D01*
X83805685Y-76800625D01*
X83900923Y-76776815D01*
X83996161Y-76717291D01*
X84043780Y-76616101D01*
X84043780Y-76544672D01*
X83996161Y-76431577D01*
X83948542Y-76389910D01*
X83615209Y-76348244D01*
X83615209Y-76491101D01*
X84043780Y-76080386D02*
X83043780Y-75955386D01*
X84043780Y-75651815D01*
X83043780Y-75526815D01*
X84043780Y-74937529D02*
X84043780Y-75294672D01*
X83043780Y-75169672D01*
X83637428Y-92706882D02*
X83637428Y-92135453D01*
X84018380Y-91433072D02*
X84018380Y-91861644D01*
X84018380Y-91647358D02*
X83018380Y-91522358D01*
X83161238Y-91611644D01*
X83256476Y-91694977D01*
X83304095Y-91772358D01*
X83018380Y-90629501D02*
X83018380Y-90986644D01*
X83494571Y-91081882D01*
X83446952Y-91040215D01*
X83399333Y-90962834D01*
X83399333Y-90784263D01*
X83446952Y-90718786D01*
X83494571Y-90689025D01*
X83589809Y-90665215D01*
X83827904Y-90694977D01*
X83923142Y-90742596D01*
X83970761Y-90784263D01*
X84018380Y-90861644D01*
X84018380Y-91040215D01*
X83970761Y-91105691D01*
X83923142Y-91135453D01*
X83018380Y-90379501D02*
X84018380Y-90254501D01*
X83018380Y-89879501D01*
X83866028Y-97736082D02*
X83866028Y-97164653D01*
X84246980Y-97497986D02*
X83485076Y-97402748D01*
X84246980Y-96462272D02*
X84246980Y-96890844D01*
X84246980Y-96676558D02*
X83246980Y-96551558D01*
X83389838Y-96640844D01*
X83485076Y-96724177D01*
X83532695Y-96801558D01*
X83246980Y-95658701D02*
X83246980Y-96015844D01*
X83723171Y-96111082D01*
X83675552Y-96069415D01*
X83627933Y-95992034D01*
X83627933Y-95813463D01*
X83675552Y-95747986D01*
X83723171Y-95718225D01*
X83818409Y-95694415D01*
X84056504Y-95724177D01*
X84151742Y-95771796D01*
X84199361Y-95813463D01*
X84246980Y-95890844D01*
X84246980Y-96069415D01*
X84199361Y-96134891D01*
X84151742Y-96164653D01*
X83246980Y-95408701D02*
X84246980Y-95283701D01*
X83246980Y-94908701D01*
D11*
X146862200Y-104952800D02*
G75*
G03*
X146862200Y-104952800I-355000J0D01*
G01*
D12*
X150089279Y-104952800D02*
G75*
G03*
X150089279Y-104952800I-162500J0D01*
G01*
D13*
X149926780Y-104952800D02*
G75*
G03*
X149926780Y-104952800I-3419580J0D01*
G01*
X86026171Y-107876780D02*
X86026171Y-106876780D01*
X86407123Y-106876780D01*
X86502361Y-106924400D01*
X86549980Y-106972019D01*
X86597600Y-107067257D01*
X86597600Y-107210114D01*
X86549980Y-107305352D01*
X86502361Y-107352971D01*
X86407123Y-107400590D01*
X86026171Y-107400590D01*
X87026171Y-107876780D02*
X87026171Y-106876780D01*
X87502361Y-107876780D02*
X87502361Y-106876780D01*
X87740457Y-106876780D01*
X87883314Y-106924400D01*
X87978552Y-107019638D01*
X88026171Y-107114876D01*
X88073790Y-107305352D01*
X88073790Y-107448209D01*
X88026171Y-107638685D01*
X87978552Y-107733923D01*
X87883314Y-107829161D01*
X87740457Y-107876780D01*
X87502361Y-107876780D01*
X89740457Y-107876780D02*
X89264266Y-107876780D01*
X89264266Y-106876780D01*
X90502361Y-107876780D02*
X90502361Y-107352971D01*
X90454742Y-107257733D01*
X90359504Y-107210114D01*
X90169028Y-107210114D01*
X90073790Y-107257733D01*
X90502361Y-107829161D02*
X90407123Y-107876780D01*
X90169028Y-107876780D01*
X90073790Y-107829161D01*
X90026171Y-107733923D01*
X90026171Y-107638685D01*
X90073790Y-107543447D01*
X90169028Y-107495828D01*
X90407123Y-107495828D01*
X90502361Y-107448209D01*
X90978552Y-107876780D02*
X90978552Y-106876780D01*
X90978552Y-107257733D02*
X91073790Y-107210114D01*
X91264266Y-107210114D01*
X91359504Y-107257733D01*
X91407123Y-107305352D01*
X91454742Y-107400590D01*
X91454742Y-107686304D01*
X91407123Y-107781542D01*
X91359504Y-107829161D01*
X91264266Y-107876780D01*
X91073790Y-107876780D01*
X90978552Y-107829161D01*
X92645219Y-107495828D02*
X93407123Y-107495828D01*
X94645219Y-107876780D02*
X94645219Y-106876780D01*
X95026171Y-106876780D01*
X95121409Y-106924400D01*
X95169028Y-106972019D01*
X95216647Y-107067257D01*
X95216647Y-107210114D01*
X95169028Y-107305352D01*
X95121409Y-107352971D01*
X95026171Y-107400590D01*
X94645219Y-107400590D01*
X96026171Y-107829161D02*
X95930933Y-107876780D01*
X95740457Y-107876780D01*
X95645219Y-107829161D01*
X95597600Y-107733923D01*
X95597600Y-107352971D01*
X95645219Y-107257733D01*
X95740457Y-107210114D01*
X95930933Y-107210114D01*
X96026171Y-107257733D01*
X96073790Y-107352971D01*
X96073790Y-107448209D01*
X95597600Y-107543447D01*
X96645219Y-107876780D02*
X96549980Y-107829161D01*
X96502361Y-107733923D01*
X96502361Y-106876780D01*
X96883314Y-107210114D02*
X97264266Y-107210114D01*
X97026171Y-106876780D02*
X97026171Y-107733923D01*
X97073790Y-107829161D01*
X97169028Y-107876780D01*
X97264266Y-107876780D01*
X97597600Y-107876780D02*
X97597600Y-107210114D01*
X97597600Y-106876780D02*
X97549980Y-106924400D01*
X97597600Y-106972019D01*
X97645219Y-106924400D01*
X97597600Y-106876780D01*
X97597600Y-106972019D01*
X98454742Y-107829161D02*
X98359504Y-107876780D01*
X98169028Y-107876780D01*
X98073790Y-107829161D01*
X98026171Y-107733923D01*
X98026171Y-107352971D01*
X98073790Y-107257733D01*
X98169028Y-107210114D01*
X98359504Y-107210114D01*
X98454742Y-107257733D01*
X98502361Y-107352971D01*
X98502361Y-107448209D01*
X98026171Y-107543447D01*
X98930933Y-107876780D02*
X98930933Y-107210114D01*
X98930933Y-107400590D02*
X98978552Y-107305352D01*
X99026171Y-107257733D01*
X99121409Y-107210114D01*
X99216647Y-107210114D01*
X100311885Y-107876780D02*
X100311885Y-106876780D01*
X100549980Y-106876780D01*
X100692838Y-106924400D01*
X100788076Y-107019638D01*
X100835695Y-107114876D01*
X100883314Y-107305352D01*
X100883314Y-107448209D01*
X100835695Y-107638685D01*
X100788076Y-107733923D01*
X100692838Y-107829161D01*
X100549980Y-107876780D01*
X100311885Y-107876780D01*
X101311885Y-107876780D02*
X101311885Y-107210114D01*
X101311885Y-107400590D02*
X101359504Y-107305352D01*
X101407123Y-107257733D01*
X101502361Y-107210114D01*
X101597600Y-107210114D01*
X101930933Y-107876780D02*
X101930933Y-107210114D01*
X101930933Y-106876780D02*
X101883314Y-106924400D01*
X101930933Y-106972019D01*
X101978552Y-106924400D01*
X101930933Y-106876780D01*
X101930933Y-106972019D01*
X102311885Y-107210114D02*
X102549980Y-107876780D01*
X102788076Y-107210114D01*
X103549980Y-107829161D02*
X103454742Y-107876780D01*
X103264266Y-107876780D01*
X103169028Y-107829161D01*
X103121409Y-107733923D01*
X103121409Y-107352971D01*
X103169028Y-107257733D01*
X103264266Y-107210114D01*
X103454742Y-107210114D01*
X103549980Y-107257733D01*
X103597600Y-107352971D01*
X103597600Y-107448209D01*
X103121409Y-107543447D01*
X104026171Y-107876780D02*
X104026171Y-107210114D01*
X104026171Y-107400590D02*
X104073790Y-107305352D01*
X104121409Y-107257733D01*
X104216647Y-107210114D01*
X104311885Y-107210114D01*
X83930933Y-109486780D02*
X83930933Y-108486780D01*
X84264266Y-109201066D01*
X84597600Y-108486780D01*
X84597600Y-109486780D01*
X85502361Y-109439161D02*
X85407123Y-109486780D01*
X85216647Y-109486780D01*
X85121409Y-109439161D01*
X85073790Y-109391542D01*
X85026171Y-109296304D01*
X85026171Y-109010590D01*
X85073790Y-108915352D01*
X85121409Y-108867733D01*
X85216647Y-108820114D01*
X85407123Y-108820114D01*
X85502361Y-108867733D01*
X86454742Y-108534400D02*
X86359504Y-108486780D01*
X86216647Y-108486780D01*
X86073790Y-108534400D01*
X85978552Y-108629638D01*
X85930933Y-108724876D01*
X85883314Y-108915352D01*
X85883314Y-109058209D01*
X85930933Y-109248685D01*
X85978552Y-109343923D01*
X86073790Y-109439161D01*
X86216647Y-109486780D01*
X86311885Y-109486780D01*
X86454742Y-109439161D01*
X86502361Y-109391542D01*
X86502361Y-109058209D01*
X86311885Y-109058209D01*
X86930933Y-109486780D02*
X86930933Y-108820114D01*
X86930933Y-108486780D02*
X86883314Y-108534400D01*
X86930933Y-108582019D01*
X86978552Y-108534400D01*
X86930933Y-108486780D01*
X86930933Y-108582019D01*
X87549980Y-109486780D02*
X87454742Y-109439161D01*
X87407123Y-109343923D01*
X87407123Y-108486780D01*
X88073790Y-109486780D02*
X87978552Y-109439161D01*
X87930933Y-109343923D01*
X87930933Y-108486780D01*
X89216647Y-108486780D02*
X89216647Y-109296304D01*
X89264266Y-109391542D01*
X89311885Y-109439161D01*
X89407123Y-109486780D01*
X89597600Y-109486780D01*
X89692838Y-109439161D01*
X89740457Y-109391542D01*
X89788076Y-109296304D01*
X89788076Y-108486780D01*
X90264266Y-108820114D02*
X90264266Y-109486780D01*
X90264266Y-108915352D02*
X90311885Y-108867733D01*
X90407123Y-108820114D01*
X90549980Y-108820114D01*
X90645219Y-108867733D01*
X90692838Y-108962971D01*
X90692838Y-109486780D01*
X91169028Y-109486780D02*
X91169028Y-108820114D01*
X91169028Y-108486780D02*
X91121409Y-108534400D01*
X91169028Y-108582019D01*
X91216647Y-108534400D01*
X91169028Y-108486780D01*
X91169028Y-108582019D01*
X91549980Y-108820114D02*
X91788076Y-109486780D01*
X92026171Y-108820114D01*
X92788076Y-109439161D02*
X92692838Y-109486780D01*
X92502361Y-109486780D01*
X92407123Y-109439161D01*
X92359504Y-109343923D01*
X92359504Y-108962971D01*
X92407123Y-108867733D01*
X92502361Y-108820114D01*
X92692838Y-108820114D01*
X92788076Y-108867733D01*
X92835695Y-108962971D01*
X92835695Y-109058209D01*
X92359504Y-109153447D01*
X93264266Y-109486780D02*
X93264266Y-108820114D01*
X93264266Y-109010590D02*
X93311885Y-108915352D01*
X93359504Y-108867733D01*
X93454742Y-108820114D01*
X93549980Y-108820114D01*
X93835695Y-109439161D02*
X93930933Y-109486780D01*
X94121409Y-109486780D01*
X94216647Y-109439161D01*
X94264266Y-109343923D01*
X94264266Y-109296304D01*
X94216647Y-109201066D01*
X94121409Y-109153447D01*
X93978552Y-109153447D01*
X93883314Y-109105828D01*
X93835695Y-109010590D01*
X93835695Y-108962971D01*
X93883314Y-108867733D01*
X93978552Y-108820114D01*
X94121409Y-108820114D01*
X94216647Y-108867733D01*
X94692838Y-109486780D02*
X94692838Y-108820114D01*
X94692838Y-108486780D02*
X94645219Y-108534400D01*
X94692838Y-108582019D01*
X94740457Y-108534400D01*
X94692838Y-108486780D01*
X94692838Y-108582019D01*
X95026171Y-108820114D02*
X95407123Y-108820114D01*
X95169028Y-108486780D02*
X95169028Y-109343923D01*
X95216647Y-109439161D01*
X95311885Y-109486780D01*
X95407123Y-109486780D01*
X95645219Y-108820114D02*
X95883314Y-109486780D01*
X96121409Y-108820114D02*
X95883314Y-109486780D01*
X95788076Y-109724876D01*
X95740457Y-109772495D01*
X95645219Y-109820114D01*
X97264266Y-109105828D02*
X98026171Y-109105828D01*
X99264266Y-109486780D02*
X99264266Y-108486780D01*
X99645219Y-108486780D01*
X99740457Y-108534400D01*
X99788076Y-108582019D01*
X99835695Y-108677257D01*
X99835695Y-108820114D01*
X99788076Y-108915352D01*
X99740457Y-108962971D01*
X99645219Y-109010590D01*
X99264266Y-109010590D01*
X100264266Y-109486780D02*
X100264266Y-108486780D01*
X100264266Y-108962971D02*
X100835695Y-108962971D01*
X100835695Y-109486780D02*
X100835695Y-108486780D01*
X101502361Y-109010590D02*
X101502361Y-109486780D01*
X101169028Y-108486780D02*
X101502361Y-109010590D01*
X101835695Y-108486780D01*
X102121409Y-109439161D02*
X102264266Y-109486780D01*
X102502361Y-109486780D01*
X102597600Y-109439161D01*
X102645219Y-109391542D01*
X102692838Y-109296304D01*
X102692838Y-109201066D01*
X102645219Y-109105828D01*
X102597600Y-109058209D01*
X102502361Y-109010590D01*
X102311885Y-108962971D01*
X102216647Y-108915352D01*
X102169028Y-108867733D01*
X102121409Y-108772495D01*
X102121409Y-108677257D01*
X102169028Y-108582019D01*
X102216647Y-108534400D01*
X102311885Y-108486780D01*
X102549980Y-108486780D01*
X102692838Y-108534400D01*
X103788076Y-108486780D02*
X104407123Y-108486780D01*
X104073790Y-108867733D01*
X104216647Y-108867733D01*
X104311885Y-108915352D01*
X104359504Y-108962971D01*
X104407123Y-109058209D01*
X104407123Y-109296304D01*
X104359504Y-109391542D01*
X104311885Y-109439161D01*
X104216647Y-109486780D01*
X103930933Y-109486780D01*
X103835695Y-109439161D01*
X103788076Y-109391542D01*
X104740457Y-108486780D02*
X105359504Y-108486780D01*
X105026171Y-108867733D01*
X105169028Y-108867733D01*
X105264266Y-108915352D01*
X105311885Y-108962971D01*
X105359504Y-109058209D01*
X105359504Y-109296304D01*
X105311885Y-109391542D01*
X105264266Y-109439161D01*
X105169028Y-109486780D01*
X104883314Y-109486780D01*
X104788076Y-109439161D01*
X104740457Y-109391542D01*
X105835695Y-109486780D02*
X106026171Y-109486780D01*
X106121409Y-109439161D01*
X106169028Y-109391542D01*
X106264266Y-109248685D01*
X106311885Y-109058209D01*
X106311885Y-108677257D01*
X106264266Y-108582019D01*
X106216647Y-108534400D01*
X106121409Y-108486780D01*
X105930933Y-108486780D01*
X105835695Y-108534400D01*
X105788076Y-108582019D01*
X105740457Y-108677257D01*
X105740457Y-108915352D01*
X105788076Y-109010590D01*
X105835695Y-109058209D01*
X105930933Y-109105828D01*
X106121409Y-109105828D01*
X106216647Y-109058209D01*
X106264266Y-109010590D01*
X106311885Y-108915352D01*
%TO.C,U1*%
X123698095Y-89852380D02*
X123698095Y-90661904D01*
X123745714Y-90757142D01*
X123793333Y-90804761D01*
X123888571Y-90852380D01*
X124079047Y-90852380D01*
X124174285Y-90804761D01*
X124221904Y-90757142D01*
X124269523Y-90661904D01*
X124269523Y-89852380D01*
X125269523Y-90852380D02*
X124698095Y-90852380D01*
X124983809Y-90852380D02*
X124983809Y-89852380D01*
X124888571Y-89995238D01*
X124793333Y-90090476D01*
X124698095Y-90138095D01*
%TO.C,R3*%
X124691580Y-83859666D02*
X124215390Y-84193000D01*
X124691580Y-84431095D02*
X123691580Y-84431095D01*
X123691580Y-84050142D01*
X123739200Y-83954904D01*
X123786819Y-83907285D01*
X123882057Y-83859666D01*
X124024914Y-83859666D01*
X124120152Y-83907285D01*
X124167771Y-83954904D01*
X124215390Y-84050142D01*
X124215390Y-84431095D01*
X123691580Y-83526333D02*
X123691580Y-82907285D01*
X124072533Y-83240619D01*
X124072533Y-83097761D01*
X124120152Y-83002523D01*
X124167771Y-82954904D01*
X124263009Y-82907285D01*
X124501104Y-82907285D01*
X124596342Y-82954904D01*
X124643961Y-83002523D01*
X124691580Y-83097761D01*
X124691580Y-83383476D01*
X124643961Y-83478714D01*
X124596342Y-83526333D01*
%TO.C,R9*%
X105065533Y-90858780D02*
X104732200Y-90382590D01*
X104494104Y-90858780D02*
X104494104Y-89858780D01*
X104875057Y-89858780D01*
X104970295Y-89906400D01*
X105017914Y-89954019D01*
X105065533Y-90049257D01*
X105065533Y-90192114D01*
X105017914Y-90287352D01*
X104970295Y-90334971D01*
X104875057Y-90382590D01*
X104494104Y-90382590D01*
X105541723Y-90858780D02*
X105732200Y-90858780D01*
X105827438Y-90811161D01*
X105875057Y-90763542D01*
X105970295Y-90620685D01*
X106017914Y-90430209D01*
X106017914Y-90049257D01*
X105970295Y-89954019D01*
X105922676Y-89906400D01*
X105827438Y-89858780D01*
X105636961Y-89858780D01*
X105541723Y-89906400D01*
X105494104Y-89954019D01*
X105446485Y-90049257D01*
X105446485Y-90287352D01*
X105494104Y-90382590D01*
X105541723Y-90430209D01*
X105636961Y-90477828D01*
X105827438Y-90477828D01*
X105922676Y-90430209D01*
X105970295Y-90382590D01*
X106017914Y-90287352D01*
%TO.C,R8*%
X137772580Y-87669666D02*
X137296390Y-88003000D01*
X137772580Y-88241095D02*
X136772580Y-88241095D01*
X136772580Y-87860142D01*
X136820200Y-87764904D01*
X136867819Y-87717285D01*
X136963057Y-87669666D01*
X137105914Y-87669666D01*
X137201152Y-87717285D01*
X137248771Y-87764904D01*
X137296390Y-87860142D01*
X137296390Y-88241095D01*
X137201152Y-87098238D02*
X137153533Y-87193476D01*
X137105914Y-87241095D01*
X137010676Y-87288714D01*
X136963057Y-87288714D01*
X136867819Y-87241095D01*
X136820200Y-87193476D01*
X136772580Y-87098238D01*
X136772580Y-86907761D01*
X136820200Y-86812523D01*
X136867819Y-86764904D01*
X136963057Y-86717285D01*
X137010676Y-86717285D01*
X137105914Y-86764904D01*
X137153533Y-86812523D01*
X137201152Y-86907761D01*
X137201152Y-87098238D01*
X137248771Y-87193476D01*
X137296390Y-87241095D01*
X137391628Y-87288714D01*
X137582104Y-87288714D01*
X137677342Y-87241095D01*
X137724961Y-87193476D01*
X137772580Y-87098238D01*
X137772580Y-86907761D01*
X137724961Y-86812523D01*
X137677342Y-86764904D01*
X137582104Y-86717285D01*
X137391628Y-86717285D01*
X137296390Y-86764904D01*
X137248771Y-86812523D01*
X137201152Y-86907761D01*
%TO.C,R7*%
X139787333Y-77889180D02*
X139454000Y-77412990D01*
X139215904Y-77889180D02*
X139215904Y-76889180D01*
X139596857Y-76889180D01*
X139692095Y-76936800D01*
X139739714Y-76984419D01*
X139787333Y-77079657D01*
X139787333Y-77222514D01*
X139739714Y-77317752D01*
X139692095Y-77365371D01*
X139596857Y-77412990D01*
X139215904Y-77412990D01*
X140120666Y-76889180D02*
X140787333Y-76889180D01*
X140358761Y-77889180D01*
%TO.C,R6*%
X142024180Y-93968866D02*
X141547990Y-94302200D01*
X142024180Y-94540295D02*
X141024180Y-94540295D01*
X141024180Y-94159342D01*
X141071800Y-94064104D01*
X141119419Y-94016485D01*
X141214657Y-93968866D01*
X141357514Y-93968866D01*
X141452752Y-94016485D01*
X141500371Y-94064104D01*
X141547990Y-94159342D01*
X141547990Y-94540295D01*
X141024180Y-93111723D02*
X141024180Y-93302200D01*
X141071800Y-93397438D01*
X141119419Y-93445057D01*
X141262276Y-93540295D01*
X141452752Y-93587914D01*
X141833704Y-93587914D01*
X141928942Y-93540295D01*
X141976561Y-93492676D01*
X142024180Y-93397438D01*
X142024180Y-93206961D01*
X141976561Y-93111723D01*
X141928942Y-93064104D01*
X141833704Y-93016485D01*
X141595609Y-93016485D01*
X141500371Y-93064104D01*
X141452752Y-93111723D01*
X141405133Y-93206961D01*
X141405133Y-93397438D01*
X141452752Y-93492676D01*
X141500371Y-93540295D01*
X141595609Y-93587914D01*
%TO.C,R4*%
X103770133Y-81867180D02*
X103436800Y-81390990D01*
X103198704Y-81867180D02*
X103198704Y-80867180D01*
X103579657Y-80867180D01*
X103674895Y-80914800D01*
X103722514Y-80962419D01*
X103770133Y-81057657D01*
X103770133Y-81200514D01*
X103722514Y-81295752D01*
X103674895Y-81343371D01*
X103579657Y-81390990D01*
X103198704Y-81390990D01*
X104627276Y-81200514D02*
X104627276Y-81867180D01*
X104389180Y-80819561D02*
X104151085Y-81533847D01*
X104770133Y-81533847D01*
%TO.C,R2*%
X132362380Y-84012066D02*
X131886190Y-84345400D01*
X132362380Y-84583495D02*
X131362380Y-84583495D01*
X131362380Y-84202542D01*
X131410000Y-84107304D01*
X131457619Y-84059685D01*
X131552857Y-84012066D01*
X131695714Y-84012066D01*
X131790952Y-84059685D01*
X131838571Y-84107304D01*
X131886190Y-84202542D01*
X131886190Y-84583495D01*
X131457619Y-83631114D02*
X131410000Y-83583495D01*
X131362380Y-83488257D01*
X131362380Y-83250161D01*
X131410000Y-83154923D01*
X131457619Y-83107304D01*
X131552857Y-83059685D01*
X131648095Y-83059685D01*
X131790952Y-83107304D01*
X132362380Y-83678733D01*
X132362380Y-83059685D01*
%TO.C,R1*%
X116470133Y-73748980D02*
X116136800Y-73272790D01*
X115898704Y-73748980D02*
X115898704Y-72748980D01*
X116279657Y-72748980D01*
X116374895Y-72796600D01*
X116422514Y-72844219D01*
X116470133Y-72939457D01*
X116470133Y-73082314D01*
X116422514Y-73177552D01*
X116374895Y-73225171D01*
X116279657Y-73272790D01*
X115898704Y-73272790D01*
X117422514Y-73748980D02*
X116851085Y-73748980D01*
X117136800Y-73748980D02*
X117136800Y-72748980D01*
X117041561Y-72891838D01*
X116946323Y-72987076D01*
X116851085Y-73034695D01*
%TO.C,C1*%
X135097142Y-99226666D02*
X135144761Y-99274285D01*
X135192380Y-99417142D01*
X135192380Y-99512380D01*
X135144761Y-99655238D01*
X135049523Y-99750476D01*
X134954285Y-99798095D01*
X134763809Y-99845714D01*
X134620952Y-99845714D01*
X134430476Y-99798095D01*
X134335238Y-99750476D01*
X134240000Y-99655238D01*
X134192380Y-99512380D01*
X134192380Y-99417142D01*
X134240000Y-99274285D01*
X134287619Y-99226666D01*
X135192380Y-98274285D02*
X135192380Y-98845714D01*
X135192380Y-98560000D02*
X134192380Y-98560000D01*
X134335238Y-98655238D01*
X134430476Y-98750476D01*
X134478095Y-98845714D01*
%TO.C,J2*%
X152066666Y-93432380D02*
X152066666Y-94146666D01*
X152019047Y-94289523D01*
X151923809Y-94384761D01*
X151780952Y-94432380D01*
X151685714Y-94432380D01*
X152495238Y-93527619D02*
X152542857Y-93480000D01*
X152638095Y-93432380D01*
X152876190Y-93432380D01*
X152971428Y-93480000D01*
X153019047Y-93527619D01*
X153066666Y-93622857D01*
X153066666Y-93718095D01*
X153019047Y-93860952D01*
X152447619Y-94432380D01*
X153066666Y-94432380D01*
X149312380Y-79853500D02*
X149550476Y-79853500D01*
X149455238Y-80091595D02*
X149550476Y-79853500D01*
X149455238Y-79615404D01*
X149740952Y-79996357D02*
X149550476Y-79853500D01*
X149740952Y-79710642D01*
%TO.C,Q3*%
X115474761Y-80807619D02*
X115379523Y-80760000D01*
X115284285Y-80664761D01*
X115141428Y-80521904D01*
X115046190Y-80474285D01*
X114950952Y-80474285D01*
X114998571Y-80712380D02*
X114903333Y-80664761D01*
X114808095Y-80569523D01*
X114760476Y-80379047D01*
X114760476Y-80045714D01*
X114808095Y-79855238D01*
X114903333Y-79760000D01*
X114998571Y-79712380D01*
X115189047Y-79712380D01*
X115284285Y-79760000D01*
X115379523Y-79855238D01*
X115427142Y-80045714D01*
X115427142Y-80379047D01*
X115379523Y-80569523D01*
X115284285Y-80664761D01*
X115189047Y-80712380D01*
X114998571Y-80712380D01*
X115760476Y-79712380D02*
X116379523Y-79712380D01*
X116046190Y-80093333D01*
X116189047Y-80093333D01*
X116284285Y-80140952D01*
X116331904Y-80188571D01*
X116379523Y-80283809D01*
X116379523Y-80521904D01*
X116331904Y-80617142D01*
X116284285Y-80664761D01*
X116189047Y-80712380D01*
X115903333Y-80712380D01*
X115808095Y-80664761D01*
X115760476Y-80617142D01*
%TO.C,J1*%
X87593466Y-101019079D02*
X87593466Y-101733365D01*
X87545847Y-101876222D01*
X87450609Y-101971460D01*
X87307752Y-102019079D01*
X87212514Y-102019079D01*
X88593466Y-102019079D02*
X88022038Y-102019079D01*
X88307752Y-102019079D02*
X88307752Y-101019079D01*
X88212514Y-101161937D01*
X88117276Y-101257175D01*
X88022038Y-101304794D01*
X87379180Y-76326699D02*
X87617276Y-76326699D01*
X87522038Y-76564794D02*
X87617276Y-76326699D01*
X87522038Y-76088603D01*
X87807752Y-76469556D02*
X87617276Y-76326699D01*
X87807752Y-76183841D01*
%TO.C,C3*%
X126807933Y-107265742D02*
X126760314Y-107313361D01*
X126617457Y-107360980D01*
X126522219Y-107360980D01*
X126379361Y-107313361D01*
X126284123Y-107218123D01*
X126236504Y-107122885D01*
X126188885Y-106932409D01*
X126188885Y-106789552D01*
X126236504Y-106599076D01*
X126284123Y-106503838D01*
X126379361Y-106408600D01*
X126522219Y-106360980D01*
X126617457Y-106360980D01*
X126760314Y-106408600D01*
X126807933Y-106456219D01*
X127141266Y-106360980D02*
X127760314Y-106360980D01*
X127426980Y-106741933D01*
X127569838Y-106741933D01*
X127665076Y-106789552D01*
X127712695Y-106837171D01*
X127760314Y-106932409D01*
X127760314Y-107170504D01*
X127712695Y-107265742D01*
X127665076Y-107313361D01*
X127569838Y-107360980D01*
X127284123Y-107360980D01*
X127188885Y-107313361D01*
X127141266Y-107265742D01*
%TO.C,C2*%
X115504933Y-91891742D02*
X115457314Y-91939361D01*
X115314457Y-91986980D01*
X115219219Y-91986980D01*
X115076361Y-91939361D01*
X114981123Y-91844123D01*
X114933504Y-91748885D01*
X114885885Y-91558409D01*
X114885885Y-91415552D01*
X114933504Y-91225076D01*
X114981123Y-91129838D01*
X115076361Y-91034600D01*
X115219219Y-90986980D01*
X115314457Y-90986980D01*
X115457314Y-91034600D01*
X115504933Y-91082219D01*
X115885885Y-91082219D02*
X115933504Y-91034600D01*
X116028742Y-90986980D01*
X116266838Y-90986980D01*
X116362076Y-91034600D01*
X116409695Y-91082219D01*
X116457314Y-91177457D01*
X116457314Y-91272695D01*
X116409695Y-91415552D01*
X115838266Y-91986980D01*
X116457314Y-91986980D01*
D14*
%TO.C,U1*%
X121850000Y-95830000D02*
X121850000Y-102300000D01*
X132130000Y-98065000D02*
X132130000Y-95830000D01*
X132130000Y-95830000D02*
X121850000Y-95830000D01*
X132130000Y-102300000D02*
X132130000Y-100065000D01*
X121850000Y-102300000D02*
X132130000Y-102300000D01*
X132130000Y-98065000D02*
G75*
G03*
X132130000Y-100065000I0J-1000000D01*
G01*
%TO.C,R3*%
X123239200Y-80423000D02*
X120499200Y-80423000D01*
X120499200Y-80423000D02*
X120499200Y-86963000D01*
X120499200Y-86963000D02*
X123239200Y-86963000D01*
X123239200Y-86963000D02*
X123239200Y-80423000D01*
X121869200Y-79653000D02*
X121869200Y-80423000D01*
X121869200Y-87733000D02*
X121869200Y-86963000D01*
%TO.C,R9*%
X108502200Y-89406400D02*
X108502200Y-86666400D01*
X108502200Y-86666400D02*
X101962200Y-86666400D01*
X101962200Y-86666400D02*
X101962200Y-89406400D01*
X101962200Y-89406400D02*
X108502200Y-89406400D01*
X109272200Y-88036400D02*
X108502200Y-88036400D01*
X101192200Y-88036400D02*
X101962200Y-88036400D01*
%TO.C,R8*%
X136320200Y-84233000D02*
X133580200Y-84233000D01*
X133580200Y-84233000D02*
X133580200Y-90773000D01*
X133580200Y-90773000D02*
X136320200Y-90773000D01*
X136320200Y-90773000D02*
X136320200Y-84233000D01*
X134950200Y-83463000D02*
X134950200Y-84233000D01*
X134950200Y-91543000D02*
X134950200Y-90773000D01*
%TO.C,R7*%
X136684000Y-78436800D02*
X136684000Y-81176800D01*
X136684000Y-81176800D02*
X143224000Y-81176800D01*
X143224000Y-81176800D02*
X143224000Y-78436800D01*
X143224000Y-78436800D02*
X136684000Y-78436800D01*
X135914000Y-79806800D02*
X136684000Y-79806800D01*
X143994000Y-79806800D02*
X143224000Y-79806800D01*
%TO.C,R6*%
X142571800Y-97072200D02*
X145311800Y-97072200D01*
X145311800Y-97072200D02*
X145311800Y-90532200D01*
X145311800Y-90532200D02*
X142571800Y-90532200D01*
X142571800Y-90532200D02*
X142571800Y-97072200D01*
X143941800Y-97842200D02*
X143941800Y-97072200D01*
X143941800Y-89762200D02*
X143941800Y-90532200D01*
%TO.C,R4*%
X107206800Y-80414800D02*
X107206800Y-77674800D01*
X107206800Y-77674800D02*
X100666800Y-77674800D01*
X100666800Y-77674800D02*
X100666800Y-80414800D01*
X100666800Y-80414800D02*
X107206800Y-80414800D01*
X107976800Y-79044800D02*
X107206800Y-79044800D01*
X99896800Y-79044800D02*
X100666800Y-79044800D01*
%TO.C,R2*%
X130910000Y-80575400D02*
X128170000Y-80575400D01*
X128170000Y-80575400D02*
X128170000Y-87115400D01*
X128170000Y-87115400D02*
X130910000Y-87115400D01*
X130910000Y-87115400D02*
X130910000Y-80575400D01*
X129540000Y-79805400D02*
X129540000Y-80575400D01*
X129540000Y-87885400D02*
X129540000Y-87115400D01*
%TO.C,R1*%
X113366800Y-74296600D02*
X113366800Y-77036600D01*
X113366800Y-77036600D02*
X119906800Y-77036600D01*
X119906800Y-77036600D02*
X119906800Y-74296600D01*
X119906800Y-74296600D02*
X113366800Y-74296600D01*
X112596800Y-75666600D02*
X113366800Y-75666600D01*
X120676800Y-75666600D02*
X119906800Y-75666600D01*
%TO.C,C1*%
X137160000Y-96350000D02*
X137160000Y-97040000D01*
X135740000Y-97040000D02*
X135740000Y-101080000D01*
X137160000Y-101770000D02*
X137160000Y-101080000D01*
X138580000Y-97040000D02*
X135740000Y-97040000D01*
X135740000Y-101080000D02*
X138580000Y-101080000D01*
X138580000Y-101080000D02*
X138580000Y-97040000D01*
%TO.C,J2*%
X157027000Y-92480501D02*
X157027000Y-77226500D01*
X157027000Y-77226500D02*
X147773000Y-77226500D01*
X147773000Y-77226500D02*
X147773000Y-92480501D01*
X147773000Y-92480501D02*
X157027000Y-92480501D01*
X153281000Y-75448500D02*
G75*
G03*
X153281000Y-75448500I-381000J0D01*
G01*
%TO.C,Q3*%
X113770000Y-85670000D02*
X117370000Y-85670000D01*
X115570000Y-81219999D02*
G75*
G03*
X113731522Y-85658478I0J-2600001D01*
G01*
X117408478Y-85658478D02*
G75*
G03*
X115570000Y-81220000I-1838478J1838478D01*
G01*
%TO.C,J1*%
X90847800Y-71921700D02*
G75*
G03*
X90847800Y-71921700I-381000J0D01*
G01*
X85339800Y-73699699D02*
X85339800Y-98953700D01*
X85339800Y-98953700D02*
X94593800Y-98953700D01*
X94593800Y-73699699D02*
X85339800Y-73699699D01*
X94593800Y-98953700D02*
X94593800Y-73699699D01*
%TO.C,C3*%
X128994600Y-108028600D02*
X124954600Y-108028600D01*
X128994600Y-110868600D02*
X128994600Y-108028600D01*
X124954600Y-110868600D02*
X128994600Y-110868600D01*
X129684600Y-109448600D02*
X128994600Y-109448600D01*
X124954600Y-108028600D02*
X124954600Y-110868600D01*
X124264600Y-109448600D02*
X124954600Y-109448600D01*
%TO.C,C2*%
X117691600Y-92534600D02*
X113651600Y-92534600D01*
X118381600Y-93954600D02*
X117691600Y-93954600D01*
X113651600Y-92534600D02*
X113651600Y-95374600D01*
X117691600Y-95374600D02*
X117691600Y-92534600D01*
X112961600Y-93954600D02*
X113651600Y-93954600D01*
X113651600Y-95374600D02*
X117691600Y-95374600D01*
%TD*%
M02*
