%TF.GenerationSoftware,KiCad,Pcbnew,(6.0.0)*%
%TF.CreationDate,2022-01-31T18:57:51-05:00*%
%TF.ProjectId,PID_electronics,5049445f-656c-4656-9374-726f6e696373,rev?*%
%TF.SameCoordinates,Original*%
%TF.FileFunction,Copper,L2,Bot*%
%TF.FilePolarity,Positive*%
%FSLAX46Y46*%
G04 Gerber Fmt 4.6, Leading zero omitted, Abs format (unit mm)*
G04 Created by KiCad (PCBNEW (6.0.0)) date 2022-01-31 18:57:51*
%MOMM*%
%LPD*%
G01*
G04 APERTURE LIST*
%TA.AperFunction,ComponentPad*%
%ADD10C,1.600000*%
%TD*%
%TA.AperFunction,ComponentPad*%
%ADD11O,1.600000X1.600000*%
%TD*%
%TA.AperFunction,ComponentPad*%
%ADD12R,2.000000X2.000000*%
%TD*%
%TA.AperFunction,ComponentPad*%
%ADD13C,2.000000*%
%TD*%
%TA.AperFunction,ComponentPad*%
%ADD14C,1.803400*%
%TD*%
%TA.AperFunction,ComponentPad*%
%ADD15R,1.050000X1.500000*%
%TD*%
%TA.AperFunction,ComponentPad*%
%ADD16O,1.050000X1.500000*%
%TD*%
%TA.AperFunction,ComponentPad*%
%ADD17O,1.600000X2.400000*%
%TD*%
%TA.AperFunction,ComponentPad*%
%ADD18R,1.600000X2.400000*%
%TD*%
G04 APERTURE END LIST*
D10*
%TO.P,R1,1*%
%TO.N,Net-(J1-Pad1)*%
X120624600Y-77368400D03*
D11*
%TO.P,R1,2*%
%TO.N,Net-(R1-Pad2)*%
X130784600Y-77368400D03*
%TD*%
D10*
%TO.P,R2,1*%
%TO.N,Net-(R1-Pad2)*%
X130784600Y-80467200D03*
D11*
%TO.P,R2,2*%
%TO.N,Net-(R2-Pad2)*%
X130784600Y-90627200D03*
%TD*%
D10*
%TO.P,R10,1*%
%TO.N,Net-(J2-Pad1)*%
X155143200Y-95656400D03*
D11*
%TO.P,R10,2*%
%TO.N,Net-(R10-Pad2)*%
X155143200Y-105816400D03*
%TD*%
D12*
%TO.P,C6,1*%
%TO.N,Net-(R10-Pad2)*%
X148620877Y-105791000D03*
D13*
%TO.P,C6,2*%
%TO.N,GNDREF*%
X143620877Y-105791000D03*
%TD*%
D12*
%TO.P,C5,1*%
%TO.N,+15V*%
X102331123Y-107340400D03*
D13*
%TO.P,C5,2*%
%TO.N,GNDREF*%
X107331123Y-107340400D03*
%TD*%
D12*
%TO.P,C4,1*%
%TO.N,GNDREF*%
X94798277Y-107315000D03*
D13*
%TO.P,C4,2*%
%TO.N,-15V*%
X89798277Y-107315000D03*
%TD*%
D10*
%TO.P,C1,1*%
%TO.N,Net-(C1-Pad1)*%
X137160000Y-102810000D03*
D11*
%TO.P,C1,2*%
%TO.N,Net-(C1-Pad2)*%
X137160000Y-95310000D03*
%TD*%
D14*
%TO.P,J2,1,Pin_1*%
%TO.N,Net-(J2-Pad1)*%
X152900000Y-79853500D03*
%TO.P,J2,2,Pin_2*%
%TO.N,Net-(J2-Pad2)*%
X152900000Y-84853500D03*
%TO.P,J2,3,Pin_3*%
%TO.N,GNDREF*%
X152900000Y-89853500D03*
%TD*%
D15*
%TO.P,Q3,1,S*%
%TO.N,GNDREF*%
X114300000Y-83820000D03*
D16*
%TO.P,Q3,2,G*%
%TO.N,Net-(J1-Pad2)*%
X115570000Y-83820000D03*
%TO.P,Q3,3,D*%
%TO.N,Net-(Q3-Pad3)*%
X116840000Y-83820000D03*
%TD*%
D14*
%TO.P,J1,5,Pin_5*%
%TO.N,+15V*%
X93337000Y-96148900D03*
%TO.P,J1,4,Pin_4*%
%TO.N,-15V*%
X93337000Y-91148900D03*
%TO.P,J1,3,Pin_3*%
%TO.N,GNDREF*%
X93337000Y-86148899D03*
%TO.P,J1,2,Pin_2*%
%TO.N,Net-(J1-Pad2)*%
X93337000Y-81148899D03*
%TO.P,J1,1,Pin_1*%
%TO.N,Net-(J1-Pad1)*%
X93337000Y-76148899D03*
%TD*%
D10*
%TO.P,R7,1*%
%TO.N,Net-(C1-Pad2)*%
X134874000Y-79806800D03*
D11*
%TO.P,R7,2*%
%TO.N,Net-(J2-Pad1)*%
X145034000Y-79806800D03*
%TD*%
%TO.P,C3,2*%
%TO.N,GNDREF*%
X123300800Y-108534200D03*
D10*
%TO.P,C3,1*%
%TO.N,+15V*%
X130800800Y-108534200D03*
%TD*%
%TO.P,R4,1*%
%TO.N,Net-(J1-Pad1)*%
X110210600Y-78587600D03*
D11*
%TO.P,R4,2*%
%TO.N,GNDREF*%
X100050600Y-78587600D03*
%TD*%
D10*
%TO.P,R8,1*%
%TO.N,Net-(C1-Pad2)*%
X134950200Y-82423000D03*
D11*
%TO.P,R8,2*%
%TO.N,GNDREF*%
X134950200Y-92583000D03*
%TD*%
D17*
%TO.P,U1,8,V+*%
%TO.N,+15V*%
X130800000Y-104145000D03*
%TO.P,U1,7*%
%TO.N,Net-(C1-Pad1)*%
X128260000Y-104145000D03*
%TO.P,U1,6,-*%
%TO.N,Net-(C1-Pad2)*%
X125720000Y-104145000D03*
%TO.P,U1,5,+*%
%TO.N,Net-(R2-Pad2)*%
X123180000Y-104145000D03*
%TO.P,U1,4,V-*%
%TO.N,-15V*%
X123180000Y-93985000D03*
%TO.P,U1,3,+*%
%TO.N,Net-(Q3-Pad3)*%
X125720000Y-93985000D03*
%TO.P,U1,2,-*%
%TO.N,Net-(R1-Pad2)*%
X128260000Y-93985000D03*
D18*
%TO.P,U1,1*%
%TO.N,Net-(R2-Pad2)*%
X130800000Y-93985000D03*
%TD*%
D11*
%TO.P,C2,2*%
%TO.N,-15V*%
X119421600Y-93954600D03*
D10*
%TO.P,C2,1*%
%TO.N,GNDREF*%
X111921600Y-93954600D03*
%TD*%
%TO.P,R9,1*%
%TO.N,Net-(J1-Pad2)*%
X110312200Y-88036400D03*
D11*
%TO.P,R9,2*%
%TO.N,GNDREF*%
X100152200Y-88036400D03*
%TD*%
D10*
%TO.P,R3,1*%
%TO.N,Net-(J1-Pad1)*%
X125755400Y-81000600D03*
D11*
%TO.P,R3,2*%
%TO.N,Net-(Q3-Pad3)*%
X125755400Y-91160600D03*
%TD*%
D10*
%TO.P,R6,1*%
%TO.N,Net-(C1-Pad1)*%
X143941800Y-98882200D03*
D11*
%TO.P,R6,2*%
%TO.N,Net-(J2-Pad2)*%
X143941800Y-88722200D03*
%TD*%
%TA.AperFunction,Conductor*%
%TO.N,GNDREF*%
G36*
X159479078Y-71673780D02*
G01*
X159525607Y-71727404D01*
X159537028Y-71779897D01*
X159532323Y-79806800D01*
X159513795Y-111417011D01*
X159512372Y-113843874D01*
X159492330Y-113911983D01*
X159438647Y-113958444D01*
X159386372Y-113969800D01*
X84454373Y-113969800D01*
X84386252Y-113949798D01*
X84339759Y-113896142D01*
X84328373Y-113843726D01*
X84331008Y-109352933D01*
X113735622Y-109352933D01*
X113735775Y-109357321D01*
X113735775Y-109357327D01*
X113742279Y-109543557D01*
X113745425Y-109633658D01*
X113746187Y-109637981D01*
X113746188Y-109637988D01*
X113769198Y-109768484D01*
X113794202Y-109910287D01*
X113881003Y-110177435D01*
X114004140Y-110429902D01*
X114006595Y-110433541D01*
X114006598Y-110433547D01*
X114079690Y-110541910D01*
X114161215Y-110662776D01*
X114349171Y-110871522D01*
X114564350Y-111052079D01*
X114802564Y-111200931D01*
X115059175Y-111315182D01*
X115329190Y-111392607D01*
X115333540Y-111393218D01*
X115333543Y-111393219D01*
X115436490Y-111407687D01*
X115607352Y-111431700D01*
X115817946Y-111431700D01*
X115820132Y-111431547D01*
X115820136Y-111431547D01*
X116023627Y-111417318D01*
X116023632Y-111417317D01*
X116028012Y-111417011D01*
X116302770Y-111358609D01*
X116306899Y-111357106D01*
X116306903Y-111357105D01*
X116562581Y-111264046D01*
X116562585Y-111264044D01*
X116566726Y-111262537D01*
X116814742Y-111130664D01*
X116919696Y-111054411D01*
X117038429Y-110968147D01*
X117038432Y-110968144D01*
X117041992Y-110965558D01*
X117244052Y-110770431D01*
X117416988Y-110549082D01*
X117419184Y-110545278D01*
X117419189Y-110545271D01*
X117555235Y-110309631D01*
X117557436Y-110305819D01*
X117662662Y-110045376D01*
X117696344Y-109910287D01*
X117729553Y-109777093D01*
X117729554Y-109777088D01*
X117730617Y-109772824D01*
X117731318Y-109766161D01*
X117759519Y-109497836D01*
X117759519Y-109497833D01*
X117759978Y-109493467D01*
X117759825Y-109489073D01*
X117750329Y-109217139D01*
X117750328Y-109217133D01*
X117750175Y-109212742D01*
X117747128Y-109195457D01*
X117710592Y-108988253D01*
X117701398Y-108936113D01*
X117657407Y-108800722D01*
X122018073Y-108800722D01*
X122065564Y-108977961D01*
X122069310Y-108988253D01*
X122161386Y-109185711D01*
X122166869Y-109195207D01*
X122291828Y-109373667D01*
X122298884Y-109382075D01*
X122452925Y-109536116D01*
X122461333Y-109543172D01*
X122639793Y-109668131D01*
X122649289Y-109673614D01*
X122846747Y-109765690D01*
X122857039Y-109769436D01*
X123029303Y-109815594D01*
X123043399Y-109815258D01*
X123046800Y-109807316D01*
X123046800Y-109802167D01*
X123554800Y-109802167D01*
X123558773Y-109815698D01*
X123567322Y-109816927D01*
X123744561Y-109769436D01*
X123754853Y-109765690D01*
X123952311Y-109673614D01*
X123961807Y-109668131D01*
X124140267Y-109543172D01*
X124148675Y-109536116D01*
X124302716Y-109382075D01*
X124309772Y-109373667D01*
X124434731Y-109195207D01*
X124440214Y-109185711D01*
X124532290Y-108988253D01*
X124536036Y-108977961D01*
X124582194Y-108805697D01*
X124581858Y-108791601D01*
X124573916Y-108788200D01*
X123572915Y-108788200D01*
X123557676Y-108792675D01*
X123556471Y-108794065D01*
X123554800Y-108801748D01*
X123554800Y-109802167D01*
X123046800Y-109802167D01*
X123046800Y-108806315D01*
X123042325Y-108791076D01*
X123040935Y-108789871D01*
X123033252Y-108788200D01*
X122032833Y-108788200D01*
X122019302Y-108792173D01*
X122018073Y-108800722D01*
X117657407Y-108800722D01*
X117614597Y-108668965D01*
X117610544Y-108660654D01*
X117548867Y-108534200D01*
X129487302Y-108534200D01*
X129507257Y-108762287D01*
X129508681Y-108767600D01*
X129508681Y-108767602D01*
X129531477Y-108852675D01*
X129566516Y-108983443D01*
X129568839Y-108988424D01*
X129568839Y-108988425D01*
X129660951Y-109185962D01*
X129660954Y-109185967D01*
X129663277Y-109190949D01*
X129736702Y-109295811D01*
X129776700Y-109352933D01*
X129794602Y-109378500D01*
X129956500Y-109540398D01*
X129961008Y-109543555D01*
X129961011Y-109543557D01*
X130039189Y-109598298D01*
X130144051Y-109671723D01*
X130149033Y-109674046D01*
X130149038Y-109674049D01*
X130345565Y-109765690D01*
X130351557Y-109768484D01*
X130356865Y-109769906D01*
X130356867Y-109769907D01*
X130567398Y-109826319D01*
X130567400Y-109826319D01*
X130572713Y-109827743D01*
X130800800Y-109847698D01*
X131028887Y-109827743D01*
X131034200Y-109826319D01*
X131034202Y-109826319D01*
X131244733Y-109769907D01*
X131244735Y-109769906D01*
X131250043Y-109768484D01*
X131256035Y-109765690D01*
X131452562Y-109674049D01*
X131452567Y-109674046D01*
X131457549Y-109671723D01*
X131562411Y-109598298D01*
X131640589Y-109543557D01*
X131640592Y-109543555D01*
X131645100Y-109540398D01*
X131806998Y-109378500D01*
X131824901Y-109352933D01*
X135503422Y-109352933D01*
X135503575Y-109357321D01*
X135503575Y-109357327D01*
X135510079Y-109543557D01*
X135513225Y-109633658D01*
X135513987Y-109637981D01*
X135513988Y-109637988D01*
X135536998Y-109768484D01*
X135562002Y-109910287D01*
X135648803Y-110177435D01*
X135771940Y-110429902D01*
X135774395Y-110433541D01*
X135774398Y-110433547D01*
X135847490Y-110541910D01*
X135929015Y-110662776D01*
X136116971Y-110871522D01*
X136332150Y-111052079D01*
X136570364Y-111200931D01*
X136826975Y-111315182D01*
X137096990Y-111392607D01*
X137101340Y-111393218D01*
X137101343Y-111393219D01*
X137204290Y-111407687D01*
X137375152Y-111431700D01*
X137585746Y-111431700D01*
X137587932Y-111431547D01*
X137587936Y-111431547D01*
X137791427Y-111417318D01*
X137791432Y-111417317D01*
X137795812Y-111417011D01*
X138070570Y-111358609D01*
X138074699Y-111357106D01*
X138074703Y-111357105D01*
X138330381Y-111264046D01*
X138330385Y-111264044D01*
X138334526Y-111262537D01*
X138582542Y-111130664D01*
X138687496Y-111054411D01*
X138806229Y-110968147D01*
X138806232Y-110968144D01*
X138809792Y-110965558D01*
X139011852Y-110770431D01*
X139184788Y-110549082D01*
X139186984Y-110545278D01*
X139186989Y-110545271D01*
X139323035Y-110309631D01*
X139325236Y-110305819D01*
X139430462Y-110045376D01*
X139464144Y-109910287D01*
X139497353Y-109777093D01*
X139497354Y-109777088D01*
X139498417Y-109772824D01*
X139499118Y-109766161D01*
X139527319Y-109497836D01*
X139527319Y-109497833D01*
X139527778Y-109493467D01*
X139527625Y-109489073D01*
X139518129Y-109217139D01*
X139518128Y-109217133D01*
X139517975Y-109212742D01*
X139514928Y-109195457D01*
X139478392Y-108988253D01*
X139469198Y-108936113D01*
X139382397Y-108668965D01*
X139378344Y-108660654D01*
X139275949Y-108450716D01*
X139259260Y-108416498D01*
X139256805Y-108412859D01*
X139256802Y-108412853D01*
X139155107Y-108262085D01*
X139102185Y-108183624D01*
X138914229Y-107974878D01*
X138699050Y-107794321D01*
X138460836Y-107645469D01*
X138204225Y-107531218D01*
X137934210Y-107453793D01*
X137929860Y-107453182D01*
X137929857Y-107453181D01*
X137826910Y-107438713D01*
X137656048Y-107414700D01*
X137445454Y-107414700D01*
X137443268Y-107414853D01*
X137443264Y-107414853D01*
X137239773Y-107429082D01*
X137239768Y-107429083D01*
X137235388Y-107429389D01*
X136960630Y-107487791D01*
X136956501Y-107489294D01*
X136956497Y-107489295D01*
X136700819Y-107582354D01*
X136700815Y-107582356D01*
X136696674Y-107583863D01*
X136448658Y-107715736D01*
X136445099Y-107718322D01*
X136445097Y-107718323D01*
X136328512Y-107803027D01*
X136221408Y-107880842D01*
X136019348Y-108075969D01*
X135918995Y-108204416D01*
X135861092Y-108278529D01*
X135846412Y-108297318D01*
X135844216Y-108301122D01*
X135844211Y-108301129D01*
X135753576Y-108458115D01*
X135705964Y-108540581D01*
X135600738Y-108801024D01*
X135599673Y-108805297D01*
X135599672Y-108805299D01*
X135554014Y-108988425D01*
X135532783Y-109073576D01*
X135503422Y-109352933D01*
X131824901Y-109352933D01*
X131864898Y-109295811D01*
X131938323Y-109190949D01*
X131940646Y-109185967D01*
X131940649Y-109185962D01*
X132032761Y-108988425D01*
X132032761Y-108988424D01*
X132035084Y-108983443D01*
X132070124Y-108852675D01*
X132092919Y-108767602D01*
X132092919Y-108767600D01*
X132094343Y-108762287D01*
X132114298Y-108534200D01*
X132094343Y-108306113D01*
X132092919Y-108300798D01*
X132036507Y-108090267D01*
X132036506Y-108090265D01*
X132035084Y-108084957D01*
X132010091Y-108031358D01*
X131940649Y-107882438D01*
X131940646Y-107882433D01*
X131938323Y-107877451D01*
X131820505Y-107709190D01*
X131810157Y-107694411D01*
X131810155Y-107694408D01*
X131806998Y-107689900D01*
X131645100Y-107528002D01*
X131640592Y-107524845D01*
X131640589Y-107524843D01*
X131484162Y-107415312D01*
X131457549Y-107396677D01*
X131452567Y-107394354D01*
X131452562Y-107394351D01*
X131255025Y-107302239D01*
X131255024Y-107302239D01*
X131250043Y-107299916D01*
X131244735Y-107298494D01*
X131244733Y-107298493D01*
X131034202Y-107242081D01*
X131034200Y-107242081D01*
X131028887Y-107240657D01*
X130800800Y-107220702D01*
X130572713Y-107240657D01*
X130567400Y-107242081D01*
X130567398Y-107242081D01*
X130356867Y-107298493D01*
X130356865Y-107298494D01*
X130351557Y-107299916D01*
X130346576Y-107302239D01*
X130346575Y-107302239D01*
X130149038Y-107394351D01*
X130149033Y-107394354D01*
X130144051Y-107396677D01*
X130117438Y-107415312D01*
X129961011Y-107524843D01*
X129961008Y-107524845D01*
X129956500Y-107528002D01*
X129794602Y-107689900D01*
X129791445Y-107694408D01*
X129791443Y-107694411D01*
X129781095Y-107709190D01*
X129663277Y-107877451D01*
X129660954Y-107882433D01*
X129660951Y-107882438D01*
X129591509Y-108031358D01*
X129566516Y-108084957D01*
X129565094Y-108090265D01*
X129565093Y-108090267D01*
X129508681Y-108300798D01*
X129507257Y-108306113D01*
X129487302Y-108534200D01*
X117548867Y-108534200D01*
X117508149Y-108450716D01*
X117491460Y-108416498D01*
X117489005Y-108412859D01*
X117489002Y-108412853D01*
X117387724Y-108262703D01*
X122019406Y-108262703D01*
X122019742Y-108276799D01*
X122027684Y-108280200D01*
X123028685Y-108280200D01*
X123043924Y-108275725D01*
X123045129Y-108274335D01*
X123046800Y-108266652D01*
X123046800Y-108262085D01*
X123554800Y-108262085D01*
X123559275Y-108277324D01*
X123560665Y-108278529D01*
X123568348Y-108280200D01*
X124568767Y-108280200D01*
X124582298Y-108276227D01*
X124583527Y-108267678D01*
X124536036Y-108090439D01*
X124532290Y-108080147D01*
X124440214Y-107882689D01*
X124434731Y-107873193D01*
X124309772Y-107694733D01*
X124302716Y-107686325D01*
X124148675Y-107532284D01*
X124140267Y-107525228D01*
X123961807Y-107400269D01*
X123952311Y-107394786D01*
X123754853Y-107302710D01*
X123744561Y-107298964D01*
X123572297Y-107252806D01*
X123558201Y-107253142D01*
X123554800Y-107261084D01*
X123554800Y-108262085D01*
X123046800Y-108262085D01*
X123046800Y-107266233D01*
X123042827Y-107252702D01*
X123034278Y-107251473D01*
X122857039Y-107298964D01*
X122846747Y-107302710D01*
X122649289Y-107394786D01*
X122639793Y-107400269D01*
X122461333Y-107525228D01*
X122452925Y-107532284D01*
X122298884Y-107686325D01*
X122291828Y-107694733D01*
X122166869Y-107873193D01*
X122161386Y-107882689D01*
X122069310Y-108080147D01*
X122065564Y-108090439D01*
X122019406Y-108262703D01*
X117387724Y-108262703D01*
X117387307Y-108262085D01*
X117334385Y-108183624D01*
X117146429Y-107974878D01*
X116931250Y-107794321D01*
X116693036Y-107645469D01*
X116436425Y-107531218D01*
X116166410Y-107453793D01*
X116162060Y-107453182D01*
X116162057Y-107453181D01*
X116059110Y-107438713D01*
X115888248Y-107414700D01*
X115677654Y-107414700D01*
X115675468Y-107414853D01*
X115675464Y-107414853D01*
X115471973Y-107429082D01*
X115471968Y-107429083D01*
X115467588Y-107429389D01*
X115192830Y-107487791D01*
X115188701Y-107489294D01*
X115188697Y-107489295D01*
X114933019Y-107582354D01*
X114933015Y-107582356D01*
X114928874Y-107583863D01*
X114680858Y-107715736D01*
X114677299Y-107718322D01*
X114677297Y-107718323D01*
X114560712Y-107803027D01*
X114453608Y-107880842D01*
X114251548Y-108075969D01*
X114151195Y-108204416D01*
X114093292Y-108278529D01*
X114078612Y-108297318D01*
X114076416Y-108301122D01*
X114076411Y-108301129D01*
X113985776Y-108458115D01*
X113938164Y-108540581D01*
X113832938Y-108801024D01*
X113831873Y-108805297D01*
X113831872Y-108805299D01*
X113786214Y-108988425D01*
X113764983Y-109073576D01*
X113735622Y-109352933D01*
X84331008Y-109352933D01*
X84331316Y-108828165D01*
X84332204Y-107315000D01*
X88285112Y-107315000D01*
X88303742Y-107551711D01*
X88304896Y-107556518D01*
X88304897Y-107556524D01*
X88325823Y-107643684D01*
X88359172Y-107782594D01*
X88361065Y-107787165D01*
X88361066Y-107787167D01*
X88396596Y-107872943D01*
X88450037Y-108001963D01*
X88452623Y-108006183D01*
X88571518Y-108200202D01*
X88571522Y-108200208D01*
X88574101Y-108204416D01*
X88728308Y-108384969D01*
X88908861Y-108539176D01*
X88913069Y-108541755D01*
X88913075Y-108541759D01*
X89107094Y-108660654D01*
X89111314Y-108663240D01*
X89115884Y-108665133D01*
X89115888Y-108665135D01*
X89326110Y-108752211D01*
X89330683Y-108754105D01*
X89364764Y-108762287D01*
X89556753Y-108808380D01*
X89556759Y-108808381D01*
X89561566Y-108809535D01*
X89798277Y-108828165D01*
X90034988Y-108809535D01*
X90039795Y-108808381D01*
X90039801Y-108808380D01*
X90231790Y-108762287D01*
X90265871Y-108754105D01*
X90270444Y-108752211D01*
X90480666Y-108665135D01*
X90480670Y-108665133D01*
X90485240Y-108663240D01*
X90489460Y-108660654D01*
X90683479Y-108541759D01*
X90683485Y-108541755D01*
X90687693Y-108539176D01*
X90868246Y-108384969D01*
X90889854Y-108359669D01*
X93290278Y-108359669D01*
X93290648Y-108366490D01*
X93296172Y-108417352D01*
X93299798Y-108432604D01*
X93344953Y-108553054D01*
X93353491Y-108568649D01*
X93429992Y-108670724D01*
X93442553Y-108683285D01*
X93544628Y-108759786D01*
X93560223Y-108768324D01*
X93680671Y-108813478D01*
X93695926Y-108817105D01*
X93746791Y-108822631D01*
X93753605Y-108823000D01*
X94526162Y-108823000D01*
X94541401Y-108818525D01*
X94542606Y-108817135D01*
X94544277Y-108809452D01*
X94544277Y-108804884D01*
X95052277Y-108804884D01*
X95056752Y-108820123D01*
X95058142Y-108821328D01*
X95065825Y-108822999D01*
X95842946Y-108822999D01*
X95849767Y-108822629D01*
X95900629Y-108817105D01*
X95915881Y-108813479D01*
X96036331Y-108768324D01*
X96051926Y-108759786D01*
X96154001Y-108683285D01*
X96166562Y-108670724D01*
X96243063Y-108568649D01*
X96251601Y-108553054D01*
X96296755Y-108432606D01*
X96300382Y-108417351D01*
X96303513Y-108388534D01*
X100822623Y-108388534D01*
X100829378Y-108450716D01*
X100880508Y-108587105D01*
X100967862Y-108703661D01*
X101084418Y-108791015D01*
X101220807Y-108842145D01*
X101282989Y-108848900D01*
X103379257Y-108848900D01*
X103441439Y-108842145D01*
X103577828Y-108791015D01*
X103694384Y-108703661D01*
X103781738Y-108587105D01*
X103786999Y-108573070D01*
X106463283Y-108573070D01*
X106469010Y-108580720D01*
X106640165Y-108685605D01*
X106648960Y-108690087D01*
X106859111Y-108777134D01*
X106868496Y-108780183D01*
X107089677Y-108833285D01*
X107099424Y-108834828D01*
X107326193Y-108852675D01*
X107336053Y-108852675D01*
X107562822Y-108834828D01*
X107572569Y-108833285D01*
X107793750Y-108780183D01*
X107803135Y-108777134D01*
X108013286Y-108690087D01*
X108022081Y-108685605D01*
X108189568Y-108582968D01*
X108199030Y-108572510D01*
X108195247Y-108563734D01*
X107343935Y-107712422D01*
X107329991Y-107704808D01*
X107328158Y-107704939D01*
X107321543Y-107709190D01*
X106470043Y-108560690D01*
X106463283Y-108573070D01*
X103786999Y-108573070D01*
X103832868Y-108450716D01*
X103839623Y-108388534D01*
X103839623Y-107345330D01*
X105818848Y-107345330D01*
X105836695Y-107572099D01*
X105838238Y-107581846D01*
X105891340Y-107803027D01*
X105894389Y-107812412D01*
X105981436Y-108022563D01*
X105985918Y-108031358D01*
X106088555Y-108198845D01*
X106099013Y-108208307D01*
X106107789Y-108204524D01*
X106959101Y-107353212D01*
X106965479Y-107341532D01*
X107695531Y-107341532D01*
X107695662Y-107343365D01*
X107699913Y-107349980D01*
X108551413Y-108201480D01*
X108563793Y-108208240D01*
X108571443Y-108202513D01*
X108676328Y-108031358D01*
X108680810Y-108022563D01*
X108767857Y-107812412D01*
X108770906Y-107803027D01*
X108824008Y-107581846D01*
X108825551Y-107572099D01*
X108843398Y-107345330D01*
X108843398Y-107335470D01*
X108825551Y-107108701D01*
X108824008Y-107098954D01*
X108805934Y-107023670D01*
X142753037Y-107023670D01*
X142758764Y-107031320D01*
X142929919Y-107136205D01*
X142938714Y-107140687D01*
X143148865Y-107227734D01*
X143158250Y-107230783D01*
X143379431Y-107283885D01*
X143389178Y-107285428D01*
X143615947Y-107303275D01*
X143625807Y-107303275D01*
X143852576Y-107285428D01*
X143862323Y-107283885D01*
X144083504Y-107230783D01*
X144092889Y-107227734D01*
X144303040Y-107140687D01*
X144311835Y-107136205D01*
X144479322Y-107033568D01*
X144488784Y-107023110D01*
X144485001Y-107014334D01*
X144309801Y-106839134D01*
X147112377Y-106839134D01*
X147119132Y-106901316D01*
X147170262Y-107037705D01*
X147257616Y-107154261D01*
X147374172Y-107241615D01*
X147510561Y-107292745D01*
X147572743Y-107299500D01*
X149669011Y-107299500D01*
X149731193Y-107292745D01*
X149867582Y-107241615D01*
X149984138Y-107154261D01*
X150071492Y-107037705D01*
X150122622Y-106901316D01*
X150129377Y-106839134D01*
X150129377Y-105816400D01*
X153829702Y-105816400D01*
X153849657Y-106044487D01*
X153851081Y-106049800D01*
X153851081Y-106049802D01*
X153890629Y-106197394D01*
X153908916Y-106265643D01*
X153911239Y-106270624D01*
X153911239Y-106270625D01*
X154003351Y-106468162D01*
X154003354Y-106468167D01*
X154005677Y-106473149D01*
X154079102Y-106578011D01*
X154133098Y-106655124D01*
X154137002Y-106660700D01*
X154298900Y-106822598D01*
X154303408Y-106825755D01*
X154303411Y-106825757D01*
X154364295Y-106868388D01*
X154486451Y-106953923D01*
X154491433Y-106956246D01*
X154491438Y-106956249D01*
X154687026Y-107047452D01*
X154693957Y-107050684D01*
X154699265Y-107052106D01*
X154699267Y-107052107D01*
X154909798Y-107108519D01*
X154909800Y-107108519D01*
X154915113Y-107109943D01*
X155143200Y-107129898D01*
X155371287Y-107109943D01*
X155376600Y-107108519D01*
X155376602Y-107108519D01*
X155587133Y-107052107D01*
X155587135Y-107052106D01*
X155592443Y-107050684D01*
X155599374Y-107047452D01*
X155794962Y-106956249D01*
X155794967Y-106956246D01*
X155799949Y-106953923D01*
X155922105Y-106868388D01*
X155982989Y-106825757D01*
X155982992Y-106825755D01*
X155987500Y-106822598D01*
X156149398Y-106660700D01*
X156153303Y-106655124D01*
X156207298Y-106578011D01*
X156280723Y-106473149D01*
X156283046Y-106468167D01*
X156283049Y-106468162D01*
X156375161Y-106270625D01*
X156375161Y-106270624D01*
X156377484Y-106265643D01*
X156395772Y-106197394D01*
X156435319Y-106049802D01*
X156435319Y-106049800D01*
X156436743Y-106044487D01*
X156456698Y-105816400D01*
X156436743Y-105588313D01*
X156428969Y-105559301D01*
X156378907Y-105372467D01*
X156378906Y-105372465D01*
X156377484Y-105367157D01*
X156302456Y-105206257D01*
X156283049Y-105164638D01*
X156283046Y-105164633D01*
X156280723Y-105159651D01*
X156149398Y-104972100D01*
X155987500Y-104810202D01*
X155982992Y-104807045D01*
X155982989Y-104807043D01*
X155896214Y-104746283D01*
X155799949Y-104678877D01*
X155794967Y-104676554D01*
X155794962Y-104676551D01*
X155597425Y-104584439D01*
X155597424Y-104584439D01*
X155592443Y-104582116D01*
X155587135Y-104580694D01*
X155587133Y-104580693D01*
X155376602Y-104524281D01*
X155376600Y-104524281D01*
X155371287Y-104522857D01*
X155143200Y-104502902D01*
X154915113Y-104522857D01*
X154909800Y-104524281D01*
X154909798Y-104524281D01*
X154699267Y-104580693D01*
X154699265Y-104580694D01*
X154693957Y-104582116D01*
X154688976Y-104584439D01*
X154688975Y-104584439D01*
X154491438Y-104676551D01*
X154491433Y-104676554D01*
X154486451Y-104678877D01*
X154390186Y-104746283D01*
X154303411Y-104807043D01*
X154303408Y-104807045D01*
X154298900Y-104810202D01*
X154137002Y-104972100D01*
X154005677Y-105159651D01*
X154003354Y-105164633D01*
X154003351Y-105164638D01*
X153983944Y-105206257D01*
X153908916Y-105367157D01*
X153907494Y-105372465D01*
X153907493Y-105372467D01*
X153857431Y-105559301D01*
X153849657Y-105588313D01*
X153829702Y-105816400D01*
X150129377Y-105816400D01*
X150129377Y-104742866D01*
X150122622Y-104680684D01*
X150071492Y-104544295D01*
X149984138Y-104427739D01*
X149867582Y-104340385D01*
X149731193Y-104289255D01*
X149669011Y-104282500D01*
X147572743Y-104282500D01*
X147510561Y-104289255D01*
X147374172Y-104340385D01*
X147257616Y-104427739D01*
X147170262Y-104544295D01*
X147119132Y-104680684D01*
X147112377Y-104742866D01*
X147112377Y-106839134D01*
X144309801Y-106839134D01*
X143633689Y-106163022D01*
X143619745Y-106155408D01*
X143617912Y-106155539D01*
X143611297Y-106159790D01*
X142759797Y-107011290D01*
X142753037Y-107023670D01*
X108805934Y-107023670D01*
X108770906Y-106877773D01*
X108767857Y-106868388D01*
X108680810Y-106658237D01*
X108676328Y-106649442D01*
X108573691Y-106481955D01*
X108563233Y-106472493D01*
X108554457Y-106476276D01*
X107703145Y-107327588D01*
X107695531Y-107341532D01*
X106965479Y-107341532D01*
X106966715Y-107339268D01*
X106966584Y-107337435D01*
X106962333Y-107330820D01*
X106110833Y-106479320D01*
X106098453Y-106472560D01*
X106090803Y-106478287D01*
X105985918Y-106649442D01*
X105981436Y-106658237D01*
X105894389Y-106868388D01*
X105891340Y-106877773D01*
X105838238Y-107098954D01*
X105836695Y-107108701D01*
X105818848Y-107335470D01*
X105818848Y-107345330D01*
X103839623Y-107345330D01*
X103839623Y-106292266D01*
X103832868Y-106230084D01*
X103787209Y-106108290D01*
X106463216Y-106108290D01*
X106466999Y-106117066D01*
X107318311Y-106968378D01*
X107332255Y-106975992D01*
X107334088Y-106975861D01*
X107340703Y-106971610D01*
X108192203Y-106120110D01*
X108198963Y-106107730D01*
X108193236Y-106100080D01*
X108022081Y-105995195D01*
X108013286Y-105990713D01*
X107803135Y-105903666D01*
X107793750Y-105900617D01*
X107572569Y-105847515D01*
X107562822Y-105845972D01*
X107336053Y-105828125D01*
X107326193Y-105828125D01*
X107099424Y-105845972D01*
X107089677Y-105847515D01*
X106868496Y-105900617D01*
X106859111Y-105903666D01*
X106648960Y-105990713D01*
X106640165Y-105995195D01*
X106472678Y-106097832D01*
X106463216Y-106108290D01*
X103787209Y-106108290D01*
X103781738Y-106093695D01*
X103694384Y-105977139D01*
X103577828Y-105889785D01*
X103441439Y-105838655D01*
X103379257Y-105831900D01*
X101282989Y-105831900D01*
X101220807Y-105838655D01*
X101084418Y-105889785D01*
X100967862Y-105977139D01*
X100880508Y-106093695D01*
X100829378Y-106230084D01*
X100822623Y-106292266D01*
X100822623Y-108388534D01*
X96303513Y-108388534D01*
X96305908Y-108366486D01*
X96306277Y-108359672D01*
X96306277Y-107587115D01*
X96301802Y-107571876D01*
X96300412Y-107570671D01*
X96292729Y-107569000D01*
X95070392Y-107569000D01*
X95055153Y-107573475D01*
X95053948Y-107574865D01*
X95052277Y-107582548D01*
X95052277Y-108804884D01*
X94544277Y-108804884D01*
X94544277Y-107587115D01*
X94539802Y-107571876D01*
X94538412Y-107570671D01*
X94530729Y-107569000D01*
X93308393Y-107569000D01*
X93293154Y-107573475D01*
X93291949Y-107574865D01*
X93290278Y-107582548D01*
X93290278Y-108359669D01*
X90889854Y-108359669D01*
X91022453Y-108204416D01*
X91025032Y-108200208D01*
X91025036Y-108200202D01*
X91143931Y-108006183D01*
X91146517Y-108001963D01*
X91199959Y-107872943D01*
X91235488Y-107787167D01*
X91235489Y-107787165D01*
X91237382Y-107782594D01*
X91270731Y-107643684D01*
X91291657Y-107556524D01*
X91291658Y-107556518D01*
X91292812Y-107551711D01*
X91311442Y-107315000D01*
X91292812Y-107078289D01*
X91288662Y-107061000D01*
X91284313Y-107042885D01*
X93290277Y-107042885D01*
X93294752Y-107058124D01*
X93296142Y-107059329D01*
X93303825Y-107061000D01*
X94526162Y-107061000D01*
X94541401Y-107056525D01*
X94542606Y-107055135D01*
X94544277Y-107047452D01*
X94544277Y-107042885D01*
X95052277Y-107042885D01*
X95056752Y-107058124D01*
X95058142Y-107059329D01*
X95065825Y-107061000D01*
X96288161Y-107061000D01*
X96303400Y-107056525D01*
X96304605Y-107055135D01*
X96306276Y-107047452D01*
X96306276Y-106270331D01*
X96305906Y-106263510D01*
X96300382Y-106212648D01*
X96296756Y-106197396D01*
X96251601Y-106076946D01*
X96243063Y-106061351D01*
X96166562Y-105959276D01*
X96154001Y-105946715D01*
X96051926Y-105870214D01*
X96036331Y-105861676D01*
X95915883Y-105816522D01*
X95900628Y-105812895D01*
X95849763Y-105807369D01*
X95842949Y-105807000D01*
X95070392Y-105807000D01*
X95055153Y-105811475D01*
X95053948Y-105812865D01*
X95052277Y-105820548D01*
X95052277Y-107042885D01*
X94544277Y-107042885D01*
X94544277Y-105825116D01*
X94539802Y-105809877D01*
X94538412Y-105808672D01*
X94530729Y-105807001D01*
X93753608Y-105807001D01*
X93746787Y-105807371D01*
X93695925Y-105812895D01*
X93680673Y-105816521D01*
X93560223Y-105861676D01*
X93544628Y-105870214D01*
X93442553Y-105946715D01*
X93429992Y-105959276D01*
X93353491Y-106061351D01*
X93344953Y-106076946D01*
X93299799Y-106197394D01*
X93296172Y-106212649D01*
X93290646Y-106263514D01*
X93290277Y-106270328D01*
X93290277Y-107042885D01*
X91284313Y-107042885D01*
X91250325Y-106901316D01*
X91237382Y-106847406D01*
X91161661Y-106664597D01*
X91148412Y-106632611D01*
X91148410Y-106632607D01*
X91146517Y-106628037D01*
X91143931Y-106623817D01*
X91025036Y-106429798D01*
X91025032Y-106429792D01*
X91022453Y-106425584D01*
X90868246Y-106245031D01*
X90687693Y-106090824D01*
X90683485Y-106088245D01*
X90683479Y-106088241D01*
X90489460Y-105969346D01*
X90485240Y-105966760D01*
X90480670Y-105964867D01*
X90480666Y-105964865D01*
X90270444Y-105877789D01*
X90270442Y-105877788D01*
X90265871Y-105875895D01*
X90122310Y-105841429D01*
X90039801Y-105821620D01*
X90039795Y-105821619D01*
X90034988Y-105820465D01*
X89798277Y-105801835D01*
X89561566Y-105820465D01*
X89556759Y-105821619D01*
X89556753Y-105821620D01*
X89474244Y-105841429D01*
X89330683Y-105875895D01*
X89326112Y-105877788D01*
X89326110Y-105877789D01*
X89115888Y-105964865D01*
X89115884Y-105964867D01*
X89111314Y-105966760D01*
X89107094Y-105969346D01*
X88913075Y-106088241D01*
X88913069Y-106088245D01*
X88908861Y-106090824D01*
X88728308Y-106245031D01*
X88574101Y-106425584D01*
X88571522Y-106429792D01*
X88571518Y-106429798D01*
X88452623Y-106623817D01*
X88450037Y-106628037D01*
X88448144Y-106632607D01*
X88448142Y-106632611D01*
X88434893Y-106664597D01*
X88359172Y-106847406D01*
X88346229Y-106901316D01*
X88307893Y-107061000D01*
X88303742Y-107078289D01*
X88285112Y-107315000D01*
X84332204Y-107315000D01*
X84333796Y-104602127D01*
X121871500Y-104602127D01*
X121886457Y-104773087D01*
X121887881Y-104778400D01*
X121887881Y-104778402D01*
X121938739Y-104968203D01*
X121945716Y-104994243D01*
X121948039Y-104999224D01*
X121948039Y-104999225D01*
X122040151Y-105196762D01*
X122040154Y-105196767D01*
X122042477Y-105201749D01*
X122173802Y-105389300D01*
X122335700Y-105551198D01*
X122340208Y-105554355D01*
X122340211Y-105554357D01*
X122396532Y-105593793D01*
X122523251Y-105682523D01*
X122528233Y-105684846D01*
X122528238Y-105684849D01*
X122725775Y-105776961D01*
X122730757Y-105779284D01*
X122736065Y-105780706D01*
X122736067Y-105780707D01*
X122946598Y-105837119D01*
X122946600Y-105837119D01*
X122951913Y-105838543D01*
X123180000Y-105858498D01*
X123408087Y-105838543D01*
X123413400Y-105837119D01*
X123413402Y-105837119D01*
X123623933Y-105780707D01*
X123623935Y-105780706D01*
X123629243Y-105779284D01*
X123634225Y-105776961D01*
X123831762Y-105684849D01*
X123831767Y-105684846D01*
X123836749Y-105682523D01*
X123963468Y-105593793D01*
X124019789Y-105554357D01*
X124019792Y-105554355D01*
X124024300Y-105551198D01*
X124186198Y-105389300D01*
X124317523Y-105201749D01*
X124319846Y-105196767D01*
X124319849Y-105196762D01*
X124335805Y-105162543D01*
X124382722Y-105109258D01*
X124450999Y-105089797D01*
X124518959Y-105110339D01*
X124564195Y-105162543D01*
X124580151Y-105196762D01*
X124580154Y-105196767D01*
X124582477Y-105201749D01*
X124713802Y-105389300D01*
X124875700Y-105551198D01*
X124880208Y-105554355D01*
X124880211Y-105554357D01*
X124936532Y-105593793D01*
X125063251Y-105682523D01*
X125068233Y-105684846D01*
X125068238Y-105684849D01*
X125265775Y-105776961D01*
X125270757Y-105779284D01*
X125276065Y-105780706D01*
X125276067Y-105780707D01*
X125486598Y-105837119D01*
X125486600Y-105837119D01*
X125491913Y-105838543D01*
X125720000Y-105858498D01*
X125948087Y-105838543D01*
X125953400Y-105837119D01*
X125953402Y-105837119D01*
X126163933Y-105780707D01*
X126163935Y-105780706D01*
X126169243Y-105779284D01*
X126174225Y-105776961D01*
X126371762Y-105684849D01*
X126371767Y-105684846D01*
X126376749Y-105682523D01*
X126503468Y-105593793D01*
X126559789Y-105554357D01*
X126559792Y-105554355D01*
X126564300Y-105551198D01*
X126726198Y-105389300D01*
X126857523Y-105201749D01*
X126859846Y-105196767D01*
X126859849Y-105196762D01*
X126875805Y-105162543D01*
X126922722Y-105109258D01*
X126990999Y-105089797D01*
X127058959Y-105110339D01*
X127104195Y-105162543D01*
X127120151Y-105196762D01*
X127120154Y-105196767D01*
X127122477Y-105201749D01*
X127253802Y-105389300D01*
X127415700Y-105551198D01*
X127420208Y-105554355D01*
X127420211Y-105554357D01*
X127476532Y-105593793D01*
X127603251Y-105682523D01*
X127608233Y-105684846D01*
X127608238Y-105684849D01*
X127805775Y-105776961D01*
X127810757Y-105779284D01*
X127816065Y-105780706D01*
X127816067Y-105780707D01*
X128026598Y-105837119D01*
X128026600Y-105837119D01*
X128031913Y-105838543D01*
X128260000Y-105858498D01*
X128488087Y-105838543D01*
X128493400Y-105837119D01*
X128493402Y-105837119D01*
X128703933Y-105780707D01*
X128703935Y-105780706D01*
X128709243Y-105779284D01*
X128714225Y-105776961D01*
X128911762Y-105684849D01*
X128911767Y-105684846D01*
X128916749Y-105682523D01*
X129043468Y-105593793D01*
X129099789Y-105554357D01*
X129099792Y-105554355D01*
X129104300Y-105551198D01*
X129266198Y-105389300D01*
X129397523Y-105201749D01*
X129399846Y-105196767D01*
X129399849Y-105196762D01*
X129415805Y-105162543D01*
X129462722Y-105109258D01*
X129530999Y-105089797D01*
X129598959Y-105110339D01*
X129644195Y-105162543D01*
X129660151Y-105196762D01*
X129660154Y-105196767D01*
X129662477Y-105201749D01*
X129793802Y-105389300D01*
X129955700Y-105551198D01*
X129960208Y-105554355D01*
X129960211Y-105554357D01*
X130016532Y-105593793D01*
X130143251Y-105682523D01*
X130148233Y-105684846D01*
X130148238Y-105684849D01*
X130345775Y-105776961D01*
X130350757Y-105779284D01*
X130356065Y-105780706D01*
X130356067Y-105780707D01*
X130566598Y-105837119D01*
X130566600Y-105837119D01*
X130571913Y-105838543D01*
X130800000Y-105858498D01*
X131028087Y-105838543D01*
X131033400Y-105837119D01*
X131033402Y-105837119D01*
X131187120Y-105795930D01*
X142108602Y-105795930D01*
X142126449Y-106022699D01*
X142127992Y-106032446D01*
X142181094Y-106253627D01*
X142184143Y-106263012D01*
X142271190Y-106473163D01*
X142275672Y-106481958D01*
X142378309Y-106649445D01*
X142388767Y-106658907D01*
X142397543Y-106655124D01*
X143248855Y-105803812D01*
X143255233Y-105792132D01*
X143985285Y-105792132D01*
X143985416Y-105793965D01*
X143989667Y-105800580D01*
X144841167Y-106652080D01*
X144853547Y-106658840D01*
X144861197Y-106653113D01*
X144966082Y-106481958D01*
X144970564Y-106473163D01*
X145057611Y-106263012D01*
X145060660Y-106253627D01*
X145113762Y-106032446D01*
X145115305Y-106022699D01*
X145133152Y-105795930D01*
X145133152Y-105786070D01*
X145115305Y-105559301D01*
X145113762Y-105549554D01*
X145060660Y-105328373D01*
X145057611Y-105318988D01*
X144970564Y-105108837D01*
X144966082Y-105100042D01*
X144863445Y-104932555D01*
X144852987Y-104923093D01*
X144844211Y-104926876D01*
X143992899Y-105778188D01*
X143985285Y-105792132D01*
X143255233Y-105792132D01*
X143256469Y-105789868D01*
X143256338Y-105788035D01*
X143252087Y-105781420D01*
X142400587Y-104929920D01*
X142388207Y-104923160D01*
X142380557Y-104928887D01*
X142275672Y-105100042D01*
X142271190Y-105108837D01*
X142184143Y-105318988D01*
X142181094Y-105328373D01*
X142127992Y-105549554D01*
X142126449Y-105559301D01*
X142108602Y-105786070D01*
X142108602Y-105795930D01*
X131187120Y-105795930D01*
X131243933Y-105780707D01*
X131243935Y-105780706D01*
X131249243Y-105779284D01*
X131254225Y-105776961D01*
X131451762Y-105684849D01*
X131451767Y-105684846D01*
X131456749Y-105682523D01*
X131583468Y-105593793D01*
X131639789Y-105554357D01*
X131639792Y-105554355D01*
X131644300Y-105551198D01*
X131806198Y-105389300D01*
X131937523Y-105201749D01*
X131939846Y-105196767D01*
X131939849Y-105196762D01*
X132031961Y-104999225D01*
X132031961Y-104999224D01*
X132034284Y-104994243D01*
X132041262Y-104968203D01*
X132092119Y-104778402D01*
X132092119Y-104778400D01*
X132093543Y-104773087D01*
X132108500Y-104602127D01*
X132108500Y-104558890D01*
X142752970Y-104558890D01*
X142756753Y-104567666D01*
X143608065Y-105418978D01*
X143622009Y-105426592D01*
X143623842Y-105426461D01*
X143630457Y-105422210D01*
X144481957Y-104570710D01*
X144488717Y-104558330D01*
X144482990Y-104550680D01*
X144311835Y-104445795D01*
X144303040Y-104441313D01*
X144092889Y-104354266D01*
X144083504Y-104351217D01*
X143862323Y-104298115D01*
X143852576Y-104296572D01*
X143625807Y-104278725D01*
X143615947Y-104278725D01*
X143389178Y-104296572D01*
X143379431Y-104298115D01*
X143158250Y-104351217D01*
X143148865Y-104354266D01*
X142938714Y-104441313D01*
X142929919Y-104445795D01*
X142762432Y-104548432D01*
X142752970Y-104558890D01*
X132108500Y-104558890D01*
X132108500Y-103687873D01*
X132093543Y-103516913D01*
X132092119Y-103511598D01*
X132035707Y-103301067D01*
X132035706Y-103301065D01*
X132034284Y-103295757D01*
X132031961Y-103290775D01*
X131939849Y-103093238D01*
X131939846Y-103093233D01*
X131937523Y-103088251D01*
X131806198Y-102900700D01*
X131715498Y-102810000D01*
X135846502Y-102810000D01*
X135866457Y-103038087D01*
X135867881Y-103043400D01*
X135867881Y-103043402D01*
X135904682Y-103180742D01*
X135925716Y-103259243D01*
X135928039Y-103264224D01*
X135928039Y-103264225D01*
X136020151Y-103461762D01*
X136020154Y-103461767D01*
X136022477Y-103466749D01*
X136153802Y-103654300D01*
X136315700Y-103816198D01*
X136320208Y-103819355D01*
X136320211Y-103819357D01*
X136398389Y-103874098D01*
X136503251Y-103947523D01*
X136508233Y-103949846D01*
X136508238Y-103949849D01*
X136705775Y-104041961D01*
X136710757Y-104044284D01*
X136716065Y-104045706D01*
X136716067Y-104045707D01*
X136926598Y-104102119D01*
X136926600Y-104102119D01*
X136931913Y-104103543D01*
X137160000Y-104123498D01*
X137388087Y-104103543D01*
X137393400Y-104102119D01*
X137393402Y-104102119D01*
X137603933Y-104045707D01*
X137603935Y-104045706D01*
X137609243Y-104044284D01*
X137614225Y-104041961D01*
X137811762Y-103949849D01*
X137811767Y-103949846D01*
X137816749Y-103947523D01*
X137921611Y-103874098D01*
X137999789Y-103819357D01*
X137999792Y-103819355D01*
X138004300Y-103816198D01*
X138166198Y-103654300D01*
X138297523Y-103466749D01*
X138299846Y-103461767D01*
X138299849Y-103461762D01*
X138391961Y-103264225D01*
X138391961Y-103264224D01*
X138394284Y-103259243D01*
X138415319Y-103180742D01*
X138452119Y-103043402D01*
X138452119Y-103043400D01*
X138453543Y-103038087D01*
X138473498Y-102810000D01*
X138453543Y-102581913D01*
X138434466Y-102510716D01*
X138395707Y-102366067D01*
X138395706Y-102366065D01*
X138394284Y-102360757D01*
X138391961Y-102355775D01*
X138299849Y-102158238D01*
X138299846Y-102158233D01*
X138297523Y-102153251D01*
X138166198Y-101965700D01*
X138004300Y-101803802D01*
X137999792Y-101800645D01*
X137999789Y-101800643D01*
X137921611Y-101745902D01*
X137816749Y-101672477D01*
X137811767Y-101670154D01*
X137811762Y-101670151D01*
X137614225Y-101578039D01*
X137614224Y-101578039D01*
X137609243Y-101575716D01*
X137603935Y-101574294D01*
X137603933Y-101574293D01*
X137393402Y-101517881D01*
X137393400Y-101517881D01*
X137388087Y-101516457D01*
X137160000Y-101496502D01*
X136931913Y-101516457D01*
X136926600Y-101517881D01*
X136926598Y-101517881D01*
X136716067Y-101574293D01*
X136716065Y-101574294D01*
X136710757Y-101575716D01*
X136705776Y-101578039D01*
X136705775Y-101578039D01*
X136508238Y-101670151D01*
X136508233Y-101670154D01*
X136503251Y-101672477D01*
X136398389Y-101745902D01*
X136320211Y-101800643D01*
X136320208Y-101800645D01*
X136315700Y-101803802D01*
X136153802Y-101965700D01*
X136022477Y-102153251D01*
X136020154Y-102158233D01*
X136020151Y-102158238D01*
X135928039Y-102355775D01*
X135925716Y-102360757D01*
X135924294Y-102366065D01*
X135924293Y-102366067D01*
X135885534Y-102510716D01*
X135866457Y-102581913D01*
X135846502Y-102810000D01*
X131715498Y-102810000D01*
X131644300Y-102738802D01*
X131639792Y-102735645D01*
X131639789Y-102735643D01*
X131561611Y-102680902D01*
X131456749Y-102607477D01*
X131451767Y-102605154D01*
X131451762Y-102605151D01*
X131254225Y-102513039D01*
X131254224Y-102513039D01*
X131249243Y-102510716D01*
X131243935Y-102509294D01*
X131243933Y-102509293D01*
X131033402Y-102452881D01*
X131033400Y-102452881D01*
X131028087Y-102451457D01*
X130800000Y-102431502D01*
X130571913Y-102451457D01*
X130566600Y-102452881D01*
X130566598Y-102452881D01*
X130356067Y-102509293D01*
X130356065Y-102509294D01*
X130350757Y-102510716D01*
X130345776Y-102513039D01*
X130345775Y-102513039D01*
X130148238Y-102605151D01*
X130148233Y-102605154D01*
X130143251Y-102607477D01*
X130038389Y-102680902D01*
X129960211Y-102735643D01*
X129960208Y-102735645D01*
X129955700Y-102738802D01*
X129793802Y-102900700D01*
X129662477Y-103088251D01*
X129660154Y-103093233D01*
X129660151Y-103093238D01*
X129644195Y-103127457D01*
X129597278Y-103180742D01*
X129529001Y-103200203D01*
X129461041Y-103179661D01*
X129415805Y-103127457D01*
X129399849Y-103093238D01*
X129399846Y-103093233D01*
X129397523Y-103088251D01*
X129266198Y-102900700D01*
X129104300Y-102738802D01*
X129099792Y-102735645D01*
X129099789Y-102735643D01*
X129021611Y-102680902D01*
X128916749Y-102607477D01*
X128911767Y-102605154D01*
X128911762Y-102605151D01*
X128714225Y-102513039D01*
X128714224Y-102513039D01*
X128709243Y-102510716D01*
X128703935Y-102509294D01*
X128703933Y-102509293D01*
X128493402Y-102452881D01*
X128493400Y-102452881D01*
X128488087Y-102451457D01*
X128260000Y-102431502D01*
X128031913Y-102451457D01*
X128026600Y-102452881D01*
X128026598Y-102452881D01*
X127816067Y-102509293D01*
X127816065Y-102509294D01*
X127810757Y-102510716D01*
X127805776Y-102513039D01*
X127805775Y-102513039D01*
X127608238Y-102605151D01*
X127608233Y-102605154D01*
X127603251Y-102607477D01*
X127498389Y-102680902D01*
X127420211Y-102735643D01*
X127420208Y-102735645D01*
X127415700Y-102738802D01*
X127253802Y-102900700D01*
X127122477Y-103088251D01*
X127120154Y-103093233D01*
X127120151Y-103093238D01*
X127104195Y-103127457D01*
X127057278Y-103180742D01*
X126989001Y-103200203D01*
X126921041Y-103179661D01*
X126875805Y-103127457D01*
X126859849Y-103093238D01*
X126859846Y-103093233D01*
X126857523Y-103088251D01*
X126726198Y-102900700D01*
X126564300Y-102738802D01*
X126559792Y-102735645D01*
X126559789Y-102735643D01*
X126481611Y-102680902D01*
X126376749Y-102607477D01*
X126371767Y-102605154D01*
X126371762Y-102605151D01*
X126174225Y-102513039D01*
X126174224Y-102513039D01*
X126169243Y-102510716D01*
X126163935Y-102509294D01*
X126163933Y-102509293D01*
X125953402Y-102452881D01*
X125953400Y-102452881D01*
X125948087Y-102451457D01*
X125720000Y-102431502D01*
X125491913Y-102451457D01*
X125486600Y-102452881D01*
X125486598Y-102452881D01*
X125276067Y-102509293D01*
X125276065Y-102509294D01*
X125270757Y-102510716D01*
X125265776Y-102513039D01*
X125265775Y-102513039D01*
X125068238Y-102605151D01*
X125068233Y-102605154D01*
X125063251Y-102607477D01*
X124958389Y-102680902D01*
X124880211Y-102735643D01*
X124880208Y-102735645D01*
X124875700Y-102738802D01*
X124713802Y-102900700D01*
X124582477Y-103088251D01*
X124580154Y-103093233D01*
X124580151Y-103093238D01*
X124564195Y-103127457D01*
X124517278Y-103180742D01*
X124449001Y-103200203D01*
X124381041Y-103179661D01*
X124335805Y-103127457D01*
X124319849Y-103093238D01*
X124319846Y-103093233D01*
X124317523Y-103088251D01*
X124186198Y-102900700D01*
X124024300Y-102738802D01*
X124019792Y-102735645D01*
X124019789Y-102735643D01*
X123941611Y-102680902D01*
X123836749Y-102607477D01*
X123831767Y-102605154D01*
X123831762Y-102605151D01*
X123634225Y-102513039D01*
X123634224Y-102513039D01*
X123629243Y-102510716D01*
X123623935Y-102509294D01*
X123623933Y-102509293D01*
X123413402Y-102452881D01*
X123413400Y-102452881D01*
X123408087Y-102451457D01*
X123180000Y-102431502D01*
X122951913Y-102451457D01*
X122946600Y-102452881D01*
X122946598Y-102452881D01*
X122736067Y-102509293D01*
X122736065Y-102509294D01*
X122730757Y-102510716D01*
X122725776Y-102513039D01*
X122725775Y-102513039D01*
X122528238Y-102605151D01*
X122528233Y-102605154D01*
X122523251Y-102607477D01*
X122418389Y-102680902D01*
X122340211Y-102735643D01*
X122340208Y-102735645D01*
X122335700Y-102738802D01*
X122173802Y-102900700D01*
X122042477Y-103088251D01*
X122040154Y-103093233D01*
X122040151Y-103093238D01*
X121948039Y-103290775D01*
X121945716Y-103295757D01*
X121944294Y-103301065D01*
X121944293Y-103301067D01*
X121887881Y-103511598D01*
X121886457Y-103516913D01*
X121871500Y-103687873D01*
X121871500Y-104602127D01*
X84333796Y-104602127D01*
X84337153Y-98882200D01*
X142628302Y-98882200D01*
X142648257Y-99110287D01*
X142707516Y-99331443D01*
X142709839Y-99336424D01*
X142709839Y-99336425D01*
X142801951Y-99533962D01*
X142801954Y-99533967D01*
X142804277Y-99538949D01*
X142935602Y-99726500D01*
X143097500Y-99888398D01*
X143102008Y-99891555D01*
X143102011Y-99891557D01*
X143180189Y-99946298D01*
X143285051Y-100019723D01*
X143290033Y-100022046D01*
X143290038Y-100022049D01*
X143487575Y-100114161D01*
X143492557Y-100116484D01*
X143497865Y-100117906D01*
X143497867Y-100117907D01*
X143708398Y-100174319D01*
X143708400Y-100174319D01*
X143713713Y-100175743D01*
X143941800Y-100195698D01*
X144169887Y-100175743D01*
X144175200Y-100174319D01*
X144175202Y-100174319D01*
X144385733Y-100117907D01*
X144385735Y-100117906D01*
X144391043Y-100116484D01*
X144396025Y-100114161D01*
X144593562Y-100022049D01*
X144593567Y-100022046D01*
X144598549Y-100019723D01*
X144703411Y-99946298D01*
X144781589Y-99891557D01*
X144781592Y-99891555D01*
X144786100Y-99888398D01*
X144947998Y-99726500D01*
X145079323Y-99538949D01*
X145081646Y-99533967D01*
X145081649Y-99533962D01*
X145173761Y-99336425D01*
X145173761Y-99336424D01*
X145176084Y-99331443D01*
X145235343Y-99110287D01*
X145255298Y-98882200D01*
X145235343Y-98654113D01*
X145176084Y-98432957D01*
X145173761Y-98427975D01*
X145081649Y-98230438D01*
X145081646Y-98230433D01*
X145079323Y-98225451D01*
X144947998Y-98037900D01*
X144786100Y-97876002D01*
X144781592Y-97872845D01*
X144781589Y-97872843D01*
X144703411Y-97818102D01*
X144598549Y-97744677D01*
X144593567Y-97742354D01*
X144593562Y-97742351D01*
X144396025Y-97650239D01*
X144396024Y-97650239D01*
X144391043Y-97647916D01*
X144385735Y-97646494D01*
X144385733Y-97646493D01*
X144175202Y-97590081D01*
X144175200Y-97590081D01*
X144169887Y-97588657D01*
X143941800Y-97568702D01*
X143713713Y-97588657D01*
X143708400Y-97590081D01*
X143708398Y-97590081D01*
X143497867Y-97646493D01*
X143497865Y-97646494D01*
X143492557Y-97647916D01*
X143487576Y-97650239D01*
X143487575Y-97650239D01*
X143290038Y-97742351D01*
X143290033Y-97742354D01*
X143285051Y-97744677D01*
X143180189Y-97818102D01*
X143102011Y-97872843D01*
X143102008Y-97872845D01*
X143097500Y-97876002D01*
X142935602Y-98037900D01*
X142804277Y-98225451D01*
X142801954Y-98230433D01*
X142801951Y-98230438D01*
X142709839Y-98427975D01*
X142707516Y-98432957D01*
X142648257Y-98654113D01*
X142628302Y-98882200D01*
X84337153Y-98882200D01*
X84338777Y-96114328D01*
X91922389Y-96114328D01*
X91922686Y-96119480D01*
X91922686Y-96119484D01*
X91927643Y-96205444D01*
X91935738Y-96345835D01*
X91936873Y-96350872D01*
X91936874Y-96350878D01*
X91980460Y-96544284D01*
X91986718Y-96572053D01*
X92073962Y-96786907D01*
X92076659Y-96791308D01*
X92185806Y-96969419D01*
X92195125Y-96984627D01*
X92346953Y-97159902D01*
X92525370Y-97308027D01*
X92529822Y-97310629D01*
X92529827Y-97310632D01*
X92721126Y-97422418D01*
X92725584Y-97425023D01*
X92942218Y-97507747D01*
X92947286Y-97508778D01*
X92947289Y-97508779D01*
X93059090Y-97531525D01*
X93169454Y-97553979D01*
X93174627Y-97554169D01*
X93174630Y-97554169D01*
X93396026Y-97562287D01*
X93396030Y-97562287D01*
X93401190Y-97562476D01*
X93406310Y-97561820D01*
X93406312Y-97561820D01*
X93477109Y-97552751D01*
X93631202Y-97533011D01*
X93636151Y-97531526D01*
X93636157Y-97531525D01*
X93848370Y-97467858D01*
X93853313Y-97466375D01*
X94061558Y-97364357D01*
X94145156Y-97304727D01*
X94246132Y-97232702D01*
X94246137Y-97232698D01*
X94250344Y-97229697D01*
X94414602Y-97066011D01*
X94549920Y-96877696D01*
X94590174Y-96796249D01*
X94650370Y-96674450D01*
X94650371Y-96674448D01*
X94652664Y-96669808D01*
X94683900Y-96566999D01*
X94718572Y-96452884D01*
X94718573Y-96452878D01*
X94720076Y-96447932D01*
X94750344Y-96218024D01*
X94752033Y-96148900D01*
X94737428Y-95971257D01*
X94733456Y-95922939D01*
X94733455Y-95922933D01*
X94733032Y-95917788D01*
X94676540Y-95692883D01*
X94584073Y-95480225D01*
X94458116Y-95285524D01*
X94430027Y-95254654D01*
X94305528Y-95117832D01*
X94305526Y-95117831D01*
X94302050Y-95114010D01*
X94297999Y-95110811D01*
X94297995Y-95110807D01*
X94209175Y-95040662D01*
X111200093Y-95040662D01*
X111209389Y-95052677D01*
X111260594Y-95088531D01*
X111270089Y-95094014D01*
X111467547Y-95186090D01*
X111477839Y-95189836D01*
X111688288Y-95246225D01*
X111699081Y-95248128D01*
X111916125Y-95267117D01*
X111927075Y-95267117D01*
X112144119Y-95248128D01*
X112154912Y-95246225D01*
X112365361Y-95189836D01*
X112375653Y-95186090D01*
X112573111Y-95094014D01*
X112582606Y-95088531D01*
X112634648Y-95052091D01*
X112643024Y-95041612D01*
X112635956Y-95028166D01*
X111934412Y-94326622D01*
X111920468Y-94319008D01*
X111918635Y-94319139D01*
X111912020Y-94323390D01*
X111206523Y-95028887D01*
X111200093Y-95040662D01*
X94209175Y-95040662D01*
X94124125Y-94973494D01*
X94120067Y-94970289D01*
X93917055Y-94858220D01*
X93760545Y-94802797D01*
X93703339Y-94782539D01*
X93703335Y-94782538D01*
X93698464Y-94780813D01*
X93693371Y-94779906D01*
X93693368Y-94779905D01*
X93475255Y-94741053D01*
X93475249Y-94741052D01*
X93470166Y-94740147D01*
X93381632Y-94739065D01*
X93243461Y-94737377D01*
X93243459Y-94737377D01*
X93238292Y-94737314D01*
X93009069Y-94772390D01*
X92788653Y-94844433D01*
X92784065Y-94846821D01*
X92784061Y-94846823D01*
X92747094Y-94866067D01*
X92582962Y-94951509D01*
X92578829Y-94954612D01*
X92578826Y-94954614D01*
X92401981Y-95087393D01*
X92397522Y-95090741D01*
X92237313Y-95258391D01*
X92234399Y-95262663D01*
X92234398Y-95262664D01*
X92231125Y-95267462D01*
X92106636Y-95449956D01*
X92104456Y-95454653D01*
X92018993Y-95638767D01*
X92009001Y-95660292D01*
X91947031Y-95883749D01*
X91922389Y-96114328D01*
X84338777Y-96114328D01*
X84340041Y-93960075D01*
X110609083Y-93960075D01*
X110628072Y-94177119D01*
X110629975Y-94187912D01*
X110686364Y-94398361D01*
X110690110Y-94408653D01*
X110782186Y-94606111D01*
X110787669Y-94615606D01*
X110824109Y-94667648D01*
X110834588Y-94676024D01*
X110848034Y-94668956D01*
X111549578Y-93967412D01*
X111555956Y-93955732D01*
X112286008Y-93955732D01*
X112286139Y-93957565D01*
X112290390Y-93964180D01*
X112995887Y-94669677D01*
X113007662Y-94676107D01*
X113019677Y-94666811D01*
X113055531Y-94615606D01*
X113061014Y-94606111D01*
X113153090Y-94408653D01*
X113156836Y-94398361D01*
X113213225Y-94187912D01*
X113215128Y-94177119D01*
X113234117Y-93960075D01*
X113234117Y-93954600D01*
X118108102Y-93954600D01*
X118128057Y-94182687D01*
X118129481Y-94188000D01*
X118129481Y-94188002D01*
X118166625Y-94326622D01*
X118187316Y-94403843D01*
X118189639Y-94408824D01*
X118189639Y-94408825D01*
X118281751Y-94606362D01*
X118281754Y-94606367D01*
X118284077Y-94611349D01*
X118357502Y-94716211D01*
X118402102Y-94779905D01*
X118415402Y-94798900D01*
X118577300Y-94960798D01*
X118581808Y-94963955D01*
X118581811Y-94963957D01*
X118636918Y-95002543D01*
X118764851Y-95092123D01*
X118769833Y-95094446D01*
X118769838Y-95094449D01*
X118819984Y-95117832D01*
X118972357Y-95188884D01*
X118977665Y-95190306D01*
X118977667Y-95190307D01*
X119188198Y-95246719D01*
X119188200Y-95246719D01*
X119193513Y-95248143D01*
X119421600Y-95268098D01*
X119649687Y-95248143D01*
X119655000Y-95246719D01*
X119655002Y-95246719D01*
X119865533Y-95190307D01*
X119865535Y-95190306D01*
X119870843Y-95188884D01*
X120023216Y-95117832D01*
X120073362Y-95094449D01*
X120073367Y-95094446D01*
X120078349Y-95092123D01*
X120206282Y-95002543D01*
X120261389Y-94963957D01*
X120261392Y-94963955D01*
X120265900Y-94960798D01*
X120427798Y-94798900D01*
X120441099Y-94779905D01*
X120485698Y-94716211D01*
X120559123Y-94611349D01*
X120561446Y-94606367D01*
X120561449Y-94606362D01*
X120638032Y-94442127D01*
X121871500Y-94442127D01*
X121886457Y-94613087D01*
X121887881Y-94618400D01*
X121887881Y-94618402D01*
X121938739Y-94808203D01*
X121945716Y-94834243D01*
X121948039Y-94839224D01*
X121948039Y-94839225D01*
X122040151Y-95036762D01*
X122040154Y-95036767D01*
X122042477Y-95041749D01*
X122173802Y-95229300D01*
X122335700Y-95391198D01*
X122340208Y-95394355D01*
X122340211Y-95394357D01*
X122393550Y-95431705D01*
X122523251Y-95522523D01*
X122528233Y-95524846D01*
X122528238Y-95524849D01*
X122725775Y-95616961D01*
X122730757Y-95619284D01*
X122736065Y-95620706D01*
X122736067Y-95620707D01*
X122946598Y-95677119D01*
X122946600Y-95677119D01*
X122951913Y-95678543D01*
X123180000Y-95698498D01*
X123408087Y-95678543D01*
X123413400Y-95677119D01*
X123413402Y-95677119D01*
X123623933Y-95620707D01*
X123623935Y-95620706D01*
X123629243Y-95619284D01*
X123634225Y-95616961D01*
X123831762Y-95524849D01*
X123831767Y-95524846D01*
X123836749Y-95522523D01*
X123966450Y-95431705D01*
X124019789Y-95394357D01*
X124019792Y-95394355D01*
X124024300Y-95391198D01*
X124186198Y-95229300D01*
X124317523Y-95041749D01*
X124319846Y-95036767D01*
X124319849Y-95036762D01*
X124335805Y-95002543D01*
X124382722Y-94949258D01*
X124450999Y-94929797D01*
X124518959Y-94950339D01*
X124564195Y-95002543D01*
X124580151Y-95036762D01*
X124580154Y-95036767D01*
X124582477Y-95041749D01*
X124713802Y-95229300D01*
X124875700Y-95391198D01*
X124880208Y-95394355D01*
X124880211Y-95394357D01*
X124933550Y-95431705D01*
X125063251Y-95522523D01*
X125068233Y-95524846D01*
X125068238Y-95524849D01*
X125265775Y-95616961D01*
X125270757Y-95619284D01*
X125276065Y-95620706D01*
X125276067Y-95620707D01*
X125486598Y-95677119D01*
X125486600Y-95677119D01*
X125491913Y-95678543D01*
X125720000Y-95698498D01*
X125948087Y-95678543D01*
X125953400Y-95677119D01*
X125953402Y-95677119D01*
X126163933Y-95620707D01*
X126163935Y-95620706D01*
X126169243Y-95619284D01*
X126174225Y-95616961D01*
X126371762Y-95524849D01*
X126371767Y-95524846D01*
X126376749Y-95522523D01*
X126506450Y-95431705D01*
X126559789Y-95394357D01*
X126559792Y-95394355D01*
X126564300Y-95391198D01*
X126726198Y-95229300D01*
X126857523Y-95041749D01*
X126859846Y-95036767D01*
X126859849Y-95036762D01*
X126875805Y-95002543D01*
X126922722Y-94949258D01*
X126990999Y-94929797D01*
X127058959Y-94950339D01*
X127104195Y-95002543D01*
X127120151Y-95036762D01*
X127120154Y-95036767D01*
X127122477Y-95041749D01*
X127253802Y-95229300D01*
X127415700Y-95391198D01*
X127420208Y-95394355D01*
X127420211Y-95394357D01*
X127473550Y-95431705D01*
X127603251Y-95522523D01*
X127608233Y-95524846D01*
X127608238Y-95524849D01*
X127805775Y-95616961D01*
X127810757Y-95619284D01*
X127816065Y-95620706D01*
X127816067Y-95620707D01*
X128026598Y-95677119D01*
X128026600Y-95677119D01*
X128031913Y-95678543D01*
X128260000Y-95698498D01*
X128488087Y-95678543D01*
X128493400Y-95677119D01*
X128493402Y-95677119D01*
X128703933Y-95620707D01*
X128703935Y-95620706D01*
X128709243Y-95619284D01*
X128714225Y-95616961D01*
X128911762Y-95524849D01*
X128911767Y-95524846D01*
X128916749Y-95522523D01*
X129046450Y-95431705D01*
X129099789Y-95394357D01*
X129099792Y-95394355D01*
X129104300Y-95391198D01*
X129266198Y-95229300D01*
X129269357Y-95224789D01*
X129272892Y-95220576D01*
X129274026Y-95221527D01*
X129324071Y-95181529D01*
X129394690Y-95174224D01*
X129458049Y-95206258D01*
X129494030Y-95267462D01*
X129497082Y-95284517D01*
X129498255Y-95295316D01*
X129549385Y-95431705D01*
X129636739Y-95548261D01*
X129753295Y-95635615D01*
X129889684Y-95686745D01*
X129951866Y-95693500D01*
X131648134Y-95693500D01*
X131710316Y-95686745D01*
X131846705Y-95635615D01*
X131963261Y-95548261D01*
X132050615Y-95431705D01*
X132096240Y-95310000D01*
X135846502Y-95310000D01*
X135866457Y-95538087D01*
X135867881Y-95543400D01*
X135867881Y-95543402D01*
X135906519Y-95687598D01*
X135925716Y-95759243D01*
X135928039Y-95764224D01*
X135928039Y-95764225D01*
X136020151Y-95961762D01*
X136020154Y-95961767D01*
X136022477Y-95966749D01*
X136025634Y-95971257D01*
X136129424Y-96119484D01*
X136153802Y-96154300D01*
X136315700Y-96316198D01*
X136320208Y-96319355D01*
X136320211Y-96319357D01*
X136350658Y-96340676D01*
X136503251Y-96447523D01*
X136508233Y-96449846D01*
X136508238Y-96449849D01*
X136607616Y-96496189D01*
X136710757Y-96544284D01*
X136716065Y-96545706D01*
X136716067Y-96545707D01*
X136926598Y-96602119D01*
X136926600Y-96602119D01*
X136931913Y-96603543D01*
X137160000Y-96623498D01*
X137388087Y-96603543D01*
X137393400Y-96602119D01*
X137393402Y-96602119D01*
X137603933Y-96545707D01*
X137603935Y-96545706D01*
X137609243Y-96544284D01*
X137712384Y-96496189D01*
X137811762Y-96449849D01*
X137811767Y-96449846D01*
X137816749Y-96447523D01*
X137969342Y-96340676D01*
X137999789Y-96319357D01*
X137999792Y-96319355D01*
X138004300Y-96316198D01*
X138166198Y-96154300D01*
X138190577Y-96119484D01*
X138294366Y-95971257D01*
X138297523Y-95966749D01*
X138299846Y-95961767D01*
X138299849Y-95961762D01*
X138391961Y-95764225D01*
X138391961Y-95764224D01*
X138394284Y-95759243D01*
X138413482Y-95687598D01*
X138421841Y-95656400D01*
X153829702Y-95656400D01*
X153849657Y-95884487D01*
X153908916Y-96105643D01*
X153911239Y-96110624D01*
X153911239Y-96110625D01*
X154003351Y-96308162D01*
X154003354Y-96308167D01*
X154005677Y-96313149D01*
X154137002Y-96500700D01*
X154298900Y-96662598D01*
X154303408Y-96665755D01*
X154303411Y-96665757D01*
X154315826Y-96674450D01*
X154486451Y-96793923D01*
X154491433Y-96796246D01*
X154491438Y-96796249D01*
X154688975Y-96888361D01*
X154693957Y-96890684D01*
X154699265Y-96892106D01*
X154699267Y-96892107D01*
X154909798Y-96948519D01*
X154909800Y-96948519D01*
X154915113Y-96949943D01*
X155143200Y-96969898D01*
X155371287Y-96949943D01*
X155376600Y-96948519D01*
X155376602Y-96948519D01*
X155587133Y-96892107D01*
X155587135Y-96892106D01*
X155592443Y-96890684D01*
X155597425Y-96888361D01*
X155794962Y-96796249D01*
X155794967Y-96796246D01*
X155799949Y-96793923D01*
X155970574Y-96674450D01*
X155982989Y-96665757D01*
X155982992Y-96665755D01*
X155987500Y-96662598D01*
X156149398Y-96500700D01*
X156280723Y-96313149D01*
X156283046Y-96308167D01*
X156283049Y-96308162D01*
X156375161Y-96110625D01*
X156375161Y-96110624D01*
X156377484Y-96105643D01*
X156436743Y-95884487D01*
X156456698Y-95656400D01*
X156436743Y-95428313D01*
X156435319Y-95422998D01*
X156378907Y-95212467D01*
X156378906Y-95212465D01*
X156377484Y-95207157D01*
X156367880Y-95186561D01*
X156283049Y-95004638D01*
X156283046Y-95004633D01*
X156280723Y-94999651D01*
X156181692Y-94858220D01*
X156152557Y-94816611D01*
X156152555Y-94816608D01*
X156149398Y-94812100D01*
X155987500Y-94650202D01*
X155982992Y-94647045D01*
X155982989Y-94647043D01*
X155904811Y-94592302D01*
X155799949Y-94518877D01*
X155794967Y-94516554D01*
X155794962Y-94516551D01*
X155597425Y-94424439D01*
X155597424Y-94424439D01*
X155592443Y-94422116D01*
X155587135Y-94420694D01*
X155587133Y-94420693D01*
X155376602Y-94364281D01*
X155376600Y-94364281D01*
X155371287Y-94362857D01*
X155143200Y-94342902D01*
X154915113Y-94362857D01*
X154909800Y-94364281D01*
X154909798Y-94364281D01*
X154699267Y-94420693D01*
X154699265Y-94420694D01*
X154693957Y-94422116D01*
X154688976Y-94424439D01*
X154688975Y-94424439D01*
X154491438Y-94516551D01*
X154491433Y-94516554D01*
X154486451Y-94518877D01*
X154381589Y-94592302D01*
X154303411Y-94647043D01*
X154303408Y-94647045D01*
X154298900Y-94650202D01*
X154137002Y-94812100D01*
X154133845Y-94816608D01*
X154133843Y-94816611D01*
X154104708Y-94858220D01*
X154005677Y-94999651D01*
X154003354Y-95004633D01*
X154003351Y-95004638D01*
X153918520Y-95186561D01*
X153908916Y-95207157D01*
X153907494Y-95212465D01*
X153907493Y-95212467D01*
X153851081Y-95422998D01*
X153849657Y-95428313D01*
X153829702Y-95656400D01*
X138421841Y-95656400D01*
X138452119Y-95543402D01*
X138452119Y-95543400D01*
X138453543Y-95538087D01*
X138473498Y-95310000D01*
X138453543Y-95081913D01*
X138439335Y-95028887D01*
X138395707Y-94866067D01*
X138395706Y-94866065D01*
X138394284Y-94860757D01*
X138384244Y-94839225D01*
X138299849Y-94658238D01*
X138299846Y-94658233D01*
X138297523Y-94653251D01*
X138166198Y-94465700D01*
X138004300Y-94303802D01*
X137999792Y-94300645D01*
X137999789Y-94300643D01*
X137921611Y-94245902D01*
X137816749Y-94172477D01*
X137811767Y-94170154D01*
X137811762Y-94170151D01*
X137614225Y-94078039D01*
X137614224Y-94078039D01*
X137609243Y-94075716D01*
X137603935Y-94074294D01*
X137603933Y-94074293D01*
X137393402Y-94017881D01*
X137393400Y-94017881D01*
X137388087Y-94016457D01*
X137160000Y-93996502D01*
X136931913Y-94016457D01*
X136926600Y-94017881D01*
X136926598Y-94017881D01*
X136716067Y-94074293D01*
X136716065Y-94074294D01*
X136710757Y-94075716D01*
X136705776Y-94078039D01*
X136705775Y-94078039D01*
X136508238Y-94170151D01*
X136508233Y-94170154D01*
X136503251Y-94172477D01*
X136398389Y-94245902D01*
X136320211Y-94300643D01*
X136320208Y-94300645D01*
X136315700Y-94303802D01*
X136153802Y-94465700D01*
X136022477Y-94653251D01*
X136020154Y-94658233D01*
X136020151Y-94658238D01*
X135935756Y-94839225D01*
X135925716Y-94860757D01*
X135924294Y-94866065D01*
X135924293Y-94866067D01*
X135880665Y-95028887D01*
X135866457Y-95081913D01*
X135846502Y-95310000D01*
X132096240Y-95310000D01*
X132101745Y-95295316D01*
X132108500Y-95233134D01*
X132108500Y-92849522D01*
X133667473Y-92849522D01*
X133714964Y-93026761D01*
X133718710Y-93037053D01*
X133810786Y-93234511D01*
X133816269Y-93244007D01*
X133941228Y-93422467D01*
X133948284Y-93430875D01*
X134102325Y-93584916D01*
X134110733Y-93591972D01*
X134289193Y-93716931D01*
X134298689Y-93722414D01*
X134496147Y-93814490D01*
X134506439Y-93818236D01*
X134678703Y-93864394D01*
X134692799Y-93864058D01*
X134696200Y-93856116D01*
X134696200Y-93850967D01*
X135204200Y-93850967D01*
X135208173Y-93864498D01*
X135216722Y-93865727D01*
X135393961Y-93818236D01*
X135404253Y-93814490D01*
X135601711Y-93722414D01*
X135611207Y-93716931D01*
X135789667Y-93591972D01*
X135798075Y-93584916D01*
X135952116Y-93430875D01*
X135959172Y-93422467D01*
X136084131Y-93244007D01*
X136089614Y-93234511D01*
X136181690Y-93037053D01*
X136185436Y-93026761D01*
X136231594Y-92854497D01*
X136231258Y-92840401D01*
X136223316Y-92837000D01*
X135222315Y-92837000D01*
X135207076Y-92841475D01*
X135205871Y-92842865D01*
X135204200Y-92850548D01*
X135204200Y-93850967D01*
X134696200Y-93850967D01*
X134696200Y-92855115D01*
X134691725Y-92839876D01*
X134690335Y-92838671D01*
X134682652Y-92837000D01*
X133682233Y-92837000D01*
X133668702Y-92840973D01*
X133667473Y-92849522D01*
X132108500Y-92849522D01*
X132108500Y-92736866D01*
X132101745Y-92674684D01*
X132050615Y-92538295D01*
X131963261Y-92421739D01*
X131846705Y-92334385D01*
X131785667Y-92311503D01*
X133668806Y-92311503D01*
X133669142Y-92325599D01*
X133677084Y-92329000D01*
X134678085Y-92329000D01*
X134693324Y-92324525D01*
X134694529Y-92323135D01*
X134696200Y-92315452D01*
X134696200Y-92310885D01*
X135204200Y-92310885D01*
X135208675Y-92326124D01*
X135210065Y-92327329D01*
X135217748Y-92329000D01*
X136218167Y-92329000D01*
X136231698Y-92325027D01*
X136232927Y-92316478D01*
X136185436Y-92139239D01*
X136181690Y-92128947D01*
X136089614Y-91931489D01*
X136084131Y-91921993D01*
X135959172Y-91743533D01*
X135952116Y-91735125D01*
X135798075Y-91581084D01*
X135789667Y-91574028D01*
X135611207Y-91449069D01*
X135601711Y-91443586D01*
X135404253Y-91351510D01*
X135393961Y-91347764D01*
X135221697Y-91301606D01*
X135207601Y-91301942D01*
X135204200Y-91309884D01*
X135204200Y-92310885D01*
X134696200Y-92310885D01*
X134696200Y-91315033D01*
X134692227Y-91301502D01*
X134683678Y-91300273D01*
X134506439Y-91347764D01*
X134496147Y-91351510D01*
X134298689Y-91443586D01*
X134289193Y-91449069D01*
X134110733Y-91574028D01*
X134102325Y-91581084D01*
X133948284Y-91735125D01*
X133941228Y-91743533D01*
X133816269Y-91921993D01*
X133810786Y-91931489D01*
X133718710Y-92128947D01*
X133714964Y-92139239D01*
X133668806Y-92311503D01*
X131785667Y-92311503D01*
X131710316Y-92283255D01*
X131648134Y-92276500D01*
X129951866Y-92276500D01*
X129889684Y-92283255D01*
X129753295Y-92334385D01*
X129636739Y-92421739D01*
X129549385Y-92538295D01*
X129498255Y-92674684D01*
X129497083Y-92685474D01*
X129496197Y-92687606D01*
X129495575Y-92690222D01*
X129495152Y-92690121D01*
X129469845Y-92751035D01*
X129411483Y-92791463D01*
X129340529Y-92793922D01*
X129279510Y-92757629D01*
X129272511Y-92748969D01*
X129269354Y-92745207D01*
X129266198Y-92740700D01*
X129104300Y-92578802D01*
X129099792Y-92575645D01*
X129099789Y-92575643D01*
X128939802Y-92463619D01*
X128916749Y-92447477D01*
X128911767Y-92445154D01*
X128911762Y-92445151D01*
X128714225Y-92353039D01*
X128714224Y-92353039D01*
X128709243Y-92350716D01*
X128703935Y-92349294D01*
X128703933Y-92349293D01*
X128493402Y-92292881D01*
X128493400Y-92292881D01*
X128488087Y-92291457D01*
X128260000Y-92271502D01*
X128031913Y-92291457D01*
X128026600Y-92292881D01*
X128026598Y-92292881D01*
X127816067Y-92349293D01*
X127816065Y-92349294D01*
X127810757Y-92350716D01*
X127805776Y-92353039D01*
X127805775Y-92353039D01*
X127608238Y-92445151D01*
X127608233Y-92445154D01*
X127603251Y-92447477D01*
X127580198Y-92463619D01*
X127420211Y-92575643D01*
X127420208Y-92575645D01*
X127415700Y-92578802D01*
X127253802Y-92740700D01*
X127122477Y-92928251D01*
X127120154Y-92933233D01*
X127120151Y-92933238D01*
X127104195Y-92967457D01*
X127057278Y-93020742D01*
X126989001Y-93040203D01*
X126921041Y-93019661D01*
X126875805Y-92967457D01*
X126859849Y-92933238D01*
X126859846Y-92933233D01*
X126857523Y-92928251D01*
X126726198Y-92740700D01*
X126564300Y-92578802D01*
X126559792Y-92575645D01*
X126559789Y-92575643D01*
X126435203Y-92488407D01*
X126390875Y-92432950D01*
X126383566Y-92362330D01*
X126415597Y-92298970D01*
X126435203Y-92281981D01*
X126595189Y-92169957D01*
X126595192Y-92169955D01*
X126599700Y-92166798D01*
X126761598Y-92004900D01*
X126773061Y-91988530D01*
X126889766Y-91821857D01*
X126892923Y-91817349D01*
X126895246Y-91812367D01*
X126895249Y-91812362D01*
X126987361Y-91614825D01*
X126987361Y-91614824D01*
X126989684Y-91609843D01*
X127031742Y-91452884D01*
X127047519Y-91394002D01*
X127047519Y-91394000D01*
X127048943Y-91388687D01*
X127068898Y-91160600D01*
X127048943Y-90932513D01*
X127046378Y-90922939D01*
X126991107Y-90716667D01*
X126991106Y-90716665D01*
X126989684Y-90711357D01*
X126983407Y-90697896D01*
X126950441Y-90627200D01*
X129471102Y-90627200D01*
X129491057Y-90855287D01*
X129492481Y-90860600D01*
X129492481Y-90860602D01*
X129536051Y-91023204D01*
X129550316Y-91076443D01*
X129552639Y-91081424D01*
X129552639Y-91081425D01*
X129644751Y-91278962D01*
X129644754Y-91278967D01*
X129647077Y-91283949D01*
X129686798Y-91340676D01*
X129762696Y-91449069D01*
X129778402Y-91471500D01*
X129940300Y-91633398D01*
X129944808Y-91636555D01*
X129944811Y-91636557D01*
X129992299Y-91669808D01*
X130127851Y-91764723D01*
X130132833Y-91767046D01*
X130132838Y-91767049D01*
X130330375Y-91859161D01*
X130335357Y-91861484D01*
X130340665Y-91862906D01*
X130340667Y-91862907D01*
X130551198Y-91919319D01*
X130551200Y-91919319D01*
X130556513Y-91920743D01*
X130784600Y-91940698D01*
X131012687Y-91920743D01*
X131018000Y-91919319D01*
X131018002Y-91919319D01*
X131228533Y-91862907D01*
X131228535Y-91862906D01*
X131233843Y-91861484D01*
X131238825Y-91859161D01*
X131436362Y-91767049D01*
X131436367Y-91767046D01*
X131441349Y-91764723D01*
X131576901Y-91669808D01*
X131624389Y-91636557D01*
X131624392Y-91636555D01*
X131628900Y-91633398D01*
X131790798Y-91471500D01*
X131806505Y-91449069D01*
X131882402Y-91340676D01*
X131922123Y-91283949D01*
X131924446Y-91278967D01*
X131924449Y-91278962D01*
X132016561Y-91081425D01*
X132016561Y-91081424D01*
X132018884Y-91076443D01*
X132033150Y-91023204D01*
X132035040Y-91016149D01*
X152102181Y-91016149D01*
X152107462Y-91023204D01*
X152284343Y-91126565D01*
X152293626Y-91131012D01*
X152500527Y-91210020D01*
X152510425Y-91212896D01*
X152727452Y-91257050D01*
X152737681Y-91258269D01*
X152959003Y-91266386D01*
X152969289Y-91265919D01*
X153188970Y-91237777D01*
X153199048Y-91235635D01*
X153411175Y-91171994D01*
X153420782Y-91168228D01*
X153619653Y-91070802D01*
X153628512Y-91065522D01*
X153686315Y-91024291D01*
X153694715Y-91013591D01*
X153687728Y-91000438D01*
X152912812Y-90225522D01*
X152898868Y-90217908D01*
X152897035Y-90218039D01*
X152890420Y-90222290D01*
X152108941Y-91003769D01*
X152102181Y-91016149D01*
X132035040Y-91016149D01*
X132076719Y-90860602D01*
X132076719Y-90860600D01*
X132078143Y-90855287D01*
X132098098Y-90627200D01*
X132078143Y-90399113D01*
X132072718Y-90378866D01*
X132020307Y-90183267D01*
X132020306Y-90183265D01*
X132018884Y-90177957D01*
X132016561Y-90172975D01*
X131924449Y-89975438D01*
X131924446Y-89975433D01*
X131922123Y-89970451D01*
X131835753Y-89847102D01*
X131793957Y-89787411D01*
X131793955Y-89787408D01*
X131790798Y-89782900D01*
X131628900Y-89621002D01*
X131624392Y-89617845D01*
X131624389Y-89617843D01*
X131544621Y-89561989D01*
X131441349Y-89489677D01*
X131436367Y-89487354D01*
X131436362Y-89487351D01*
X131238825Y-89395239D01*
X131238824Y-89395239D01*
X131233843Y-89392916D01*
X131228535Y-89391494D01*
X131228533Y-89391493D01*
X131018002Y-89335081D01*
X131018000Y-89335081D01*
X131012687Y-89333657D01*
X130784600Y-89313702D01*
X130556513Y-89333657D01*
X130551200Y-89335081D01*
X130551198Y-89335081D01*
X130340667Y-89391493D01*
X130340665Y-89391494D01*
X130335357Y-89392916D01*
X130330376Y-89395239D01*
X130330375Y-89395239D01*
X130132838Y-89487351D01*
X130132833Y-89487354D01*
X130127851Y-89489677D01*
X130024579Y-89561989D01*
X129944811Y-89617843D01*
X129944808Y-89617845D01*
X129940300Y-89621002D01*
X129778402Y-89782900D01*
X129775245Y-89787408D01*
X129775243Y-89787411D01*
X129733447Y-89847102D01*
X129647077Y-89970451D01*
X129644754Y-89975433D01*
X129644751Y-89975438D01*
X129552639Y-90172975D01*
X129550316Y-90177957D01*
X129548894Y-90183265D01*
X129548893Y-90183267D01*
X129496482Y-90378866D01*
X129491057Y-90399113D01*
X129471102Y-90627200D01*
X126950441Y-90627200D01*
X126895249Y-90508838D01*
X126895246Y-90508833D01*
X126892923Y-90503851D01*
X126761598Y-90316300D01*
X126599700Y-90154402D01*
X126595192Y-90151245D01*
X126595189Y-90151243D01*
X126508783Y-90090741D01*
X126412149Y-90023077D01*
X126407167Y-90020754D01*
X126407162Y-90020751D01*
X126209625Y-89928639D01*
X126209624Y-89928639D01*
X126204643Y-89926316D01*
X126199335Y-89924894D01*
X126199333Y-89924893D01*
X125988802Y-89868481D01*
X125988800Y-89868481D01*
X125983487Y-89867057D01*
X125755400Y-89847102D01*
X125527313Y-89867057D01*
X125522000Y-89868481D01*
X125521998Y-89868481D01*
X125311467Y-89924893D01*
X125311465Y-89924894D01*
X125306157Y-89926316D01*
X125301176Y-89928639D01*
X125301175Y-89928639D01*
X125103638Y-90020751D01*
X125103633Y-90020754D01*
X125098651Y-90023077D01*
X125002017Y-90090741D01*
X124915611Y-90151243D01*
X124915608Y-90151245D01*
X124911100Y-90154402D01*
X124749202Y-90316300D01*
X124617877Y-90503851D01*
X124615554Y-90508833D01*
X124615551Y-90508838D01*
X124527393Y-90697896D01*
X124521116Y-90711357D01*
X124519694Y-90716665D01*
X124519693Y-90716667D01*
X124464422Y-90922939D01*
X124461857Y-90932513D01*
X124441902Y-91160600D01*
X124461857Y-91388687D01*
X124463281Y-91394000D01*
X124463281Y-91394002D01*
X124479059Y-91452884D01*
X124521116Y-91609843D01*
X124523439Y-91614824D01*
X124523439Y-91614825D01*
X124615551Y-91812362D01*
X124615554Y-91812367D01*
X124617877Y-91817349D01*
X124621034Y-91821857D01*
X124737740Y-91988530D01*
X124749202Y-92004900D01*
X124911100Y-92166798D01*
X124915608Y-92169955D01*
X124915611Y-92169957D01*
X125040197Y-92257193D01*
X125084525Y-92312650D01*
X125091834Y-92383270D01*
X125059803Y-92446630D01*
X125040197Y-92463619D01*
X124880211Y-92575643D01*
X124880208Y-92575645D01*
X124875700Y-92578802D01*
X124713802Y-92740700D01*
X124582477Y-92928251D01*
X124580154Y-92933233D01*
X124580151Y-92933238D01*
X124564195Y-92967457D01*
X124517278Y-93020742D01*
X124449001Y-93040203D01*
X124381041Y-93019661D01*
X124335805Y-92967457D01*
X124319849Y-92933238D01*
X124319846Y-92933233D01*
X124317523Y-92928251D01*
X124186198Y-92740700D01*
X124024300Y-92578802D01*
X124019792Y-92575645D01*
X124019789Y-92575643D01*
X123859802Y-92463619D01*
X123836749Y-92447477D01*
X123831767Y-92445154D01*
X123831762Y-92445151D01*
X123634225Y-92353039D01*
X123634224Y-92353039D01*
X123629243Y-92350716D01*
X123623935Y-92349294D01*
X123623933Y-92349293D01*
X123413402Y-92292881D01*
X123413400Y-92292881D01*
X123408087Y-92291457D01*
X123180000Y-92271502D01*
X122951913Y-92291457D01*
X122946600Y-92292881D01*
X122946598Y-92292881D01*
X122736067Y-92349293D01*
X122736065Y-92349294D01*
X122730757Y-92350716D01*
X122725776Y-92353039D01*
X122725775Y-92353039D01*
X122528238Y-92445151D01*
X122528233Y-92445154D01*
X122523251Y-92447477D01*
X122500198Y-92463619D01*
X122340211Y-92575643D01*
X122340208Y-92575645D01*
X122335700Y-92578802D01*
X122173802Y-92740700D01*
X122042477Y-92928251D01*
X122040154Y-92933233D01*
X122040151Y-92933238D01*
X122033080Y-92948402D01*
X121945716Y-93135757D01*
X121944294Y-93141065D01*
X121944293Y-93141067D01*
X121903423Y-93293594D01*
X121886457Y-93356913D01*
X121871500Y-93527873D01*
X121871500Y-94442127D01*
X120638032Y-94442127D01*
X120653561Y-94408825D01*
X120653561Y-94408824D01*
X120655884Y-94403843D01*
X120676576Y-94326622D01*
X120713719Y-94188002D01*
X120713719Y-94188000D01*
X120715143Y-94182687D01*
X120735098Y-93954600D01*
X120715143Y-93726513D01*
X120713719Y-93721198D01*
X120657307Y-93510667D01*
X120657306Y-93510665D01*
X120655884Y-93505357D01*
X120617232Y-93422467D01*
X120561449Y-93302838D01*
X120561446Y-93302833D01*
X120559123Y-93297851D01*
X120485698Y-93192989D01*
X120430957Y-93114811D01*
X120430955Y-93114808D01*
X120427798Y-93110300D01*
X120265900Y-92948402D01*
X120261392Y-92945245D01*
X120261389Y-92945243D01*
X120135520Y-92857109D01*
X120078349Y-92817077D01*
X120073367Y-92814754D01*
X120073362Y-92814751D01*
X119875825Y-92722639D01*
X119875824Y-92722639D01*
X119870843Y-92720316D01*
X119865535Y-92718894D01*
X119865533Y-92718893D01*
X119655002Y-92662481D01*
X119655000Y-92662481D01*
X119649687Y-92661057D01*
X119421600Y-92641102D01*
X119193513Y-92661057D01*
X119188200Y-92662481D01*
X119188198Y-92662481D01*
X118977667Y-92718893D01*
X118977665Y-92718894D01*
X118972357Y-92720316D01*
X118967376Y-92722639D01*
X118967375Y-92722639D01*
X118769838Y-92814751D01*
X118769833Y-92814754D01*
X118764851Y-92817077D01*
X118707680Y-92857109D01*
X118581811Y-92945243D01*
X118581808Y-92945245D01*
X118577300Y-92948402D01*
X118415402Y-93110300D01*
X118412245Y-93114808D01*
X118412243Y-93114811D01*
X118357502Y-93192989D01*
X118284077Y-93297851D01*
X118281754Y-93302833D01*
X118281751Y-93302838D01*
X118225968Y-93422467D01*
X118187316Y-93505357D01*
X118185894Y-93510665D01*
X118185893Y-93510667D01*
X118129481Y-93721198D01*
X118128057Y-93726513D01*
X118108102Y-93954600D01*
X113234117Y-93954600D01*
X113234117Y-93949125D01*
X113215128Y-93732081D01*
X113213225Y-93721288D01*
X113156836Y-93510839D01*
X113153090Y-93500547D01*
X113061014Y-93303089D01*
X113055531Y-93293594D01*
X113019091Y-93241552D01*
X113008612Y-93233176D01*
X112995166Y-93240244D01*
X112293622Y-93941788D01*
X112286008Y-93955732D01*
X111555956Y-93955732D01*
X111557192Y-93953468D01*
X111557061Y-93951635D01*
X111552810Y-93945020D01*
X110847313Y-93239523D01*
X110835538Y-93233093D01*
X110823523Y-93242389D01*
X110787669Y-93293594D01*
X110782186Y-93303089D01*
X110690110Y-93500547D01*
X110686364Y-93510839D01*
X110629975Y-93721288D01*
X110628072Y-93732081D01*
X110609083Y-93949125D01*
X110609083Y-93960075D01*
X84340041Y-93960075D01*
X84340682Y-92867588D01*
X111200176Y-92867588D01*
X111207244Y-92881034D01*
X111908788Y-93582578D01*
X111922732Y-93590192D01*
X111924565Y-93590061D01*
X111931180Y-93585810D01*
X112636677Y-92880313D01*
X112643107Y-92868538D01*
X112633811Y-92856523D01*
X112582606Y-92820669D01*
X112573111Y-92815186D01*
X112375653Y-92723110D01*
X112365361Y-92719364D01*
X112154912Y-92662975D01*
X112144119Y-92661072D01*
X111927075Y-92642083D01*
X111916125Y-92642083D01*
X111699081Y-92661072D01*
X111688288Y-92662975D01*
X111477839Y-92719364D01*
X111467547Y-92723110D01*
X111270089Y-92815186D01*
X111260594Y-92820669D01*
X111208552Y-92857109D01*
X111200176Y-92867588D01*
X84340682Y-92867588D01*
X84341711Y-91114328D01*
X91922389Y-91114328D01*
X91922686Y-91119480D01*
X91922686Y-91119484D01*
X91923351Y-91131012D01*
X91935738Y-91345835D01*
X91936873Y-91350872D01*
X91936874Y-91350878D01*
X91964936Y-91475397D01*
X91986718Y-91572053D01*
X92073962Y-91786907D01*
X92195125Y-91984627D01*
X92346953Y-92159902D01*
X92525370Y-92308027D01*
X92529822Y-92310629D01*
X92529827Y-92310632D01*
X92710756Y-92416358D01*
X92725584Y-92425023D01*
X92942218Y-92507747D01*
X92947286Y-92508778D01*
X92947289Y-92508779D01*
X93057045Y-92531109D01*
X93169454Y-92553979D01*
X93174627Y-92554169D01*
X93174630Y-92554169D01*
X93396026Y-92562287D01*
X93396030Y-92562287D01*
X93401190Y-92562476D01*
X93406310Y-92561820D01*
X93406312Y-92561820D01*
X93524318Y-92546703D01*
X93631202Y-92533011D01*
X93636151Y-92531526D01*
X93636157Y-92531525D01*
X93848370Y-92467858D01*
X93853313Y-92466375D01*
X93885445Y-92450634D01*
X94056920Y-92366629D01*
X94061558Y-92364357D01*
X94130120Y-92315452D01*
X94246132Y-92232702D01*
X94246137Y-92232698D01*
X94250344Y-92229697D01*
X94414602Y-92066011D01*
X94549920Y-91877696D01*
X94557933Y-91861484D01*
X94650370Y-91674450D01*
X94650371Y-91674448D01*
X94652664Y-91669808D01*
X94683900Y-91566999D01*
X94718572Y-91452884D01*
X94718573Y-91452878D01*
X94720076Y-91447932D01*
X94743977Y-91266386D01*
X94749907Y-91221345D01*
X94749907Y-91221341D01*
X94750344Y-91218024D01*
X94751561Y-91168228D01*
X94751951Y-91152265D01*
X94751951Y-91152261D01*
X94752033Y-91148900D01*
X94741119Y-91016149D01*
X94733456Y-90922939D01*
X94733455Y-90922933D01*
X94733032Y-90917788D01*
X94676540Y-90692883D01*
X94584073Y-90480225D01*
X94458116Y-90285524D01*
X94445315Y-90271455D01*
X94305528Y-90117832D01*
X94305526Y-90117831D01*
X94302050Y-90114010D01*
X94297999Y-90110811D01*
X94297995Y-90110807D01*
X94124125Y-89973494D01*
X94120067Y-89970289D01*
X93917055Y-89858220D01*
X93791636Y-89813807D01*
X93703339Y-89782539D01*
X93703335Y-89782538D01*
X93698464Y-89780813D01*
X93693371Y-89779906D01*
X93693368Y-89779905D01*
X93475255Y-89741053D01*
X93475249Y-89741052D01*
X93470166Y-89740147D01*
X93381632Y-89739065D01*
X93243461Y-89737377D01*
X93243459Y-89737377D01*
X93238292Y-89737314D01*
X93009069Y-89772390D01*
X92788653Y-89844433D01*
X92784065Y-89846821D01*
X92784061Y-89846823D01*
X92587551Y-89949120D01*
X92582962Y-89951509D01*
X92578829Y-89954612D01*
X92578826Y-89954614D01*
X92458182Y-90045196D01*
X92397522Y-90090741D01*
X92237313Y-90258391D01*
X92106636Y-90449956D01*
X92104456Y-90454653D01*
X92024362Y-90627200D01*
X92009001Y-90660292D01*
X91947031Y-90883749D01*
X91922389Y-91114328D01*
X84341711Y-91114328D01*
X84343360Y-88302922D01*
X98869473Y-88302922D01*
X98916964Y-88480161D01*
X98920710Y-88490453D01*
X99012786Y-88687911D01*
X99018269Y-88697407D01*
X99143228Y-88875867D01*
X99150284Y-88884275D01*
X99304325Y-89038316D01*
X99312733Y-89045372D01*
X99491193Y-89170331D01*
X99500689Y-89175814D01*
X99698147Y-89267890D01*
X99708439Y-89271636D01*
X99880703Y-89317794D01*
X99894799Y-89317458D01*
X99898200Y-89309516D01*
X99898200Y-89304367D01*
X100406200Y-89304367D01*
X100410173Y-89317898D01*
X100418722Y-89319127D01*
X100595961Y-89271636D01*
X100606253Y-89267890D01*
X100803711Y-89175814D01*
X100813207Y-89170331D01*
X100991667Y-89045372D01*
X101000075Y-89038316D01*
X101154116Y-88884275D01*
X101161172Y-88875867D01*
X101286131Y-88697407D01*
X101291614Y-88687911D01*
X101383690Y-88490453D01*
X101387436Y-88480161D01*
X101433594Y-88307897D01*
X101433258Y-88293801D01*
X101425316Y-88290400D01*
X100424315Y-88290400D01*
X100409076Y-88294875D01*
X100407871Y-88296265D01*
X100406200Y-88303948D01*
X100406200Y-89304367D01*
X99898200Y-89304367D01*
X99898200Y-88308515D01*
X99893725Y-88293276D01*
X99892335Y-88292071D01*
X99884652Y-88290400D01*
X98884233Y-88290400D01*
X98870702Y-88294373D01*
X98869473Y-88302922D01*
X84343360Y-88302922D01*
X84343517Y-88036400D01*
X108998702Y-88036400D01*
X109018657Y-88264487D01*
X109020081Y-88269800D01*
X109020081Y-88269802D01*
X109075519Y-88476696D01*
X109077916Y-88485643D01*
X109080239Y-88490624D01*
X109080239Y-88490625D01*
X109172351Y-88688162D01*
X109172354Y-88688167D01*
X109174677Y-88693149D01*
X109306002Y-88880700D01*
X109467900Y-89042598D01*
X109472408Y-89045755D01*
X109472411Y-89045757D01*
X109550589Y-89100498D01*
X109655451Y-89173923D01*
X109660433Y-89176246D01*
X109660438Y-89176249D01*
X109856965Y-89267890D01*
X109862957Y-89270684D01*
X109868265Y-89272106D01*
X109868267Y-89272107D01*
X110078798Y-89328519D01*
X110078800Y-89328519D01*
X110084113Y-89329943D01*
X110312200Y-89349898D01*
X110540287Y-89329943D01*
X110545600Y-89328519D01*
X110545602Y-89328519D01*
X110756133Y-89272107D01*
X110756135Y-89272106D01*
X110761443Y-89270684D01*
X110767435Y-89267890D01*
X110963962Y-89176249D01*
X110963967Y-89176246D01*
X110968949Y-89173923D01*
X111073811Y-89100498D01*
X111151989Y-89045757D01*
X111151992Y-89045755D01*
X111156500Y-89042598D01*
X111318398Y-88880700D01*
X111429381Y-88722200D01*
X142628302Y-88722200D01*
X142648257Y-88950287D01*
X142649681Y-88955600D01*
X142649681Y-88955602D01*
X142704316Y-89159499D01*
X142707516Y-89171443D01*
X142709839Y-89176424D01*
X142709839Y-89176425D01*
X142801951Y-89373962D01*
X142801954Y-89373967D01*
X142804277Y-89378949D01*
X142935602Y-89566500D01*
X143097500Y-89728398D01*
X143102008Y-89731555D01*
X143102011Y-89731557D01*
X143114189Y-89740084D01*
X143285051Y-89859723D01*
X143290033Y-89862046D01*
X143290038Y-89862049D01*
X143481888Y-89951509D01*
X143492557Y-89956484D01*
X143497865Y-89957906D01*
X143497867Y-89957907D01*
X143708398Y-90014319D01*
X143708400Y-90014319D01*
X143713713Y-90015743D01*
X143941800Y-90035698D01*
X144169887Y-90015743D01*
X144175200Y-90014319D01*
X144175202Y-90014319D01*
X144385733Y-89957907D01*
X144385735Y-89957906D01*
X144391043Y-89956484D01*
X144401712Y-89951509D01*
X144593562Y-89862049D01*
X144593567Y-89862046D01*
X144598549Y-89859723D01*
X144649430Y-89824096D01*
X151486188Y-89824096D01*
X151498937Y-90045196D01*
X151500373Y-90055417D01*
X151549060Y-90271455D01*
X151552144Y-90281296D01*
X151635464Y-90486487D01*
X151640114Y-90495692D01*
X151728862Y-90640515D01*
X151739320Y-90649977D01*
X151748096Y-90646194D01*
X152527978Y-89866312D01*
X152534356Y-89854632D01*
X153264408Y-89854632D01*
X153264539Y-89856465D01*
X153268790Y-89863080D01*
X154047520Y-90641810D01*
X154059531Y-90648369D01*
X154071269Y-90639401D01*
X154109469Y-90586241D01*
X154114784Y-90577395D01*
X154212904Y-90378866D01*
X154216702Y-90369273D01*
X154281083Y-90157369D01*
X154283260Y-90147299D01*
X154312405Y-89925922D01*
X154312924Y-89919247D01*
X154314449Y-89856864D01*
X154314255Y-89850146D01*
X154295961Y-89627621D01*
X154294278Y-89617459D01*
X154240324Y-89402659D01*
X154237005Y-89392908D01*
X154148689Y-89189796D01*
X154143825Y-89180725D01*
X154070453Y-89067310D01*
X154059766Y-89058106D01*
X154050201Y-89062509D01*
X153272022Y-89840688D01*
X153264408Y-89854632D01*
X152534356Y-89854632D01*
X152535592Y-89852368D01*
X152535461Y-89850535D01*
X152531210Y-89843920D01*
X151752643Y-89065353D01*
X151741107Y-89059053D01*
X151728824Y-89068677D01*
X151672991Y-89150525D01*
X151667893Y-89159499D01*
X151574652Y-89360370D01*
X151571089Y-89370057D01*
X151511906Y-89583461D01*
X151509975Y-89593580D01*
X151486440Y-89813807D01*
X151486188Y-89824096D01*
X144649430Y-89824096D01*
X144769411Y-89740084D01*
X144781589Y-89731557D01*
X144781592Y-89731555D01*
X144786100Y-89728398D01*
X144947998Y-89566500D01*
X145079323Y-89378949D01*
X145081646Y-89373967D01*
X145081649Y-89373962D01*
X145173761Y-89176425D01*
X145173761Y-89176424D01*
X145176084Y-89171443D01*
X145179285Y-89159499D01*
X145233919Y-88955602D01*
X145233919Y-88955600D01*
X145235343Y-88950287D01*
X145255298Y-88722200D01*
X145252743Y-88692998D01*
X152104294Y-88692998D01*
X152111038Y-88705328D01*
X152887188Y-89481478D01*
X152901132Y-89489092D01*
X152902965Y-89488961D01*
X152909580Y-89484710D01*
X153690200Y-88704090D01*
X153697220Y-88691234D01*
X153689446Y-88680564D01*
X153686848Y-88678512D01*
X153678265Y-88672809D01*
X153484375Y-88565777D01*
X153474976Y-88561552D01*
X153266211Y-88487624D01*
X153256240Y-88484990D01*
X153038208Y-88446153D01*
X153027955Y-88445184D01*
X152806496Y-88442478D01*
X152796213Y-88443198D01*
X152577297Y-88476696D01*
X152567270Y-88479085D01*
X152356766Y-88547888D01*
X152347257Y-88551885D01*
X152150820Y-88654145D01*
X152142092Y-88659641D01*
X152112747Y-88681673D01*
X152104294Y-88692998D01*
X145252743Y-88692998D01*
X145235343Y-88494113D01*
X145233604Y-88487624D01*
X145177507Y-88278267D01*
X145177506Y-88278265D01*
X145176084Y-88272957D01*
X145173761Y-88267975D01*
X145081649Y-88070438D01*
X145081646Y-88070433D01*
X145079323Y-88065451D01*
X144947998Y-87877900D01*
X144786100Y-87716002D01*
X144781592Y-87712845D01*
X144781589Y-87712843D01*
X144703411Y-87658102D01*
X144598549Y-87584677D01*
X144593567Y-87582354D01*
X144593562Y-87582351D01*
X144396025Y-87490239D01*
X144396024Y-87490239D01*
X144391043Y-87487916D01*
X144385735Y-87486494D01*
X144385733Y-87486493D01*
X144175202Y-87430081D01*
X144175200Y-87430081D01*
X144169887Y-87428657D01*
X143941800Y-87408702D01*
X143713713Y-87428657D01*
X143708400Y-87430081D01*
X143708398Y-87430081D01*
X143497867Y-87486493D01*
X143497865Y-87486494D01*
X143492557Y-87487916D01*
X143487576Y-87490239D01*
X143487575Y-87490239D01*
X143290038Y-87582351D01*
X143290033Y-87582354D01*
X143285051Y-87584677D01*
X143180189Y-87658102D01*
X143102011Y-87712843D01*
X143102008Y-87712845D01*
X143097500Y-87716002D01*
X142935602Y-87877900D01*
X142804277Y-88065451D01*
X142801954Y-88070433D01*
X142801951Y-88070438D01*
X142709839Y-88267975D01*
X142707516Y-88272957D01*
X142706094Y-88278265D01*
X142706093Y-88278267D01*
X142649996Y-88487624D01*
X142648257Y-88494113D01*
X142628302Y-88722200D01*
X111429381Y-88722200D01*
X111449723Y-88693149D01*
X111452046Y-88688167D01*
X111452049Y-88688162D01*
X111544161Y-88490625D01*
X111544161Y-88490624D01*
X111546484Y-88485643D01*
X111548882Y-88476696D01*
X111604319Y-88269802D01*
X111604319Y-88269800D01*
X111605743Y-88264487D01*
X111625698Y-88036400D01*
X111605743Y-87808313D01*
X111595444Y-87769878D01*
X111547907Y-87592467D01*
X111547906Y-87592465D01*
X111546484Y-87587157D01*
X111530300Y-87552449D01*
X111452049Y-87384638D01*
X111452046Y-87384633D01*
X111449723Y-87379651D01*
X111318398Y-87192100D01*
X111156500Y-87030202D01*
X111151992Y-87027045D01*
X111151989Y-87027043D01*
X111033060Y-86943768D01*
X110968949Y-86898877D01*
X110963967Y-86896554D01*
X110963962Y-86896551D01*
X110766425Y-86804439D01*
X110766424Y-86804439D01*
X110761443Y-86802116D01*
X110756135Y-86800694D01*
X110756133Y-86800693D01*
X110545602Y-86744281D01*
X110545600Y-86744281D01*
X110540287Y-86742857D01*
X110312200Y-86722902D01*
X110084113Y-86742857D01*
X110078800Y-86744281D01*
X110078798Y-86744281D01*
X109868267Y-86800693D01*
X109868265Y-86800694D01*
X109862957Y-86802116D01*
X109857976Y-86804439D01*
X109857975Y-86804439D01*
X109660438Y-86896551D01*
X109660433Y-86896554D01*
X109655451Y-86898877D01*
X109591340Y-86943768D01*
X109472411Y-87027043D01*
X109472408Y-87027045D01*
X109467900Y-87030202D01*
X109306002Y-87192100D01*
X109174677Y-87379651D01*
X109172354Y-87384633D01*
X109172351Y-87384638D01*
X109094100Y-87552449D01*
X109077916Y-87587157D01*
X109076494Y-87592465D01*
X109076493Y-87592467D01*
X109028956Y-87769878D01*
X109018657Y-87808313D01*
X108998702Y-88036400D01*
X84343517Y-88036400D01*
X84343676Y-87764903D01*
X98870806Y-87764903D01*
X98871142Y-87778999D01*
X98879084Y-87782400D01*
X99880085Y-87782400D01*
X99895324Y-87777925D01*
X99896529Y-87776535D01*
X99898200Y-87768852D01*
X99898200Y-87764285D01*
X100406200Y-87764285D01*
X100410675Y-87779524D01*
X100412065Y-87780729D01*
X100419748Y-87782400D01*
X101420167Y-87782400D01*
X101433698Y-87778427D01*
X101434927Y-87769878D01*
X101387436Y-87592639D01*
X101383690Y-87582347D01*
X101291614Y-87384889D01*
X101286131Y-87375393D01*
X101161172Y-87196933D01*
X101154116Y-87188525D01*
X101000075Y-87034484D01*
X100991667Y-87027428D01*
X100813207Y-86902469D01*
X100803711Y-86896986D01*
X100606253Y-86804910D01*
X100595961Y-86801164D01*
X100423697Y-86755006D01*
X100409601Y-86755342D01*
X100406200Y-86763284D01*
X100406200Y-87764285D01*
X99898200Y-87764285D01*
X99898200Y-86768433D01*
X99894227Y-86754902D01*
X99885678Y-86753673D01*
X99708439Y-86801164D01*
X99698147Y-86804910D01*
X99500689Y-86896986D01*
X99491193Y-86902469D01*
X99312733Y-87027428D01*
X99304325Y-87034484D01*
X99150284Y-87188525D01*
X99143228Y-87196933D01*
X99018269Y-87375393D01*
X99012786Y-87384889D01*
X98920710Y-87582347D01*
X98916964Y-87592639D01*
X98870806Y-87764903D01*
X84343676Y-87764903D01*
X84343942Y-87311548D01*
X92539181Y-87311548D01*
X92544462Y-87318603D01*
X92721343Y-87421964D01*
X92730626Y-87426411D01*
X92937527Y-87505419D01*
X92947425Y-87508295D01*
X93164452Y-87552449D01*
X93174681Y-87553668D01*
X93396003Y-87561785D01*
X93406289Y-87561318D01*
X93625970Y-87533176D01*
X93636048Y-87531034D01*
X93848175Y-87467393D01*
X93857782Y-87463627D01*
X94056653Y-87366201D01*
X94065512Y-87360921D01*
X94123315Y-87319690D01*
X94131715Y-87308990D01*
X94124728Y-87295837D01*
X93349812Y-86520921D01*
X93335868Y-86513307D01*
X93334035Y-86513438D01*
X93327420Y-86517689D01*
X92545941Y-87299168D01*
X92539181Y-87311548D01*
X84343942Y-87311548D01*
X84344642Y-86119495D01*
X91923188Y-86119495D01*
X91935937Y-86340595D01*
X91937373Y-86350816D01*
X91986060Y-86566854D01*
X91989144Y-86576695D01*
X92072464Y-86781886D01*
X92077114Y-86791091D01*
X92165862Y-86935914D01*
X92176320Y-86945376D01*
X92185096Y-86941593D01*
X92964978Y-86161711D01*
X92971356Y-86150031D01*
X93701408Y-86150031D01*
X93701539Y-86151864D01*
X93705790Y-86158479D01*
X94484520Y-86937209D01*
X94496531Y-86943768D01*
X94508269Y-86934800D01*
X94546469Y-86881640D01*
X94551784Y-86872794D01*
X94649904Y-86674265D01*
X94653702Y-86664672D01*
X94718083Y-86452768D01*
X94720260Y-86442698D01*
X94749405Y-86221321D01*
X94749924Y-86214646D01*
X94751449Y-86152263D01*
X94751255Y-86145545D01*
X94732961Y-85923020D01*
X94731278Y-85912858D01*
X94677324Y-85698058D01*
X94674005Y-85688307D01*
X94585689Y-85485195D01*
X94580825Y-85476124D01*
X94507453Y-85362709D01*
X94496766Y-85353505D01*
X94487201Y-85357908D01*
X93709022Y-86136087D01*
X93701408Y-86150031D01*
X92971356Y-86150031D01*
X92972592Y-86147767D01*
X92972461Y-86145934D01*
X92968210Y-86139319D01*
X92189643Y-85360752D01*
X92178107Y-85354452D01*
X92165824Y-85364076D01*
X92109991Y-85445924D01*
X92104893Y-85454898D01*
X92011652Y-85655769D01*
X92008089Y-85665456D01*
X91948906Y-85878860D01*
X91946975Y-85888979D01*
X91923440Y-86109206D01*
X91923188Y-86119495D01*
X84344642Y-86119495D01*
X84345306Y-84988397D01*
X92541294Y-84988397D01*
X92548038Y-85000727D01*
X93324188Y-85776877D01*
X93338132Y-85784491D01*
X93339965Y-85784360D01*
X93346580Y-85780109D01*
X94127200Y-84999489D01*
X94134220Y-84986633D01*
X94126446Y-84975963D01*
X94123848Y-84973911D01*
X94115265Y-84968208D01*
X93921375Y-84861176D01*
X93911976Y-84856951D01*
X93703211Y-84783023D01*
X93693240Y-84780389D01*
X93475208Y-84741552D01*
X93464955Y-84740583D01*
X93243496Y-84737877D01*
X93233213Y-84738597D01*
X93014297Y-84772095D01*
X93004270Y-84774484D01*
X92793766Y-84843287D01*
X92784257Y-84847284D01*
X92587820Y-84949544D01*
X92579092Y-84955040D01*
X92549747Y-84977072D01*
X92541294Y-84988397D01*
X84345306Y-84988397D01*
X84345525Y-84614669D01*
X113267001Y-84614669D01*
X113267371Y-84621490D01*
X113272895Y-84672352D01*
X113276521Y-84687604D01*
X113321676Y-84808054D01*
X113330214Y-84823649D01*
X113406715Y-84925724D01*
X113419276Y-84938285D01*
X113521351Y-85014786D01*
X113536946Y-85023324D01*
X113657394Y-85068478D01*
X113672649Y-85072105D01*
X113723514Y-85077631D01*
X113730328Y-85078000D01*
X114027885Y-85078000D01*
X114043124Y-85073525D01*
X114044329Y-85072135D01*
X114046000Y-85064452D01*
X114046000Y-84096004D01*
X114536500Y-84096004D01*
X114551277Y-84246713D01*
X114551968Y-84249002D01*
X114554000Y-84269724D01*
X114554000Y-85059884D01*
X114558475Y-85075123D01*
X114559865Y-85076328D01*
X114567548Y-85077999D01*
X114869669Y-85077999D01*
X114876490Y-85077629D01*
X114927352Y-85072105D01*
X114942604Y-85068479D01*
X115063056Y-85023323D01*
X115078466Y-85014886D01*
X115147823Y-84999716D01*
X115176235Y-85005040D01*
X115361180Y-85062290D01*
X115367305Y-85062934D01*
X115367306Y-85062934D01*
X115556622Y-85082832D01*
X115556623Y-85082832D01*
X115562750Y-85083476D01*
X115672090Y-85073525D01*
X115758457Y-85065665D01*
X115758460Y-85065664D01*
X115764596Y-85065106D01*
X115770502Y-85063368D01*
X115770506Y-85063367D01*
X115953120Y-85009620D01*
X115953119Y-85009620D01*
X115959029Y-85007881D01*
X115964486Y-85005028D01*
X115964489Y-85005027D01*
X116048837Y-84960931D01*
X116138460Y-84914077D01*
X116138462Y-84914077D01*
X116138645Y-84913981D01*
X116138663Y-84914016D01*
X116204441Y-84894111D01*
X116265409Y-84909271D01*
X116437565Y-85002356D01*
X116534373Y-85032323D01*
X116625293Y-85060468D01*
X116625296Y-85060469D01*
X116631180Y-85062290D01*
X116637305Y-85062934D01*
X116637306Y-85062934D01*
X116826622Y-85082832D01*
X116826623Y-85082832D01*
X116832750Y-85083476D01*
X116942090Y-85073525D01*
X117028457Y-85065665D01*
X117028460Y-85065664D01*
X117034596Y-85065106D01*
X117040502Y-85063368D01*
X117040506Y-85063367D01*
X117223120Y-85009620D01*
X117223119Y-85009620D01*
X117229029Y-85007881D01*
X117234486Y-85005028D01*
X117234489Y-85005027D01*
X117318837Y-84960931D01*
X117408645Y-84913981D01*
X117526867Y-84818928D01*
X151485389Y-84818928D01*
X151485686Y-84824080D01*
X151485686Y-84824084D01*
X151487825Y-84861176D01*
X151498738Y-85050435D01*
X151499873Y-85055472D01*
X151499874Y-85055478D01*
X151506058Y-85082917D01*
X151549718Y-85276653D01*
X151636962Y-85491507D01*
X151758125Y-85689227D01*
X151909953Y-85864502D01*
X151913928Y-85867802D01*
X151913931Y-85867805D01*
X151968198Y-85912858D01*
X152088370Y-86012627D01*
X152092822Y-86015229D01*
X152092827Y-86015232D01*
X152271252Y-86119495D01*
X152288584Y-86129623D01*
X152505218Y-86212347D01*
X152510286Y-86213378D01*
X152510289Y-86213379D01*
X152622090Y-86236125D01*
X152732454Y-86258579D01*
X152737627Y-86258769D01*
X152737630Y-86258769D01*
X152959026Y-86266887D01*
X152959030Y-86266887D01*
X152964190Y-86267076D01*
X152969310Y-86266420D01*
X152969312Y-86266420D01*
X153040109Y-86257351D01*
X153194202Y-86237611D01*
X153199151Y-86236126D01*
X153199157Y-86236125D01*
X153411370Y-86172458D01*
X153416313Y-86170975D01*
X153435224Y-86161711D01*
X153619920Y-86071229D01*
X153624558Y-86068957D01*
X153708156Y-86009327D01*
X153809132Y-85937302D01*
X153809137Y-85937298D01*
X153813344Y-85934297D01*
X153824661Y-85923020D01*
X153973941Y-85774259D01*
X153977602Y-85770611D01*
X154112920Y-85582296D01*
X154155616Y-85495908D01*
X154213370Y-85379050D01*
X154213371Y-85379048D01*
X154215664Y-85374408D01*
X154246900Y-85271599D01*
X154281572Y-85157484D01*
X154281573Y-85157478D01*
X154283076Y-85152532D01*
X154307343Y-84968208D01*
X154312907Y-84925945D01*
X154312907Y-84925941D01*
X154313344Y-84922624D01*
X154313426Y-84919272D01*
X154314951Y-84856865D01*
X154314951Y-84856861D01*
X154315033Y-84853500D01*
X154305829Y-84741552D01*
X154296456Y-84627539D01*
X154296455Y-84627533D01*
X154296032Y-84622388D01*
X154239540Y-84397483D01*
X154147073Y-84184825D01*
X154021116Y-83990124D01*
X153993027Y-83959254D01*
X153868528Y-83822432D01*
X153868526Y-83822431D01*
X153865050Y-83818610D01*
X153860999Y-83815411D01*
X153860995Y-83815407D01*
X153687125Y-83678094D01*
X153683067Y-83674889D01*
X153480055Y-83562820D01*
X153361620Y-83520880D01*
X153266339Y-83487139D01*
X153266335Y-83487138D01*
X153261464Y-83485413D01*
X153256371Y-83484506D01*
X153256368Y-83484505D01*
X153038255Y-83445653D01*
X153038249Y-83445652D01*
X153033166Y-83444747D01*
X152944632Y-83443665D01*
X152806461Y-83441977D01*
X152806459Y-83441977D01*
X152801292Y-83441914D01*
X152572069Y-83476990D01*
X152351653Y-83549033D01*
X152347065Y-83551421D01*
X152347061Y-83551423D01*
X152150551Y-83653720D01*
X152145962Y-83656109D01*
X152141829Y-83659212D01*
X152141826Y-83659214D01*
X151964657Y-83792236D01*
X151960522Y-83795341D01*
X151800313Y-83962991D01*
X151669636Y-84154556D01*
X151667456Y-84159253D01*
X151616177Y-84269724D01*
X151572001Y-84364892D01*
X151510031Y-84588349D01*
X151485389Y-84818928D01*
X117526867Y-84818928D01*
X117566601Y-84786981D01*
X117696881Y-84631719D01*
X117699845Y-84626327D01*
X117699848Y-84626323D01*
X117791556Y-84459506D01*
X117794523Y-84454109D01*
X117855807Y-84260916D01*
X117857401Y-84246713D01*
X117864830Y-84180477D01*
X117873500Y-84103183D01*
X117873500Y-83543996D01*
X117858723Y-83393287D01*
X117800142Y-83199258D01*
X117704990Y-83020302D01*
X117576890Y-82863237D01*
X117539066Y-82831946D01*
X117425472Y-82737973D01*
X117425469Y-82737971D01*
X117420722Y-82734044D01*
X117242435Y-82637644D01*
X117145628Y-82607677D01*
X117054707Y-82579532D01*
X117054704Y-82579531D01*
X117048820Y-82577710D01*
X117042695Y-82577066D01*
X117042694Y-82577066D01*
X116853378Y-82557168D01*
X116853377Y-82557168D01*
X116847250Y-82556524D01*
X116781862Y-82562475D01*
X116651543Y-82574335D01*
X116651540Y-82574336D01*
X116645404Y-82574894D01*
X116639498Y-82576632D01*
X116639494Y-82576633D01*
X116503442Y-82616676D01*
X116450971Y-82632119D01*
X116445514Y-82634972D01*
X116445511Y-82634973D01*
X116414688Y-82651087D01*
X116271540Y-82725923D01*
X116271538Y-82725923D01*
X116271355Y-82726019D01*
X116271337Y-82725984D01*
X116205559Y-82745889D01*
X116144591Y-82730729D01*
X116135815Y-82725984D01*
X115972435Y-82637644D01*
X115875628Y-82607677D01*
X115784707Y-82579532D01*
X115784704Y-82579531D01*
X115778820Y-82577710D01*
X115772695Y-82577066D01*
X115772694Y-82577066D01*
X115583378Y-82557168D01*
X115583377Y-82557168D01*
X115577250Y-82556524D01*
X115511862Y-82562475D01*
X115381543Y-82574335D01*
X115381540Y-82574336D01*
X115375404Y-82574894D01*
X115369498Y-82576632D01*
X115369494Y-82576633D01*
X115278187Y-82603507D01*
X115180971Y-82632119D01*
X115180771Y-82631441D01*
X115114727Y-82637956D01*
X115077677Y-82624680D01*
X115063063Y-82616679D01*
X114942606Y-82571522D01*
X114927351Y-82567895D01*
X114876486Y-82562369D01*
X114869672Y-82562000D01*
X114572115Y-82562000D01*
X114556876Y-82566475D01*
X114555671Y-82567865D01*
X114554000Y-82575548D01*
X114554000Y-83373758D01*
X114553215Y-83387803D01*
X114536500Y-83536817D01*
X114536500Y-84096004D01*
X114046000Y-84096004D01*
X114046000Y-84092115D01*
X114041525Y-84076876D01*
X114040135Y-84075671D01*
X114032452Y-84074000D01*
X113285116Y-84074000D01*
X113269877Y-84078475D01*
X113268672Y-84079865D01*
X113267001Y-84087548D01*
X113267001Y-84614669D01*
X84345525Y-84614669D01*
X84346152Y-83547885D01*
X113267000Y-83547885D01*
X113271475Y-83563124D01*
X113272865Y-83564329D01*
X113280548Y-83566000D01*
X114027885Y-83566000D01*
X114043124Y-83561525D01*
X114044329Y-83560135D01*
X114046000Y-83552452D01*
X114046000Y-82580116D01*
X114041525Y-82564877D01*
X114040135Y-82563672D01*
X114032452Y-82562001D01*
X113730331Y-82562001D01*
X113723510Y-82562371D01*
X113672648Y-82567895D01*
X113657396Y-82571521D01*
X113536946Y-82616676D01*
X113521351Y-82625214D01*
X113419276Y-82701715D01*
X113406715Y-82714276D01*
X113330214Y-82816351D01*
X113321676Y-82831946D01*
X113276522Y-82952394D01*
X113272895Y-82967649D01*
X113267369Y-83018514D01*
X113267000Y-83025328D01*
X113267000Y-83547885D01*
X84346152Y-83547885D01*
X84347580Y-81114327D01*
X91922389Y-81114327D01*
X91922686Y-81119479D01*
X91922686Y-81119483D01*
X91925655Y-81170975D01*
X91935738Y-81345834D01*
X91936873Y-81350871D01*
X91936874Y-81350877D01*
X91965197Y-81476557D01*
X91986718Y-81572052D01*
X92073962Y-81786906D01*
X92195125Y-81984626D01*
X92346953Y-82159901D01*
X92525370Y-82308026D01*
X92529822Y-82310628D01*
X92529827Y-82310631D01*
X92712754Y-82417525D01*
X92725584Y-82425022D01*
X92942218Y-82507746D01*
X92947286Y-82508777D01*
X92947289Y-82508778D01*
X93059090Y-82531524D01*
X93169454Y-82553978D01*
X93174627Y-82554168D01*
X93174630Y-82554168D01*
X93396026Y-82562286D01*
X93396030Y-82562286D01*
X93401190Y-82562475D01*
X93406310Y-82561819D01*
X93406312Y-82561819D01*
X93477109Y-82552750D01*
X93631202Y-82533010D01*
X93636151Y-82531525D01*
X93636157Y-82531524D01*
X93848370Y-82467857D01*
X93853313Y-82466374D01*
X93941851Y-82423000D01*
X94056920Y-82366628D01*
X94061558Y-82364356D01*
X94145156Y-82304726D01*
X94246132Y-82232701D01*
X94246137Y-82232697D01*
X94250344Y-82229696D01*
X94279750Y-82200393D01*
X94410941Y-82069658D01*
X94414602Y-82066010D01*
X94549920Y-81877695D01*
X94592616Y-81791307D01*
X94650370Y-81674449D01*
X94650371Y-81674447D01*
X94652664Y-81669807D01*
X94672438Y-81604723D01*
X94718572Y-81452883D01*
X94718573Y-81452877D01*
X94720076Y-81447931D01*
X94743911Y-81266887D01*
X94749907Y-81221344D01*
X94749907Y-81221340D01*
X94750344Y-81218023D01*
X94750426Y-81214671D01*
X94751951Y-81152264D01*
X94751951Y-81152260D01*
X94752033Y-81148899D01*
X94741310Y-81018471D01*
X94739841Y-81000600D01*
X124441902Y-81000600D01*
X124461857Y-81228687D01*
X124463281Y-81234000D01*
X124463281Y-81234002D01*
X124512263Y-81416802D01*
X124521116Y-81449843D01*
X124523439Y-81454824D01*
X124523439Y-81454825D01*
X124615551Y-81652362D01*
X124615554Y-81652367D01*
X124617877Y-81657349D01*
X124749202Y-81844900D01*
X124911100Y-82006798D01*
X124915608Y-82009955D01*
X124915611Y-82009957D01*
X124989669Y-82061813D01*
X125098651Y-82138123D01*
X125103633Y-82140446D01*
X125103638Y-82140449D01*
X125295031Y-82229696D01*
X125306157Y-82234884D01*
X125311465Y-82236306D01*
X125311467Y-82236307D01*
X125521998Y-82292719D01*
X125522000Y-82292719D01*
X125527313Y-82294143D01*
X125755400Y-82314098D01*
X125983487Y-82294143D01*
X125988800Y-82292719D01*
X125988802Y-82292719D01*
X126199333Y-82236307D01*
X126199335Y-82236306D01*
X126204643Y-82234884D01*
X126215769Y-82229696D01*
X126407162Y-82140449D01*
X126407167Y-82140446D01*
X126412149Y-82138123D01*
X126521131Y-82061813D01*
X126595189Y-82009957D01*
X126595192Y-82009955D01*
X126599700Y-82006798D01*
X126761598Y-81844900D01*
X126892923Y-81657349D01*
X126895246Y-81652367D01*
X126895249Y-81652362D01*
X126987361Y-81454825D01*
X126987361Y-81454824D01*
X126989684Y-81449843D01*
X126998538Y-81416802D01*
X127047519Y-81234002D01*
X127047519Y-81234000D01*
X127048943Y-81228687D01*
X127068898Y-81000600D01*
X127048943Y-80772513D01*
X127047309Y-80766414D01*
X126991107Y-80556667D01*
X126991106Y-80556665D01*
X126989684Y-80551357D01*
X126959544Y-80486721D01*
X126950441Y-80467200D01*
X129471102Y-80467200D01*
X129491057Y-80695287D01*
X129492481Y-80700600D01*
X129492481Y-80700602D01*
X129521554Y-80809101D01*
X129550316Y-80916443D01*
X129552639Y-80921424D01*
X129552639Y-80921425D01*
X129644751Y-81118962D01*
X129644754Y-81118967D01*
X129647077Y-81123949D01*
X129707682Y-81210502D01*
X129747164Y-81266887D01*
X129778402Y-81311500D01*
X129940300Y-81473398D01*
X129944808Y-81476555D01*
X129944811Y-81476557D01*
X130022989Y-81531298D01*
X130127851Y-81604723D01*
X130132833Y-81607046D01*
X130132838Y-81607049D01*
X130330375Y-81699161D01*
X130335357Y-81701484D01*
X130340665Y-81702906D01*
X130340667Y-81702907D01*
X130551198Y-81759319D01*
X130551200Y-81759319D01*
X130556513Y-81760743D01*
X130784600Y-81780698D01*
X131012687Y-81760743D01*
X131018000Y-81759319D01*
X131018002Y-81759319D01*
X131228533Y-81702907D01*
X131228535Y-81702906D01*
X131233843Y-81701484D01*
X131238825Y-81699161D01*
X131436362Y-81607049D01*
X131436367Y-81607046D01*
X131441349Y-81604723D01*
X131546211Y-81531298D01*
X131624389Y-81476557D01*
X131624392Y-81476555D01*
X131628900Y-81473398D01*
X131790798Y-81311500D01*
X131822037Y-81266887D01*
X131861518Y-81210502D01*
X131922123Y-81123949D01*
X131924446Y-81118967D01*
X131924449Y-81118962D01*
X132016561Y-80921425D01*
X132016561Y-80921424D01*
X132018884Y-80916443D01*
X132047647Y-80809101D01*
X132076719Y-80700602D01*
X132076719Y-80700600D01*
X132078143Y-80695287D01*
X132098098Y-80467200D01*
X132078143Y-80239113D01*
X132057162Y-80160811D01*
X132020307Y-80023267D01*
X132020306Y-80023265D01*
X132018884Y-80017957D01*
X132016561Y-80012975D01*
X131924449Y-79815438D01*
X131924446Y-79815433D01*
X131922123Y-79810451D01*
X131919567Y-79806800D01*
X133560502Y-79806800D01*
X133580457Y-80034887D01*
X133581881Y-80040200D01*
X133581881Y-80040202D01*
X133635180Y-80239113D01*
X133639716Y-80256043D01*
X133642039Y-80261024D01*
X133642039Y-80261025D01*
X133734151Y-80458562D01*
X133734154Y-80458567D01*
X133736477Y-80463549D01*
X133759135Y-80495908D01*
X133816377Y-80577657D01*
X133867802Y-80651100D01*
X134029700Y-80812998D01*
X134034208Y-80816155D01*
X134034211Y-80816157D01*
X134097675Y-80860595D01*
X134217251Y-80944323D01*
X134222233Y-80946646D01*
X134222238Y-80946649D01*
X134376263Y-81018471D01*
X134429548Y-81065388D01*
X134449009Y-81133665D01*
X134428467Y-81201625D01*
X134376263Y-81246861D01*
X134298438Y-81283151D01*
X134298433Y-81283154D01*
X134293451Y-81285477D01*
X134250721Y-81315397D01*
X134110411Y-81413643D01*
X134110408Y-81413645D01*
X134105900Y-81416802D01*
X133944002Y-81578700D01*
X133812677Y-81766251D01*
X133810354Y-81771233D01*
X133810351Y-81771238D01*
X133774185Y-81848797D01*
X133715916Y-81973757D01*
X133714494Y-81979065D01*
X133714493Y-81979067D01*
X133665153Y-82163204D01*
X133656657Y-82194913D01*
X133636702Y-82423000D01*
X133656657Y-82651087D01*
X133658081Y-82656400D01*
X133658081Y-82656402D01*
X133690975Y-82779161D01*
X133715916Y-82872243D01*
X133718239Y-82877224D01*
X133718239Y-82877225D01*
X133810351Y-83074762D01*
X133810354Y-83074767D01*
X133812677Y-83079749D01*
X133815834Y-83084257D01*
X133900490Y-83205158D01*
X133944002Y-83267300D01*
X134105900Y-83429198D01*
X134110408Y-83432355D01*
X134110411Y-83432357D01*
X134128016Y-83444684D01*
X134293451Y-83560523D01*
X134298433Y-83562846D01*
X134298438Y-83562849D01*
X134493314Y-83653720D01*
X134500957Y-83657284D01*
X134506265Y-83658706D01*
X134506267Y-83658707D01*
X134716798Y-83715119D01*
X134716800Y-83715119D01*
X134722113Y-83716543D01*
X134950200Y-83736498D01*
X135178287Y-83716543D01*
X135183600Y-83715119D01*
X135183602Y-83715119D01*
X135394133Y-83658707D01*
X135394135Y-83658706D01*
X135399443Y-83657284D01*
X135407086Y-83653720D01*
X135601962Y-83562849D01*
X135601967Y-83562846D01*
X135606949Y-83560523D01*
X135772384Y-83444684D01*
X135789989Y-83432357D01*
X135789992Y-83432355D01*
X135794500Y-83429198D01*
X135956398Y-83267300D01*
X135999911Y-83205158D01*
X136084566Y-83084257D01*
X136087723Y-83079749D01*
X136090046Y-83074767D01*
X136090049Y-83074762D01*
X136182161Y-82877225D01*
X136182161Y-82877224D01*
X136184484Y-82872243D01*
X136209426Y-82779161D01*
X136242319Y-82656402D01*
X136242319Y-82656400D01*
X136243743Y-82651087D01*
X136263698Y-82423000D01*
X136243743Y-82194913D01*
X136235247Y-82163204D01*
X136185907Y-81979067D01*
X136185906Y-81979065D01*
X136184484Y-81973757D01*
X136126215Y-81848797D01*
X136090049Y-81771238D01*
X136090046Y-81771233D01*
X136087723Y-81766251D01*
X135956398Y-81578700D01*
X135794500Y-81416802D01*
X135789992Y-81413645D01*
X135789989Y-81413643D01*
X135649679Y-81315397D01*
X135606949Y-81285477D01*
X135601967Y-81283154D01*
X135601962Y-81283151D01*
X135447937Y-81211329D01*
X135394652Y-81164412D01*
X135375191Y-81096135D01*
X135395733Y-81028175D01*
X135447937Y-80982939D01*
X135525762Y-80946649D01*
X135525767Y-80946646D01*
X135530749Y-80944323D01*
X135650325Y-80860595D01*
X135713789Y-80816157D01*
X135713792Y-80816155D01*
X135718300Y-80812998D01*
X135880198Y-80651100D01*
X135931624Y-80577657D01*
X135988865Y-80495908D01*
X136011523Y-80463549D01*
X136013846Y-80458567D01*
X136013849Y-80458562D01*
X136105961Y-80261025D01*
X136105961Y-80261024D01*
X136108284Y-80256043D01*
X136112821Y-80239113D01*
X136166119Y-80040202D01*
X136166119Y-80040200D01*
X136167543Y-80034887D01*
X136187498Y-79806800D01*
X143720502Y-79806800D01*
X143740457Y-80034887D01*
X143741881Y-80040200D01*
X143741881Y-80040202D01*
X143795180Y-80239113D01*
X143799716Y-80256043D01*
X143802039Y-80261024D01*
X143802039Y-80261025D01*
X143894151Y-80458562D01*
X143894154Y-80458567D01*
X143896477Y-80463549D01*
X143919135Y-80495908D01*
X143976377Y-80577657D01*
X144027802Y-80651100D01*
X144189700Y-80812998D01*
X144194208Y-80816155D01*
X144194211Y-80816157D01*
X144257675Y-80860595D01*
X144377251Y-80944323D01*
X144382233Y-80946646D01*
X144382238Y-80946649D01*
X144557073Y-81028175D01*
X144584757Y-81041084D01*
X144590065Y-81042506D01*
X144590067Y-81042507D01*
X144800598Y-81098919D01*
X144800600Y-81098919D01*
X144805913Y-81100343D01*
X145034000Y-81120298D01*
X145262087Y-81100343D01*
X145267400Y-81098919D01*
X145267402Y-81098919D01*
X145477933Y-81042507D01*
X145477935Y-81042506D01*
X145483243Y-81041084D01*
X145510927Y-81028175D01*
X145685762Y-80946649D01*
X145685767Y-80946646D01*
X145690749Y-80944323D01*
X145810325Y-80860595D01*
X145873789Y-80816157D01*
X145873792Y-80816155D01*
X145878300Y-80812998D01*
X146040198Y-80651100D01*
X146091624Y-80577657D01*
X146148865Y-80495908D01*
X146171523Y-80463549D01*
X146173846Y-80458567D01*
X146173849Y-80458562D01*
X146265961Y-80261025D01*
X146265961Y-80261024D01*
X146268284Y-80256043D01*
X146272821Y-80239113D01*
X146326119Y-80040202D01*
X146326119Y-80040200D01*
X146327543Y-80034887D01*
X146346437Y-79818928D01*
X151485389Y-79818928D01*
X151485686Y-79824080D01*
X151485686Y-79824084D01*
X151487935Y-79863077D01*
X151498738Y-80050435D01*
X151499873Y-80055472D01*
X151499874Y-80055478D01*
X151522862Y-80157484D01*
X151549718Y-80276653D01*
X151636962Y-80491507D01*
X151758125Y-80689227D01*
X151909953Y-80864502D01*
X151913928Y-80867802D01*
X151913931Y-80867805D01*
X151933135Y-80883748D01*
X152088370Y-81012627D01*
X152092822Y-81015229D01*
X152092827Y-81015232D01*
X152272626Y-81120298D01*
X152288584Y-81129623D01*
X152505218Y-81212347D01*
X152510286Y-81213378D01*
X152510289Y-81213379D01*
X152585531Y-81228687D01*
X152732454Y-81258579D01*
X152737627Y-81258769D01*
X152737630Y-81258769D01*
X152959026Y-81266887D01*
X152959030Y-81266887D01*
X152964190Y-81267076D01*
X152969310Y-81266420D01*
X152969312Y-81266420D01*
X153040109Y-81257351D01*
X153194202Y-81237611D01*
X153199151Y-81236126D01*
X153199157Y-81236125D01*
X153411370Y-81172458D01*
X153416313Y-81170975D01*
X153624558Y-81068957D01*
X153720391Y-81000600D01*
X153809132Y-80937302D01*
X153809137Y-80937298D01*
X153813344Y-80934297D01*
X153831261Y-80916443D01*
X153973941Y-80774259D01*
X153977602Y-80770611D01*
X154112920Y-80582296D01*
X154155616Y-80495908D01*
X154213370Y-80379050D01*
X154213371Y-80379048D01*
X154215664Y-80374408D01*
X154250113Y-80261025D01*
X154281572Y-80157484D01*
X154281573Y-80157478D01*
X154283076Y-80152532D01*
X154309133Y-79954613D01*
X154312907Y-79925945D01*
X154312907Y-79925941D01*
X154313344Y-79922624D01*
X154314358Y-79881143D01*
X154314951Y-79856865D01*
X154314951Y-79856861D01*
X154315033Y-79853500D01*
X154304634Y-79727014D01*
X154296456Y-79627539D01*
X154296455Y-79627533D01*
X154296032Y-79622388D01*
X154239540Y-79397483D01*
X154147073Y-79184825D01*
X154021116Y-78990124D01*
X153993027Y-78959254D01*
X153868528Y-78822432D01*
X153868526Y-78822431D01*
X153865050Y-78818610D01*
X153860999Y-78815411D01*
X153860995Y-78815407D01*
X153687125Y-78678094D01*
X153683067Y-78674889D01*
X153480055Y-78562820D01*
X153361620Y-78520880D01*
X153266339Y-78487139D01*
X153266335Y-78487138D01*
X153261464Y-78485413D01*
X153256371Y-78484506D01*
X153256368Y-78484505D01*
X153038255Y-78445653D01*
X153038249Y-78445652D01*
X153033166Y-78444747D01*
X152944632Y-78443665D01*
X152806461Y-78441977D01*
X152806459Y-78441977D01*
X152801292Y-78441914D01*
X152572069Y-78476990D01*
X152351653Y-78549033D01*
X152347065Y-78551421D01*
X152347061Y-78551423D01*
X152150551Y-78653720D01*
X152145962Y-78656109D01*
X152141829Y-78659212D01*
X152141826Y-78659214D01*
X152112252Y-78681419D01*
X151960522Y-78795341D01*
X151800313Y-78962991D01*
X151669636Y-79154556D01*
X151667456Y-79159253D01*
X151575406Y-79357557D01*
X151572001Y-79364892D01*
X151510031Y-79588349D01*
X151485389Y-79818928D01*
X146346437Y-79818928D01*
X146347498Y-79806800D01*
X146327543Y-79578713D01*
X146326119Y-79573398D01*
X146269707Y-79362867D01*
X146269706Y-79362865D01*
X146268284Y-79357557D01*
X146256756Y-79332834D01*
X146173849Y-79155038D01*
X146173846Y-79155033D01*
X146171523Y-79150051D01*
X146040198Y-78962500D01*
X145878300Y-78800602D01*
X145873792Y-78797445D01*
X145873789Y-78797443D01*
X145795611Y-78742702D01*
X145690749Y-78669277D01*
X145685767Y-78666954D01*
X145685762Y-78666951D01*
X145488225Y-78574839D01*
X145488224Y-78574839D01*
X145483243Y-78572516D01*
X145477935Y-78571094D01*
X145477933Y-78571093D01*
X145267402Y-78514681D01*
X145267400Y-78514681D01*
X145262087Y-78513257D01*
X145034000Y-78493302D01*
X144805913Y-78513257D01*
X144800600Y-78514681D01*
X144800598Y-78514681D01*
X144590067Y-78571093D01*
X144590065Y-78571094D01*
X144584757Y-78572516D01*
X144579776Y-78574839D01*
X144579775Y-78574839D01*
X144382238Y-78666951D01*
X144382233Y-78666954D01*
X144377251Y-78669277D01*
X144272389Y-78742702D01*
X144194211Y-78797443D01*
X144194208Y-78797445D01*
X144189700Y-78800602D01*
X144027802Y-78962500D01*
X143896477Y-79150051D01*
X143894154Y-79155033D01*
X143894151Y-79155038D01*
X143811244Y-79332834D01*
X143799716Y-79357557D01*
X143798294Y-79362865D01*
X143798293Y-79362867D01*
X143741881Y-79573398D01*
X143740457Y-79578713D01*
X143720502Y-79806800D01*
X136187498Y-79806800D01*
X136167543Y-79578713D01*
X136166119Y-79573398D01*
X136109707Y-79362867D01*
X136109706Y-79362865D01*
X136108284Y-79357557D01*
X136096756Y-79332834D01*
X136013849Y-79155038D01*
X136013846Y-79155033D01*
X136011523Y-79150051D01*
X135880198Y-78962500D01*
X135718300Y-78800602D01*
X135713792Y-78797445D01*
X135713789Y-78797443D01*
X135635611Y-78742702D01*
X135530749Y-78669277D01*
X135525767Y-78666954D01*
X135525762Y-78666951D01*
X135328225Y-78574839D01*
X135328224Y-78574839D01*
X135323243Y-78572516D01*
X135317935Y-78571094D01*
X135317933Y-78571093D01*
X135107402Y-78514681D01*
X135107400Y-78514681D01*
X135102087Y-78513257D01*
X134874000Y-78493302D01*
X134645913Y-78513257D01*
X134640600Y-78514681D01*
X134640598Y-78514681D01*
X134430067Y-78571093D01*
X134430065Y-78571094D01*
X134424757Y-78572516D01*
X134419776Y-78574839D01*
X134419775Y-78574839D01*
X134222238Y-78666951D01*
X134222233Y-78666954D01*
X134217251Y-78669277D01*
X134112389Y-78742702D01*
X134034211Y-78797443D01*
X134034208Y-78797445D01*
X134029700Y-78800602D01*
X133867802Y-78962500D01*
X133736477Y-79150051D01*
X133734154Y-79155033D01*
X133734151Y-79155038D01*
X133651244Y-79332834D01*
X133639716Y-79357557D01*
X133638294Y-79362865D01*
X133638293Y-79362867D01*
X133581881Y-79573398D01*
X133580457Y-79578713D01*
X133560502Y-79806800D01*
X131919567Y-79806800D01*
X131835753Y-79687102D01*
X131793957Y-79627411D01*
X131793955Y-79627408D01*
X131790798Y-79622900D01*
X131628900Y-79461002D01*
X131624392Y-79457845D01*
X131624389Y-79457843D01*
X131488749Y-79362867D01*
X131441349Y-79329677D01*
X131436367Y-79327354D01*
X131436362Y-79327351D01*
X131238825Y-79235239D01*
X131238824Y-79235239D01*
X131233843Y-79232916D01*
X131228535Y-79231494D01*
X131228533Y-79231493D01*
X131018002Y-79175081D01*
X131018000Y-79175081D01*
X131012687Y-79173657D01*
X130784600Y-79153702D01*
X130556513Y-79173657D01*
X130551200Y-79175081D01*
X130551198Y-79175081D01*
X130340667Y-79231493D01*
X130340665Y-79231494D01*
X130335357Y-79232916D01*
X130330376Y-79235239D01*
X130330375Y-79235239D01*
X130132838Y-79327351D01*
X130132833Y-79327354D01*
X130127851Y-79329677D01*
X130080451Y-79362867D01*
X129944811Y-79457843D01*
X129944808Y-79457845D01*
X129940300Y-79461002D01*
X129778402Y-79622900D01*
X129775245Y-79627408D01*
X129775243Y-79627411D01*
X129733447Y-79687102D01*
X129647077Y-79810451D01*
X129644754Y-79815433D01*
X129644751Y-79815438D01*
X129552639Y-80012975D01*
X129550316Y-80017957D01*
X129548894Y-80023265D01*
X129548893Y-80023267D01*
X129512038Y-80160811D01*
X129491057Y-80239113D01*
X129471102Y-80467200D01*
X126950441Y-80467200D01*
X126895249Y-80348838D01*
X126895246Y-80348833D01*
X126892923Y-80343851D01*
X126761598Y-80156300D01*
X126599700Y-79994402D01*
X126595192Y-79991245D01*
X126595189Y-79991243D01*
X126517011Y-79936502D01*
X126412149Y-79863077D01*
X126407167Y-79860754D01*
X126407162Y-79860751D01*
X126209625Y-79768639D01*
X126209624Y-79768639D01*
X126204643Y-79766316D01*
X126199335Y-79764894D01*
X126199333Y-79764893D01*
X125988802Y-79708481D01*
X125988800Y-79708481D01*
X125983487Y-79707057D01*
X125755400Y-79687102D01*
X125527313Y-79707057D01*
X125522000Y-79708481D01*
X125521998Y-79708481D01*
X125311467Y-79764893D01*
X125311465Y-79764894D01*
X125306157Y-79766316D01*
X125301176Y-79768639D01*
X125301175Y-79768639D01*
X125103638Y-79860751D01*
X125103633Y-79860754D01*
X125098651Y-79863077D01*
X124993789Y-79936502D01*
X124915611Y-79991243D01*
X124915608Y-79991245D01*
X124911100Y-79994402D01*
X124749202Y-80156300D01*
X124617877Y-80343851D01*
X124615554Y-80348833D01*
X124615551Y-80348838D01*
X124551256Y-80486721D01*
X124521116Y-80551357D01*
X124519694Y-80556665D01*
X124519693Y-80556667D01*
X124463491Y-80766414D01*
X124461857Y-80772513D01*
X124441902Y-81000600D01*
X94739841Y-81000600D01*
X94733456Y-80922938D01*
X94733455Y-80922932D01*
X94733032Y-80917787D01*
X94676540Y-80692882D01*
X94584073Y-80480224D01*
X94458116Y-80285523D01*
X94445447Y-80271599D01*
X94305528Y-80117831D01*
X94305526Y-80117830D01*
X94302050Y-80114009D01*
X94297999Y-80110810D01*
X94297995Y-80110806D01*
X94124125Y-79973493D01*
X94120067Y-79970288D01*
X93917055Y-79858219D01*
X93756391Y-79801325D01*
X93703339Y-79782538D01*
X93703335Y-79782537D01*
X93698464Y-79780812D01*
X93693371Y-79779905D01*
X93693368Y-79779904D01*
X93475255Y-79741052D01*
X93475249Y-79741051D01*
X93470166Y-79740146D01*
X93381632Y-79739064D01*
X93243461Y-79737376D01*
X93243459Y-79737376D01*
X93238292Y-79737313D01*
X93009069Y-79772389D01*
X92788653Y-79844432D01*
X92784065Y-79846820D01*
X92784061Y-79846822D01*
X92632068Y-79925945D01*
X92582962Y-79951508D01*
X92578829Y-79954611D01*
X92578826Y-79954613D01*
X92401657Y-80087635D01*
X92397522Y-80090740D01*
X92237313Y-80258390D01*
X92234399Y-80262662D01*
X92234398Y-80262663D01*
X92179015Y-80343851D01*
X92106636Y-80449955D01*
X92096090Y-80472675D01*
X92047359Y-80577657D01*
X92009001Y-80660291D01*
X91947031Y-80883748D01*
X91922389Y-81114327D01*
X84347580Y-81114327D01*
X84348906Y-78854122D01*
X98767873Y-78854122D01*
X98815364Y-79031361D01*
X98819110Y-79041653D01*
X98911186Y-79239111D01*
X98916669Y-79248607D01*
X99041628Y-79427067D01*
X99048684Y-79435475D01*
X99202725Y-79589516D01*
X99211133Y-79596572D01*
X99389593Y-79721531D01*
X99399089Y-79727014D01*
X99596547Y-79819090D01*
X99606839Y-79822836D01*
X99779103Y-79868994D01*
X99793199Y-79868658D01*
X99796600Y-79860716D01*
X99796600Y-79855567D01*
X100304600Y-79855567D01*
X100308573Y-79869098D01*
X100317122Y-79870327D01*
X100494361Y-79822836D01*
X100504653Y-79819090D01*
X100702111Y-79727014D01*
X100711607Y-79721531D01*
X100890067Y-79596572D01*
X100898475Y-79589516D01*
X101052516Y-79435475D01*
X101059572Y-79427067D01*
X101184531Y-79248607D01*
X101190014Y-79239111D01*
X101282090Y-79041653D01*
X101285836Y-79031361D01*
X101331994Y-78859097D01*
X101331658Y-78845001D01*
X101323716Y-78841600D01*
X100322715Y-78841600D01*
X100307476Y-78846075D01*
X100306271Y-78847465D01*
X100304600Y-78855148D01*
X100304600Y-79855567D01*
X99796600Y-79855567D01*
X99796600Y-78859715D01*
X99792125Y-78844476D01*
X99790735Y-78843271D01*
X99783052Y-78841600D01*
X98782633Y-78841600D01*
X98769102Y-78845573D01*
X98767873Y-78854122D01*
X84348906Y-78854122D01*
X84349063Y-78587600D01*
X108897102Y-78587600D01*
X108917057Y-78815687D01*
X108918481Y-78821000D01*
X108918481Y-78821002D01*
X108963798Y-78990124D01*
X108976316Y-79036843D01*
X108978639Y-79041824D01*
X108978639Y-79041825D01*
X109070751Y-79239362D01*
X109070754Y-79239367D01*
X109073077Y-79244349D01*
X109204402Y-79431900D01*
X109366300Y-79593798D01*
X109370808Y-79596955D01*
X109370811Y-79596957D01*
X109407862Y-79622900D01*
X109553851Y-79725123D01*
X109558833Y-79727446D01*
X109558838Y-79727449D01*
X109740750Y-79812275D01*
X109761357Y-79821884D01*
X109766665Y-79823306D01*
X109766667Y-79823307D01*
X109977198Y-79879719D01*
X109977200Y-79879719D01*
X109982513Y-79881143D01*
X110210600Y-79901098D01*
X110438687Y-79881143D01*
X110444000Y-79879719D01*
X110444002Y-79879719D01*
X110654533Y-79823307D01*
X110654535Y-79823306D01*
X110659843Y-79821884D01*
X110680450Y-79812275D01*
X110862362Y-79727449D01*
X110862367Y-79727446D01*
X110867349Y-79725123D01*
X111013338Y-79622900D01*
X111050389Y-79596957D01*
X111050392Y-79596955D01*
X111054900Y-79593798D01*
X111216798Y-79431900D01*
X111348123Y-79244349D01*
X111350446Y-79239367D01*
X111350449Y-79239362D01*
X111442561Y-79041825D01*
X111442561Y-79041824D01*
X111444884Y-79036843D01*
X111457403Y-78990124D01*
X111502719Y-78821002D01*
X111502719Y-78821000D01*
X111504143Y-78815687D01*
X111524098Y-78587600D01*
X111504143Y-78359513D01*
X111493844Y-78321078D01*
X111446307Y-78143667D01*
X111446306Y-78143665D01*
X111444884Y-78138357D01*
X111350566Y-77936089D01*
X111350449Y-77935838D01*
X111350446Y-77935833D01*
X111348123Y-77930851D01*
X111216798Y-77743300D01*
X111054900Y-77581402D01*
X111050392Y-77578245D01*
X111050389Y-77578243D01*
X110951182Y-77508778D01*
X110867349Y-77450077D01*
X110862367Y-77447754D01*
X110862362Y-77447751D01*
X110692191Y-77368400D01*
X119311102Y-77368400D01*
X119331057Y-77596487D01*
X119332481Y-77601800D01*
X119332481Y-77601802D01*
X119369352Y-77739403D01*
X119390316Y-77817643D01*
X119392639Y-77822624D01*
X119392639Y-77822625D01*
X119484751Y-78020162D01*
X119484754Y-78020167D01*
X119487077Y-78025149D01*
X119618402Y-78212700D01*
X119780300Y-78374598D01*
X119784808Y-78377755D01*
X119784811Y-78377757D01*
X119862989Y-78432498D01*
X119967851Y-78505923D01*
X119972833Y-78508246D01*
X119972838Y-78508249D01*
X120143009Y-78587600D01*
X120175357Y-78602684D01*
X120180665Y-78604106D01*
X120180667Y-78604107D01*
X120391198Y-78660519D01*
X120391200Y-78660519D01*
X120396513Y-78661943D01*
X120624600Y-78681898D01*
X120852687Y-78661943D01*
X120858000Y-78660519D01*
X120858002Y-78660519D01*
X121068533Y-78604107D01*
X121068535Y-78604106D01*
X121073843Y-78602684D01*
X121106191Y-78587600D01*
X121276362Y-78508249D01*
X121276367Y-78508246D01*
X121281349Y-78505923D01*
X121386211Y-78432498D01*
X121464389Y-78377757D01*
X121464392Y-78377755D01*
X121468900Y-78374598D01*
X121630798Y-78212700D01*
X121762123Y-78025149D01*
X121764446Y-78020167D01*
X121764449Y-78020162D01*
X121856561Y-77822625D01*
X121856561Y-77822624D01*
X121858884Y-77817643D01*
X121879849Y-77739403D01*
X121916719Y-77601802D01*
X121916719Y-77601800D01*
X121918143Y-77596487D01*
X121938098Y-77368400D01*
X129471102Y-77368400D01*
X129491057Y-77596487D01*
X129492481Y-77601800D01*
X129492481Y-77601802D01*
X129529352Y-77739403D01*
X129550316Y-77817643D01*
X129552639Y-77822624D01*
X129552639Y-77822625D01*
X129644751Y-78020162D01*
X129644754Y-78020167D01*
X129647077Y-78025149D01*
X129778402Y-78212700D01*
X129940300Y-78374598D01*
X129944808Y-78377755D01*
X129944811Y-78377757D01*
X130022989Y-78432498D01*
X130127851Y-78505923D01*
X130132833Y-78508246D01*
X130132838Y-78508249D01*
X130303009Y-78587600D01*
X130335357Y-78602684D01*
X130340665Y-78604106D01*
X130340667Y-78604107D01*
X130551198Y-78660519D01*
X130551200Y-78660519D01*
X130556513Y-78661943D01*
X130784600Y-78681898D01*
X131012687Y-78661943D01*
X131018000Y-78660519D01*
X131018002Y-78660519D01*
X131228533Y-78604107D01*
X131228535Y-78604106D01*
X131233843Y-78602684D01*
X131266191Y-78587600D01*
X131436362Y-78508249D01*
X131436367Y-78508246D01*
X131441349Y-78505923D01*
X131546211Y-78432498D01*
X131624389Y-78377757D01*
X131624392Y-78377755D01*
X131628900Y-78374598D01*
X131790798Y-78212700D01*
X131922123Y-78025149D01*
X131924446Y-78020167D01*
X131924449Y-78020162D01*
X132016561Y-77822625D01*
X132016561Y-77822624D01*
X132018884Y-77817643D01*
X132039849Y-77739403D01*
X132076719Y-77601802D01*
X132076719Y-77601800D01*
X132078143Y-77596487D01*
X132098098Y-77368400D01*
X132078143Y-77140313D01*
X132059211Y-77069658D01*
X132020307Y-76924467D01*
X132020306Y-76924465D01*
X132018884Y-76919157D01*
X131954983Y-76782120D01*
X131924449Y-76716638D01*
X131924446Y-76716633D01*
X131922123Y-76711651D01*
X131827735Y-76576851D01*
X131793957Y-76528611D01*
X131793955Y-76528608D01*
X131790798Y-76524100D01*
X131628900Y-76362202D01*
X131624392Y-76359045D01*
X131624389Y-76359043D01*
X131542996Y-76302051D01*
X131441349Y-76230877D01*
X131436367Y-76228554D01*
X131436362Y-76228551D01*
X131238825Y-76136439D01*
X131238824Y-76136439D01*
X131233843Y-76134116D01*
X131228535Y-76132694D01*
X131228533Y-76132693D01*
X131018002Y-76076281D01*
X131018000Y-76076281D01*
X131012687Y-76074857D01*
X130784600Y-76054902D01*
X130556513Y-76074857D01*
X130551200Y-76076281D01*
X130551198Y-76076281D01*
X130340667Y-76132693D01*
X130340665Y-76132694D01*
X130335357Y-76134116D01*
X130330376Y-76136439D01*
X130330375Y-76136439D01*
X130132838Y-76228551D01*
X130132833Y-76228554D01*
X130127851Y-76230877D01*
X130026204Y-76302051D01*
X129944811Y-76359043D01*
X129944808Y-76359045D01*
X129940300Y-76362202D01*
X129778402Y-76524100D01*
X129775245Y-76528608D01*
X129775243Y-76528611D01*
X129741465Y-76576851D01*
X129647077Y-76711651D01*
X129644754Y-76716633D01*
X129644751Y-76716638D01*
X129614217Y-76782120D01*
X129550316Y-76919157D01*
X129548894Y-76924465D01*
X129548893Y-76924467D01*
X129509989Y-77069658D01*
X129491057Y-77140313D01*
X129471102Y-77368400D01*
X121938098Y-77368400D01*
X121918143Y-77140313D01*
X121899211Y-77069658D01*
X121860307Y-76924467D01*
X121860306Y-76924465D01*
X121858884Y-76919157D01*
X121794983Y-76782120D01*
X121764449Y-76716638D01*
X121764446Y-76716633D01*
X121762123Y-76711651D01*
X121667735Y-76576851D01*
X121633957Y-76528611D01*
X121633955Y-76528608D01*
X121630798Y-76524100D01*
X121468900Y-76362202D01*
X121464392Y-76359045D01*
X121464389Y-76359043D01*
X121382996Y-76302051D01*
X121281349Y-76230877D01*
X121276367Y-76228554D01*
X121276362Y-76228551D01*
X121078825Y-76136439D01*
X121078824Y-76136439D01*
X121073843Y-76134116D01*
X121068535Y-76132694D01*
X121068533Y-76132693D01*
X120858002Y-76076281D01*
X120858000Y-76076281D01*
X120852687Y-76074857D01*
X120624600Y-76054902D01*
X120396513Y-76074857D01*
X120391200Y-76076281D01*
X120391198Y-76076281D01*
X120180667Y-76132693D01*
X120180665Y-76132694D01*
X120175357Y-76134116D01*
X120170376Y-76136439D01*
X120170375Y-76136439D01*
X119972838Y-76228551D01*
X119972833Y-76228554D01*
X119967851Y-76230877D01*
X119866204Y-76302051D01*
X119784811Y-76359043D01*
X119784808Y-76359045D01*
X119780300Y-76362202D01*
X119618402Y-76524100D01*
X119615245Y-76528608D01*
X119615243Y-76528611D01*
X119581465Y-76576851D01*
X119487077Y-76711651D01*
X119484754Y-76716633D01*
X119484751Y-76716638D01*
X119454217Y-76782120D01*
X119390316Y-76919157D01*
X119388894Y-76924465D01*
X119388893Y-76924467D01*
X119349989Y-77069658D01*
X119331057Y-77140313D01*
X119311102Y-77368400D01*
X110692191Y-77368400D01*
X110664825Y-77355639D01*
X110664824Y-77355639D01*
X110659843Y-77353316D01*
X110654535Y-77351894D01*
X110654533Y-77351893D01*
X110444002Y-77295481D01*
X110444000Y-77295481D01*
X110438687Y-77294057D01*
X110210600Y-77274102D01*
X109982513Y-77294057D01*
X109977200Y-77295481D01*
X109977198Y-77295481D01*
X109766667Y-77351893D01*
X109766665Y-77351894D01*
X109761357Y-77353316D01*
X109756376Y-77355639D01*
X109756375Y-77355639D01*
X109558838Y-77447751D01*
X109558833Y-77447754D01*
X109553851Y-77450077D01*
X109470018Y-77508778D01*
X109370811Y-77578243D01*
X109370808Y-77578245D01*
X109366300Y-77581402D01*
X109204402Y-77743300D01*
X109073077Y-77930851D01*
X109070754Y-77935833D01*
X109070751Y-77935838D01*
X109070634Y-77936089D01*
X108976316Y-78138357D01*
X108974894Y-78143665D01*
X108974893Y-78143667D01*
X108927356Y-78321078D01*
X108917057Y-78359513D01*
X108897102Y-78587600D01*
X84349063Y-78587600D01*
X84349222Y-78316103D01*
X98769206Y-78316103D01*
X98769542Y-78330199D01*
X98777484Y-78333600D01*
X99778485Y-78333600D01*
X99793724Y-78329125D01*
X99794929Y-78327735D01*
X99796600Y-78320052D01*
X99796600Y-78315485D01*
X100304600Y-78315485D01*
X100309075Y-78330724D01*
X100310465Y-78331929D01*
X100318148Y-78333600D01*
X101318567Y-78333600D01*
X101332098Y-78329627D01*
X101333327Y-78321078D01*
X101285836Y-78143839D01*
X101282090Y-78133547D01*
X101190014Y-77936089D01*
X101184531Y-77926593D01*
X101059572Y-77748133D01*
X101052516Y-77739725D01*
X100898475Y-77585684D01*
X100890067Y-77578628D01*
X100711607Y-77453669D01*
X100702111Y-77448186D01*
X100504653Y-77356110D01*
X100494361Y-77352364D01*
X100322097Y-77306206D01*
X100308001Y-77306542D01*
X100304600Y-77314484D01*
X100304600Y-78315485D01*
X99796600Y-78315485D01*
X99796600Y-77319633D01*
X99792627Y-77306102D01*
X99784078Y-77304873D01*
X99606839Y-77352364D01*
X99596547Y-77356110D01*
X99399089Y-77448186D01*
X99389593Y-77453669D01*
X99211133Y-77578628D01*
X99202725Y-77585684D01*
X99048684Y-77739725D01*
X99041628Y-77748133D01*
X98916669Y-77926593D01*
X98911186Y-77936089D01*
X98819110Y-78133547D01*
X98815364Y-78143839D01*
X98769206Y-78316103D01*
X84349222Y-78316103D01*
X84350514Y-76114327D01*
X91922389Y-76114327D01*
X91935738Y-76345834D01*
X91936873Y-76350871D01*
X91936874Y-76350877D01*
X91973470Y-76513267D01*
X91986718Y-76572052D01*
X92073962Y-76786906D01*
X92076659Y-76791307D01*
X92158260Y-76924467D01*
X92195125Y-76984626D01*
X92346953Y-77159901D01*
X92525370Y-77308026D01*
X92529822Y-77310628D01*
X92529827Y-77310631D01*
X92721126Y-77422417D01*
X92725584Y-77425022D01*
X92942218Y-77507746D01*
X92947286Y-77508777D01*
X92947289Y-77508778D01*
X93059090Y-77531524D01*
X93169454Y-77553978D01*
X93174627Y-77554168D01*
X93174630Y-77554168D01*
X93396026Y-77562286D01*
X93396030Y-77562286D01*
X93401190Y-77562475D01*
X93406310Y-77561819D01*
X93406312Y-77561819D01*
X93477109Y-77552750D01*
X93631202Y-77533010D01*
X93636151Y-77531525D01*
X93636157Y-77531524D01*
X93848370Y-77467857D01*
X93853313Y-77466374D01*
X93886580Y-77450077D01*
X94056920Y-77366628D01*
X94061558Y-77364356D01*
X94158117Y-77295481D01*
X94246132Y-77232701D01*
X94246137Y-77232697D01*
X94250344Y-77229696D01*
X94414602Y-77066010D01*
X94549920Y-76877695D01*
X94592616Y-76791307D01*
X94650370Y-76674449D01*
X94650371Y-76674447D01*
X94652664Y-76669807D01*
X94684144Y-76566195D01*
X94718572Y-76452883D01*
X94718573Y-76452877D01*
X94720076Y-76447931D01*
X94738909Y-76304879D01*
X94749907Y-76221344D01*
X94749907Y-76221340D01*
X94750344Y-76218023D01*
X94752033Y-76148899D01*
X94744305Y-76054902D01*
X94733456Y-75922938D01*
X94733455Y-75922932D01*
X94733032Y-75917787D01*
X94676540Y-75692882D01*
X94584073Y-75480224D01*
X94458116Y-75285523D01*
X94430027Y-75254653D01*
X94305528Y-75117831D01*
X94305526Y-75117830D01*
X94302050Y-75114009D01*
X94297999Y-75110810D01*
X94297995Y-75110806D01*
X94124125Y-74973493D01*
X94120067Y-74970288D01*
X93917055Y-74858219D01*
X93798620Y-74816279D01*
X93703339Y-74782538D01*
X93703335Y-74782537D01*
X93698464Y-74780812D01*
X93693371Y-74779905D01*
X93693368Y-74779904D01*
X93475255Y-74741052D01*
X93475249Y-74741051D01*
X93470166Y-74740146D01*
X93381632Y-74739064D01*
X93243461Y-74737376D01*
X93243459Y-74737376D01*
X93238292Y-74737313D01*
X93009069Y-74772389D01*
X92788653Y-74844432D01*
X92784065Y-74846820D01*
X92784061Y-74846822D01*
X92587551Y-74949119D01*
X92582962Y-74951508D01*
X92578829Y-74954611D01*
X92578826Y-74954613D01*
X92401657Y-75087635D01*
X92397522Y-75090740D01*
X92237313Y-75258390D01*
X92234399Y-75262662D01*
X92234398Y-75262663D01*
X92144543Y-75394386D01*
X92106636Y-75449955D01*
X92104456Y-75454652D01*
X92058090Y-75554539D01*
X92009001Y-75660291D01*
X91947031Y-75883748D01*
X91922389Y-76114327D01*
X84350514Y-76114327D01*
X84351399Y-74605733D01*
X111754422Y-74605733D01*
X111754575Y-74610121D01*
X111754575Y-74610127D01*
X111763239Y-74858219D01*
X111764225Y-74886458D01*
X111764987Y-74890781D01*
X111764988Y-74890788D01*
X111788764Y-75025624D01*
X111813002Y-75163087D01*
X111899803Y-75430235D01*
X111901731Y-75434188D01*
X111901733Y-75434193D01*
X111924184Y-75480224D01*
X112022940Y-75682702D01*
X112025395Y-75686341D01*
X112025398Y-75686347D01*
X112098490Y-75794710D01*
X112180015Y-75915576D01*
X112367971Y-76124322D01*
X112371333Y-76127143D01*
X112371334Y-76127144D01*
X112397261Y-76148899D01*
X112583150Y-76304879D01*
X112821364Y-76453731D01*
X113077975Y-76567982D01*
X113347990Y-76645407D01*
X113352340Y-76646018D01*
X113352343Y-76646019D01*
X113455290Y-76660487D01*
X113626152Y-76684500D01*
X113836746Y-76684500D01*
X113838932Y-76684347D01*
X113838936Y-76684347D01*
X114042427Y-76670118D01*
X114042432Y-76670117D01*
X114046812Y-76669811D01*
X114321570Y-76611409D01*
X114325699Y-76609906D01*
X114325703Y-76609905D01*
X114581381Y-76516846D01*
X114581385Y-76516844D01*
X114585526Y-76515337D01*
X114833542Y-76383464D01*
X114867155Y-76359043D01*
X115057229Y-76220947D01*
X115057232Y-76220944D01*
X115060792Y-76218358D01*
X115262852Y-76023231D01*
X115435788Y-75801882D01*
X115437984Y-75798078D01*
X115437989Y-75798071D01*
X115574035Y-75562431D01*
X115576236Y-75558619D01*
X115681462Y-75298176D01*
X115685571Y-75281697D01*
X115748353Y-75029893D01*
X115748354Y-75029888D01*
X115749417Y-75025624D01*
X115756881Y-74954613D01*
X115778319Y-74750636D01*
X115778319Y-74750633D01*
X115778778Y-74746267D01*
X115778596Y-74741052D01*
X115769129Y-74469939D01*
X115769128Y-74469933D01*
X115768975Y-74465542D01*
X115745208Y-74330749D01*
X115720960Y-74193236D01*
X115720198Y-74188913D01*
X115633397Y-73921765D01*
X115510260Y-73669298D01*
X115507805Y-73665659D01*
X115507802Y-73665653D01*
X115427535Y-73546653D01*
X115353185Y-73436424D01*
X115165229Y-73227678D01*
X114950050Y-73047121D01*
X114711836Y-72898269D01*
X114455225Y-72784018D01*
X114185210Y-72706593D01*
X114180860Y-72705982D01*
X114180857Y-72705981D01*
X114077910Y-72691513D01*
X113907048Y-72667500D01*
X113696454Y-72667500D01*
X113694268Y-72667653D01*
X113694264Y-72667653D01*
X113490773Y-72681882D01*
X113490768Y-72681883D01*
X113486388Y-72682189D01*
X113211630Y-72740591D01*
X113207501Y-72742094D01*
X113207497Y-72742095D01*
X112951819Y-72835154D01*
X112951815Y-72835156D01*
X112947674Y-72836663D01*
X112699658Y-72968536D01*
X112696099Y-72971122D01*
X112696097Y-72971123D01*
X112591495Y-73047121D01*
X112472408Y-73133642D01*
X112270348Y-73328769D01*
X112097412Y-73550118D01*
X112095216Y-73553922D01*
X112095211Y-73553929D01*
X111981394Y-73751067D01*
X111956964Y-73793381D01*
X111851738Y-74053824D01*
X111850673Y-74058097D01*
X111850672Y-74058099D01*
X111816979Y-74193236D01*
X111783783Y-74326376D01*
X111754422Y-74605733D01*
X84351399Y-74605733D01*
X84353028Y-71829702D01*
X84373070Y-71761594D01*
X84426753Y-71715133D01*
X84478944Y-71703777D01*
X159410944Y-71653823D01*
X159479078Y-71673780D01*
G37*
%TD.AperFunction*%
%TD*%
M02*
