M48
; DRILL file {KiCad (6.0.0)} date Wed Feb  2 10:45:09 2022
; FORMAT={-:-/ absolute / inch / decimal}
; #@! TF.CreationDate,2022-02-02T10:45:09-05:00
; #@! TF.GenerationSoftware,Kicad,Pcbnew,(6.0.0)
; #@! TF.FileFunction,Plated,1,2,PTH
FMAT,2
INCH
; #@! TA.AperFunction,Plated,PTH,ComponentDrill
T1C0.0295
; #@! TA.AperFunction,Plated,PTH,ComponentDrill
T2C0.0315
; #@! TA.AperFunction,Plated,PTH,ComponentDrill
T3C0.0394
; #@! TA.AperFunction,Plated,PTH,ComponentDrill
T4C0.0510
; #@! TA.AperFunction,Plated,PTH,ComponentDrill
T5C0.0630
; #@! TA.AperFunction,Plated,PTH,ComponentDrill
T6C0.1181
%
G90
G05
T1
X4.5Y-3.3
X4.55Y-3.25
X4.6Y-3.3
T2
X3.939Y-3.094
X3.943Y-3.466
X4.339Y-3.094
X4.343Y-3.466
X4.4024Y-3.862
X4.4064Y-3.699
X4.6976Y-3.862
X4.7016Y-3.699
X4.749Y-3.046
X4.8496Y-3.7002
X4.8496Y-4.0002
X4.8544Y-4.165
X4.8544Y-4.314
X4.9496Y-3.7002
X4.9496Y-4.0002
X4.951Y-3.189
X4.951Y-3.589
X5.0496Y-3.7002
X5.0496Y-4.0002
X5.149Y-3.046
X5.149Y-3.168
X5.149Y-3.568
X5.1496Y-3.7002
X5.1496Y-4.0002
X5.1496Y-4.165
X5.1496Y-4.314
X5.31Y-3.142
X5.311Y-3.287
X5.311Y-3.7124
X5.311Y-4.0076
X5.667Y-3.493
X5.667Y-3.893
X5.71Y-3.142
X5.711Y-3.287
X6.108Y-3.766
X6.108Y-4.166
T3
X3.5354Y-4.225
X3.7322Y-4.225
X4.0288Y-4.226
X4.2256Y-4.226
X5.6544Y-4.165
X5.8512Y-4.165
T4
X3.6747Y-2.998
X3.6747Y-3.1948
X3.6747Y-3.3917
X3.6747Y-3.5885
X3.6747Y-3.7854
X6.0197Y-3.1438
X6.0197Y-3.3407
X6.0197Y-3.5375
T5
X4.503Y-3.49
X4.794Y-3.188
X5.493Y-3.5
X5.71Y-2.967
T6
X4.561Y-4.35
X5.341Y-2.9293
X5.424Y-4.35
T0
M30
