%TF.GenerationSoftware,KiCad,Pcbnew,(6.0.0)*%
%TF.CreationDate,2022-01-14T12:28:31-05:00*%
%TF.ProjectId,PID_electronics,5049445f-656c-4656-9374-726f6e696373,rev?*%
%TF.SameCoordinates,Original*%
%TF.FileFunction,Soldermask,Top*%
%TF.FilePolarity,Negative*%
%FSLAX46Y46*%
G04 Gerber Fmt 4.6, Leading zero omitted, Abs format (unit mm)*
G04 Created by KiCad (PCBNEW (6.0.0)) date 2022-01-14 12:28:31*
%MOMM*%
%LPD*%
G01*
G04 APERTURE LIST*
%ADD10C,1.600000*%
%ADD11O,1.600000X1.600000*%
%ADD12C,1.803400*%
%ADD13R,1.050000X1.500000*%
%ADD14O,1.050000X1.500000*%
%ADD15R,1.600000X2.400000*%
%ADD16O,1.600000X2.400000*%
G04 APERTURE END LIST*
D10*
%TO.C,C1*%
X137160000Y-102810000D03*
D11*
X137160000Y-95310000D03*
%TD*%
D12*
%TO.C,J2*%
X152900000Y-79853500D03*
X152900000Y-84853500D03*
X152900000Y-89853500D03*
%TD*%
D13*
%TO.C,Q3*%
X114300000Y-83820000D03*
D14*
X115570000Y-83820000D03*
X116840000Y-83820000D03*
%TD*%
D12*
%TO.C,J1*%
X86360000Y-76360000D03*
X86360000Y-81360000D03*
X86360000Y-86360000D03*
X86360000Y-91360001D03*
X86360000Y-96360001D03*
%TD*%
D10*
%TO.C,R7*%
X137160000Y-91440000D03*
D11*
X137160000Y-76200000D03*
%TD*%
D10*
%TO.C,C3*%
X112970000Y-106680000D03*
D11*
X105470000Y-106680000D03*
%TD*%
D10*
%TO.C,R4*%
X109220000Y-73660000D03*
D11*
X93980000Y-73660000D03*
%TD*%
D10*
%TO.C,R8*%
X119380000Y-99060000D03*
D11*
X104140000Y-99060000D03*
%TD*%
D15*
%TO.C,U1*%
X130800000Y-93985000D03*
D16*
X128260000Y-93985000D03*
X125720000Y-93985000D03*
X123180000Y-93985000D03*
X123180000Y-104145000D03*
X125720000Y-104145000D03*
X128260000Y-104145000D03*
X130800000Y-104145000D03*
%TD*%
D10*
%TO.C,C2*%
X108010000Y-93980000D03*
D11*
X115510000Y-93980000D03*
%TD*%
D10*
%TO.C,R9*%
X109220000Y-81280000D03*
D11*
X93980000Y-81280000D03*
%TD*%
D10*
%TO.C,R3*%
X121920000Y-73660000D03*
D11*
X121920000Y-88900000D03*
%TD*%
D10*
%TO.C,R2*%
X129540000Y-73660000D03*
D11*
X129540000Y-88900000D03*
%TD*%
D10*
%TO.C,R6*%
X142240000Y-99060000D03*
D11*
X142240000Y-83820000D03*
%TD*%
D10*
%TO.C,R1*%
X114300000Y-68580000D03*
D11*
X129540000Y-68580000D03*
%TD*%
M02*
