%TF.GenerationSoftware,KiCad,Pcbnew,(6.0.0)*%
%TF.CreationDate,2022-02-03T13:38:35-05:00*%
%TF.ProjectId,PID_electronics,5049445f-656c-4656-9374-726f6e696373,rev?*%
%TF.SameCoordinates,Original*%
%TF.FileFunction,Copper,L1,Top*%
%TF.FilePolarity,Positive*%
%FSLAX46Y46*%
G04 Gerber Fmt 4.6, Leading zero omitted, Abs format (unit mm)*
G04 Created by KiCad (PCBNEW (6.0.0)) date 2022-02-03 13:38:35*
%MOMM*%
%LPD*%
G01*
G04 APERTURE LIST*
%TA.AperFunction,ComponentPad*%
%ADD10C,1.500000*%
%TD*%
%TA.AperFunction,ComponentPad*%
%ADD11R,1.500000X1.500000*%
%TD*%
%TA.AperFunction,ComponentPad*%
%ADD12C,1.600000*%
%TD*%
%TA.AperFunction,ComponentPad*%
%ADD13O,1.600000X1.600000*%
%TD*%
%TA.AperFunction,ComponentPad*%
%ADD14R,2.000000X2.000000*%
%TD*%
%TA.AperFunction,ComponentPad*%
%ADD15C,2.000000*%
%TD*%
%TA.AperFunction,ComponentPad*%
%ADD16C,1.803400*%
%TD*%
%TA.AperFunction,ComponentPad*%
%ADD17C,2.500000*%
%TD*%
%TA.AperFunction,ComponentPad*%
%ADD18R,1.600000X2.400000*%
%TD*%
%TA.AperFunction,ComponentPad*%
%ADD19O,1.600000X2.400000*%
%TD*%
%TA.AperFunction,Conductor*%
%ADD20C,0.250000*%
%TD*%
G04 APERTURE END LIST*
D10*
%TO.P,Q3,2,G*%
%TO.N,Net-(Q3-Pad2)*%
X115740000Y-83600000D03*
%TO.P,Q3,3,D*%
%TO.N,Net-(Q3-Pad3)*%
X118280000Y-83600000D03*
D11*
%TO.P,Q3,1,S*%
%TO.N,GNDREF*%
X113200000Y-83600000D03*
%TD*%
D12*
%TO.P,C2,1*%
%TO.N,GNDREF*%
X111850000Y-95550000D03*
D13*
%TO.P,C2,2*%
%TO.N,-15V*%
X119350000Y-95550000D03*
%TD*%
D12*
%TO.P,R10,1*%
%TO.N,Net-(J2-Pad1)*%
X157734000Y-100787200D03*
D13*
%TO.P,R10,2*%
%TO.N,Net-(R10-Pad2)*%
X147574000Y-100787200D03*
%TD*%
D12*
%TO.P,C1,1*%
%TO.N,Net-(C1-Pad1)*%
X134899400Y-101794000D03*
D13*
%TO.P,C1,2*%
%TO.N,Net-(C1-Pad2)*%
X134899400Y-94294000D03*
%TD*%
D14*
%TO.P,C5,1*%
%TO.N,+15V*%
X108585000Y-107442000D03*
D15*
%TO.P,C5,2*%
%TO.N,GNDREF*%
X113585000Y-107442000D03*
%TD*%
D16*
%TO.P,J2,1,Pin_1*%
%TO.N,Net-(J2-Pad1)*%
X152900000Y-79853500D03*
%TO.P,J2,2,Pin_2*%
%TO.N,Net-(J2-Pad2)*%
X152900000Y-84853500D03*
%TO.P,J2,3,Pin_3*%
%TO.N,GNDREF*%
X152900000Y-89853500D03*
%TD*%
D17*
%TO.P,REF\u002A\u002A,1*%
%TO.N,Net-(J2-Pad1)*%
X145034000Y-75361800D03*
%TD*%
D14*
%TO.P,C4,1*%
%TO.N,GNDREF*%
X101052154Y-107416600D03*
D15*
%TO.P,C4,2*%
%TO.N,-15V*%
X96052154Y-107416600D03*
%TD*%
D12*
%TO.P,C7,1*%
%TO.N,+15V*%
X130800800Y-109575600D03*
D13*
%TO.P,C7,2*%
%TO.N,GNDREF*%
X123300800Y-109575600D03*
%TD*%
D16*
%TO.P,J1,1,Pin_1*%
%TO.N,Net-(R1-Pad1)*%
X94708600Y-77774499D03*
%TO.P,J1,2,Pin_2*%
%TO.N,Net-(Q3-Pad2)*%
X94708600Y-82774499D03*
%TO.P,J1,3,Pin_3*%
%TO.N,GNDREF*%
X94708600Y-87774499D03*
%TO.P,J1,4,Pin_4*%
%TO.N,-15V*%
X94708600Y-92774500D03*
%TO.P,J1,5,Pin_5*%
%TO.N,+15V*%
X94708600Y-97774500D03*
%TD*%
D12*
%TO.P,R7,1*%
%TO.N,Net-(C1-Pad2)*%
X134874000Y-79806800D03*
D13*
%TO.P,R7,2*%
%TO.N,Net-(J2-Pad1)*%
X145034000Y-79806800D03*
%TD*%
D12*
%TO.P,C3,1*%
%TO.N,+15V*%
X130800800Y-105791000D03*
D13*
%TO.P,C3,2*%
%TO.N,GNDREF*%
X123300800Y-105791000D03*
%TD*%
D12*
%TO.P,R4,1*%
%TO.N,Net-(R1-Pad1)*%
X112064800Y-77368400D03*
D13*
%TO.P,R4,2*%
%TO.N,GNDREF*%
X101904800Y-77368400D03*
%TD*%
D12*
%TO.P,R8,1*%
%TO.N,Net-(C1-Pad2)*%
X134899400Y-83489800D03*
D13*
%TO.P,R8,2*%
%TO.N,GNDREF*%
X145059400Y-83489800D03*
%TD*%
D18*
%TO.P,U1,1*%
%TO.N,Net-(R2-Pad2)*%
X130800000Y-93985000D03*
D19*
%TO.P,U1,2,-*%
%TO.N,Net-(R1-Pad2)*%
X128260000Y-93985000D03*
%TO.P,U1,3,+*%
%TO.N,Net-(Q3-Pad3)*%
X125720000Y-93985000D03*
%TO.P,U1,4,V-*%
%TO.N,-15V*%
X123180000Y-93985000D03*
%TO.P,U1,5,+*%
%TO.N,Net-(R2-Pad2)*%
X123180000Y-101605000D03*
%TO.P,U1,6,-*%
%TO.N,Net-(C1-Pad2)*%
X125720000Y-101605000D03*
%TO.P,U1,7*%
%TO.N,Net-(C1-Pad1)*%
X128260000Y-101605000D03*
%TO.P,U1,8,V+*%
%TO.N,+15V*%
X130800000Y-101605000D03*
%TD*%
D12*
%TO.P,C8,1*%
%TO.N,GNDREF*%
X111845400Y-92100400D03*
D13*
%TO.P,C8,2*%
%TO.N,-15V*%
X119345400Y-92100400D03*
%TD*%
%TO.P,R9,2*%
%TO.N,GNDREF*%
X106045000Y-91922600D03*
D12*
%TO.P,R9,1*%
%TO.N,Net-(Q3-Pad2)*%
X106045000Y-81762600D03*
%TD*%
%TO.P,R3,1*%
%TO.N,Net-(R1-Pad1)*%
X125755400Y-81000600D03*
D13*
%TO.P,R3,2*%
%TO.N,Net-(Q3-Pad3)*%
X125755400Y-91160600D03*
%TD*%
D17*
%TO.P,REF\u002A\u002A,1*%
%TO.N,Net-(R1-Pad1)*%
X121767600Y-80975200D03*
%TD*%
%TO.P,REF\u002A\u002A,1*%
%TO.N,Net-(Q3-Pad2)*%
X110350000Y-87200000D03*
%TD*%
D12*
%TO.P,R2,1*%
%TO.N,Net-(R1-Pad2)*%
X130784600Y-80467200D03*
D13*
%TO.P,R2,2*%
%TO.N,Net-(R2-Pad2)*%
X130784600Y-90627200D03*
%TD*%
D12*
%TO.P,R6,1*%
%TO.N,Net-(C1-Pad1)*%
X143941800Y-98882200D03*
D13*
%TO.P,R6,2*%
%TO.N,Net-(J2-Pad2)*%
X143941800Y-88722200D03*
%TD*%
D12*
%TO.P,R1,1*%
%TO.N,Net-(R1-Pad1)*%
X120624600Y-77368400D03*
D13*
%TO.P,R1,2*%
%TO.N,Net-(R1-Pad2)*%
X130784600Y-77368400D03*
%TD*%
D14*
%TO.P,C6,1*%
%TO.N,Net-(R10-Pad2)*%
X146893677Y-107162600D03*
D15*
%TO.P,C6,2*%
%TO.N,GNDREF*%
X141893677Y-107162600D03*
%TD*%
D17*
%TO.P,REF\u002A\u002A,1*%
%TO.N,Net-(J2-Pad2)*%
X139522200Y-88900000D03*
%TD*%
D20*
%TO.N,-15V*%
X119350000Y-93811400D02*
X119350000Y-95550000D01*
X119345400Y-93806800D02*
X119350000Y-93811400D01*
X119305000Y-93847200D02*
X119345400Y-93806800D01*
X119345400Y-93806800D02*
X119345400Y-92100400D01*
%TO.N,+15V*%
X120750000Y-107600000D02*
X130800000Y-107600000D01*
X130800800Y-107599200D02*
X130800800Y-109575600D01*
X130800000Y-107600000D02*
X130800800Y-107599200D01*
X130800800Y-105791000D02*
X130800800Y-107599200D01*
X120751600Y-107598400D02*
X120750000Y-107600000D01*
X120751600Y-104419400D02*
X120751600Y-107598400D01*
%TO.N,Net-(Q3-Pad3)*%
X121570000Y-86890000D02*
X121920000Y-86890000D01*
X118280000Y-83600000D02*
X121570000Y-86890000D01*
%TO.N,Net-(Q3-Pad2)*%
X112140000Y-87200000D02*
X115740000Y-83600000D01*
X110350000Y-87200000D02*
X112140000Y-87200000D01*
X110350000Y-81800400D02*
X110350000Y-87200000D01*
X110312200Y-81762600D02*
X110350000Y-81800400D01*
%TO.N,Net-(Q3-Pad3)*%
X121920000Y-86890000D02*
X121920000Y-91084400D01*
X121920000Y-91084400D02*
X121996200Y-91160600D01*
X121996200Y-91160600D02*
X125755400Y-91160600D01*
%TO.N,Net-(R10-Pad2)*%
X147574000Y-100787200D02*
X147574000Y-106482277D01*
X147574000Y-106482277D02*
X146893677Y-107162600D01*
%TO.N,Net-(Q3-Pad2)*%
X105033101Y-82774499D02*
X94708600Y-82774499D01*
X106045000Y-81762600D02*
X105033101Y-82774499D01*
%TO.N,-15V*%
X89992200Y-94386400D02*
X89992200Y-101356646D01*
X89992200Y-101356646D02*
X96052154Y-107416600D01*
X91604100Y-92774500D02*
X89992200Y-94386400D01*
X94708600Y-92774500D02*
X91604100Y-92774500D01*
%TO.N,+15V*%
X108585000Y-101625400D02*
X108585000Y-107442000D01*
X106512600Y-99553000D02*
X108585000Y-101625400D01*
X96487100Y-99553000D02*
X106512600Y-99553000D01*
X94708600Y-97774500D02*
X96487100Y-99553000D01*
X94708600Y-97774500D02*
X106664500Y-97774500D01*
X106664500Y-97774500D02*
X107147100Y-98257100D01*
%TO.N,-15V*%
X95781300Y-93847200D02*
X119305000Y-93847200D01*
%TO.N,Net-(R1-Pad1)*%
X99847400Y-75397600D02*
X110094000Y-75397600D01*
X110094000Y-75397600D02*
X112064800Y-77368400D01*
X97470501Y-77774499D02*
X99847400Y-75397600D01*
X94708600Y-77774499D02*
X97470501Y-77774499D01*
%TO.N,-15V*%
X94708600Y-92774500D02*
X95781300Y-93847200D01*
%TO.N,Net-(Q3-Pad2)*%
X106045000Y-81762600D02*
X110312200Y-81762600D01*
%TO.N,Net-(J2-Pad1)*%
X157734000Y-99390200D02*
X157734000Y-100787200D01*
X156489400Y-83442900D02*
X156489400Y-98145600D01*
X156489400Y-98145600D02*
X157734000Y-99390200D01*
X152900000Y-79853500D02*
X156489400Y-83442900D01*
%TO.N,+15V*%
X107147100Y-98257100D02*
X114589300Y-98257100D01*
X114589300Y-98257100D02*
X120751600Y-104419400D01*
%TO.N,-15V*%
X121295400Y-92100400D02*
X123180000Y-93985000D01*
X119345400Y-92100400D02*
X121295400Y-92100400D01*
%TO.N,Net-(R1-Pad1)*%
X112064800Y-77368400D02*
X120624600Y-77368400D01*
%TO.N,Net-(Q3-Pad2)*%
X109990400Y-87040400D02*
X110600000Y-87650000D01*
%TO.N,Net-(C1-Pad1)*%
X128260000Y-99527200D02*
X128270000Y-99517200D01*
X128260000Y-101605000D02*
X128260000Y-99527200D01*
X132622600Y-99517200D02*
X134899400Y-101794000D01*
X128270000Y-99517200D02*
X132622600Y-99517200D01*
X141030000Y-101794000D02*
X143941800Y-98882200D01*
X134899400Y-101794000D02*
X141030000Y-101794000D01*
%TO.N,+15V*%
X130800000Y-101605000D02*
X130800000Y-105790200D01*
X130800000Y-105790200D02*
X130800800Y-105791000D01*
%TO.N,Net-(Q3-Pad3)*%
X125755400Y-91160600D02*
X125755400Y-93949600D01*
X125755400Y-93949600D02*
X125720000Y-93985000D01*
%TO.N,Net-(R1-Pad2)*%
X130784600Y-80467200D02*
X128260000Y-82991800D01*
X128260000Y-82991800D02*
X128260000Y-93985000D01*
X130784600Y-77368400D02*
X130784600Y-80467200D01*
%TO.N,Net-(R2-Pad2)*%
X130800000Y-93985000D02*
X130800000Y-95615600D01*
X130800000Y-95615600D02*
X129743200Y-96672400D01*
X130784600Y-93969600D02*
X130800000Y-93985000D01*
X129743200Y-96672400D02*
X123215400Y-96672400D01*
X130784600Y-90627200D02*
X130784600Y-93969600D01*
X123215400Y-96672400D02*
X123180000Y-96707800D01*
X123180000Y-96707800D02*
X123180000Y-101605000D01*
%TO.N,Net-(C1-Pad2)*%
X134874000Y-79806800D02*
X134874000Y-83464400D01*
X125704600Y-98221800D02*
X125720000Y-98237200D01*
X134874000Y-83464400D02*
X134899400Y-83489800D01*
X134899400Y-94294000D02*
X133768030Y-94294000D01*
X133768030Y-94294000D02*
X129840230Y-98221800D01*
X125720000Y-98237200D02*
X125720000Y-101605000D01*
X134899400Y-83489800D02*
X134899400Y-94294000D01*
X129840230Y-98221800D02*
X125704600Y-98221800D01*
%TO.N,Net-(J2-Pad1)*%
X145034000Y-79806800D02*
X152853300Y-79806800D01*
X145034000Y-75361800D02*
X145034000Y-79806800D01*
X152853300Y-79806800D02*
X152900000Y-79853500D01*
%TO.N,Net-(J2-Pad2)*%
X139522200Y-88900000D02*
X143764000Y-88900000D01*
X152900000Y-84853500D02*
X147810500Y-84853500D01*
X147810500Y-84853500D02*
X143764000Y-88900000D01*
X143764000Y-88900000D02*
X143941800Y-88722200D01*
%TO.N,Net-(R1-Pad1)*%
X121767600Y-80975200D02*
X125730000Y-80975200D01*
X120624600Y-77368400D02*
X122123200Y-77368400D01*
X125730000Y-80975200D02*
X125755400Y-81000600D01*
X122123200Y-77368400D02*
X125755400Y-81000600D01*
%TD*%
M02*
