M48
; DRILL file {KiCad (6.0.0)} date Thu Feb  3 13:38:37 2022
; FORMAT={-:-/ absolute / inch / decimal}
; #@! TF.CreationDate,2022-02-03T13:38:37-05:00
; #@! TF.GenerationSoftware,Kicad,Pcbnew,(6.0.0)
; #@! TF.FileFunction,Plated,1,2,PTH
FMAT,2
INCH
; #@! TA.AperFunction,Plated,PTH,ComponentDrill
T1C0.0315
; #@! TA.AperFunction,Plated,PTH,ComponentDrill
T2C0.0394
; #@! TA.AperFunction,Plated,PTH,ComponentDrill
T3C0.0510
; #@! TA.AperFunction,Plated,PTH,ComponentDrill
T4C0.0512
%
G90
G05
T1
X4.012Y-3.046
X4.175Y-3.219
X4.175Y-3.619
X4.4034Y-3.626
X4.4035Y-3.7618
X4.412Y-3.046
X4.4567Y-3.2913
X4.5567Y-3.2913
X4.6567Y-3.2913
X4.6986Y-3.626
X4.6988Y-3.7618
X4.749Y-3.046
X4.8496Y-3.7002
X4.8496Y-4.0002
X4.8544Y-4.165
X4.8544Y-4.314
X4.9496Y-3.7002
X4.9496Y-4.0002
X4.951Y-3.189
X4.951Y-3.589
X5.0496Y-3.7002
X5.0496Y-4.0002
X5.149Y-3.046
X5.149Y-3.168
X5.149Y-3.568
X5.1496Y-3.7002
X5.1496Y-4.0002
X5.1496Y-4.165
X5.1496Y-4.314
X5.31Y-3.142
X5.311Y-3.287
X5.311Y-3.7124
X5.311Y-4.0076
X5.667Y-3.493
X5.667Y-3.893
X5.71Y-3.142
X5.711Y-3.287
X5.81Y-3.968
X6.21Y-3.968
T2
X3.7816Y-4.229
X3.9784Y-4.229
X4.275Y-4.23
X4.4719Y-4.23
X5.5864Y-4.219
X5.7832Y-4.219
T3
X3.7287Y-3.062
X3.7287Y-3.2588
X3.7287Y-3.4557
X3.7287Y-3.6525
X3.7287Y-3.8494
X6.0197Y-3.1438
X6.0197Y-3.3407
X6.0197Y-3.5375
T4
X4.3445Y-3.4331
X4.794Y-3.188
X5.493Y-3.5
X5.71Y-2.967
T0
M30
