M48
; DRILL file {KiCad (6.0.0)} date Fri Jan 14 13:40:50 2022
; FORMAT={-:-/ absolute / inch / decimal}
; #@! TF.CreationDate,2022-01-14T13:40:50-05:00
; #@! TF.GenerationSoftware,Kicad,Pcbnew,(6.0.0)
; #@! TF.FileFunction,Plated,1,2,PTH
FMAT,2
INCH
; #@! TA.AperFunction,Plated,PTH,ComponentDrill
T1C0.0295
; #@! TA.AperFunction,Plated,PTH,ComponentDrill
T2C0.0315
; #@! TA.AperFunction,Plated,PTH,ComponentDrill
T3C0.0510
%
G90
G05
T1
X4.5Y-3.3
X4.55Y-3.3
X4.6Y-3.3
T2
X3.7Y-2.9
X3.7Y-3.2
X4.1Y-3.9
X4.1524Y-4.2
X4.2524Y-3.7
X4.3Y-2.9
X4.3Y-3.2
X4.4476Y-4.2
X4.5Y-2.7
X4.5476Y-3.7
X4.7Y-3.9
X4.8Y-2.9
X4.8Y-3.5
X4.8496Y-3.7002
X4.8496Y-4.1002
X4.9496Y-3.7002
X4.9496Y-4.1002
X5.0496Y-3.7002
X5.0496Y-4.1002
X5.1Y-2.7
X5.1Y-2.9
X5.1Y-3.5
X5.1496Y-3.7002
X5.1496Y-4.1002
X5.4Y-3.0
X5.4Y-3.6
X5.4Y-3.7524
X5.4Y-4.0476
X5.6Y-3.3
X5.6Y-3.9
T3
X3.4Y-3.0063
X3.4Y-3.2031
X3.4Y-3.4
X3.4Y-3.5969
X3.4Y-3.7937
X6.0197Y-3.1438
X6.0197Y-3.3407
X6.0197Y-3.5375
T0
M30
