%TF.GenerationSoftware,KiCad,Pcbnew,(6.0.0)*%
%TF.CreationDate,2022-01-31T18:57:51-05:00*%
%TF.ProjectId,PID_electronics,5049445f-656c-4656-9374-726f6e696373,rev?*%
%TF.SameCoordinates,Original*%
%TF.FileFunction,Legend,Top*%
%TF.FilePolarity,Positive*%
%FSLAX46Y46*%
G04 Gerber Fmt 4.6, Leading zero omitted, Abs format (unit mm)*
G04 Created by KiCad (PCBNEW (6.0.0)) date 2022-01-31 18:57:51*
%MOMM*%
%LPD*%
G01*
G04 APERTURE LIST*
%ADD10C,0.710000*%
%ADD11C,0.325000*%
%ADD12C,0.150000*%
%ADD13C,0.187500*%
%ADD14C,0.120000*%
G04 APERTURE END LIST*
D10*
X201573800Y-85699600D02*
G75*
G03*
X201573800Y-85699600I-355000J0D01*
G01*
D11*
X204800879Y-85699600D02*
G75*
G03*
X204800879Y-85699600I-162500J0D01*
G01*
D12*
X204638380Y-85699600D02*
G75*
G03*
X204638380Y-85699600I-3419580J0D01*
G01*
D13*
X157919800Y-91498767D02*
X157872180Y-91564244D01*
X157872180Y-91671386D01*
X157919800Y-91784482D01*
X158015038Y-91867815D01*
X158110276Y-91915434D01*
X158300752Y-91974958D01*
X158443609Y-91992815D01*
X158634085Y-91980910D01*
X158729323Y-91957101D01*
X158824561Y-91897577D01*
X158872180Y-91796386D01*
X158872180Y-91724958D01*
X158824561Y-91611863D01*
X158776942Y-91570196D01*
X158443609Y-91528529D01*
X158443609Y-91671386D01*
X158872180Y-91260672D02*
X157872180Y-91135672D01*
X158872180Y-90832101D01*
X157872180Y-90707101D01*
X158872180Y-90474958D02*
X157872180Y-90349958D01*
X157872180Y-90171386D01*
X157919800Y-90070196D01*
X158015038Y-90010672D01*
X158110276Y-89986863D01*
X158300752Y-89974958D01*
X158443609Y-89992815D01*
X158634085Y-90052339D01*
X158729323Y-90099958D01*
X158824561Y-90183291D01*
X158872180Y-90296386D01*
X158872180Y-90474958D01*
X158872180Y-89296386D02*
X158395990Y-89486863D01*
X158872180Y-89724958D02*
X157872180Y-89599958D01*
X157872180Y-89314244D01*
X157919800Y-89248767D01*
X157967419Y-89219005D01*
X158062657Y-89195196D01*
X158205514Y-89213053D01*
X158300752Y-89260672D01*
X158348371Y-89302339D01*
X158395990Y-89379720D01*
X158395990Y-89665434D01*
X158348371Y-88909482D02*
X158348371Y-88659482D01*
X158872180Y-88617815D02*
X158872180Y-88974958D01*
X157872180Y-88849958D01*
X157872180Y-88492815D01*
X158348371Y-87980910D02*
X158348371Y-88230910D01*
X158872180Y-88296386D02*
X157872180Y-88171386D01*
X157872180Y-87814244D01*
X86990180Y-82089729D02*
X85990180Y-81964729D01*
X85990180Y-81679015D01*
X86037800Y-81613539D01*
X86085419Y-81583777D01*
X86180657Y-81559967D01*
X86323514Y-81577825D01*
X86418752Y-81625444D01*
X86466371Y-81667110D01*
X86513990Y-81744491D01*
X86513990Y-82030205D01*
X85990180Y-81071872D02*
X85990180Y-80929015D01*
X86037800Y-80863539D01*
X86133038Y-80804015D01*
X86323514Y-80792110D01*
X86656847Y-80833777D01*
X86847323Y-80893301D01*
X86942561Y-80976634D01*
X86990180Y-81054015D01*
X86990180Y-81196872D01*
X86942561Y-81262348D01*
X86847323Y-81321872D01*
X86656847Y-81333777D01*
X86323514Y-81292110D01*
X86133038Y-81232586D01*
X86037800Y-81149253D01*
X85990180Y-81071872D01*
X86990180Y-80196872D02*
X86990180Y-80554015D01*
X85990180Y-80429015D01*
X86736228Y-97558282D02*
X86736228Y-96986853D01*
X87117180Y-97320186D02*
X86355276Y-97224948D01*
X87117180Y-96284472D02*
X87117180Y-96713044D01*
X87117180Y-96498758D02*
X86117180Y-96373758D01*
X86260038Y-96463044D01*
X86355276Y-96546377D01*
X86402895Y-96623758D01*
X86117180Y-95480901D02*
X86117180Y-95838044D01*
X86593371Y-95933282D01*
X86545752Y-95891615D01*
X86498133Y-95814234D01*
X86498133Y-95635663D01*
X86545752Y-95570186D01*
X86593371Y-95540425D01*
X86688609Y-95516615D01*
X86926704Y-95546377D01*
X87021942Y-95593996D01*
X87069561Y-95635663D01*
X87117180Y-95713044D01*
X87117180Y-95891615D01*
X87069561Y-95957091D01*
X87021942Y-95986853D01*
X86117180Y-95230901D02*
X87117180Y-95105901D01*
X86117180Y-94730901D01*
X86190200Y-87764967D02*
X86142580Y-87830444D01*
X86142580Y-87937586D01*
X86190200Y-88050682D01*
X86285438Y-88134015D01*
X86380676Y-88181634D01*
X86571152Y-88241158D01*
X86714009Y-88259015D01*
X86904485Y-88247110D01*
X86999723Y-88223301D01*
X87094961Y-88163777D01*
X87142580Y-88062586D01*
X87142580Y-87991158D01*
X87094961Y-87878063D01*
X87047342Y-87836396D01*
X86714009Y-87794729D01*
X86714009Y-87937586D01*
X87142580Y-87526872D02*
X86142580Y-87401872D01*
X87142580Y-87098301D01*
X86142580Y-86973301D01*
X87142580Y-86741158D02*
X86142580Y-86616158D01*
X86142580Y-86437586D01*
X86190200Y-86336396D01*
X86285438Y-86276872D01*
X86380676Y-86253063D01*
X86571152Y-86241158D01*
X86714009Y-86259015D01*
X86904485Y-86318539D01*
X86999723Y-86366158D01*
X87094961Y-86449491D01*
X87142580Y-86562586D01*
X87142580Y-86741158D01*
X87142580Y-85562586D02*
X86666390Y-85753063D01*
X87142580Y-85991158D02*
X86142580Y-85866158D01*
X86142580Y-85580444D01*
X86190200Y-85514967D01*
X86237819Y-85485205D01*
X86333057Y-85461396D01*
X86475914Y-85479253D01*
X86571152Y-85526872D01*
X86618771Y-85568539D01*
X86666390Y-85645920D01*
X86666390Y-85931634D01*
X86618771Y-85175682D02*
X86618771Y-84925682D01*
X87142580Y-84884015D02*
X87142580Y-85241158D01*
X86142580Y-85116158D01*
X86142580Y-84759015D01*
X86618771Y-84247110D02*
X86618771Y-84497110D01*
X87142580Y-84562586D02*
X86142580Y-84437586D01*
X86142580Y-84080444D01*
X157694380Y-85555672D02*
X157694380Y-85412815D01*
X157742000Y-85347339D01*
X157837238Y-85287815D01*
X158027714Y-85275910D01*
X158361047Y-85317577D01*
X158551523Y-85377101D01*
X158646761Y-85460434D01*
X158694380Y-85537815D01*
X158694380Y-85680672D01*
X158646761Y-85746148D01*
X158551523Y-85805672D01*
X158361047Y-85817577D01*
X158027714Y-85775910D01*
X157837238Y-85716386D01*
X157742000Y-85633053D01*
X157694380Y-85555672D01*
X157694380Y-84912815D02*
X158503904Y-85014005D01*
X158599142Y-84990196D01*
X158646761Y-84960434D01*
X158694380Y-84894958D01*
X158694380Y-84752101D01*
X158646761Y-84674720D01*
X158599142Y-84633053D01*
X158503904Y-84585434D01*
X157694380Y-84484244D01*
X157694380Y-84234244D02*
X157694380Y-83805672D01*
X158694380Y-84144958D02*
X157694380Y-84019958D01*
X86507628Y-92529082D02*
X86507628Y-91957653D01*
X86888580Y-91255272D02*
X86888580Y-91683844D01*
X86888580Y-91469558D02*
X85888580Y-91344558D01*
X86031438Y-91433844D01*
X86126676Y-91517177D01*
X86174295Y-91594558D01*
X85888580Y-90451701D02*
X85888580Y-90808844D01*
X86364771Y-90904082D01*
X86317152Y-90862415D01*
X86269533Y-90785034D01*
X86269533Y-90606463D01*
X86317152Y-90540986D01*
X86364771Y-90511225D01*
X86460009Y-90487415D01*
X86698104Y-90517177D01*
X86793342Y-90564796D01*
X86840961Y-90606463D01*
X86888580Y-90683844D01*
X86888580Y-90862415D01*
X86840961Y-90927891D01*
X86793342Y-90957653D01*
X85888580Y-90201701D02*
X86888580Y-90076701D01*
X85888580Y-89701701D01*
X158170571Y-80853853D02*
X158170571Y-81103853D01*
X158694380Y-81169329D02*
X157694380Y-81044329D01*
X157694380Y-80687186D01*
X158694380Y-80526472D02*
X157694380Y-80401472D01*
X157694380Y-80222901D01*
X157742000Y-80121710D01*
X157837238Y-80062186D01*
X157932476Y-80038377D01*
X158122952Y-80026472D01*
X158265809Y-80044329D01*
X158456285Y-80103853D01*
X158551523Y-80151472D01*
X158646761Y-80234805D01*
X158694380Y-80347901D01*
X158694380Y-80526472D01*
X158170571Y-79460996D02*
X158218190Y-79359805D01*
X158265809Y-79330044D01*
X158361047Y-79306234D01*
X158503904Y-79324091D01*
X158599142Y-79371710D01*
X158646761Y-79413377D01*
X158694380Y-79490758D01*
X158694380Y-79776472D01*
X157694380Y-79651472D01*
X157694380Y-79401472D01*
X157742000Y-79335996D01*
X157789619Y-79306234D01*
X157884857Y-79282425D01*
X157980095Y-79294329D01*
X158075333Y-79341948D01*
X158122952Y-79383615D01*
X158170571Y-79460996D01*
X158170571Y-79710996D01*
X158694380Y-79026472D02*
X157694380Y-78901472D01*
X158694380Y-78597901D02*
X158122952Y-78847901D01*
X157694380Y-78472901D02*
X158265809Y-78972901D01*
X86866361Y-77396634D02*
X86913980Y-77295444D01*
X86913980Y-77116872D01*
X86866361Y-77039491D01*
X86818742Y-76997825D01*
X86723504Y-76950205D01*
X86628266Y-76938301D01*
X86533028Y-76962110D01*
X86485409Y-76991872D01*
X86437790Y-77057348D01*
X86390171Y-77194253D01*
X86342552Y-77259729D01*
X86294933Y-77289491D01*
X86199695Y-77313301D01*
X86104457Y-77301396D01*
X86009219Y-77253777D01*
X85961600Y-77212110D01*
X85913980Y-77134729D01*
X85913980Y-76956158D01*
X85961600Y-76854967D01*
X85961600Y-76140682D02*
X85913980Y-76206158D01*
X85913980Y-76313301D01*
X85961600Y-76426396D01*
X86056838Y-76509729D01*
X86152076Y-76557348D01*
X86342552Y-76616872D01*
X86485409Y-76634729D01*
X86675885Y-76622825D01*
X86771123Y-76599015D01*
X86866361Y-76539491D01*
X86913980Y-76438301D01*
X86913980Y-76366872D01*
X86866361Y-76253777D01*
X86818742Y-76212110D01*
X86485409Y-76170444D01*
X86485409Y-76313301D01*
X86913980Y-75902586D02*
X85913980Y-75777586D01*
X86913980Y-75474015D01*
X85913980Y-75349015D01*
X86913980Y-74759729D02*
X86913980Y-75116872D01*
X85913980Y-74991872D01*
D12*
X135784771Y-73332780D02*
X135784771Y-72332780D01*
X136165723Y-72332780D01*
X136260961Y-72380400D01*
X136308580Y-72428019D01*
X136356200Y-72523257D01*
X136356200Y-72666114D01*
X136308580Y-72761352D01*
X136260961Y-72808971D01*
X136165723Y-72856590D01*
X135784771Y-72856590D01*
X136784771Y-73332780D02*
X136784771Y-72332780D01*
X137260961Y-73332780D02*
X137260961Y-72332780D01*
X137499057Y-72332780D01*
X137641914Y-72380400D01*
X137737152Y-72475638D01*
X137784771Y-72570876D01*
X137832390Y-72761352D01*
X137832390Y-72904209D01*
X137784771Y-73094685D01*
X137737152Y-73189923D01*
X137641914Y-73285161D01*
X137499057Y-73332780D01*
X137260961Y-73332780D01*
X139499057Y-73332780D02*
X139022866Y-73332780D01*
X139022866Y-72332780D01*
X140260961Y-73332780D02*
X140260961Y-72808971D01*
X140213342Y-72713733D01*
X140118104Y-72666114D01*
X139927628Y-72666114D01*
X139832390Y-72713733D01*
X140260961Y-73285161D02*
X140165723Y-73332780D01*
X139927628Y-73332780D01*
X139832390Y-73285161D01*
X139784771Y-73189923D01*
X139784771Y-73094685D01*
X139832390Y-72999447D01*
X139927628Y-72951828D01*
X140165723Y-72951828D01*
X140260961Y-72904209D01*
X140737152Y-73332780D02*
X140737152Y-72332780D01*
X140737152Y-72713733D02*
X140832390Y-72666114D01*
X141022866Y-72666114D01*
X141118104Y-72713733D01*
X141165723Y-72761352D01*
X141213342Y-72856590D01*
X141213342Y-73142304D01*
X141165723Y-73237542D01*
X141118104Y-73285161D01*
X141022866Y-73332780D01*
X140832390Y-73332780D01*
X140737152Y-73285161D01*
X142403819Y-72951828D02*
X143165723Y-72951828D01*
X144403819Y-73332780D02*
X144403819Y-72332780D01*
X144784771Y-72332780D01*
X144880009Y-72380400D01*
X144927628Y-72428019D01*
X144975247Y-72523257D01*
X144975247Y-72666114D01*
X144927628Y-72761352D01*
X144880009Y-72808971D01*
X144784771Y-72856590D01*
X144403819Y-72856590D01*
X145784771Y-73285161D02*
X145689533Y-73332780D01*
X145499057Y-73332780D01*
X145403819Y-73285161D01*
X145356200Y-73189923D01*
X145356200Y-72808971D01*
X145403819Y-72713733D01*
X145499057Y-72666114D01*
X145689533Y-72666114D01*
X145784771Y-72713733D01*
X145832390Y-72808971D01*
X145832390Y-72904209D01*
X145356200Y-72999447D01*
X146403819Y-73332780D02*
X146308580Y-73285161D01*
X146260961Y-73189923D01*
X146260961Y-72332780D01*
X146641914Y-72666114D02*
X147022866Y-72666114D01*
X146784771Y-72332780D02*
X146784771Y-73189923D01*
X146832390Y-73285161D01*
X146927628Y-73332780D01*
X147022866Y-73332780D01*
X147356200Y-73332780D02*
X147356200Y-72666114D01*
X147356200Y-72332780D02*
X147308580Y-72380400D01*
X147356200Y-72428019D01*
X147403819Y-72380400D01*
X147356200Y-72332780D01*
X147356200Y-72428019D01*
X148213342Y-73285161D02*
X148118104Y-73332780D01*
X147927628Y-73332780D01*
X147832390Y-73285161D01*
X147784771Y-73189923D01*
X147784771Y-72808971D01*
X147832390Y-72713733D01*
X147927628Y-72666114D01*
X148118104Y-72666114D01*
X148213342Y-72713733D01*
X148260961Y-72808971D01*
X148260961Y-72904209D01*
X147784771Y-72999447D01*
X148689533Y-73332780D02*
X148689533Y-72666114D01*
X148689533Y-72856590D02*
X148737152Y-72761352D01*
X148784771Y-72713733D01*
X148880009Y-72666114D01*
X148975247Y-72666114D01*
X150070485Y-73332780D02*
X150070485Y-72332780D01*
X150308580Y-72332780D01*
X150451438Y-72380400D01*
X150546676Y-72475638D01*
X150594295Y-72570876D01*
X150641914Y-72761352D01*
X150641914Y-72904209D01*
X150594295Y-73094685D01*
X150546676Y-73189923D01*
X150451438Y-73285161D01*
X150308580Y-73332780D01*
X150070485Y-73332780D01*
X151070485Y-73332780D02*
X151070485Y-72666114D01*
X151070485Y-72856590D02*
X151118104Y-72761352D01*
X151165723Y-72713733D01*
X151260961Y-72666114D01*
X151356200Y-72666114D01*
X151689533Y-73332780D02*
X151689533Y-72666114D01*
X151689533Y-72332780D02*
X151641914Y-72380400D01*
X151689533Y-72428019D01*
X151737152Y-72380400D01*
X151689533Y-72332780D01*
X151689533Y-72428019D01*
X152070485Y-72666114D02*
X152308580Y-73332780D01*
X152546676Y-72666114D01*
X153308580Y-73285161D02*
X153213342Y-73332780D01*
X153022866Y-73332780D01*
X152927628Y-73285161D01*
X152880009Y-73189923D01*
X152880009Y-72808971D01*
X152927628Y-72713733D01*
X153022866Y-72666114D01*
X153213342Y-72666114D01*
X153308580Y-72713733D01*
X153356200Y-72808971D01*
X153356200Y-72904209D01*
X152880009Y-72999447D01*
X153784771Y-73332780D02*
X153784771Y-72666114D01*
X153784771Y-72856590D02*
X153832390Y-72761352D01*
X153880009Y-72713733D01*
X153975247Y-72666114D01*
X154070485Y-72666114D01*
X133689533Y-74942780D02*
X133689533Y-73942780D01*
X134022866Y-74657066D01*
X134356200Y-73942780D01*
X134356200Y-74942780D01*
X135260961Y-74895161D02*
X135165723Y-74942780D01*
X134975247Y-74942780D01*
X134880009Y-74895161D01*
X134832390Y-74847542D01*
X134784771Y-74752304D01*
X134784771Y-74466590D01*
X134832390Y-74371352D01*
X134880009Y-74323733D01*
X134975247Y-74276114D01*
X135165723Y-74276114D01*
X135260961Y-74323733D01*
X136213342Y-73990400D02*
X136118104Y-73942780D01*
X135975247Y-73942780D01*
X135832390Y-73990400D01*
X135737152Y-74085638D01*
X135689533Y-74180876D01*
X135641914Y-74371352D01*
X135641914Y-74514209D01*
X135689533Y-74704685D01*
X135737152Y-74799923D01*
X135832390Y-74895161D01*
X135975247Y-74942780D01*
X136070485Y-74942780D01*
X136213342Y-74895161D01*
X136260961Y-74847542D01*
X136260961Y-74514209D01*
X136070485Y-74514209D01*
X136689533Y-74942780D02*
X136689533Y-74276114D01*
X136689533Y-73942780D02*
X136641914Y-73990400D01*
X136689533Y-74038019D01*
X136737152Y-73990400D01*
X136689533Y-73942780D01*
X136689533Y-74038019D01*
X137308580Y-74942780D02*
X137213342Y-74895161D01*
X137165723Y-74799923D01*
X137165723Y-73942780D01*
X137832390Y-74942780D02*
X137737152Y-74895161D01*
X137689533Y-74799923D01*
X137689533Y-73942780D01*
X138975247Y-73942780D02*
X138975247Y-74752304D01*
X139022866Y-74847542D01*
X139070485Y-74895161D01*
X139165723Y-74942780D01*
X139356200Y-74942780D01*
X139451438Y-74895161D01*
X139499057Y-74847542D01*
X139546676Y-74752304D01*
X139546676Y-73942780D01*
X140022866Y-74276114D02*
X140022866Y-74942780D01*
X140022866Y-74371352D02*
X140070485Y-74323733D01*
X140165723Y-74276114D01*
X140308580Y-74276114D01*
X140403819Y-74323733D01*
X140451438Y-74418971D01*
X140451438Y-74942780D01*
X140927628Y-74942780D02*
X140927628Y-74276114D01*
X140927628Y-73942780D02*
X140880009Y-73990400D01*
X140927628Y-74038019D01*
X140975247Y-73990400D01*
X140927628Y-73942780D01*
X140927628Y-74038019D01*
X141308580Y-74276114D02*
X141546676Y-74942780D01*
X141784771Y-74276114D01*
X142546676Y-74895161D02*
X142451438Y-74942780D01*
X142260961Y-74942780D01*
X142165723Y-74895161D01*
X142118104Y-74799923D01*
X142118104Y-74418971D01*
X142165723Y-74323733D01*
X142260961Y-74276114D01*
X142451438Y-74276114D01*
X142546676Y-74323733D01*
X142594295Y-74418971D01*
X142594295Y-74514209D01*
X142118104Y-74609447D01*
X143022866Y-74942780D02*
X143022866Y-74276114D01*
X143022866Y-74466590D02*
X143070485Y-74371352D01*
X143118104Y-74323733D01*
X143213342Y-74276114D01*
X143308580Y-74276114D01*
X143594295Y-74895161D02*
X143689533Y-74942780D01*
X143880009Y-74942780D01*
X143975247Y-74895161D01*
X144022866Y-74799923D01*
X144022866Y-74752304D01*
X143975247Y-74657066D01*
X143880009Y-74609447D01*
X143737152Y-74609447D01*
X143641914Y-74561828D01*
X143594295Y-74466590D01*
X143594295Y-74418971D01*
X143641914Y-74323733D01*
X143737152Y-74276114D01*
X143880009Y-74276114D01*
X143975247Y-74323733D01*
X144451438Y-74942780D02*
X144451438Y-74276114D01*
X144451438Y-73942780D02*
X144403819Y-73990400D01*
X144451438Y-74038019D01*
X144499057Y-73990400D01*
X144451438Y-73942780D01*
X144451438Y-74038019D01*
X144784771Y-74276114D02*
X145165723Y-74276114D01*
X144927628Y-73942780D02*
X144927628Y-74799923D01*
X144975247Y-74895161D01*
X145070485Y-74942780D01*
X145165723Y-74942780D01*
X145403819Y-74276114D02*
X145641914Y-74942780D01*
X145880009Y-74276114D02*
X145641914Y-74942780D01*
X145546676Y-75180876D01*
X145499057Y-75228495D01*
X145403819Y-75276114D01*
X147022866Y-74561828D02*
X147784771Y-74561828D01*
X149022866Y-74942780D02*
X149022866Y-73942780D01*
X149403819Y-73942780D01*
X149499057Y-73990400D01*
X149546676Y-74038019D01*
X149594295Y-74133257D01*
X149594295Y-74276114D01*
X149546676Y-74371352D01*
X149499057Y-74418971D01*
X149403819Y-74466590D01*
X149022866Y-74466590D01*
X150022866Y-74942780D02*
X150022866Y-73942780D01*
X150022866Y-74418971D02*
X150594295Y-74418971D01*
X150594295Y-74942780D02*
X150594295Y-73942780D01*
X151260961Y-74466590D02*
X151260961Y-74942780D01*
X150927628Y-73942780D02*
X151260961Y-74466590D01*
X151594295Y-73942780D01*
X151880009Y-74895161D02*
X152022866Y-74942780D01*
X152260961Y-74942780D01*
X152356200Y-74895161D01*
X152403819Y-74847542D01*
X152451438Y-74752304D01*
X152451438Y-74657066D01*
X152403819Y-74561828D01*
X152356200Y-74514209D01*
X152260961Y-74466590D01*
X152070485Y-74418971D01*
X151975247Y-74371352D01*
X151927628Y-74323733D01*
X151880009Y-74228495D01*
X151880009Y-74133257D01*
X151927628Y-74038019D01*
X151975247Y-73990400D01*
X152070485Y-73942780D01*
X152308580Y-73942780D01*
X152451438Y-73990400D01*
X153546676Y-73942780D02*
X154165723Y-73942780D01*
X153832390Y-74323733D01*
X153975247Y-74323733D01*
X154070485Y-74371352D01*
X154118104Y-74418971D01*
X154165723Y-74514209D01*
X154165723Y-74752304D01*
X154118104Y-74847542D01*
X154070485Y-74895161D01*
X153975247Y-74942780D01*
X153689533Y-74942780D01*
X153594295Y-74895161D01*
X153546676Y-74847542D01*
X154499057Y-73942780D02*
X155118104Y-73942780D01*
X154784771Y-74323733D01*
X154927628Y-74323733D01*
X155022866Y-74371352D01*
X155070485Y-74418971D01*
X155118104Y-74514209D01*
X155118104Y-74752304D01*
X155070485Y-74847542D01*
X155022866Y-74895161D01*
X154927628Y-74942780D01*
X154641914Y-74942780D01*
X154546676Y-74895161D01*
X154499057Y-74847542D01*
X155594295Y-74942780D02*
X155784771Y-74942780D01*
X155880009Y-74895161D01*
X155927628Y-74847542D01*
X156022866Y-74704685D01*
X156070485Y-74514209D01*
X156070485Y-74133257D01*
X156022866Y-74038019D01*
X155975247Y-73990400D01*
X155880009Y-73942780D01*
X155689533Y-73942780D01*
X155594295Y-73990400D01*
X155546676Y-74038019D01*
X155499057Y-74133257D01*
X155499057Y-74371352D01*
X155546676Y-74466590D01*
X155594295Y-74514209D01*
X155689533Y-74561828D01*
X155880009Y-74561828D01*
X155975247Y-74514209D01*
X156022866Y-74466590D01*
X156070485Y-74371352D01*
%TO.C,R1*%
X125537933Y-75450780D02*
X125204600Y-74974590D01*
X124966504Y-75450780D02*
X124966504Y-74450780D01*
X125347457Y-74450780D01*
X125442695Y-74498400D01*
X125490314Y-74546019D01*
X125537933Y-74641257D01*
X125537933Y-74784114D01*
X125490314Y-74879352D01*
X125442695Y-74926971D01*
X125347457Y-74974590D01*
X124966504Y-74974590D01*
X126490314Y-75450780D02*
X125918885Y-75450780D01*
X126204600Y-75450780D02*
X126204600Y-74450780D01*
X126109361Y-74593638D01*
X126014123Y-74688876D01*
X125918885Y-74736495D01*
%TO.C,R2*%
X129052580Y-85713866D02*
X128576390Y-86047200D01*
X129052580Y-86285295D02*
X128052580Y-86285295D01*
X128052580Y-85904342D01*
X128100200Y-85809104D01*
X128147819Y-85761485D01*
X128243057Y-85713866D01*
X128385914Y-85713866D01*
X128481152Y-85761485D01*
X128528771Y-85809104D01*
X128576390Y-85904342D01*
X128576390Y-86285295D01*
X128147819Y-85332914D02*
X128100200Y-85285295D01*
X128052580Y-85190057D01*
X128052580Y-84951961D01*
X128100200Y-84856723D01*
X128147819Y-84809104D01*
X128243057Y-84761485D01*
X128338295Y-84761485D01*
X128481152Y-84809104D01*
X129052580Y-85380533D01*
X129052580Y-84761485D01*
%TO.C,R10*%
X153131780Y-101379257D02*
X152655590Y-101712590D01*
X153131780Y-101950685D02*
X152131780Y-101950685D01*
X152131780Y-101569733D01*
X152179400Y-101474495D01*
X152227019Y-101426876D01*
X152322257Y-101379257D01*
X152465114Y-101379257D01*
X152560352Y-101426876D01*
X152607971Y-101474495D01*
X152655590Y-101569733D01*
X152655590Y-101950685D01*
X153131780Y-100426876D02*
X153131780Y-100998304D01*
X153131780Y-100712590D02*
X152131780Y-100712590D01*
X152274638Y-100807828D01*
X152369876Y-100903066D01*
X152417495Y-100998304D01*
X152131780Y-99807828D02*
X152131780Y-99712590D01*
X152179400Y-99617352D01*
X152227019Y-99569733D01*
X152322257Y-99522114D01*
X152512733Y-99474495D01*
X152750828Y-99474495D01*
X152941304Y-99522114D01*
X153036542Y-99569733D01*
X153084161Y-99617352D01*
X153131780Y-99712590D01*
X153131780Y-99807828D01*
X153084161Y-99903066D01*
X153036542Y-99950685D01*
X152941304Y-99998304D01*
X152750828Y-100045923D01*
X152512733Y-100045923D01*
X152322257Y-99998304D01*
X152227019Y-99950685D01*
X152179400Y-99903066D01*
X152131780Y-99807828D01*
%TO.C,C6*%
X145954210Y-112398142D02*
X145906591Y-112445761D01*
X145763734Y-112493380D01*
X145668496Y-112493380D01*
X145525638Y-112445761D01*
X145430400Y-112350523D01*
X145382781Y-112255285D01*
X145335162Y-112064809D01*
X145335162Y-111921952D01*
X145382781Y-111731476D01*
X145430400Y-111636238D01*
X145525638Y-111541000D01*
X145668496Y-111493380D01*
X145763734Y-111493380D01*
X145906591Y-111541000D01*
X145954210Y-111588619D01*
X146811353Y-111493380D02*
X146620877Y-111493380D01*
X146525638Y-111541000D01*
X146478019Y-111588619D01*
X146382781Y-111731476D01*
X146335162Y-111921952D01*
X146335162Y-112302904D01*
X146382781Y-112398142D01*
X146430400Y-112445761D01*
X146525638Y-112493380D01*
X146716115Y-112493380D01*
X146811353Y-112445761D01*
X146858972Y-112398142D01*
X146906591Y-112302904D01*
X146906591Y-112064809D01*
X146858972Y-111969571D01*
X146811353Y-111921952D01*
X146716115Y-111874333D01*
X146525638Y-111874333D01*
X146430400Y-111921952D01*
X146382781Y-111969571D01*
X146335162Y-112064809D01*
%TO.C,C5*%
X104664456Y-101447542D02*
X104616837Y-101495161D01*
X104473980Y-101542780D01*
X104378742Y-101542780D01*
X104235884Y-101495161D01*
X104140646Y-101399923D01*
X104093027Y-101304685D01*
X104045408Y-101114209D01*
X104045408Y-100971352D01*
X104093027Y-100780876D01*
X104140646Y-100685638D01*
X104235884Y-100590400D01*
X104378742Y-100542780D01*
X104473980Y-100542780D01*
X104616837Y-100590400D01*
X104664456Y-100638019D01*
X105569218Y-100542780D02*
X105093027Y-100542780D01*
X105045408Y-101018971D01*
X105093027Y-100971352D01*
X105188265Y-100923733D01*
X105426361Y-100923733D01*
X105521599Y-100971352D01*
X105569218Y-101018971D01*
X105616837Y-101114209D01*
X105616837Y-101352304D01*
X105569218Y-101447542D01*
X105521599Y-101495161D01*
X105426361Y-101542780D01*
X105188265Y-101542780D01*
X105093027Y-101495161D01*
X105045408Y-101447542D01*
%TO.C,C4*%
X94651533Y-102134942D02*
X94603914Y-102182561D01*
X94461057Y-102230180D01*
X94365819Y-102230180D01*
X94222961Y-102182561D01*
X94127723Y-102087323D01*
X94080104Y-101992085D01*
X94032485Y-101801609D01*
X94032485Y-101658752D01*
X94080104Y-101468276D01*
X94127723Y-101373038D01*
X94222961Y-101277800D01*
X94365819Y-101230180D01*
X94461057Y-101230180D01*
X94603914Y-101277800D01*
X94651533Y-101325419D01*
X95508676Y-101563514D02*
X95508676Y-102230180D01*
X95270580Y-101182561D02*
X95032485Y-101896847D01*
X95651533Y-101896847D01*
%TO.C,C1*%
X135097142Y-99226666D02*
X135144761Y-99274285D01*
X135192380Y-99417142D01*
X135192380Y-99512380D01*
X135144761Y-99655238D01*
X135049523Y-99750476D01*
X134954285Y-99798095D01*
X134763809Y-99845714D01*
X134620952Y-99845714D01*
X134430476Y-99798095D01*
X134335238Y-99750476D01*
X134240000Y-99655238D01*
X134192380Y-99512380D01*
X134192380Y-99417142D01*
X134240000Y-99274285D01*
X134287619Y-99226666D01*
X135192380Y-98274285D02*
X135192380Y-98845714D01*
X135192380Y-98560000D02*
X134192380Y-98560000D01*
X134335238Y-98655238D01*
X134430476Y-98750476D01*
X134478095Y-98845714D01*
%TO.C,J2*%
X152066666Y-93432380D02*
X152066666Y-94146666D01*
X152019047Y-94289523D01*
X151923809Y-94384761D01*
X151780952Y-94432380D01*
X151685714Y-94432380D01*
X152495238Y-93527619D02*
X152542857Y-93480000D01*
X152638095Y-93432380D01*
X152876190Y-93432380D01*
X152971428Y-93480000D01*
X153019047Y-93527619D01*
X153066666Y-93622857D01*
X153066666Y-93718095D01*
X153019047Y-93860952D01*
X152447619Y-94432380D01*
X153066666Y-94432380D01*
X149312380Y-79853500D02*
X149550476Y-79853500D01*
X149455238Y-80091595D02*
X149550476Y-79853500D01*
X149455238Y-79615404D01*
X149740952Y-79996357D02*
X149550476Y-79853500D01*
X149740952Y-79710642D01*
%TO.C,Q3*%
X115474761Y-80807619D02*
X115379523Y-80760000D01*
X115284285Y-80664761D01*
X115141428Y-80521904D01*
X115046190Y-80474285D01*
X114950952Y-80474285D01*
X114998571Y-80712380D02*
X114903333Y-80664761D01*
X114808095Y-80569523D01*
X114760476Y-80379047D01*
X114760476Y-80045714D01*
X114808095Y-79855238D01*
X114903333Y-79760000D01*
X114998571Y-79712380D01*
X115189047Y-79712380D01*
X115284285Y-79760000D01*
X115379523Y-79855238D01*
X115427142Y-80045714D01*
X115427142Y-80379047D01*
X115379523Y-80569523D01*
X115284285Y-80664761D01*
X115189047Y-80712380D01*
X114998571Y-80712380D01*
X115760476Y-79712380D02*
X116379523Y-79712380D01*
X116046190Y-80093333D01*
X116189047Y-80093333D01*
X116284285Y-80140952D01*
X116331904Y-80188571D01*
X116379523Y-80283809D01*
X116379523Y-80521904D01*
X116331904Y-80617142D01*
X116284285Y-80664761D01*
X116189047Y-80712380D01*
X115903333Y-80712380D01*
X115808095Y-80664761D01*
X115760476Y-80617142D01*
%TO.C,J1*%
X87550666Y-99960180D02*
X87550666Y-100674466D01*
X87503047Y-100817323D01*
X87407809Y-100912561D01*
X87264952Y-100960180D01*
X87169714Y-100960180D01*
X88550666Y-100960180D02*
X87979238Y-100960180D01*
X88264952Y-100960180D02*
X88264952Y-99960180D01*
X88169714Y-100103038D01*
X88074476Y-100198276D01*
X87979238Y-100245895D01*
X90249380Y-76148899D02*
X90487476Y-76148899D01*
X90392238Y-76386994D02*
X90487476Y-76148899D01*
X90392238Y-75910803D01*
X90677952Y-76291756D02*
X90487476Y-76148899D01*
X90677952Y-76006041D01*
%TO.C,R7*%
X139787333Y-77889180D02*
X139454000Y-77412990D01*
X139215904Y-77889180D02*
X139215904Y-76889180D01*
X139596857Y-76889180D01*
X139692095Y-76936800D01*
X139739714Y-76984419D01*
X139787333Y-77079657D01*
X139787333Y-77222514D01*
X139739714Y-77317752D01*
X139692095Y-77365371D01*
X139596857Y-77412990D01*
X139215904Y-77412990D01*
X140120666Y-76889180D02*
X140787333Y-76889180D01*
X140358761Y-77889180D01*
%TO.C,C3*%
X126884133Y-111532942D02*
X126836514Y-111580561D01*
X126693657Y-111628180D01*
X126598419Y-111628180D01*
X126455561Y-111580561D01*
X126360323Y-111485323D01*
X126312704Y-111390085D01*
X126265085Y-111199609D01*
X126265085Y-111056752D01*
X126312704Y-110866276D01*
X126360323Y-110771038D01*
X126455561Y-110675800D01*
X126598419Y-110628180D01*
X126693657Y-110628180D01*
X126836514Y-110675800D01*
X126884133Y-110723419D01*
X127217466Y-110628180D02*
X127836514Y-110628180D01*
X127503180Y-111009133D01*
X127646038Y-111009133D01*
X127741276Y-111056752D01*
X127788895Y-111104371D01*
X127836514Y-111199609D01*
X127836514Y-111437704D01*
X127788895Y-111532942D01*
X127741276Y-111580561D01*
X127646038Y-111628180D01*
X127360323Y-111628180D01*
X127265085Y-111580561D01*
X127217466Y-111532942D01*
%TO.C,R4*%
X104963933Y-81409980D02*
X104630600Y-80933790D01*
X104392504Y-81409980D02*
X104392504Y-80409980D01*
X104773457Y-80409980D01*
X104868695Y-80457600D01*
X104916314Y-80505219D01*
X104963933Y-80600457D01*
X104963933Y-80743314D01*
X104916314Y-80838552D01*
X104868695Y-80886171D01*
X104773457Y-80933790D01*
X104392504Y-80933790D01*
X105821076Y-80743314D02*
X105821076Y-81409980D01*
X105582980Y-80362361D02*
X105344885Y-81076647D01*
X105963933Y-81076647D01*
%TO.C,R8*%
X137772580Y-87669666D02*
X137296390Y-88003000D01*
X137772580Y-88241095D02*
X136772580Y-88241095D01*
X136772580Y-87860142D01*
X136820200Y-87764904D01*
X136867819Y-87717285D01*
X136963057Y-87669666D01*
X137105914Y-87669666D01*
X137201152Y-87717285D01*
X137248771Y-87764904D01*
X137296390Y-87860142D01*
X137296390Y-88241095D01*
X137201152Y-87098238D02*
X137153533Y-87193476D01*
X137105914Y-87241095D01*
X137010676Y-87288714D01*
X136963057Y-87288714D01*
X136867819Y-87241095D01*
X136820200Y-87193476D01*
X136772580Y-87098238D01*
X136772580Y-86907761D01*
X136820200Y-86812523D01*
X136867819Y-86764904D01*
X136963057Y-86717285D01*
X137010676Y-86717285D01*
X137105914Y-86764904D01*
X137153533Y-86812523D01*
X137201152Y-86907761D01*
X137201152Y-87098238D01*
X137248771Y-87193476D01*
X137296390Y-87241095D01*
X137391628Y-87288714D01*
X137582104Y-87288714D01*
X137677342Y-87241095D01*
X137724961Y-87193476D01*
X137772580Y-87098238D01*
X137772580Y-86907761D01*
X137724961Y-86812523D01*
X137677342Y-86764904D01*
X137582104Y-86717285D01*
X137391628Y-86717285D01*
X137296390Y-86764904D01*
X137248771Y-86812523D01*
X137201152Y-86907761D01*
%TO.C,U1*%
X119811895Y-98512380D02*
X119811895Y-99321904D01*
X119859514Y-99417142D01*
X119907133Y-99464761D01*
X120002371Y-99512380D01*
X120192847Y-99512380D01*
X120288085Y-99464761D01*
X120335704Y-99417142D01*
X120383323Y-99321904D01*
X120383323Y-98512380D01*
X121383323Y-99512380D02*
X120811895Y-99512380D01*
X121097609Y-99512380D02*
X121097609Y-98512380D01*
X121002371Y-98655238D01*
X120907133Y-98750476D01*
X120811895Y-98798095D01*
%TO.C,C2*%
X115504933Y-91891742D02*
X115457314Y-91939361D01*
X115314457Y-91986980D01*
X115219219Y-91986980D01*
X115076361Y-91939361D01*
X114981123Y-91844123D01*
X114933504Y-91748885D01*
X114885885Y-91558409D01*
X114885885Y-91415552D01*
X114933504Y-91225076D01*
X114981123Y-91129838D01*
X115076361Y-91034600D01*
X115219219Y-90986980D01*
X115314457Y-90986980D01*
X115457314Y-91034600D01*
X115504933Y-91082219D01*
X115885885Y-91082219D02*
X115933504Y-91034600D01*
X116028742Y-90986980D01*
X116266838Y-90986980D01*
X116362076Y-91034600D01*
X116409695Y-91082219D01*
X116457314Y-91177457D01*
X116457314Y-91272695D01*
X116409695Y-91415552D01*
X115838266Y-91986980D01*
X116457314Y-91986980D01*
%TO.C,R9*%
X105065533Y-90858780D02*
X104732200Y-90382590D01*
X104494104Y-90858780D02*
X104494104Y-89858780D01*
X104875057Y-89858780D01*
X104970295Y-89906400D01*
X105017914Y-89954019D01*
X105065533Y-90049257D01*
X105065533Y-90192114D01*
X105017914Y-90287352D01*
X104970295Y-90334971D01*
X104875057Y-90382590D01*
X104494104Y-90382590D01*
X105541723Y-90858780D02*
X105732200Y-90858780D01*
X105827438Y-90811161D01*
X105875057Y-90763542D01*
X105970295Y-90620685D01*
X106017914Y-90430209D01*
X106017914Y-90049257D01*
X105970295Y-89954019D01*
X105922676Y-89906400D01*
X105827438Y-89858780D01*
X105636961Y-89858780D01*
X105541723Y-89906400D01*
X105494104Y-89954019D01*
X105446485Y-90049257D01*
X105446485Y-90287352D01*
X105494104Y-90382590D01*
X105541723Y-90430209D01*
X105636961Y-90477828D01*
X105827438Y-90477828D01*
X105922676Y-90430209D01*
X105970295Y-90382590D01*
X106017914Y-90287352D01*
%TO.C,R3*%
X124099580Y-86247266D02*
X123623390Y-86580600D01*
X124099580Y-86818695D02*
X123099580Y-86818695D01*
X123099580Y-86437742D01*
X123147200Y-86342504D01*
X123194819Y-86294885D01*
X123290057Y-86247266D01*
X123432914Y-86247266D01*
X123528152Y-86294885D01*
X123575771Y-86342504D01*
X123623390Y-86437742D01*
X123623390Y-86818695D01*
X123099580Y-85913933D02*
X123099580Y-85294885D01*
X123480533Y-85628219D01*
X123480533Y-85485361D01*
X123528152Y-85390123D01*
X123575771Y-85342504D01*
X123671009Y-85294885D01*
X123909104Y-85294885D01*
X124004342Y-85342504D01*
X124051961Y-85390123D01*
X124099580Y-85485361D01*
X124099580Y-85771076D01*
X124051961Y-85866314D01*
X124004342Y-85913933D01*
%TO.C,R6*%
X142024180Y-93968866D02*
X141547990Y-94302200D01*
X142024180Y-94540295D02*
X141024180Y-94540295D01*
X141024180Y-94159342D01*
X141071800Y-94064104D01*
X141119419Y-94016485D01*
X141214657Y-93968866D01*
X141357514Y-93968866D01*
X141452752Y-94016485D01*
X141500371Y-94064104D01*
X141547990Y-94159342D01*
X141547990Y-94540295D01*
X141024180Y-93111723D02*
X141024180Y-93302200D01*
X141071800Y-93397438D01*
X141119419Y-93445057D01*
X141262276Y-93540295D01*
X141452752Y-93587914D01*
X141833704Y-93587914D01*
X141928942Y-93540295D01*
X141976561Y-93492676D01*
X142024180Y-93397438D01*
X142024180Y-93206961D01*
X141976561Y-93111723D01*
X141928942Y-93064104D01*
X141833704Y-93016485D01*
X141595609Y-93016485D01*
X141500371Y-93064104D01*
X141452752Y-93111723D01*
X141405133Y-93206961D01*
X141405133Y-93397438D01*
X141452752Y-93492676D01*
X141500371Y-93540295D01*
X141595609Y-93587914D01*
D14*
%TO.C,R1*%
X128974600Y-75998400D02*
X122434600Y-75998400D01*
X128974600Y-78738400D02*
X128974600Y-75998400D01*
X122434600Y-78738400D02*
X128974600Y-78738400D01*
X121664600Y-77368400D02*
X122434600Y-77368400D01*
X122434600Y-75998400D02*
X122434600Y-78738400D01*
X129744600Y-77368400D02*
X128974600Y-77368400D01*
%TO.C,R2*%
X129414600Y-82277200D02*
X129414600Y-88817200D01*
X129414600Y-88817200D02*
X132154600Y-88817200D01*
X132154600Y-88817200D02*
X132154600Y-82277200D01*
X130784600Y-81507200D02*
X130784600Y-82277200D01*
X130784600Y-89587200D02*
X130784600Y-88817200D01*
X132154600Y-82277200D02*
X129414600Y-82277200D01*
%TO.C,R10*%
X156513200Y-97466400D02*
X153773200Y-97466400D01*
X153773200Y-97466400D02*
X153773200Y-104006400D01*
X153773200Y-104006400D02*
X156513200Y-104006400D01*
X156513200Y-104006400D02*
X156513200Y-97466400D01*
X155143200Y-96696400D02*
X155143200Y-97466400D01*
X155143200Y-104776400D02*
X155143200Y-104006400D01*
%TO.C,C6*%
X151240877Y-105791000D02*
G75*
G03*
X151240877Y-105791000I-5120000J0D01*
G01*
X146120877Y-110871000D02*
X146120877Y-100711000D01*
X146080877Y-110871000D02*
X146080877Y-100711000D01*
X146040877Y-110871000D02*
X146040877Y-100711000D01*
X146000877Y-110870000D02*
X146000877Y-100712000D01*
X145960877Y-110869000D02*
X145960877Y-100713000D01*
X145920877Y-110868000D02*
X145920877Y-100714000D01*
X145880877Y-110866000D02*
X145880877Y-100716000D01*
X145840877Y-110864000D02*
X145840877Y-100718000D01*
X145800877Y-110861000D02*
X145800877Y-100721000D01*
X145760877Y-110859000D02*
X145760877Y-100723000D01*
X145720877Y-110856000D02*
X145720877Y-100726000D01*
X145680877Y-110853000D02*
X145680877Y-100729000D01*
X145640877Y-110849000D02*
X145640877Y-100733000D01*
X145600877Y-110845000D02*
X145600877Y-100737000D01*
X145560877Y-110841000D02*
X145560877Y-100741000D01*
X145520877Y-110836000D02*
X145520877Y-100746000D01*
X145480877Y-110831000D02*
X145480877Y-100751000D01*
X145440877Y-110826000D02*
X145440877Y-100756000D01*
X145399877Y-110821000D02*
X145399877Y-100761000D01*
X145359877Y-110815000D02*
X145359877Y-100767000D01*
X145319877Y-110809000D02*
X145319877Y-100773000D01*
X145279877Y-110802000D02*
X145279877Y-100780000D01*
X145239877Y-110795000D02*
X145239877Y-100787000D01*
X145199877Y-110788000D02*
X145199877Y-100794000D01*
X145159877Y-110781000D02*
X145159877Y-100801000D01*
X145119877Y-110773000D02*
X145119877Y-100809000D01*
X145079877Y-110765000D02*
X145079877Y-100817000D01*
X145039877Y-110756000D02*
X145039877Y-100826000D01*
X144999877Y-110747000D02*
X144999877Y-100835000D01*
X144959877Y-110738000D02*
X144959877Y-100844000D01*
X144919877Y-110729000D02*
X144919877Y-100853000D01*
X144879877Y-110719000D02*
X144879877Y-100863000D01*
X144839877Y-110709000D02*
X144839877Y-107032000D01*
X144839877Y-104550000D02*
X144839877Y-100873000D01*
X144799877Y-110698000D02*
X144799877Y-107032000D01*
X144799877Y-104550000D02*
X144799877Y-100884000D01*
X144759877Y-110688000D02*
X144759877Y-107032000D01*
X144759877Y-104550000D02*
X144759877Y-100894000D01*
X144719877Y-110676000D02*
X144719877Y-107032000D01*
X144719877Y-104550000D02*
X144719877Y-100906000D01*
X144679877Y-110665000D02*
X144679877Y-107032000D01*
X144679877Y-104550000D02*
X144679877Y-100917000D01*
X144639877Y-110653000D02*
X144639877Y-107032000D01*
X144639877Y-104550000D02*
X144639877Y-100929000D01*
X144599877Y-110641000D02*
X144599877Y-107032000D01*
X144599877Y-104550000D02*
X144599877Y-100941000D01*
X144559877Y-110628000D02*
X144559877Y-107032000D01*
X144559877Y-104550000D02*
X144559877Y-100954000D01*
X144519877Y-110615000D02*
X144519877Y-107032000D01*
X144519877Y-104550000D02*
X144519877Y-100967000D01*
X144479877Y-110602000D02*
X144479877Y-107032000D01*
X144479877Y-104550000D02*
X144479877Y-100980000D01*
X144439877Y-110588000D02*
X144439877Y-107032000D01*
X144439877Y-104550000D02*
X144439877Y-100994000D01*
X144399877Y-110574000D02*
X144399877Y-107032000D01*
X144399877Y-104550000D02*
X144399877Y-101008000D01*
X144359877Y-110559000D02*
X144359877Y-107032000D01*
X144359877Y-104550000D02*
X144359877Y-101023000D01*
X144319877Y-110545000D02*
X144319877Y-107032000D01*
X144319877Y-104550000D02*
X144319877Y-101037000D01*
X144279877Y-110529000D02*
X144279877Y-107032000D01*
X144279877Y-104550000D02*
X144279877Y-101053000D01*
X144239877Y-110514000D02*
X144239877Y-107032000D01*
X144239877Y-104550000D02*
X144239877Y-101068000D01*
X144199877Y-110498000D02*
X144199877Y-107032000D01*
X144199877Y-104550000D02*
X144199877Y-101084000D01*
X144159877Y-110481000D02*
X144159877Y-107032000D01*
X144159877Y-104550000D02*
X144159877Y-101101000D01*
X144119877Y-110465000D02*
X144119877Y-107032000D01*
X144119877Y-104550000D02*
X144119877Y-101117000D01*
X144079877Y-110448000D02*
X144079877Y-107032000D01*
X144079877Y-104550000D02*
X144079877Y-101134000D01*
X144039877Y-110430000D02*
X144039877Y-107032000D01*
X144039877Y-104550000D02*
X144039877Y-101152000D01*
X143999877Y-110412000D02*
X143999877Y-107032000D01*
X143999877Y-104550000D02*
X143999877Y-101170000D01*
X143959877Y-110394000D02*
X143959877Y-107032000D01*
X143959877Y-104550000D02*
X143959877Y-101188000D01*
X143919877Y-110375000D02*
X143919877Y-107032000D01*
X143919877Y-104550000D02*
X143919877Y-101207000D01*
X143879877Y-110355000D02*
X143879877Y-107032000D01*
X143879877Y-104550000D02*
X143879877Y-101227000D01*
X143839877Y-110336000D02*
X143839877Y-107032000D01*
X143839877Y-104550000D02*
X143839877Y-101246000D01*
X143799877Y-110316000D02*
X143799877Y-107032000D01*
X143799877Y-104550000D02*
X143799877Y-101266000D01*
X143759877Y-110295000D02*
X143759877Y-107032000D01*
X143759877Y-104550000D02*
X143759877Y-101287000D01*
X143719877Y-110274000D02*
X143719877Y-107032000D01*
X143719877Y-104550000D02*
X143719877Y-101308000D01*
X143679877Y-110253000D02*
X143679877Y-107032000D01*
X143679877Y-104550000D02*
X143679877Y-101329000D01*
X143639877Y-110231000D02*
X143639877Y-107032000D01*
X143639877Y-104550000D02*
X143639877Y-101351000D01*
X143599877Y-110208000D02*
X143599877Y-107032000D01*
X143599877Y-104550000D02*
X143599877Y-101374000D01*
X143559877Y-110186000D02*
X143559877Y-107032000D01*
X143559877Y-104550000D02*
X143559877Y-101396000D01*
X143519877Y-110162000D02*
X143519877Y-107032000D01*
X143519877Y-104550000D02*
X143519877Y-101420000D01*
X143479877Y-110138000D02*
X143479877Y-107032000D01*
X143479877Y-104550000D02*
X143479877Y-101444000D01*
X143439877Y-110114000D02*
X143439877Y-107032000D01*
X143439877Y-104550000D02*
X143439877Y-101468000D01*
X143399877Y-110089000D02*
X143399877Y-107032000D01*
X143399877Y-104550000D02*
X143399877Y-101493000D01*
X143359877Y-110064000D02*
X143359877Y-107032000D01*
X143359877Y-104550000D02*
X143359877Y-101518000D01*
X143319877Y-110038000D02*
X143319877Y-107032000D01*
X143319877Y-104550000D02*
X143319877Y-101544000D01*
X143279877Y-110012000D02*
X143279877Y-107032000D01*
X143279877Y-104550000D02*
X143279877Y-101570000D01*
X143239877Y-109985000D02*
X143239877Y-107032000D01*
X143239877Y-104550000D02*
X143239877Y-101597000D01*
X143199877Y-109957000D02*
X143199877Y-107032000D01*
X143199877Y-104550000D02*
X143199877Y-101625000D01*
X143159877Y-109929000D02*
X143159877Y-107032000D01*
X143159877Y-104550000D02*
X143159877Y-101653000D01*
X143119877Y-109901000D02*
X143119877Y-107032000D01*
X143119877Y-104550000D02*
X143119877Y-101681000D01*
X143079877Y-109871000D02*
X143079877Y-107032000D01*
X143079877Y-104550000D02*
X143079877Y-101711000D01*
X143039877Y-109841000D02*
X143039877Y-107032000D01*
X143039877Y-104550000D02*
X143039877Y-101741000D01*
X142999877Y-109811000D02*
X142999877Y-107032000D01*
X142999877Y-104550000D02*
X142999877Y-101771000D01*
X142959877Y-109780000D02*
X142959877Y-107032000D01*
X142959877Y-104550000D02*
X142959877Y-101802000D01*
X142919877Y-109748000D02*
X142919877Y-107032000D01*
X142919877Y-104550000D02*
X142919877Y-101834000D01*
X142879877Y-109716000D02*
X142879877Y-107032000D01*
X142879877Y-104550000D02*
X142879877Y-101866000D01*
X142839877Y-109683000D02*
X142839877Y-107032000D01*
X142839877Y-104550000D02*
X142839877Y-101899000D01*
X142799877Y-109649000D02*
X142799877Y-107032000D01*
X142799877Y-104550000D02*
X142799877Y-101933000D01*
X142759877Y-109615000D02*
X142759877Y-107032000D01*
X142759877Y-104550000D02*
X142759877Y-101967000D01*
X142719877Y-109580000D02*
X142719877Y-107032000D01*
X142719877Y-104550000D02*
X142719877Y-102002000D01*
X142679877Y-109544000D02*
X142679877Y-107032000D01*
X142679877Y-104550000D02*
X142679877Y-102038000D01*
X142639877Y-109507000D02*
X142639877Y-107032000D01*
X142639877Y-104550000D02*
X142639877Y-102075000D01*
X142599877Y-109470000D02*
X142599877Y-107032000D01*
X142599877Y-104550000D02*
X142599877Y-102112000D01*
X142559877Y-109431000D02*
X142559877Y-107032000D01*
X142559877Y-104550000D02*
X142559877Y-102151000D01*
X142519877Y-109392000D02*
X142519877Y-107032000D01*
X142519877Y-104550000D02*
X142519877Y-102190000D01*
X142479877Y-109352000D02*
X142479877Y-107032000D01*
X142479877Y-104550000D02*
X142479877Y-102230000D01*
X142439877Y-109311000D02*
X142439877Y-107032000D01*
X142439877Y-104550000D02*
X142439877Y-102271000D01*
X142399877Y-109269000D02*
X142399877Y-107032000D01*
X142399877Y-104550000D02*
X142399877Y-102313000D01*
X142359877Y-109227000D02*
X142359877Y-102355000D01*
X142319877Y-109183000D02*
X142319877Y-102399000D01*
X142279877Y-109138000D02*
X142279877Y-102444000D01*
X142239877Y-109092000D02*
X142239877Y-102490000D01*
X142199877Y-109045000D02*
X142199877Y-102537000D01*
X142159877Y-108997000D02*
X142159877Y-102585000D01*
X142119877Y-108947000D02*
X142119877Y-102635000D01*
X142079877Y-108897000D02*
X142079877Y-102685000D01*
X142039877Y-108845000D02*
X142039877Y-102737000D01*
X141999877Y-108791000D02*
X141999877Y-102791000D01*
X141959877Y-108736000D02*
X141959877Y-102846000D01*
X141919877Y-108680000D02*
X141919877Y-102902000D01*
X141879877Y-108621000D02*
X141879877Y-102961000D01*
X141839877Y-108561000D02*
X141839877Y-103021000D01*
X141799877Y-108500000D02*
X141799877Y-103082000D01*
X141759877Y-108436000D02*
X141759877Y-103146000D01*
X141719877Y-108370000D02*
X141719877Y-103212000D01*
X141679877Y-108301000D02*
X141679877Y-103281000D01*
X141639877Y-108230000D02*
X141639877Y-103352000D01*
X141599877Y-108156000D02*
X141599877Y-103426000D01*
X141559877Y-108080000D02*
X141559877Y-103502000D01*
X141519877Y-108000000D02*
X141519877Y-103582000D01*
X141479877Y-107916000D02*
X141479877Y-103666000D01*
X141439877Y-107828000D02*
X141439877Y-103754000D01*
X141399877Y-107735000D02*
X141399877Y-103847000D01*
X141359877Y-107637000D02*
X141359877Y-103945000D01*
X141319877Y-107533000D02*
X141319877Y-104049000D01*
X141279877Y-107421000D02*
X141279877Y-104161000D01*
X141239877Y-107301000D02*
X141239877Y-104281000D01*
X141199877Y-107169000D02*
X141199877Y-104413000D01*
X141159877Y-107021000D02*
X141159877Y-104561000D01*
X141119877Y-106853000D02*
X141119877Y-104729000D01*
X141079877Y-106653000D02*
X141079877Y-104929000D01*
X141039877Y-106390000D02*
X141039877Y-105192000D01*
X151600523Y-108666000D02*
X150600523Y-108666000D01*
X151100523Y-109166000D02*
X151100523Y-108166000D01*
%TO.C,C5*%
X109951123Y-107340400D02*
G75*
G03*
X109951123Y-107340400I-5120000J0D01*
G01*
X104831123Y-102260400D02*
X104831123Y-112420400D01*
X104871123Y-102260400D02*
X104871123Y-112420400D01*
X104911123Y-102260400D02*
X104911123Y-112420400D01*
X104951123Y-102261400D02*
X104951123Y-112419400D01*
X104991123Y-102262400D02*
X104991123Y-112418400D01*
X105031123Y-102263400D02*
X105031123Y-112417400D01*
X105071123Y-102265400D02*
X105071123Y-112415400D01*
X105111123Y-102267400D02*
X105111123Y-112413400D01*
X105151123Y-102270400D02*
X105151123Y-112410400D01*
X105191123Y-102272400D02*
X105191123Y-112408400D01*
X105231123Y-102275400D02*
X105231123Y-112405400D01*
X105271123Y-102278400D02*
X105271123Y-112402400D01*
X105311123Y-102282400D02*
X105311123Y-112398400D01*
X105351123Y-102286400D02*
X105351123Y-112394400D01*
X105391123Y-102290400D02*
X105391123Y-112390400D01*
X105431123Y-102295400D02*
X105431123Y-112385400D01*
X105471123Y-102300400D02*
X105471123Y-112380400D01*
X105511123Y-102305400D02*
X105511123Y-112375400D01*
X105552123Y-102310400D02*
X105552123Y-112370400D01*
X105592123Y-102316400D02*
X105592123Y-112364400D01*
X105632123Y-102322400D02*
X105632123Y-112358400D01*
X105672123Y-102329400D02*
X105672123Y-112351400D01*
X105712123Y-102336400D02*
X105712123Y-112344400D01*
X105752123Y-102343400D02*
X105752123Y-112337400D01*
X105792123Y-102350400D02*
X105792123Y-112330400D01*
X105832123Y-102358400D02*
X105832123Y-112322400D01*
X105872123Y-102366400D02*
X105872123Y-112314400D01*
X105912123Y-102375400D02*
X105912123Y-112305400D01*
X105952123Y-102384400D02*
X105952123Y-112296400D01*
X105992123Y-102393400D02*
X105992123Y-112287400D01*
X106032123Y-102402400D02*
X106032123Y-112278400D01*
X106072123Y-102412400D02*
X106072123Y-112268400D01*
X106112123Y-102422400D02*
X106112123Y-106099400D01*
X106112123Y-108581400D02*
X106112123Y-112258400D01*
X106152123Y-102433400D02*
X106152123Y-106099400D01*
X106152123Y-108581400D02*
X106152123Y-112247400D01*
X106192123Y-102443400D02*
X106192123Y-106099400D01*
X106192123Y-108581400D02*
X106192123Y-112237400D01*
X106232123Y-102455400D02*
X106232123Y-106099400D01*
X106232123Y-108581400D02*
X106232123Y-112225400D01*
X106272123Y-102466400D02*
X106272123Y-106099400D01*
X106272123Y-108581400D02*
X106272123Y-112214400D01*
X106312123Y-102478400D02*
X106312123Y-106099400D01*
X106312123Y-108581400D02*
X106312123Y-112202400D01*
X106352123Y-102490400D02*
X106352123Y-106099400D01*
X106352123Y-108581400D02*
X106352123Y-112190400D01*
X106392123Y-102503400D02*
X106392123Y-106099400D01*
X106392123Y-108581400D02*
X106392123Y-112177400D01*
X106432123Y-102516400D02*
X106432123Y-106099400D01*
X106432123Y-108581400D02*
X106432123Y-112164400D01*
X106472123Y-102529400D02*
X106472123Y-106099400D01*
X106472123Y-108581400D02*
X106472123Y-112151400D01*
X106512123Y-102543400D02*
X106512123Y-106099400D01*
X106512123Y-108581400D02*
X106512123Y-112137400D01*
X106552123Y-102557400D02*
X106552123Y-106099400D01*
X106552123Y-108581400D02*
X106552123Y-112123400D01*
X106592123Y-102572400D02*
X106592123Y-106099400D01*
X106592123Y-108581400D02*
X106592123Y-112108400D01*
X106632123Y-102586400D02*
X106632123Y-106099400D01*
X106632123Y-108581400D02*
X106632123Y-112094400D01*
X106672123Y-102602400D02*
X106672123Y-106099400D01*
X106672123Y-108581400D02*
X106672123Y-112078400D01*
X106712123Y-102617400D02*
X106712123Y-106099400D01*
X106712123Y-108581400D02*
X106712123Y-112063400D01*
X106752123Y-102633400D02*
X106752123Y-106099400D01*
X106752123Y-108581400D02*
X106752123Y-112047400D01*
X106792123Y-102650400D02*
X106792123Y-106099400D01*
X106792123Y-108581400D02*
X106792123Y-112030400D01*
X106832123Y-102666400D02*
X106832123Y-106099400D01*
X106832123Y-108581400D02*
X106832123Y-112014400D01*
X106872123Y-102683400D02*
X106872123Y-106099400D01*
X106872123Y-108581400D02*
X106872123Y-111997400D01*
X106912123Y-102701400D02*
X106912123Y-106099400D01*
X106912123Y-108581400D02*
X106912123Y-111979400D01*
X106952123Y-102719400D02*
X106952123Y-106099400D01*
X106952123Y-108581400D02*
X106952123Y-111961400D01*
X106992123Y-102737400D02*
X106992123Y-106099400D01*
X106992123Y-108581400D02*
X106992123Y-111943400D01*
X107032123Y-102756400D02*
X107032123Y-106099400D01*
X107032123Y-108581400D02*
X107032123Y-111924400D01*
X107072123Y-102776400D02*
X107072123Y-106099400D01*
X107072123Y-108581400D02*
X107072123Y-111904400D01*
X107112123Y-102795400D02*
X107112123Y-106099400D01*
X107112123Y-108581400D02*
X107112123Y-111885400D01*
X107152123Y-102815400D02*
X107152123Y-106099400D01*
X107152123Y-108581400D02*
X107152123Y-111865400D01*
X107192123Y-102836400D02*
X107192123Y-106099400D01*
X107192123Y-108581400D02*
X107192123Y-111844400D01*
X107232123Y-102857400D02*
X107232123Y-106099400D01*
X107232123Y-108581400D02*
X107232123Y-111823400D01*
X107272123Y-102878400D02*
X107272123Y-106099400D01*
X107272123Y-108581400D02*
X107272123Y-111802400D01*
X107312123Y-102900400D02*
X107312123Y-106099400D01*
X107312123Y-108581400D02*
X107312123Y-111780400D01*
X107352123Y-102923400D02*
X107352123Y-106099400D01*
X107352123Y-108581400D02*
X107352123Y-111757400D01*
X107392123Y-102945400D02*
X107392123Y-106099400D01*
X107392123Y-108581400D02*
X107392123Y-111735400D01*
X107432123Y-102969400D02*
X107432123Y-106099400D01*
X107432123Y-108581400D02*
X107432123Y-111711400D01*
X107472123Y-102993400D02*
X107472123Y-106099400D01*
X107472123Y-108581400D02*
X107472123Y-111687400D01*
X107512123Y-103017400D02*
X107512123Y-106099400D01*
X107512123Y-108581400D02*
X107512123Y-111663400D01*
X107552123Y-103042400D02*
X107552123Y-106099400D01*
X107552123Y-108581400D02*
X107552123Y-111638400D01*
X107592123Y-103067400D02*
X107592123Y-106099400D01*
X107592123Y-108581400D02*
X107592123Y-111613400D01*
X107632123Y-103093400D02*
X107632123Y-106099400D01*
X107632123Y-108581400D02*
X107632123Y-111587400D01*
X107672123Y-103119400D02*
X107672123Y-106099400D01*
X107672123Y-108581400D02*
X107672123Y-111561400D01*
X107712123Y-103146400D02*
X107712123Y-106099400D01*
X107712123Y-108581400D02*
X107712123Y-111534400D01*
X107752123Y-103174400D02*
X107752123Y-106099400D01*
X107752123Y-108581400D02*
X107752123Y-111506400D01*
X107792123Y-103202400D02*
X107792123Y-106099400D01*
X107792123Y-108581400D02*
X107792123Y-111478400D01*
X107832123Y-103230400D02*
X107832123Y-106099400D01*
X107832123Y-108581400D02*
X107832123Y-111450400D01*
X107872123Y-103260400D02*
X107872123Y-106099400D01*
X107872123Y-108581400D02*
X107872123Y-111420400D01*
X107912123Y-103290400D02*
X107912123Y-106099400D01*
X107912123Y-108581400D02*
X107912123Y-111390400D01*
X107952123Y-103320400D02*
X107952123Y-106099400D01*
X107952123Y-108581400D02*
X107952123Y-111360400D01*
X107992123Y-103351400D02*
X107992123Y-106099400D01*
X107992123Y-108581400D02*
X107992123Y-111329400D01*
X108032123Y-103383400D02*
X108032123Y-106099400D01*
X108032123Y-108581400D02*
X108032123Y-111297400D01*
X108072123Y-103415400D02*
X108072123Y-106099400D01*
X108072123Y-108581400D02*
X108072123Y-111265400D01*
X108112123Y-103448400D02*
X108112123Y-106099400D01*
X108112123Y-108581400D02*
X108112123Y-111232400D01*
X108152123Y-103482400D02*
X108152123Y-106099400D01*
X108152123Y-108581400D02*
X108152123Y-111198400D01*
X108192123Y-103516400D02*
X108192123Y-106099400D01*
X108192123Y-108581400D02*
X108192123Y-111164400D01*
X108232123Y-103551400D02*
X108232123Y-106099400D01*
X108232123Y-108581400D02*
X108232123Y-111129400D01*
X108272123Y-103587400D02*
X108272123Y-106099400D01*
X108272123Y-108581400D02*
X108272123Y-111093400D01*
X108312123Y-103624400D02*
X108312123Y-106099400D01*
X108312123Y-108581400D02*
X108312123Y-111056400D01*
X108352123Y-103661400D02*
X108352123Y-106099400D01*
X108352123Y-108581400D02*
X108352123Y-111019400D01*
X108392123Y-103700400D02*
X108392123Y-106099400D01*
X108392123Y-108581400D02*
X108392123Y-110980400D01*
X108432123Y-103739400D02*
X108432123Y-106099400D01*
X108432123Y-108581400D02*
X108432123Y-110941400D01*
X108472123Y-103779400D02*
X108472123Y-106099400D01*
X108472123Y-108581400D02*
X108472123Y-110901400D01*
X108512123Y-103820400D02*
X108512123Y-106099400D01*
X108512123Y-108581400D02*
X108512123Y-110860400D01*
X108552123Y-103862400D02*
X108552123Y-106099400D01*
X108552123Y-108581400D02*
X108552123Y-110818400D01*
X108592123Y-103904400D02*
X108592123Y-110776400D01*
X108632123Y-103948400D02*
X108632123Y-110732400D01*
X108672123Y-103993400D02*
X108672123Y-110687400D01*
X108712123Y-104039400D02*
X108712123Y-110641400D01*
X108752123Y-104086400D02*
X108752123Y-110594400D01*
X108792123Y-104134400D02*
X108792123Y-110546400D01*
X108832123Y-104184400D02*
X108832123Y-110496400D01*
X108872123Y-104234400D02*
X108872123Y-110446400D01*
X108912123Y-104286400D02*
X108912123Y-110394400D01*
X108952123Y-104340400D02*
X108952123Y-110340400D01*
X108992123Y-104395400D02*
X108992123Y-110285400D01*
X109032123Y-104451400D02*
X109032123Y-110229400D01*
X109072123Y-104510400D02*
X109072123Y-110170400D01*
X109112123Y-104570400D02*
X109112123Y-110110400D01*
X109152123Y-104631400D02*
X109152123Y-110049400D01*
X109192123Y-104695400D02*
X109192123Y-109985400D01*
X109232123Y-104761400D02*
X109232123Y-109919400D01*
X109272123Y-104830400D02*
X109272123Y-109850400D01*
X109312123Y-104901400D02*
X109312123Y-109779400D01*
X109352123Y-104975400D02*
X109352123Y-109705400D01*
X109392123Y-105051400D02*
X109392123Y-109629400D01*
X109432123Y-105131400D02*
X109432123Y-109549400D01*
X109472123Y-105215400D02*
X109472123Y-109465400D01*
X109512123Y-105303400D02*
X109512123Y-109377400D01*
X109552123Y-105396400D02*
X109552123Y-109284400D01*
X109592123Y-105494400D02*
X109592123Y-109186400D01*
X109632123Y-105598400D02*
X109632123Y-109082400D01*
X109672123Y-105710400D02*
X109672123Y-108970400D01*
X109712123Y-105830400D02*
X109712123Y-108850400D01*
X109752123Y-105962400D02*
X109752123Y-108718400D01*
X109792123Y-106110400D02*
X109792123Y-108570400D01*
X109832123Y-106278400D02*
X109832123Y-108402400D01*
X109872123Y-106478400D02*
X109872123Y-108202400D01*
X109912123Y-106741400D02*
X109912123Y-107939400D01*
X99351477Y-104465400D02*
X100351477Y-104465400D01*
X99851477Y-103965400D02*
X99851477Y-104965400D01*
%TO.C,C4*%
X97418277Y-107315000D02*
G75*
G03*
X97418277Y-107315000I-5120000J0D01*
G01*
X92298277Y-112395000D02*
X92298277Y-102235000D01*
X92258277Y-112395000D02*
X92258277Y-102235000D01*
X92218277Y-112395000D02*
X92218277Y-102235000D01*
X92178277Y-112394000D02*
X92178277Y-102236000D01*
X92138277Y-112393000D02*
X92138277Y-102237000D01*
X92098277Y-112392000D02*
X92098277Y-102238000D01*
X92058277Y-112390000D02*
X92058277Y-102240000D01*
X92018277Y-112388000D02*
X92018277Y-102242000D01*
X91978277Y-112385000D02*
X91978277Y-102245000D01*
X91938277Y-112383000D02*
X91938277Y-102247000D01*
X91898277Y-112380000D02*
X91898277Y-102250000D01*
X91858277Y-112377000D02*
X91858277Y-102253000D01*
X91818277Y-112373000D02*
X91818277Y-102257000D01*
X91778277Y-112369000D02*
X91778277Y-102261000D01*
X91738277Y-112365000D02*
X91738277Y-102265000D01*
X91698277Y-112360000D02*
X91698277Y-102270000D01*
X91658277Y-112355000D02*
X91658277Y-102275000D01*
X91618277Y-112350000D02*
X91618277Y-102280000D01*
X91577277Y-112345000D02*
X91577277Y-102285000D01*
X91537277Y-112339000D02*
X91537277Y-102291000D01*
X91497277Y-112333000D02*
X91497277Y-102297000D01*
X91457277Y-112326000D02*
X91457277Y-102304000D01*
X91417277Y-112319000D02*
X91417277Y-102311000D01*
X91377277Y-112312000D02*
X91377277Y-102318000D01*
X91337277Y-112305000D02*
X91337277Y-102325000D01*
X91297277Y-112297000D02*
X91297277Y-102333000D01*
X91257277Y-112289000D02*
X91257277Y-102341000D01*
X91217277Y-112280000D02*
X91217277Y-102350000D01*
X91177277Y-112271000D02*
X91177277Y-102359000D01*
X91137277Y-112262000D02*
X91137277Y-102368000D01*
X91097277Y-112253000D02*
X91097277Y-102377000D01*
X91057277Y-112243000D02*
X91057277Y-102387000D01*
X91017277Y-112233000D02*
X91017277Y-108556000D01*
X91017277Y-106074000D02*
X91017277Y-102397000D01*
X90977277Y-112222000D02*
X90977277Y-108556000D01*
X90977277Y-106074000D02*
X90977277Y-102408000D01*
X90937277Y-112212000D02*
X90937277Y-108556000D01*
X90937277Y-106074000D02*
X90937277Y-102418000D01*
X90897277Y-112200000D02*
X90897277Y-108556000D01*
X90897277Y-106074000D02*
X90897277Y-102430000D01*
X90857277Y-112189000D02*
X90857277Y-108556000D01*
X90857277Y-106074000D02*
X90857277Y-102441000D01*
X90817277Y-112177000D02*
X90817277Y-108556000D01*
X90817277Y-106074000D02*
X90817277Y-102453000D01*
X90777277Y-112165000D02*
X90777277Y-108556000D01*
X90777277Y-106074000D02*
X90777277Y-102465000D01*
X90737277Y-112152000D02*
X90737277Y-108556000D01*
X90737277Y-106074000D02*
X90737277Y-102478000D01*
X90697277Y-112139000D02*
X90697277Y-108556000D01*
X90697277Y-106074000D02*
X90697277Y-102491000D01*
X90657277Y-112126000D02*
X90657277Y-108556000D01*
X90657277Y-106074000D02*
X90657277Y-102504000D01*
X90617277Y-112112000D02*
X90617277Y-108556000D01*
X90617277Y-106074000D02*
X90617277Y-102518000D01*
X90577277Y-112098000D02*
X90577277Y-108556000D01*
X90577277Y-106074000D02*
X90577277Y-102532000D01*
X90537277Y-112083000D02*
X90537277Y-108556000D01*
X90537277Y-106074000D02*
X90537277Y-102547000D01*
X90497277Y-112069000D02*
X90497277Y-108556000D01*
X90497277Y-106074000D02*
X90497277Y-102561000D01*
X90457277Y-112053000D02*
X90457277Y-108556000D01*
X90457277Y-106074000D02*
X90457277Y-102577000D01*
X90417277Y-112038000D02*
X90417277Y-108556000D01*
X90417277Y-106074000D02*
X90417277Y-102592000D01*
X90377277Y-112022000D02*
X90377277Y-108556000D01*
X90377277Y-106074000D02*
X90377277Y-102608000D01*
X90337277Y-112005000D02*
X90337277Y-108556000D01*
X90337277Y-106074000D02*
X90337277Y-102625000D01*
X90297277Y-111989000D02*
X90297277Y-108556000D01*
X90297277Y-106074000D02*
X90297277Y-102641000D01*
X90257277Y-111972000D02*
X90257277Y-108556000D01*
X90257277Y-106074000D02*
X90257277Y-102658000D01*
X90217277Y-111954000D02*
X90217277Y-108556000D01*
X90217277Y-106074000D02*
X90217277Y-102676000D01*
X90177277Y-111936000D02*
X90177277Y-108556000D01*
X90177277Y-106074000D02*
X90177277Y-102694000D01*
X90137277Y-111918000D02*
X90137277Y-108556000D01*
X90137277Y-106074000D02*
X90137277Y-102712000D01*
X90097277Y-111899000D02*
X90097277Y-108556000D01*
X90097277Y-106074000D02*
X90097277Y-102731000D01*
X90057277Y-111879000D02*
X90057277Y-108556000D01*
X90057277Y-106074000D02*
X90057277Y-102751000D01*
X90017277Y-111860000D02*
X90017277Y-108556000D01*
X90017277Y-106074000D02*
X90017277Y-102770000D01*
X89977277Y-111840000D02*
X89977277Y-108556000D01*
X89977277Y-106074000D02*
X89977277Y-102790000D01*
X89937277Y-111819000D02*
X89937277Y-108556000D01*
X89937277Y-106074000D02*
X89937277Y-102811000D01*
X89897277Y-111798000D02*
X89897277Y-108556000D01*
X89897277Y-106074000D02*
X89897277Y-102832000D01*
X89857277Y-111777000D02*
X89857277Y-108556000D01*
X89857277Y-106074000D02*
X89857277Y-102853000D01*
X89817277Y-111755000D02*
X89817277Y-108556000D01*
X89817277Y-106074000D02*
X89817277Y-102875000D01*
X89777277Y-111732000D02*
X89777277Y-108556000D01*
X89777277Y-106074000D02*
X89777277Y-102898000D01*
X89737277Y-111710000D02*
X89737277Y-108556000D01*
X89737277Y-106074000D02*
X89737277Y-102920000D01*
X89697277Y-111686000D02*
X89697277Y-108556000D01*
X89697277Y-106074000D02*
X89697277Y-102944000D01*
X89657277Y-111662000D02*
X89657277Y-108556000D01*
X89657277Y-106074000D02*
X89657277Y-102968000D01*
X89617277Y-111638000D02*
X89617277Y-108556000D01*
X89617277Y-106074000D02*
X89617277Y-102992000D01*
X89577277Y-111613000D02*
X89577277Y-108556000D01*
X89577277Y-106074000D02*
X89577277Y-103017000D01*
X89537277Y-111588000D02*
X89537277Y-108556000D01*
X89537277Y-106074000D02*
X89537277Y-103042000D01*
X89497277Y-111562000D02*
X89497277Y-108556000D01*
X89497277Y-106074000D02*
X89497277Y-103068000D01*
X89457277Y-111536000D02*
X89457277Y-108556000D01*
X89457277Y-106074000D02*
X89457277Y-103094000D01*
X89417277Y-111509000D02*
X89417277Y-108556000D01*
X89417277Y-106074000D02*
X89417277Y-103121000D01*
X89377277Y-111481000D02*
X89377277Y-108556000D01*
X89377277Y-106074000D02*
X89377277Y-103149000D01*
X89337277Y-111453000D02*
X89337277Y-108556000D01*
X89337277Y-106074000D02*
X89337277Y-103177000D01*
X89297277Y-111425000D02*
X89297277Y-108556000D01*
X89297277Y-106074000D02*
X89297277Y-103205000D01*
X89257277Y-111395000D02*
X89257277Y-108556000D01*
X89257277Y-106074000D02*
X89257277Y-103235000D01*
X89217277Y-111365000D02*
X89217277Y-108556000D01*
X89217277Y-106074000D02*
X89217277Y-103265000D01*
X89177277Y-111335000D02*
X89177277Y-108556000D01*
X89177277Y-106074000D02*
X89177277Y-103295000D01*
X89137277Y-111304000D02*
X89137277Y-108556000D01*
X89137277Y-106074000D02*
X89137277Y-103326000D01*
X89097277Y-111272000D02*
X89097277Y-108556000D01*
X89097277Y-106074000D02*
X89097277Y-103358000D01*
X89057277Y-111240000D02*
X89057277Y-108556000D01*
X89057277Y-106074000D02*
X89057277Y-103390000D01*
X89017277Y-111207000D02*
X89017277Y-108556000D01*
X89017277Y-106074000D02*
X89017277Y-103423000D01*
X88977277Y-111173000D02*
X88977277Y-108556000D01*
X88977277Y-106074000D02*
X88977277Y-103457000D01*
X88937277Y-111139000D02*
X88937277Y-108556000D01*
X88937277Y-106074000D02*
X88937277Y-103491000D01*
X88897277Y-111104000D02*
X88897277Y-108556000D01*
X88897277Y-106074000D02*
X88897277Y-103526000D01*
X88857277Y-111068000D02*
X88857277Y-108556000D01*
X88857277Y-106074000D02*
X88857277Y-103562000D01*
X88817277Y-111031000D02*
X88817277Y-108556000D01*
X88817277Y-106074000D02*
X88817277Y-103599000D01*
X88777277Y-110994000D02*
X88777277Y-108556000D01*
X88777277Y-106074000D02*
X88777277Y-103636000D01*
X88737277Y-110955000D02*
X88737277Y-108556000D01*
X88737277Y-106074000D02*
X88737277Y-103675000D01*
X88697277Y-110916000D02*
X88697277Y-108556000D01*
X88697277Y-106074000D02*
X88697277Y-103714000D01*
X88657277Y-110876000D02*
X88657277Y-108556000D01*
X88657277Y-106074000D02*
X88657277Y-103754000D01*
X88617277Y-110835000D02*
X88617277Y-108556000D01*
X88617277Y-106074000D02*
X88617277Y-103795000D01*
X88577277Y-110793000D02*
X88577277Y-108556000D01*
X88577277Y-106074000D02*
X88577277Y-103837000D01*
X88537277Y-110751000D02*
X88537277Y-103879000D01*
X88497277Y-110707000D02*
X88497277Y-103923000D01*
X88457277Y-110662000D02*
X88457277Y-103968000D01*
X88417277Y-110616000D02*
X88417277Y-104014000D01*
X88377277Y-110569000D02*
X88377277Y-104061000D01*
X88337277Y-110521000D02*
X88337277Y-104109000D01*
X88297277Y-110471000D02*
X88297277Y-104159000D01*
X88257277Y-110421000D02*
X88257277Y-104209000D01*
X88217277Y-110369000D02*
X88217277Y-104261000D01*
X88177277Y-110315000D02*
X88177277Y-104315000D01*
X88137277Y-110260000D02*
X88137277Y-104370000D01*
X88097277Y-110204000D02*
X88097277Y-104426000D01*
X88057277Y-110145000D02*
X88057277Y-104485000D01*
X88017277Y-110085000D02*
X88017277Y-104545000D01*
X87977277Y-110024000D02*
X87977277Y-104606000D01*
X87937277Y-109960000D02*
X87937277Y-104670000D01*
X87897277Y-109894000D02*
X87897277Y-104736000D01*
X87857277Y-109825000D02*
X87857277Y-104805000D01*
X87817277Y-109754000D02*
X87817277Y-104876000D01*
X87777277Y-109680000D02*
X87777277Y-104950000D01*
X87737277Y-109604000D02*
X87737277Y-105026000D01*
X87697277Y-109524000D02*
X87697277Y-105106000D01*
X87657277Y-109440000D02*
X87657277Y-105190000D01*
X87617277Y-109352000D02*
X87617277Y-105278000D01*
X87577277Y-109259000D02*
X87577277Y-105371000D01*
X87537277Y-109161000D02*
X87537277Y-105469000D01*
X87497277Y-109057000D02*
X87497277Y-105573000D01*
X87457277Y-108945000D02*
X87457277Y-105685000D01*
X87417277Y-108825000D02*
X87417277Y-105805000D01*
X87377277Y-108693000D02*
X87377277Y-105937000D01*
X87337277Y-108545000D02*
X87337277Y-106085000D01*
X87297277Y-108377000D02*
X87297277Y-106253000D01*
X87257277Y-108177000D02*
X87257277Y-106453000D01*
X87217277Y-107914000D02*
X87217277Y-106716000D01*
X97777923Y-110190000D02*
X96777923Y-110190000D01*
X97277923Y-110690000D02*
X97277923Y-109690000D01*
%TO.C,C1*%
X137160000Y-96350000D02*
X137160000Y-97040000D01*
X135740000Y-97040000D02*
X135740000Y-101080000D01*
X137160000Y-101770000D02*
X137160000Y-101080000D01*
X138580000Y-97040000D02*
X135740000Y-97040000D01*
X135740000Y-101080000D02*
X138580000Y-101080000D01*
X138580000Y-101080000D02*
X138580000Y-97040000D01*
%TO.C,J2*%
X157027000Y-92480501D02*
X157027000Y-77226500D01*
X157027000Y-77226500D02*
X147773000Y-77226500D01*
X147773000Y-77226500D02*
X147773000Y-92480501D01*
X147773000Y-92480501D02*
X157027000Y-92480501D01*
X153281000Y-75448500D02*
G75*
G03*
X153281000Y-75448500I-381000J0D01*
G01*
%TO.C,Q3*%
X113770000Y-85670000D02*
X117370000Y-85670000D01*
X115570000Y-81219999D02*
G75*
G03*
X113731522Y-85658478I0J-2600001D01*
G01*
X117408478Y-85658478D02*
G75*
G03*
X115570000Y-81220000I-1838478J1838478D01*
G01*
%TO.C,J1*%
X93718000Y-71743900D02*
G75*
G03*
X93718000Y-71743900I-381000J0D01*
G01*
X88210000Y-73521899D02*
X88210000Y-98775900D01*
X88210000Y-98775900D02*
X97464000Y-98775900D01*
X97464000Y-73521899D02*
X88210000Y-73521899D01*
X97464000Y-98775900D02*
X97464000Y-73521899D01*
%TO.C,R7*%
X143994000Y-79806800D02*
X143224000Y-79806800D01*
X136684000Y-78436800D02*
X136684000Y-81176800D01*
X143224000Y-81176800D02*
X143224000Y-78436800D01*
X135914000Y-79806800D02*
X136684000Y-79806800D01*
X136684000Y-81176800D02*
X143224000Y-81176800D01*
X143224000Y-78436800D02*
X136684000Y-78436800D01*
%TO.C,C3*%
X124340800Y-108534200D02*
X125030800Y-108534200D01*
X125030800Y-107114200D02*
X125030800Y-109954200D01*
X129760800Y-108534200D02*
X129070800Y-108534200D01*
X125030800Y-109954200D02*
X129070800Y-109954200D01*
X129070800Y-109954200D02*
X129070800Y-107114200D01*
X129070800Y-107114200D02*
X125030800Y-107114200D01*
%TO.C,R4*%
X101860600Y-77217600D02*
X101860600Y-79957600D01*
X108400600Y-79957600D02*
X108400600Y-77217600D01*
X101090600Y-78587600D02*
X101860600Y-78587600D01*
X101860600Y-79957600D02*
X108400600Y-79957600D01*
X109170600Y-78587600D02*
X108400600Y-78587600D01*
X108400600Y-77217600D02*
X101860600Y-77217600D01*
%TO.C,R8*%
X134950200Y-91543000D02*
X134950200Y-90773000D01*
X136320200Y-90773000D02*
X136320200Y-84233000D01*
X133580200Y-90773000D02*
X136320200Y-90773000D01*
X136320200Y-84233000D02*
X133580200Y-84233000D01*
X133580200Y-84233000D02*
X133580200Y-90773000D01*
X134950200Y-83463000D02*
X134950200Y-84233000D01*
%TO.C,U1*%
X132130000Y-98065000D02*
G75*
G03*
X132130000Y-100065000I0J-1000000D01*
G01*
X121850000Y-102300000D02*
X132130000Y-102300000D01*
X132130000Y-102300000D02*
X132130000Y-100065000D01*
X132130000Y-95830000D02*
X121850000Y-95830000D01*
X132130000Y-98065000D02*
X132130000Y-95830000D01*
X121850000Y-95830000D02*
X121850000Y-102300000D01*
%TO.C,C2*%
X113651600Y-95374600D02*
X117691600Y-95374600D01*
X112961600Y-93954600D02*
X113651600Y-93954600D01*
X117691600Y-95374600D02*
X117691600Y-92534600D01*
X113651600Y-92534600D02*
X113651600Y-95374600D01*
X118381600Y-93954600D02*
X117691600Y-93954600D01*
X117691600Y-92534600D02*
X113651600Y-92534600D01*
%TO.C,R9*%
X101192200Y-88036400D02*
X101962200Y-88036400D01*
X108502200Y-86666400D02*
X101962200Y-86666400D01*
X108502200Y-89406400D02*
X108502200Y-86666400D01*
X101962200Y-86666400D02*
X101962200Y-89406400D01*
X109272200Y-88036400D02*
X108502200Y-88036400D01*
X101962200Y-89406400D02*
X108502200Y-89406400D01*
%TO.C,R3*%
X125755400Y-90120600D02*
X125755400Y-89350600D01*
X127125400Y-89350600D02*
X127125400Y-82810600D01*
X125755400Y-82040600D02*
X125755400Y-82810600D01*
X124385400Y-89350600D02*
X127125400Y-89350600D01*
X127125400Y-82810600D02*
X124385400Y-82810600D01*
X124385400Y-82810600D02*
X124385400Y-89350600D01*
%TO.C,R6*%
X143941800Y-89762200D02*
X143941800Y-90532200D01*
X145311800Y-97072200D02*
X145311800Y-90532200D01*
X145311800Y-90532200D02*
X142571800Y-90532200D01*
X143941800Y-97842200D02*
X143941800Y-97072200D01*
X142571800Y-97072200D02*
X145311800Y-97072200D01*
X142571800Y-90532200D02*
X142571800Y-97072200D01*
%TD*%
M02*
