%TF.GenerationSoftware,KiCad,Pcbnew,(6.0.0)*%
%TF.CreationDate,2022-02-03T13:38:36-05:00*%
%TF.ProjectId,PID_electronics,5049445f-656c-4656-9374-726f6e696373,rev?*%
%TF.SameCoordinates,Original*%
%TF.FileFunction,Soldermask,Top*%
%TF.FilePolarity,Negative*%
%FSLAX46Y46*%
G04 Gerber Fmt 4.6, Leading zero omitted, Abs format (unit mm)*
G04 Created by KiCad (PCBNEW (6.0.0)) date 2022-02-03 13:38:36*
%MOMM*%
%LPD*%
G01*
G04 APERTURE LIST*
%ADD10C,1.500000*%
%ADD11R,1.500000X1.500000*%
%ADD12C,3.100000*%
%ADD13C,1.600000*%
%ADD14O,1.600000X1.600000*%
%ADD15R,2.000000X2.000000*%
%ADD16C,2.000000*%
%ADD17C,1.803400*%
%ADD18C,2.500000*%
%ADD19R,1.600000X2.400000*%
%ADD20O,1.600000X2.400000*%
G04 APERTURE END LIST*
D10*
%TO.C,Q3*%
X115740000Y-83600000D03*
X118280000Y-83600000D03*
D11*
X113200000Y-83600000D03*
%TD*%
D12*
%TO.C,REF\u002A\u002A*%
X89585800Y-109067600D03*
%TD*%
D13*
%TO.C,C2*%
X111850000Y-95550000D03*
D14*
X119350000Y-95550000D03*
%TD*%
D13*
%TO.C,R10*%
X157734000Y-100787200D03*
D14*
X147574000Y-100787200D03*
%TD*%
D13*
%TO.C,C1*%
X134899400Y-101794000D03*
D14*
X134899400Y-94294000D03*
%TD*%
D15*
%TO.C,C5*%
X108585000Y-107442000D03*
D16*
X113585000Y-107442000D03*
%TD*%
D17*
%TO.C,J2*%
X152900000Y-79853500D03*
X152900000Y-84853500D03*
X152900000Y-89853500D03*
%TD*%
D18*
%TO.C,REF\u002A\u002A*%
X145034000Y-75361800D03*
%TD*%
D15*
%TO.C,C4*%
X101052154Y-107416600D03*
D16*
X96052154Y-107416600D03*
%TD*%
D13*
%TO.C,C7*%
X130800800Y-109575600D03*
D14*
X123300800Y-109575600D03*
%TD*%
D17*
%TO.C,J1*%
X94708600Y-77774499D03*
X94708600Y-82774499D03*
X94708600Y-87774499D03*
X94708600Y-92774500D03*
X94708600Y-97774500D03*
%TD*%
D13*
%TO.C,R7*%
X134874000Y-79806800D03*
D14*
X145034000Y-79806800D03*
%TD*%
D13*
%TO.C,C3*%
X130800800Y-105791000D03*
D14*
X123300800Y-105791000D03*
%TD*%
D13*
%TO.C,R4*%
X112064800Y-77368400D03*
D14*
X101904800Y-77368400D03*
%TD*%
D13*
%TO.C,R8*%
X134899400Y-83489800D03*
D14*
X145059400Y-83489800D03*
%TD*%
D12*
%TO.C,REF\u002A\u002A*%
X89585800Y-72390000D03*
%TD*%
D19*
%TO.C,U1*%
X130800000Y-93985000D03*
D20*
X128260000Y-93985000D03*
X125720000Y-93985000D03*
X123180000Y-93985000D03*
X123180000Y-101605000D03*
X125720000Y-101605000D03*
X128260000Y-101605000D03*
X130800000Y-101605000D03*
%TD*%
D13*
%TO.C,C8*%
X111845400Y-92100400D03*
D14*
X119345400Y-92100400D03*
%TD*%
%TO.C,R9*%
X106045000Y-91922600D03*
D13*
X106045000Y-81762600D03*
%TD*%
%TO.C,R3*%
X125755400Y-81000600D03*
D14*
X125755400Y-91160600D03*
%TD*%
D18*
%TO.C,REF\u002A\u002A*%
X121767600Y-80975200D03*
%TD*%
%TO.C,REF\u002A\u002A*%
X110350000Y-87200000D03*
%TD*%
D13*
%TO.C,R2*%
X130784600Y-80467200D03*
D14*
X130784600Y-90627200D03*
%TD*%
D12*
%TO.C,REF\u002A\u002A*%
X154863800Y-109067600D03*
%TD*%
%TO.C,REF\u002A\u002A*%
X154863800Y-72390000D03*
%TD*%
D13*
%TO.C,R6*%
X143941800Y-98882200D03*
D14*
X143941800Y-88722200D03*
%TD*%
D13*
%TO.C,R1*%
X120624600Y-77368400D03*
D14*
X130784600Y-77368400D03*
%TD*%
D15*
%TO.C,C6*%
X146893677Y-107162600D03*
D16*
X141893677Y-107162600D03*
%TD*%
D18*
%TO.C,REF\u002A\u002A*%
X139522200Y-88900000D03*
%TD*%
M02*
