%TF.GenerationSoftware,KiCad,Pcbnew,(6.0.0)*%
%TF.CreationDate,2022-01-14T13:40:46-05:00*%
%TF.ProjectId,PID_electronics,5049445f-656c-4656-9374-726f6e696373,rev?*%
%TF.SameCoordinates,Original*%
%TF.FileFunction,Copper,L2,Bot*%
%TF.FilePolarity,Positive*%
%FSLAX46Y46*%
G04 Gerber Fmt 4.6, Leading zero omitted, Abs format (unit mm)*
G04 Created by KiCad (PCBNEW (6.0.0)) date 2022-01-14 13:40:46*
%MOMM*%
%LPD*%
G01*
G04 APERTURE LIST*
%TA.AperFunction,ComponentPad*%
%ADD10C,1.600000*%
%TD*%
%TA.AperFunction,ComponentPad*%
%ADD11O,1.600000X1.600000*%
%TD*%
%TA.AperFunction,ComponentPad*%
%ADD12C,1.803400*%
%TD*%
%TA.AperFunction,ComponentPad*%
%ADD13R,1.050000X1.500000*%
%TD*%
%TA.AperFunction,ComponentPad*%
%ADD14O,1.050000X1.500000*%
%TD*%
%TA.AperFunction,ComponentPad*%
%ADD15R,1.600000X2.400000*%
%TD*%
%TA.AperFunction,ComponentPad*%
%ADD16O,1.600000X2.400000*%
%TD*%
G04 APERTURE END LIST*
D10*
%TO.P,C1,1*%
%TO.N,Net-(C1-Pad1)*%
X137160000Y-102810000D03*
D11*
%TO.P,C1,2*%
%TO.N,Net-(C1-Pad2)*%
X137160000Y-95310000D03*
%TD*%
D12*
%TO.P,J2,1,Pin_1*%
%TO.N,Net-(J2-Pad1)*%
X152900000Y-79853500D03*
%TO.P,J2,2,Pin_2*%
%TO.N,Net-(J2-Pad2)*%
X152900000Y-84853500D03*
%TO.P,J2,3,Pin_3*%
%TO.N,GNDREF*%
X152900000Y-89853500D03*
%TD*%
D13*
%TO.P,Q3,1,S*%
%TO.N,GNDREF*%
X114300000Y-83820000D03*
D14*
%TO.P,Q3,2,G*%
%TO.N,Net-(J1-Pad2)*%
X115570000Y-83820000D03*
%TO.P,Q3,3,D*%
%TO.N,Net-(Q3-Pad3)*%
X116840000Y-83820000D03*
%TD*%
D12*
%TO.P,J1,1,Pin_1*%
%TO.N,Net-(J1-Pad1)*%
X86360000Y-76360000D03*
%TO.P,J1,2,Pin_2*%
%TO.N,Net-(J1-Pad2)*%
X86360000Y-81360000D03*
%TO.P,J1,3,Pin_3*%
%TO.N,GNDREF*%
X86360000Y-86360000D03*
%TO.P,J1,4,Pin_4*%
%TO.N,-15V*%
X86360000Y-91360001D03*
%TO.P,J1,5,Pin_5*%
%TO.N,+15V*%
X86360000Y-96360001D03*
%TD*%
D10*
%TO.P,R7,1*%
%TO.N,Net-(C1-Pad2)*%
X137160000Y-91440000D03*
D11*
%TO.P,R7,2*%
%TO.N,Net-(J2-Pad1)*%
X137160000Y-76200000D03*
%TD*%
D10*
%TO.P,C3,1*%
%TO.N,+15V*%
X112970000Y-106680000D03*
D11*
%TO.P,C3,2*%
%TO.N,GNDREF*%
X105470000Y-106680000D03*
%TD*%
D10*
%TO.P,R4,1*%
%TO.N,Net-(J1-Pad1)*%
X109220000Y-73660000D03*
D11*
%TO.P,R4,2*%
%TO.N,GNDREF*%
X93980000Y-73660000D03*
%TD*%
D10*
%TO.P,R8,1*%
%TO.N,Net-(C1-Pad2)*%
X119380000Y-99060000D03*
D11*
%TO.P,R8,2*%
%TO.N,GNDREF*%
X104140000Y-99060000D03*
%TD*%
D15*
%TO.P,U1,1*%
%TO.N,Net-(R2-Pad2)*%
X130800000Y-93985000D03*
D16*
%TO.P,U1,2,-*%
%TO.N,Net-(R1-Pad2)*%
X128260000Y-93985000D03*
%TO.P,U1,3,+*%
%TO.N,Net-(Q3-Pad3)*%
X125720000Y-93985000D03*
%TO.P,U1,4,V-*%
%TO.N,-15V*%
X123180000Y-93985000D03*
%TO.P,U1,5,+*%
%TO.N,Net-(R2-Pad2)*%
X123180000Y-104145000D03*
%TO.P,U1,6,-*%
%TO.N,Net-(C1-Pad2)*%
X125720000Y-104145000D03*
%TO.P,U1,7*%
%TO.N,Net-(C1-Pad1)*%
X128260000Y-104145000D03*
%TO.P,U1,8,V+*%
%TO.N,+15V*%
X130800000Y-104145000D03*
%TD*%
D10*
%TO.P,C2,1*%
%TO.N,GNDREF*%
X108010000Y-93980000D03*
D11*
%TO.P,C2,2*%
%TO.N,-15V*%
X115510000Y-93980000D03*
%TD*%
D10*
%TO.P,R9,1*%
%TO.N,Net-(J1-Pad2)*%
X109220000Y-81280000D03*
D11*
%TO.P,R9,2*%
%TO.N,GNDREF*%
X93980000Y-81280000D03*
%TD*%
D10*
%TO.P,R3,1*%
%TO.N,Net-(J1-Pad1)*%
X121920000Y-73660000D03*
D11*
%TO.P,R3,2*%
%TO.N,Net-(Q3-Pad3)*%
X121920000Y-88900000D03*
%TD*%
D10*
%TO.P,R2,1*%
%TO.N,Net-(R1-Pad2)*%
X129540000Y-73660000D03*
D11*
%TO.P,R2,2*%
%TO.N,Net-(R2-Pad2)*%
X129540000Y-88900000D03*
%TD*%
D10*
%TO.P,R6,1*%
%TO.N,Net-(C1-Pad1)*%
X142240000Y-99060000D03*
D11*
%TO.P,R6,2*%
%TO.N,Net-(J2-Pad2)*%
X142240000Y-83820000D03*
%TD*%
D10*
%TO.P,R1,1*%
%TO.N,Net-(J1-Pad1)*%
X114300000Y-68580000D03*
D11*
%TO.P,R1,2*%
%TO.N,Net-(R1-Pad2)*%
X129540000Y-68580000D03*
%TD*%
M02*
