%TF.GenerationSoftware,KiCad,Pcbnew,(6.0.0)*%
%TF.CreationDate,2022-02-02T10:45:07-05:00*%
%TF.ProjectId,PID_electronics,5049445f-656c-4656-9374-726f6e696373,rev?*%
%TF.SameCoordinates,Original*%
%TF.FileFunction,Soldermask,Bot*%
%TF.FilePolarity,Negative*%
%FSLAX46Y46*%
G04 Gerber Fmt 4.6, Leading zero omitted, Abs format (unit mm)*
G04 Created by KiCad (PCBNEW (6.0.0)) date 2022-02-02 10:45:07*
%MOMM*%
%LPD*%
G01*
G04 APERTURE LIST*
G04 Aperture macros list*
%AMRoundRect*
0 Rectangle with rounded corners*
0 $1 Rounding radius*
0 $2 $3 $4 $5 $6 $7 $8 $9 X,Y pos of 4 corners*
0 Add a 4 corners polygon primitive as box body*
4,1,4,$2,$3,$4,$5,$6,$7,$8,$9,$2,$3,0*
0 Add four circle primitives for the rounded corners*
1,1,$1+$1,$2,$3*
1,1,$1+$1,$4,$5*
1,1,$1+$1,$6,$7*
1,1,$1+$1,$8,$9*
0 Add four rect primitives between the rounded corners*
20,1,$1+$1,$2,$3,$4,$5,0*
20,1,$1+$1,$4,$5,$6,$7,0*
20,1,$1+$1,$6,$7,$8,$9,0*
20,1,$1+$1,$8,$9,$2,$3,0*%
G04 Aperture macros list end*
%ADD10C,2.500000*%
%ADD11C,5.000000*%
%ADD12RoundRect,0.275000X-0.275000X-0.625000X0.275000X-0.625000X0.275000X0.625000X-0.275000X0.625000X0*%
%ADD13R,1.100000X1.800000*%
%ADD14C,1.600000*%
%ADD15O,1.600000X1.600000*%
%ADD16R,2.000000X2.000000*%
%ADD17C,2.000000*%
%ADD18C,1.803400*%
%ADD19O,1.600000X2.400000*%
%ADD20R,1.600000X2.400000*%
G04 APERTURE END LIST*
D10*
%TO.C,REF\u002A\u002A*%
X121767600Y-80975200D03*
%TD*%
%TO.C,REF\u002A\u002A*%
X145034000Y-75361800D03*
%TD*%
%TO.C,REF\u002A\u002A*%
X139522200Y-88900000D03*
%TD*%
%TO.C,REF\u002A\u002A*%
X114376200Y-88646000D03*
%TD*%
D11*
%TO.C,REF\u002A\u002A*%
X135661400Y-74404000D03*
%TD*%
%TO.C,REF\u002A\u002A*%
X137769600Y-110490000D03*
%TD*%
%TO.C,REF\u002A\u002A*%
X115849400Y-110490000D03*
%TD*%
D12*
%TO.C,Q3*%
X115570000Y-82150000D03*
X116840000Y-84220000D03*
D13*
X114300000Y-84220000D03*
%TD*%
D14*
%TO.C,R10*%
X155143200Y-95656400D03*
D15*
X155143200Y-105816400D03*
%TD*%
D14*
%TO.C,C1*%
X134899400Y-101794000D03*
D15*
X134899400Y-94294000D03*
%TD*%
D16*
%TO.C,C5*%
X102331123Y-107340400D03*
D17*
X107331123Y-107340400D03*
%TD*%
D18*
%TO.C,J2*%
X152900000Y-79853500D03*
X152900000Y-84853500D03*
X152900000Y-89853500D03*
%TD*%
D16*
%TO.C,C4*%
X94798277Y-107315000D03*
D17*
X89798277Y-107315000D03*
%TD*%
D14*
%TO.C,C7*%
X130800800Y-109575600D03*
D15*
X123300800Y-109575600D03*
%TD*%
D18*
%TO.C,J1*%
X93337000Y-76148899D03*
X93337000Y-81148899D03*
X93337000Y-86148899D03*
X93337000Y-91148900D03*
X93337000Y-96148900D03*
%TD*%
D14*
%TO.C,R7*%
X134874000Y-79806800D03*
D15*
X145034000Y-79806800D03*
%TD*%
D14*
%TO.C,C3*%
X130800800Y-105791000D03*
D15*
X123300800Y-105791000D03*
%TD*%
D14*
%TO.C,R4*%
X110210600Y-78587600D03*
D15*
X100050600Y-78587600D03*
%TD*%
D14*
%TO.C,R8*%
X134899400Y-83489800D03*
D15*
X145059400Y-83489800D03*
%TD*%
D19*
%TO.C,U1*%
X130800000Y-101605000D03*
X128260000Y-101605000D03*
X125720000Y-101605000D03*
X123180000Y-101605000D03*
X123180000Y-93985000D03*
X125720000Y-93985000D03*
X128260000Y-93985000D03*
D20*
X130800000Y-93985000D03*
%TD*%
D14*
%TO.C,C8*%
X111820000Y-98094800D03*
D15*
X119320000Y-98094800D03*
%TD*%
D14*
%TO.C,C2*%
X111921600Y-93954600D03*
D15*
X119421600Y-93954600D03*
%TD*%
D14*
%TO.C,R9*%
X110312200Y-88036400D03*
D15*
X100152200Y-88036400D03*
%TD*%
D14*
%TO.C,R3*%
X125755400Y-81000600D03*
D15*
X125755400Y-91160600D03*
%TD*%
D14*
%TO.C,R2*%
X130784600Y-80467200D03*
D15*
X130784600Y-90627200D03*
%TD*%
D14*
%TO.C,R6*%
X143941800Y-98882200D03*
D15*
X143941800Y-88722200D03*
%TD*%
D14*
%TO.C,R1*%
X120624600Y-77368400D03*
D15*
X130784600Y-77368400D03*
%TD*%
D16*
%TO.C,C6*%
X148620877Y-105791000D03*
D17*
X143620877Y-105791000D03*
%TD*%
M02*
