%TF.GenerationSoftware,KiCad,Pcbnew,(6.0.0)*%
%TF.CreationDate,2022-02-02T10:45:07-05:00*%
%TF.ProjectId,PID_electronics,5049445f-656c-4656-9374-726f6e696373,rev?*%
%TF.SameCoordinates,Original*%
%TF.FileFunction,Legend,Bot*%
%TF.FilePolarity,Positive*%
%FSLAX46Y46*%
G04 Gerber Fmt 4.6, Leading zero omitted, Abs format (unit mm)*
G04 Created by KiCad (PCBNEW (6.0.0)) date 2022-02-02 10:45:07*
%MOMM*%
%LPD*%
G01*
G04 APERTURE LIST*
%ADD10C,0.300000*%
%ADD11C,0.710000*%
%ADD12C,0.325000*%
%ADD13C,0.150000*%
%ADD14C,0.120000*%
G04 APERTURE END LIST*
D10*
X89516828Y-96410723D02*
X90231114Y-96821437D01*
X89516828Y-97267866D02*
X91016828Y-97080366D01*
X91016828Y-96508937D01*
X90945400Y-96375008D01*
X90873971Y-96312508D01*
X90731114Y-96258937D01*
X90516828Y-96285723D01*
X90373971Y-96375008D01*
X90302542Y-96455366D01*
X90231114Y-96607151D01*
X90231114Y-97178580D01*
X89588257Y-95187508D02*
X89516828Y-95339294D01*
X89516828Y-95625008D01*
X89588257Y-95758937D01*
X89731114Y-95812508D01*
X90302542Y-95741080D01*
X90445400Y-95651794D01*
X90516828Y-95500008D01*
X90516828Y-95214294D01*
X90445400Y-95080366D01*
X90302542Y-95026794D01*
X90159685Y-95044651D01*
X90016828Y-95776794D01*
X89516828Y-94482151D02*
X90516828Y-94357151D01*
X90373971Y-94375008D02*
X90445400Y-94294651D01*
X90516828Y-94142866D01*
X90516828Y-93928580D01*
X90445400Y-93794651D01*
X90302542Y-93741080D01*
X89516828Y-93839294D01*
X90302542Y-93741080D02*
X90445400Y-93651794D01*
X90516828Y-93500008D01*
X90516828Y-93285723D01*
X90445400Y-93151794D01*
X90302542Y-93098223D01*
X89516828Y-93196437D01*
X89588257Y-91901794D02*
X89516828Y-92053580D01*
X89516828Y-92339294D01*
X89588257Y-92473223D01*
X89731114Y-92526794D01*
X90302542Y-92455366D01*
X90445400Y-92366080D01*
X90516828Y-92214294D01*
X90516828Y-91928580D01*
X90445400Y-91794651D01*
X90302542Y-91741080D01*
X90159685Y-91758937D01*
X90016828Y-92491080D01*
X89516828Y-91196437D02*
X90516828Y-91071437D01*
X90373971Y-91089294D02*
X90445400Y-91008937D01*
X90516828Y-90857151D01*
X90516828Y-90642866D01*
X90445400Y-90508937D01*
X90302542Y-90455366D01*
X89516828Y-90553580D01*
X90302542Y-90455366D02*
X90445400Y-90366080D01*
X90516828Y-90214294D01*
X90516828Y-90000008D01*
X90445400Y-89866080D01*
X90302542Y-89812508D01*
X89516828Y-89910723D01*
X89516828Y-89196437D02*
X91016828Y-89008937D01*
X90445400Y-89080366D02*
X90516828Y-88928580D01*
X90516828Y-88642866D01*
X90445400Y-88508937D01*
X90373971Y-88446437D01*
X90231114Y-88392866D01*
X89802542Y-88446437D01*
X89659685Y-88535723D01*
X89588257Y-88616080D01*
X89516828Y-88767866D01*
X89516828Y-89053580D01*
X89588257Y-89187508D01*
X89588257Y-87258937D02*
X89516828Y-87410723D01*
X89516828Y-87696437D01*
X89588257Y-87830366D01*
X89731114Y-87883937D01*
X90302542Y-87812508D01*
X90445400Y-87723223D01*
X90516828Y-87571437D01*
X90516828Y-87285723D01*
X90445400Y-87151794D01*
X90302542Y-87098223D01*
X90159685Y-87116080D01*
X90016828Y-87848223D01*
X89516828Y-86553580D02*
X90516828Y-86428580D01*
X90231114Y-86464294D02*
X90373971Y-86375008D01*
X90445400Y-86294651D01*
X90516828Y-86142866D01*
X90516828Y-86000008D01*
X90516828Y-84571437D02*
X90516828Y-84000008D01*
X91016828Y-84294651D02*
X89731114Y-84455366D01*
X89588257Y-84401794D01*
X89516828Y-84267866D01*
X89516828Y-84125008D01*
X89516828Y-83625008D02*
X91016828Y-83437508D01*
X89516828Y-82982151D02*
X90302542Y-82883937D01*
X90445400Y-82937508D01*
X90516828Y-83071437D01*
X90516828Y-83285723D01*
X90445400Y-83437508D01*
X90373971Y-83517866D01*
X89588257Y-81687508D02*
X89516828Y-81839294D01*
X89516828Y-82125008D01*
X89588257Y-82258937D01*
X89731114Y-82312508D01*
X90302542Y-82241080D01*
X90445400Y-82151794D01*
X90516828Y-82000008D01*
X90516828Y-81714294D01*
X90445400Y-81580366D01*
X90302542Y-81526794D01*
X90159685Y-81544651D01*
X90016828Y-82276794D01*
X89659685Y-78964294D02*
X89588257Y-79044651D01*
X89516828Y-79267866D01*
X89516828Y-79410723D01*
X89588257Y-79616080D01*
X89731114Y-79741080D01*
X89873971Y-79794651D01*
X90159685Y-79830366D01*
X90373971Y-79803580D01*
X90659685Y-79696437D01*
X90802542Y-79607151D01*
X90945400Y-79446437D01*
X91016828Y-79223223D01*
X91016828Y-79080366D01*
X90945400Y-78875008D01*
X90873971Y-78812508D01*
X89516828Y-77696437D02*
X90302542Y-77598223D01*
X90445400Y-77651794D01*
X90516828Y-77785723D01*
X90516828Y-78071437D01*
X90445400Y-78223223D01*
X89588257Y-77687508D02*
X89516828Y-77839294D01*
X89516828Y-78196437D01*
X89588257Y-78330366D01*
X89731114Y-78383937D01*
X89873971Y-78366080D01*
X90016828Y-78276794D01*
X90088257Y-78125008D01*
X90088257Y-77767866D01*
X90159685Y-77616080D01*
X90516828Y-76857151D02*
X89516828Y-76982151D01*
X90373971Y-76875008D02*
X90445400Y-76794651D01*
X90516828Y-76642866D01*
X90516828Y-76428580D01*
X90445400Y-76294651D01*
X90302542Y-76241080D01*
X89516828Y-76339294D01*
X90516828Y-75714294D02*
X90516828Y-75142866D01*
X91016828Y-75437508D02*
X89731114Y-75598223D01*
X89588257Y-75544651D01*
X89516828Y-75410723D01*
X89516828Y-75267866D01*
D11*
X104012400Y-95529400D02*
G75*
G03*
X104012400Y-95529400I-355000J0D01*
G01*
D12*
X107239479Y-95529400D02*
G75*
G03*
X107239479Y-95529400I-162500J0D01*
G01*
D13*
X107076980Y-95529400D02*
G75*
G03*
X107076980Y-95529400I-3419580J0D01*
G01*
D14*
%TO.C,J2*%
X153281000Y-75448500D02*
G75*
G03*
X153281000Y-75448500I-381000J0D01*
G01*
%TO.C,J1*%
X93718000Y-71743900D02*
G75*
G03*
X93718000Y-71743900I-381000J0D01*
G01*
%TD*%
M02*
