%TF.GenerationSoftware,KiCad,Pcbnew,(6.0.0)*%
%TF.CreationDate,2022-01-31T18:57:51-05:00*%
%TF.ProjectId,PID_electronics,5049445f-656c-4656-9374-726f6e696373,rev?*%
%TF.SameCoordinates,Original*%
%TF.FileFunction,Soldermask,Top*%
%TF.FilePolarity,Negative*%
%FSLAX46Y46*%
G04 Gerber Fmt 4.6, Leading zero omitted, Abs format (unit mm)*
G04 Created by KiCad (PCBNEW (6.0.0)) date 2022-01-31 18:57:51*
%MOMM*%
%LPD*%
G01*
G04 APERTURE LIST*
%ADD10C,5.000000*%
%ADD11C,1.600000*%
%ADD12O,1.600000X1.600000*%
%ADD13R,2.000000X2.000000*%
%ADD14C,2.000000*%
%ADD15C,1.803400*%
%ADD16R,1.050000X1.500000*%
%ADD17O,1.050000X1.500000*%
%ADD18O,1.600000X2.400000*%
%ADD19R,1.600000X2.400000*%
G04 APERTURE END LIST*
D10*
%TO.C,REF\u002A\u002A*%
X137515600Y-109423200D03*
%TD*%
%TO.C,REF\u002A\u002A*%
X113766600Y-74676000D03*
%TD*%
%TO.C,REF\u002A\u002A*%
X115747800Y-109423200D03*
%TD*%
D11*
%TO.C,R1*%
X120624600Y-77368400D03*
D12*
X130784600Y-77368400D03*
%TD*%
D11*
%TO.C,R2*%
X130784600Y-80467200D03*
D12*
X130784600Y-90627200D03*
%TD*%
D11*
%TO.C,R10*%
X155143200Y-95656400D03*
D12*
X155143200Y-105816400D03*
%TD*%
D13*
%TO.C,C6*%
X148620877Y-105791000D03*
D14*
X143620877Y-105791000D03*
%TD*%
D13*
%TO.C,C5*%
X102331123Y-107340400D03*
D14*
X107331123Y-107340400D03*
%TD*%
D13*
%TO.C,C4*%
X94798277Y-107315000D03*
D14*
X89798277Y-107315000D03*
%TD*%
D11*
%TO.C,C1*%
X137160000Y-102810000D03*
D12*
X137160000Y-95310000D03*
%TD*%
D15*
%TO.C,J2*%
X152900000Y-79853500D03*
X152900000Y-84853500D03*
X152900000Y-89853500D03*
%TD*%
D16*
%TO.C,Q3*%
X114300000Y-83820000D03*
D17*
X115570000Y-83820000D03*
X116840000Y-83820000D03*
%TD*%
D15*
%TO.C,J1*%
X93337000Y-96148900D03*
X93337000Y-91148900D03*
X93337000Y-86148899D03*
X93337000Y-81148899D03*
X93337000Y-76148899D03*
%TD*%
D11*
%TO.C,R7*%
X134874000Y-79806800D03*
D12*
X145034000Y-79806800D03*
%TD*%
%TO.C,C3*%
X123300800Y-108534200D03*
D11*
X130800800Y-108534200D03*
%TD*%
%TO.C,R4*%
X110210600Y-78587600D03*
D12*
X100050600Y-78587600D03*
%TD*%
D11*
%TO.C,R8*%
X134950200Y-82423000D03*
D12*
X134950200Y-92583000D03*
%TD*%
D18*
%TO.C,U1*%
X130800000Y-104145000D03*
X128260000Y-104145000D03*
X125720000Y-104145000D03*
X123180000Y-104145000D03*
X123180000Y-93985000D03*
X125720000Y-93985000D03*
X128260000Y-93985000D03*
D19*
X130800000Y-93985000D03*
%TD*%
D12*
%TO.C,C2*%
X119421600Y-93954600D03*
D11*
X111921600Y-93954600D03*
%TD*%
%TO.C,R9*%
X110312200Y-88036400D03*
D12*
X100152200Y-88036400D03*
%TD*%
D11*
%TO.C,R3*%
X125755400Y-81000600D03*
D12*
X125755400Y-91160600D03*
%TD*%
D11*
%TO.C,R6*%
X143941800Y-98882200D03*
D12*
X143941800Y-88722200D03*
%TD*%
M02*
